<mxfile host="app.diagrams.net" modified="2024-05-07T16:20:21.882Z" agent="Mozilla/5.0 (Windows NT 10.0; Win64; x64) AppleWebKit/537.36 (KHTML, like Gecko) Chrome/124.0.0.0 Safari/537.36" etag="_Pr4_IaqjpqlFEAZa-op" version="24.2.1" type="device">
  <diagram name="Page-1" id="IsIwURZ9HM_jDeHbUqgr">
    <mxGraphModel dx="4327" dy="3049" grid="1" gridSize="10" guides="1" tooltips="1" connect="1" arrows="1" fold="1" page="1" pageScale="1" pageWidth="827" pageHeight="1169" math="0" shadow="1">
      <root>
        <mxCell id="0" />
        <mxCell id="1" parent="0" />
        <mxCell id="jP0ZAHPzeSrmJnEa-QNz-12" value="" style="whiteSpace=wrap;html=1;aspect=fixed;dashed=1;" vertex="1" parent="1">
          <mxGeometry x="-570.01" y="700.13" width="176.87" height="176.87" as="geometry" />
        </mxCell>
        <mxCell id="jP0ZAHPzeSrmJnEa-QNz-13" style="edgeStyle=orthogonalEdgeStyle;rounded=0;orthogonalLoop=1;jettySize=auto;html=1;curved=1;endArrow=none;endFill=0;" edge="1" parent="1" source="jP0ZAHPzeSrmJnEa-QNz-11" target="yI5xxinmUdv7EpqgZZJL-117">
          <mxGeometry relative="1" as="geometry" />
        </mxCell>
        <mxCell id="jP0ZAHPzeSrmJnEa-QNz-11" value="" style="whiteSpace=wrap;html=1;aspect=fixed;dashed=1;" vertex="1" parent="1">
          <mxGeometry x="-800" y="700.13" width="176.87" height="176.87" as="geometry" />
        </mxCell>
        <mxCell id="dv6ONf9dYdXolgblirmu-8" style="edgeStyle=orthogonalEdgeStyle;rounded=0;orthogonalLoop=1;jettySize=auto;html=1;exitX=0.5;exitY=1;exitDx=0;exitDy=0;entryX=0.5;entryY=0;entryDx=0;entryDy=0;" parent="1" source="yI5xxinmUdv7EpqgZZJL-162" target="dv6ONf9dYdXolgblirmu-4" edge="1">
          <mxGeometry relative="1" as="geometry" />
        </mxCell>
        <mxCell id="yI5xxinmUdv7EpqgZZJL-162" value="" style="rounded=1;whiteSpace=wrap;html=1;shadow=1;dashed=1;dashPattern=8 8;fontStyle=1;fontSize=26;" parent="1" vertex="1">
          <mxGeometry x="2890" y="34.5" width="1070" height="271" as="geometry" />
        </mxCell>
        <mxCell id="dv6ONf9dYdXolgblirmu-16" style="edgeStyle=orthogonalEdgeStyle;rounded=0;orthogonalLoop=1;jettySize=auto;html=1;" parent="1" source="yI5xxinmUdv7EpqgZZJL-124" target="yI5xxinmUdv7EpqgZZJL-162" edge="1">
          <mxGeometry relative="1" as="geometry">
            <Array as="points">
              <mxPoint x="1845" y="1110" />
              <mxPoint x="2620" y="1110" />
              <mxPoint x="2620" y="180" />
            </Array>
          </mxGeometry>
        </mxCell>
        <mxCell id="yI5xxinmUdv7EpqgZZJL-124" value="" style="rounded=1;whiteSpace=wrap;html=1;shadow=1;dashed=1;dashPattern=8 8;fontStyle=1;fontSize=26;" parent="1" vertex="1">
          <mxGeometry x="1370" y="50" width="1070" height="970" as="geometry" />
        </mxCell>
        <mxCell id="yI5xxinmUdv7EpqgZZJL-139" value="" style="rounded=1;whiteSpace=wrap;html=1;shadow=1;glass=0;dashed=1;fontStyle=1;fontSize=26;" parent="1" vertex="1">
          <mxGeometry x="1450" y="659" width="900" height="280" as="geometry" />
        </mxCell>
        <mxCell id="yI5xxinmUdv7EpqgZZJL-138" value="" style="rounded=1;whiteSpace=wrap;html=1;shadow=1;glass=0;dashed=1;fontStyle=1;fontSize=26;" parent="1" vertex="1">
          <mxGeometry x="1455" y="150" width="900" height="480" as="geometry" />
        </mxCell>
        <mxCell id="dv6ONf9dYdXolgblirmu-13" style="edgeStyle=orthogonalEdgeStyle;rounded=0;orthogonalLoop=1;jettySize=auto;html=1;exitX=0.5;exitY=1;exitDx=0;exitDy=0;" parent="1" source="yI5xxinmUdv7EpqgZZJL-97" target="dv6ONf9dYdXolgblirmu-10" edge="1">
          <mxGeometry relative="1" as="geometry" />
        </mxCell>
        <mxCell id="yI5xxinmUdv7EpqgZZJL-97" value="" style="rounded=1;whiteSpace=wrap;html=1;shadow=1;dashed=1;dashPattern=8 8;fontStyle=1;fontSize=26;" parent="1" vertex="1">
          <mxGeometry x="-255" y="350" width="1295" height="390" as="geometry" />
        </mxCell>
        <mxCell id="yI5xxinmUdv7EpqgZZJL-87" style="edgeStyle=elbowEdgeStyle;rounded=0;orthogonalLoop=1;jettySize=auto;html=1;exitX=0;exitY=1;exitDx=0;exitDy=0;entryX=0;entryY=0.5;entryDx=0;entryDy=0;fontStyle=1;fontSize=26;" parent="1" source="yI5xxinmUdv7EpqgZZJL-27" target="yI5xxinmUdv7EpqgZZJL-31" edge="1">
          <mxGeometry relative="1" as="geometry" />
        </mxCell>
        <mxCell id="yI5xxinmUdv7EpqgZZJL-131" style="edgeStyle=orthogonalEdgeStyle;rounded=0;orthogonalLoop=1;jettySize=auto;html=1;exitX=1;exitY=0.5;exitDx=0;exitDy=0;fontStyle=1;fontSize=26;" parent="1" source="yI5xxinmUdv7EpqgZZJL-27" target="yI5xxinmUdv7EpqgZZJL-28" edge="1">
          <mxGeometry relative="1" as="geometry" />
        </mxCell>
        <mxCell id="yI5xxinmUdv7EpqgZZJL-27" value="&lt;div style=&quot;border-color: var(--border-color); font-size: 26px;&quot;&gt;Data&lt;/div&gt;&lt;div style=&quot;border-color: var(--border-color); font-size: 26px;&quot;&gt;Encoding&lt;/div&gt;" style="rounded=0;whiteSpace=wrap;html=1;fontSize=26;fontStyle=1" parent="1" vertex="1">
          <mxGeometry x="-196" y="450" width="170" height="60" as="geometry" />
        </mxCell>
        <mxCell id="yI5xxinmUdv7EpqgZZJL-132" style="edgeStyle=orthogonalEdgeStyle;rounded=0;orthogonalLoop=1;jettySize=auto;html=1;exitX=1;exitY=0.5;exitDx=0;exitDy=0;entryX=0;entryY=0.5;entryDx=0;entryDy=0;fontStyle=1;fontSize=26;" parent="1" source="yI5xxinmUdv7EpqgZZJL-28" target="yI5xxinmUdv7EpqgZZJL-29" edge="1">
          <mxGeometry relative="1" as="geometry" />
        </mxCell>
        <mxCell id="yI5xxinmUdv7EpqgZZJL-28" value="&lt;div style=&quot;border-color: var(--border-color); font-size: 26px;&quot;&gt;Data&lt;/div&gt;&lt;div style=&quot;border-color: var(--border-color); font-size: 26px;&quot;&gt;Imputation&lt;/div&gt;" style="rounded=0;whiteSpace=wrap;html=1;fontSize=26;fontStyle=1" parent="1" vertex="1">
          <mxGeometry x="86" y="450" width="224" height="60" as="geometry" />
        </mxCell>
        <mxCell id="yI5xxinmUdv7EpqgZZJL-133" style="edgeStyle=orthogonalEdgeStyle;rounded=0;orthogonalLoop=1;jettySize=auto;html=1;exitX=1;exitY=0.5;exitDx=0;exitDy=0;fontStyle=1;fontSize=26;" parent="1" source="yI5xxinmUdv7EpqgZZJL-29" target="yI5xxinmUdv7EpqgZZJL-30" edge="1">
          <mxGeometry relative="1" as="geometry" />
        </mxCell>
        <mxCell id="yI5xxinmUdv7EpqgZZJL-29" value="Data Balancing" style="rounded=0;whiteSpace=wrap;html=1;fontSize=26;fontStyle=1" parent="1" vertex="1">
          <mxGeometry x="373.5" y="450" width="226.5" height="60" as="geometry" />
        </mxCell>
        <mxCell id="yI5xxinmUdv7EpqgZZJL-30" value="Data Normalization" style="rounded=0;whiteSpace=wrap;html=1;fontSize=26;fontStyle=1" parent="1" vertex="1">
          <mxGeometry x="642.5" y="450" width="217.5" height="60" as="geometry" />
        </mxCell>
        <mxCell id="yI5xxinmUdv7EpqgZZJL-31" value="&lt;div style=&quot;border-color: var(--border-color); font-size: 26px;&quot;&gt;Data Discretization&lt;/div&gt;" style="rounded=1;whiteSpace=wrap;html=1;glass=0;shadow=0;dashed=1;dashPattern=8 8;fontSize=26;fontStyle=1" parent="1" vertex="1">
          <mxGeometry x="-166" y="560" width="226" height="70" as="geometry" />
        </mxCell>
        <mxCell id="yI5xxinmUdv7EpqgZZJL-81" style="edgeStyle=elbowEdgeStyle;rounded=0;orthogonalLoop=1;jettySize=auto;html=1;entryX=0;entryY=1;entryDx=0;entryDy=0;endArrow=none;endFill=0;startArrow=classic;startFill=1;fontStyle=1;fontSize=26;" parent="1" source="yI5xxinmUdv7EpqgZZJL-33" target="yI5xxinmUdv7EpqgZZJL-28" edge="1">
          <mxGeometry relative="1" as="geometry" />
        </mxCell>
        <mxCell id="yI5xxinmUdv7EpqgZZJL-33" value="&lt;div style=&quot;border-color: var(--border-color); font-size: 26px;&quot;&gt;Zeros/Mean/&lt;br&gt;Median&lt;/div&gt;" style="rounded=1;whiteSpace=wrap;html=1;dashed=1;dashPattern=8 8;fontSize=26;fontStyle=1" parent="1" vertex="1">
          <mxGeometry x="131" y="539" width="229" height="71" as="geometry" />
        </mxCell>
        <mxCell id="yI5xxinmUdv7EpqgZZJL-82" style="edgeStyle=elbowEdgeStyle;rounded=0;orthogonalLoop=1;jettySize=auto;html=1;entryX=0;entryY=1;entryDx=0;entryDy=0;endArrow=none;endFill=0;startArrow=classic;startFill=1;fontStyle=1;fontSize=26;" parent="1" source="yI5xxinmUdv7EpqgZZJL-35" target="yI5xxinmUdv7EpqgZZJL-28" edge="1">
          <mxGeometry relative="1" as="geometry" />
        </mxCell>
        <mxCell id="yI5xxinmUdv7EpqgZZJL-35" value="&lt;div style=&quot;border-color: var(--border-color); font-size: 26px;&quot;&gt;Time-Series Methods&lt;/div&gt;" style="rounded=1;whiteSpace=wrap;html=1;dashed=1;dashPattern=8 8;fontSize=26;fontStyle=1" parent="1" vertex="1">
          <mxGeometry x="131" y="640" width="229" height="65" as="geometry" />
        </mxCell>
        <mxCell id="yI5xxinmUdv7EpqgZZJL-83" style="edgeStyle=elbowEdgeStyle;rounded=0;orthogonalLoop=1;jettySize=auto;html=1;exitX=0;exitY=0.5;exitDx=0;exitDy=0;entryX=0;entryY=1;entryDx=0;entryDy=0;endArrow=none;endFill=0;startArrow=classic;startFill=1;fontStyle=1;fontSize=26;" parent="1" source="yI5xxinmUdv7EpqgZZJL-37" target="yI5xxinmUdv7EpqgZZJL-29" edge="1">
          <mxGeometry relative="1" as="geometry" />
        </mxCell>
        <mxCell id="yI5xxinmUdv7EpqgZZJL-37" value="Under-Sampling" style="rounded=1;whiteSpace=wrap;html=1;dashed=1;dashPattern=8 8;fontSize=26;fontStyle=1" parent="1" vertex="1">
          <mxGeometry x="403.5" y="530" width="226.5" height="65" as="geometry" />
        </mxCell>
        <mxCell id="yI5xxinmUdv7EpqgZZJL-84" style="edgeStyle=elbowEdgeStyle;rounded=0;orthogonalLoop=1;jettySize=auto;html=1;exitX=0;exitY=0.5;exitDx=0;exitDy=0;endArrow=none;endFill=0;startArrow=classic;startFill=1;fontStyle=1;fontSize=26;" parent="1" source="yI5xxinmUdv7EpqgZZJL-39" edge="1">
          <mxGeometry relative="1" as="geometry">
            <mxPoint x="372" y="510" as="targetPoint" />
          </mxGeometry>
        </mxCell>
        <mxCell id="yI5xxinmUdv7EpqgZZJL-39" value="Over-sampling: SMOTE" style="rounded=1;whiteSpace=wrap;html=1;dashed=1;dashPattern=8 8;fontSize=26;fontStyle=1" parent="1" vertex="1">
          <mxGeometry x="403.5" y="630" width="236.5" height="70" as="geometry" />
        </mxCell>
        <mxCell id="yI5xxinmUdv7EpqgZZJL-85" style="edgeStyle=elbowEdgeStyle;rounded=0;orthogonalLoop=1;jettySize=auto;html=1;entryX=0;entryY=1;entryDx=0;entryDy=0;endArrow=none;endFill=0;startArrow=classic;startFill=1;fontStyle=1;fontSize=26;" parent="1" source="yI5xxinmUdv7EpqgZZJL-41" target="yI5xxinmUdv7EpqgZZJL-30" edge="1">
          <mxGeometry relative="1" as="geometry" />
        </mxCell>
        <mxCell id="yI5xxinmUdv7EpqgZZJL-41" value="Z-Score normalization" style="rounded=1;whiteSpace=wrap;html=1;dashed=1;dashPattern=8 8;fontSize=26;fontStyle=1" parent="1" vertex="1">
          <mxGeometry x="682.5" y="540" width="247.5" height="60" as="geometry" />
        </mxCell>
        <mxCell id="yI5xxinmUdv7EpqgZZJL-86" style="edgeStyle=elbowEdgeStyle;rounded=0;orthogonalLoop=1;jettySize=auto;html=1;entryX=0;entryY=1;entryDx=0;entryDy=0;endArrow=none;endFill=0;startArrow=classic;startFill=1;fontStyle=1;fontSize=26;" parent="1" source="yI5xxinmUdv7EpqgZZJL-43" target="yI5xxinmUdv7EpqgZZJL-30" edge="1">
          <mxGeometry relative="1" as="geometry" />
        </mxCell>
        <mxCell id="yI5xxinmUdv7EpqgZZJL-43" value="Min-Max normalization" style="rounded=1;whiteSpace=wrap;html=1;dashed=1;dashPattern=8 8;fontSize=26;fontStyle=1" parent="1" vertex="1">
          <mxGeometry x="682.5" y="635" width="237.5" height="60" as="geometry" />
        </mxCell>
        <mxCell id="yI5xxinmUdv7EpqgZZJL-53" value="&lt;div style=&quot;font-size: 26px;&quot;&gt;Traditional&lt;/div&gt;&lt;div style=&quot;font-size: 26px;&quot;&gt;ML Models&lt;/div&gt;" style="whiteSpace=wrap;html=1;fontSize=26;fontStyle=1" parent="1" vertex="1">
          <mxGeometry x="1515" y="310" width="220" height="60" as="geometry" />
        </mxCell>
        <mxCell id="yI5xxinmUdv7EpqgZZJL-54" value="Deep Learning Algorithms" style="whiteSpace=wrap;html=1;fontSize=26;fontStyle=1" parent="1" vertex="1">
          <mxGeometry x="1515" y="754" width="260" height="60" as="geometry" />
        </mxCell>
        <mxCell id="yI5xxinmUdv7EpqgZZJL-105" style="edgeStyle=orthogonalEdgeStyle;rounded=0;orthogonalLoop=1;jettySize=auto;html=1;entryX=1;entryY=0.5;entryDx=0;entryDy=0;fontStyle=1;fontSize=26;" parent="1" source="yI5xxinmUdv7EpqgZZJL-55" target="yI5xxinmUdv7EpqgZZJL-53" edge="1">
          <mxGeometry relative="1" as="geometry" />
        </mxCell>
        <mxCell id="yI5xxinmUdv7EpqgZZJL-55" value="Random forest (RF)" style="whiteSpace=wrap;html=1;fontSize=26;rounded=1;dashed=1;dashPattern=8 8;fontStyle=1" parent="1" vertex="1">
          <mxGeometry x="1980" y="175" width="260" height="78" as="geometry" />
        </mxCell>
        <mxCell id="yI5xxinmUdv7EpqgZZJL-108" style="edgeStyle=orthogonalEdgeStyle;rounded=0;orthogonalLoop=1;jettySize=auto;html=1;exitX=0;exitY=0.5;exitDx=0;exitDy=0;entryX=1;entryY=0.5;entryDx=0;entryDy=0;fontStyle=1;fontSize=26;" parent="1" source="yI5xxinmUdv7EpqgZZJL-59" target="yI5xxinmUdv7EpqgZZJL-53" edge="1">
          <mxGeometry relative="1" as="geometry" />
        </mxCell>
        <mxCell id="yI5xxinmUdv7EpqgZZJL-59" value="LightGBM" style="whiteSpace=wrap;html=1;fontSize=26;rounded=1;dashed=1;dashPattern=8 8;fontStyle=1" parent="1" vertex="1">
          <mxGeometry x="1979" y="305" width="261" height="70" as="geometry" />
        </mxCell>
        <mxCell id="yI5xxinmUdv7EpqgZZJL-107" style="edgeStyle=orthogonalEdgeStyle;rounded=0;orthogonalLoop=1;jettySize=auto;html=1;exitX=0;exitY=0.5;exitDx=0;exitDy=0;entryX=1;entryY=0.5;entryDx=0;entryDy=0;fontStyle=1;fontSize=26;" parent="1" source="yI5xxinmUdv7EpqgZZJL-62" target="yI5xxinmUdv7EpqgZZJL-53" edge="1">
          <mxGeometry relative="1" as="geometry" />
        </mxCell>
        <mxCell id="yI5xxinmUdv7EpqgZZJL-62" value="Naive Bayes (NB)" style="whiteSpace=wrap;html=1;fontSize=26;rounded=1;dashed=1;dashPattern=8 8;fontStyle=1" parent="1" vertex="1">
          <mxGeometry x="1981" y="415" width="259" height="70" as="geometry" />
        </mxCell>
        <mxCell id="yI5xxinmUdv7EpqgZZJL-110" style="edgeStyle=orthogonalEdgeStyle;rounded=0;orthogonalLoop=1;jettySize=auto;html=1;exitX=0;exitY=0.5;exitDx=0;exitDy=0;entryX=1;entryY=0.5;entryDx=0;entryDy=0;fontStyle=1;fontSize=26;" parent="1" source="yI5xxinmUdv7EpqgZZJL-65" target="yI5xxinmUdv7EpqgZZJL-54" edge="1">
          <mxGeometry relative="1" as="geometry" />
        </mxCell>
        <mxCell id="yI5xxinmUdv7EpqgZZJL-65" value="Kerasclassifier" style="whiteSpace=wrap;html=1;fontSize=26;rounded=1;dashed=1;dashPattern=8 8;fontStyle=1" parent="1" vertex="1">
          <mxGeometry x="1949.5" y="739" width="275" height="90" as="geometry" />
        </mxCell>
        <mxCell id="yI5xxinmUdv7EpqgZZJL-100" value="" style="sketch=0;outlineConnect=0;fontColor=#232F3E;gradientColor=none;fillColor=#8C4FFF;strokeColor=none;dashed=0;verticalLabelPosition=bottom;verticalAlign=top;align=center;html=1;fontSize=26;fontStyle=1;aspect=fixed;pointerEvents=1;shape=mxgraph.aws4.redshift_ml;" parent="1" vertex="1">
          <mxGeometry x="1586" y="385" width="78" height="78" as="geometry" />
        </mxCell>
        <mxCell id="yI5xxinmUdv7EpqgZZJL-101" value="" style="sketch=0;outlineConnect=0;fontColor=#232F3E;gradientColor=none;strokeColor=#ffffff;fillColor=#232F3E;dashed=0;verticalLabelPosition=middle;verticalAlign=bottom;align=center;html=1;whiteSpace=wrap;fontSize=26;fontStyle=1;spacing=3;shape=mxgraph.aws4.productIcon;prIcon=mxgraph.aws4.deep_learning_amis;" parent="1" vertex="1">
          <mxGeometry x="1614" y="829" width="80" height="110" as="geometry" />
        </mxCell>
        <mxCell id="yI5xxinmUdv7EpqgZZJL-116" value="" style="image;aspect=fixed;perimeter=ellipsePerimeter;html=1;align=center;shadow=0;dashed=0;spacingTop=3;image=img/lib/active_directory/database_cube.svg;fontStyle=1;fontSize=26;" parent="1" vertex="1">
          <mxGeometry x="-556.5699999999999" y="120" width="105" height="116.67" as="geometry" />
        </mxCell>
        <mxCell id="jP0ZAHPzeSrmJnEa-QNz-21" style="edgeStyle=orthogonalEdgeStyle;rounded=0;orthogonalLoop=1;jettySize=auto;html=1;entryX=0;entryY=0.5;entryDx=0;entryDy=0;" edge="1" parent="1" source="yI5xxinmUdv7EpqgZZJL-117" target="jP0ZAHPzeSrmJnEa-QNz-15">
          <mxGeometry relative="1" as="geometry" />
        </mxCell>
        <mxCell id="yI5xxinmUdv7EpqgZZJL-117" value="" style="html=1;verticalLabelPosition=bottom;align=center;labelBackgroundColor=#ffffff;verticalAlign=top;strokeWidth=2;strokeColor=#0080F0;shadow=0;dashed=0;shape=mxgraph.ios7.icons.data;fontStyle=1;fontSize=26;" parent="1" vertex="1">
          <mxGeometry x="-661.5699999999999" y="470" width="140" height="150" as="geometry" />
        </mxCell>
        <mxCell id="jP0ZAHPzeSrmJnEa-QNz-22" style="edgeStyle=orthogonalEdgeStyle;rounded=0;orthogonalLoop=1;jettySize=auto;html=1;" edge="1" parent="1" source="yI5xxinmUdv7EpqgZZJL-119" target="yI5xxinmUdv7EpqgZZJL-117">
          <mxGeometry relative="1" as="geometry" />
        </mxCell>
        <mxCell id="yI5xxinmUdv7EpqgZZJL-119" value="" style="image;aspect=fixed;html=1;points=[];align=center;fontSize=26;image=img/lib/azure2/databases/Cache_Redis.svg;fontStyle=1" parent="1" vertex="1">
          <mxGeometry x="-666.5699999999999" y="180" width="147.69" height="120" as="geometry" />
        </mxCell>
        <mxCell id="yI5xxinmUdv7EpqgZZJL-122" value="&lt;font style=&quot;font-size: 26px;&quot;&gt;Automated Data Pre-Processing&lt;/font&gt;" style="text;html=1;align=center;verticalAlign=middle;resizable=0;points=[];autosize=1;strokeColor=none;fillColor=none;fontStyle=1;fontSize=26;" parent="1" vertex="1">
          <mxGeometry x="160" y="370" width="420" height="40" as="geometry" />
        </mxCell>
        <mxCell id="yI5xxinmUdv7EpqgZZJL-125" value="&lt;font style=&quot;font-size: 26px;&quot;&gt;&lt;span style=&quot;font-size: 26px;&quot;&gt;Automated Model Learning&lt;/span&gt;&lt;/font&gt;" style="text;html=1;align=center;verticalAlign=middle;resizable=0;points=[];autosize=1;strokeColor=none;fillColor=none;fontStyle=1;fontSize=26;" parent="1" vertex="1">
          <mxGeometry x="1709" y="70" width="360" height="40" as="geometry" />
        </mxCell>
        <mxCell id="yI5xxinmUdv7EpqgZZJL-126" value="Dataset" style="text;html=1;align=center;verticalAlign=middle;resizable=0;points=[];autosize=1;strokeColor=none;fillColor=none;fontSize=26;fontStyle=1" parent="1" vertex="1">
          <mxGeometry x="-641.5699999999999" y="630" width="120" height="40" as="geometry" />
        </mxCell>
        <mxCell id="yI5xxinmUdv7EpqgZZJL-141" value="Grid Search" style="whiteSpace=wrap;html=1;fontSize=26;fontStyle=1" parent="1" vertex="1">
          <mxGeometry x="3177" y="179.5" width="495" height="66" as="geometry" />
        </mxCell>
        <mxCell id="yI5xxinmUdv7EpqgZZJL-161" value="Automated Model Selection" style="text;html=1;align=center;verticalAlign=middle;resizable=0;points=[];autosize=1;strokeColor=none;fillColor=none;fontSize=26;fontStyle=1" parent="1" vertex="1">
          <mxGeometry x="3234" y="77.5" width="340" height="40" as="geometry" />
        </mxCell>
        <mxCell id="yI5xxinmUdv7EpqgZZJL-164" value="&lt;font style=&quot;font-size: 40px;&quot;&gt;Architecture of Static and Dynamic Datasets&amp;nbsp;&amp;nbsp;&lt;/font&gt;" style="text;html=1;align=center;verticalAlign=middle;resizable=0;points=[];autosize=1;strokeColor=none;fillColor=none;fontStyle=1;fontSize=40;" parent="1" vertex="1">
          <mxGeometry x="1430" y="-180" width="830" height="60" as="geometry" />
        </mxCell>
        <mxCell id="dv6ONf9dYdXolgblirmu-2" style="edgeStyle=orthogonalEdgeStyle;rounded=0;orthogonalLoop=1;jettySize=auto;html=1;entryX=1;entryY=0.5;entryDx=0;entryDy=0;" parent="1" source="dv6ONf9dYdXolgblirmu-1" target="yI5xxinmUdv7EpqgZZJL-53" edge="1">
          <mxGeometry relative="1" as="geometry" />
        </mxCell>
        <mxCell id="dv6ONf9dYdXolgblirmu-1" value="&lt;span style=&quot;white-space: pre;&quot; data-slate-fragment=&quot;JTVCJTdCJTIydHlwZSUyMiUzQSUyMm5vdGVib29rJTIyJTJDJTIybm90ZWJvb2tJZCUyMiUzQSUyMmIzYTg4MDU0ZDY3NDRlOGZiYWNmMjVmYjgyZWIzNGRjJTIyJTJDJTIyd29ya2luZ0RpcmVjdG9yeSUyMiUzQW51bGwlMkMlMjJlZGl0b3JNZXRhZGF0YSUyMiUzQSU3QiUyMmRlZXBub3RlX2Z1bGxfd2lkdGglMjIlM0F0cnVlJTdEJTJDJTIyYXBwTWV0YWRhdGElMjIlM0ElN0IlMjJkZWVwbm90ZV9hcHBfY2xlYXJfb3V0cHV0cyUyMiUzQWZhbHNlJTJDJTIyZGVlcG5vdGVfYXBwX2NvbW1lbnRzX2VuYWJsZWQlMjIlM0FmYWxzZSUyQyUyMmRlZXBub3RlX2FwcF9leGVjdXRpb25fZW5hYmxlZCUyMiUzQXRydWUlMkMlMjJkZWVwbm90ZV9hcHBfaGlkZV9hbGxfY29kZV9ibG9ja3NfZW5hYmxlZCUyMiUzQWZhbHNlJTJDJTIyZGVlcG5vdGVfYXBwX3RhYmxlX29mX2NvbnRlbnRzX2VuYWJsZWQlMjIlM0F0cnVlJTJDJTIyZGVlcG5vdGVfYXBwX3J1bl9vbl9pbnB1dF9lbmFibGVkJTIyJTNBZmFsc2UlMkMlMjJkZWVwbm90ZV9hcHBfcmVhY3Rpdml0eV9lbmFibGVkJTIyJTNBZmFsc2UlMkMlMjJkZWVwbm90ZV9hcHBfbGF5b3V0JTIyJTNBJTIycG93ZXJmdWwtYXJ0aWNsZSUyMiUyQyUyMmRlZXBub3RlX2FwcF93aWR0aCUyMiUzQSUyMmZ1bGwtd2lkdGglMjIlN0QlMkMlMjJwZXJzaXN0ZWRTZXNzaW9uVGltZXN0YW1wJTIyJTNBbnVsbCUyQyUyMmtlcm5lbFN0YXRlJTIyJTNBJTdCJTIyc3RhdHVzJTIyJTNBJTIybWlzc2luZyUyMiUyQyUyMm5hbWUlMjIlM0FudWxsJTJDJTIyY3VycmVudGx5RXhlY3V0aW5nSXRlbSUyMiUzQW51bGwlMkMlMjJibG9ja0V4ZWN1dGlvblF1ZXVlJTIyJTNBJTVCJTVEJTdEJTJDJTIyY2hpbGRyZW4lMjIlM0ElNUIlN0IlMjJpZCUyMiUzQSUyMmY4ZTRmY2EwMGYxNzQyMTI4YmNjYjYxZmVmZjBmYTZiJTIyJTJDJTIydmVyc2lvbiUyMiUzQTIlMkMlMjJ0eXBlJTIyJTNBJTIydGV4dC1jZWxsLWgzJTIyJTJDJTIyc29ydGluZ19rZXklMjIlM0ElMjJhNXNUJTIyJTJDJTIyYmxvY2tfZ3JvdXAlMjIlM0ElMjJmMTE0YWU0ODA0NGE0NzZjODY5N2E1ZjJkNDI3YjUwNSUyMiUyQyUyMm1ldGFkYXRhJTIyJTNBJTdCJTIyZGVlcG5vdGVfYXBwX2Jsb2NrX3Zpc2libGUlMjIlM0F0cnVlJTdEJTJDJTIyY2hpbGRyZW4lMjIlM0ElNUIlN0IlMjJ0ZXh0JTIyJTNBJTIyay1uZWFyZXN0JTIwbmVpZ2hib3JzJTIwKEtOTiklMjIlN0QlNUQlN0QlNUQlN0QlNUQ=&quot;&gt;k-nearest neighbors &lt;br/&gt;(KNN)&lt;/span&gt;" style="whiteSpace=wrap;html=1;fontSize=26;rounded=1;dashed=1;dashPattern=8 8;fontStyle=1" parent="1" vertex="1">
          <mxGeometry x="1981" y="515" width="259" height="85" as="geometry" />
        </mxCell>
        <mxCell id="r_av7czu1jg5iAiUwhAu-2" style="edgeStyle=orthogonalEdgeStyle;rounded=0;orthogonalLoop=1;jettySize=auto;html=1;" parent="1" source="dv6ONf9dYdXolgblirmu-4" edge="1">
          <mxGeometry relative="1" as="geometry">
            <mxPoint x="3425.5" y="855.5" as="targetPoint" />
          </mxGeometry>
        </mxCell>
        <mxCell id="dv6ONf9dYdXolgblirmu-4" value="" style="rounded=1;whiteSpace=wrap;html=1;shadow=1;dashed=1;dashPattern=8 8;fontStyle=1;fontSize=26;" parent="1" vertex="1">
          <mxGeometry x="2890" y="456.5" width="1070" height="250" as="geometry" />
        </mxCell>
        <mxCell id="dv6ONf9dYdXolgblirmu-6" value="&lt;span style=&quot;white-space-collapse: preserve;&quot; data-slate-fragment=&quot;JTVCJTdCJTIydHlwZSUyMiUzQSUyMm5vdGVib29rJTIyJTJDJTIybm90ZWJvb2tJZCUyMiUzQSUyMmU1M2RlZDg2ZDYyOTRmNTk5ZTNjODdkMmZjMDg0ZTg0JTIyJTJDJTIyd29ya2luZ0RpcmVjdG9yeSUyMiUzQW51bGwlMkMlMjJlZGl0b3JNZXRhZGF0YSUyMiUzQSU3QiUyMmRlZXBub3RlX2Z1bGxfd2lkdGglMjIlM0FudWxsJTdEJTJDJTIyYXBwTWV0YWRhdGElMjIlM0ElN0IlMjJkZWVwbm90ZV9hcHBfY2xlYXJfb3V0cHV0cyUyMiUzQW51bGwlMkMlMjJkZWVwbm90ZV9hcHBfY29tbWVudHNfZW5hYmxlZCUyMiUzQW51bGwlMkMlMjJkZWVwbm90ZV9hcHBfZXhlY3V0aW9uX2VuYWJsZWQlMjIlM0FudWxsJTJDJTIyZGVlcG5vdGVfYXBwX2hpZGVfYWxsX2NvZGVfYmxvY2tzX2VuYWJsZWQlMjIlM0FudWxsJTJDJTIyZGVlcG5vdGVfYXBwX3RhYmxlX29mX2NvbnRlbnRzX2VuYWJsZWQlMjIlM0FudWxsJTJDJTIyZGVlcG5vdGVfYXBwX3J1bl9vbl9pbnB1dF9lbmFibGVkJTIyJTNBbnVsbCUyQyUyMmRlZXBub3RlX2FwcF9yZWFjdGl2aXR5X2VuYWJsZWQlMjIlM0F0cnVlJTJDJTIyZGVlcG5vdGVfYXBwX2xheW91dCUyMiUzQSUyMnBvd2VyZnVsLWFydGljbGUlMjIlMkMlMjJkZWVwbm90ZV9hcHBfd2lkdGglMjIlM0ElMjJzdGFuZGFyZCUyMiU3RCUyQyUyMnBlcnNpc3RlZFNlc3Npb25UaW1lc3RhbXAlMjIlM0ExNzEyMTIxOTQ4NDUwJTJDJTIya2VybmVsU3RhdGUlMjIlM0ElN0IlMjJzdGF0dXMlMjIlM0ElMjJtaXNzaW5nJTIyJTJDJTIybmFtZSUyMiUzQW51bGwlMkMlMjJjdXJyZW50bHlFeGVjdXRpbmdJdGVtJTIyJTNBbnVsbCUyQyUyMmJsb2NrRXhlY3V0aW9uUXVldWUlMjIlM0ElNUIlNUQlN0QlMkMlMjJjaGlsZHJlbiUyMiUzQSU1QiU3QiUyMmlkJTIyJTNBJTIyNDQ5NzhhMmU0YzEwNDdhMDk1Y2E2MmYyMTgzYjY0OWUlMjIlMkMlMjJ2ZXJzaW9uJTIyJTNBNCUyQyUyMnR5cGUlMjIlM0ElMjJ0ZXh0LWNlbGwtaDElMjIlMkMlMjJzb3J0aW5nX2tleSUyMiUzQSUyMmFLJTIyJTJDJTIyYmxvY2tfZ3JvdXAlMjIlM0ElMjIxMWVjOGNlZTdhNWQ0ZTBiODgxMWRjMGFiOWVlZTc4ZSUyMiUyQyUyMm1ldGFkYXRhJTIyJTNBJTdCJTIyZGVlcG5vdGVfYXBwX2Jsb2NrX3Zpc2libGUlMjIlM0F0cnVlJTdEJTJDJTIyY2hpbGRyZW4lMjIlM0ElNUIlN0IlMjJ0ZXh0JTIyJTNBJTIyQ29tYmluZWQlMjBBbGdvcml0aG0lMjBTZWxlY3Rpb24lMjBhbmQlMjBIeXBlcnBhcmFtZXRlciUyMHR1bmluZyUyMChDQVNIKSUyMiU3RCU1RCU3RCU1RCU3RCU1RA==&quot;&gt;Combined Algorithm Selection and Hyperparameter tuning (CASH)&lt;/span&gt;" style="text;html=1;align=center;verticalAlign=middle;resizable=0;points=[];autosize=1;strokeColor=none;fillColor=none;fontSize=26;fontStyle=1" parent="1" vertex="1">
          <mxGeometry x="3009" y="499.5" width="790" height="40" as="geometry" />
        </mxCell>
        <mxCell id="dv6ONf9dYdXolgblirmu-7" value="&lt;span style=&quot;white-space: pre;&quot; data-slate-fragment=&quot;JTVCJTdCJTIydHlwZSUyMiUzQSUyMm5vdGVib29rJTIyJTJDJTIybm90ZWJvb2tJZCUyMiUzQSUyMmU1M2RlZDg2ZDYyOTRmNTk5ZTNjODdkMmZjMDg0ZTg0JTIyJTJDJTIyd29ya2luZ0RpcmVjdG9yeSUyMiUzQW51bGwlMkMlMjJlZGl0b3JNZXRhZGF0YSUyMiUzQSU3QiUyMmRlZXBub3RlX2Z1bGxfd2lkdGglMjIlM0FudWxsJTdEJTJDJTIyYXBwTWV0YWRhdGElMjIlM0ElN0IlMjJkZWVwbm90ZV9hcHBfY2xlYXJfb3V0cHV0cyUyMiUzQW51bGwlMkMlMjJkZWVwbm90ZV9hcHBfY29tbWVudHNfZW5hYmxlZCUyMiUzQW51bGwlMkMlMjJkZWVwbm90ZV9hcHBfZXhlY3V0aW9uX2VuYWJsZWQlMjIlM0FudWxsJTJDJTIyZGVlcG5vdGVfYXBwX2hpZGVfYWxsX2NvZGVfYmxvY2tzX2VuYWJsZWQlMjIlM0FudWxsJTJDJTIyZGVlcG5vdGVfYXBwX3RhYmxlX29mX2NvbnRlbnRzX2VuYWJsZWQlMjIlM0FudWxsJTJDJTIyZGVlcG5vdGVfYXBwX3J1bl9vbl9pbnB1dF9lbmFibGVkJTIyJTNBbnVsbCUyQyUyMmRlZXBub3RlX2FwcF9yZWFjdGl2aXR5X2VuYWJsZWQlMjIlM0F0cnVlJTJDJTIyZGVlcG5vdGVfYXBwX2xheW91dCUyMiUzQSUyMnBvd2VyZnVsLWFydGljbGUlMjIlMkMlMjJkZWVwbm90ZV9hcHBfd2lkdGglMjIlM0ElMjJzdGFuZGFyZCUyMiU3RCUyQyUyMnBlcnNpc3RlZFNlc3Npb25UaW1lc3RhbXAlMjIlM0ExNzEyMTIxOTQ4NDUwJTJDJTIya2VybmVsU3RhdGUlMjIlM0ElN0IlMjJzdGF0dXMlMjIlM0ElMjJtaXNzaW5nJTIyJTJDJTIybmFtZSUyMiUzQW51bGwlMkMlMjJjdXJyZW50bHlFeGVjdXRpbmdJdGVtJTIyJTNBbnVsbCUyQyUyMmJsb2NrRXhlY3V0aW9uUXVldWUlMjIlM0ElNUIlNUQlN0QlMkMlMjJjaGlsZHJlbiUyMiUzQSU1QiU3QiUyMmlkJTIyJTNBJTIyYjVlNTdmYTlhMzJiNDgxYzk5MjUwMzFhNGM0YjVhYzMlMjIlMkMlMjJ2ZXJzaW9uJTIyJTNBNyUyQyUyMnR5cGUlMjIlM0ElMjJ0ZXh0LWNlbGwtaDMlMjIlMkMlMjJzb3J0aW5nX2tleSUyMiUzQSUyMmFMJTIyJTJDJTIyYmxvY2tfZ3JvdXAlMjIlM0ElMjJkNDVkNGFkNmE2ZTI0ODkxYjFlYjRmYzUwZjc3NWQzNCUyMiUyQyUyMm1ldGFkYXRhJTIyJTNBJTdCJTIyZGVlcG5vdGVfYXBwX2Jsb2NrX3Zpc2libGUlMjIlM0F0cnVlJTdEJTJDJTIyY2hpbGRyZW4lMjIlM0ElNUIlN0IlMjJ0ZXh0JTIyJTNBJTIyUGFydGljbGUlMjBTd2FybSUyME9wdGltaXphdGlvbiUyMChQU08pJTIyJTdEJTVEJTdEJTVEJTdEJTVE&quot;&gt;Particle Swarm Optimization (PSO)&lt;/span&gt;" style="whiteSpace=wrap;html=1;fontSize=26;fontStyle=1" parent="1" vertex="1">
          <mxGeometry x="3177" y="586.5" width="495" height="60" as="geometry" />
        </mxCell>
        <mxCell id="dv6ONf9dYdXolgblirmu-17" style="edgeStyle=orthogonalEdgeStyle;rounded=0;orthogonalLoop=1;jettySize=auto;html=1;entryX=0.5;entryY=0;entryDx=0;entryDy=0;" parent="1" source="dv6ONf9dYdXolgblirmu-10" target="yI5xxinmUdv7EpqgZZJL-124" edge="1">
          <mxGeometry relative="1" as="geometry">
            <Array as="points">
              <mxPoint x="1119" y="975" />
              <mxPoint x="1119" y="-10" />
              <mxPoint x="1905" y="-10" />
            </Array>
          </mxGeometry>
        </mxCell>
        <mxCell id="dv6ONf9dYdXolgblirmu-10" value="" style="rounded=1;whiteSpace=wrap;html=1;shadow=1;dashed=1;dashPattern=8 8;fontStyle=1;fontSize=26;" parent="1" vertex="1">
          <mxGeometry x="-142.5" y="850" width="1070" height="250" as="geometry" />
        </mxCell>
        <mxCell id="dv6ONf9dYdXolgblirmu-9" value="" style="shape=image;verticalLabelPosition=bottom;labelBackgroundColor=default;verticalAlign=top;aspect=fixed;imageAspect=0;image=data:image/png,iVBORw0KGgoAAAANSUhEUgAAAsMAAAFhCAYAAACVsKc6AAAAAXNSR0IArs4c6QAAIABJREFUeF7svXdYXfmd5vmedBM5J6GEACEEQgFloZxRzqGSy+W22+3xjnfG0zu900/P7B/d09tht6fbuexyRQnlnCWUUAKBJJCQEAiRgwARbzhpn+/vXFTV2227SpaqBPrdejAY3XvuOZ9zgPd+7/t7XwH8xglwAl+RgADA/IqP4XfnBDgBToAT4AQ4gVeRAP1V5zdOgBMYAAS4BB8AJ4nvIifACXACnMCAI8DF8IA7ZXyHOQFOgBPgBF55AvzV6yt/ivgOcgL9BF6CGOa/AfjlxQlwApwAJ8AJcAKcACcwMAi8BDE8MA6c7yUnwAl8/QT4S+Wvnzl/Rk6AE+AEOIHfT4CLYX6FcAIDhgCXkgPmVIGfq4FzrviecgKcwOtOgIvh1/0K4MfPCXACnAAnwAlwApzAa0yAi+HX+OTzQ+cEOAFOgBPgBDgBTuB1J8DF8Ot+BfDj5wQ4AU6AE+AEOAFO4DUmwMXwa3zy+aFzApwAJ8AJcAIvg8CXdc2bpikIgsBbjF7GSeDb/NIEuBj+0qj4HTkBToAT4AQ4AU6AE+AEBhuBf18Mf9mXdIONBj8eTuAlEuA/Vi8RLt80J8AJcAKcACfwnAT4ZPg5wfGHcQIvggB/i/BFUOTb4AQ4AU6AE+AEnp8AF8PPz44/khPgBDgBTuAbJMBfTH6D8PlTcwKDiAAXw4PoZPJD4QQ4AU6AE+AEBjoB/iJnoJ/Bgbf/XAwPvHPG95gTGFAE+B+2AXW6+M5yApwAJ/DaEeBi+LU75fyAOQFOgBPgBDiBQUqAr1QepCf25R4WF8Mvly/fOifACbwAAvzv2wuAyDfBCXACnAAn8O8S4GJ4kF4Y/K3pQXpi+WFxAgAG+osD/vuJX8acACfwKhH4vWJ4oP/CfZVA833hBDgBTuCPIcB/H/8x9PhjOQFOgBP43QT4ZJhfHZwAJ8AJfBMEuLr9Jqjz5+QEOAFO4N8Q4GKYXxScwHMQ+KZ0DH97+TlOFn8IJ8AJcAKcACfwewhwMcwvD06AE+AEOIFBReCberE6qCDyg+EEXiMCXAy/RiebHyonwAkMDgIVFRX2Hll2mpqmGKoqG7pNViWf6PN6BXgAw26aAZKkOwMCfDbVoQuC3ZeaGtknCII+OAjwo+AEOAFO4MUR4GL4xbHkW+IEOAFO4IUTeNRhhno7m8PqmlqD6uubo9vanqQ0NraMbO5oj/aaeoAK2H1ej9PnUyVBFAWnw2EqikKi1ycYohswvU67sycsLLw5KiL8YWR09L1h0XFt4XGxPUPsAV3x8ULfC99pvkFOgBPgBAYQAS6GB9DJ4rvKCQwGAvwt7D98Fm9WNEY1NDUMfVxbP6m+sTmnpr5+aE9vXygghRgCgkVBDhQVm6RJImwOOxRFgSAIzz50zYSqquyJiLeu64bq8Xo1Te2TRaUjwOXsCHI5WkckxlaFBgWeSUyMKx+WMLQ5c1hoxx/eO34PToAT4AQGFwEuhp/rfPI/58+FjT+IE+AEfieB248fh1XXNsfX1tdnPnxUO7e2sWmKR1Xj3aoWLso2MTwiCuHhkQgMDkJYaDhCQ0PhCAiE3W6HYrcxIUw30zRh6ICmaezDNAz09vbiaVs7Ojs70dPVjfb2dnS1d5je3p4+myx1RUVGVI8cMeTi8KGxp2NiEqoShgQ1jYuN7eWnixPgBDiB14EAF8Ovw1nmx8gJcAKvLIGrFXVDyh/dH3Or5M4blTV1GZpmxAiKEh0UFi6GRUUjOjYG8UOGIiIiAq7AIDgcDtjtEmwyIBiAJAKGCRgGCWFAFK0P+ppu9LWhATQo1n0m3G43nrS2orW1FbVVdUwYP2lpRmdXh1c0tda4uKiH48eOPZA+NunU8ITomtFRUd2vLDy+Y5wAJ8AJvAACXAy/AIh8E5wAJ8AJfFUC5TWt8QX3yidcK7rxxuOa2kmmICSERkbaSfzGDUlEUmoKgoJD4QxwwW5XmNglYWuzAaJgCVynBAimJXzZhwDQgJi+pvtrqgFZESH7v0/fY6LZ/+Fxm+jq6kZDQwOqqipRW/cYne1tgKm3OyTxUfLwxPy00aM+zR4/tjIpPLzzqx4jvz8nwAlwAgOBABfDA+Es8X3kBDiBQUOg8H5D5P2KBxl371e+V1RROkWXpGFxcXFSUnIKhiWNRGRMNFyBAQgKckKgqa4B6IbJ7A8kdCVBhCQBigDIRIWUrUEjYBLJImggbMAknzAUSYZuGjB1EsmCZaEwDIimBFkWIJKYBqDpQF+fgbaOp3j8qBp3S8tQXfUQPe3tXbGRkVVpo5JOjEsb89vlORMe8ESKQXMp8gPhBDgBPwEuhvmlwAlwAoOSwEsvKHmOpQOnCsrGXyu6/d2yu3dnNrY/SYpLGWlPy0rH6NGjQZ5gm80Gm9MGxW7ZGphwFQFFFqGQ2KXFcKYG0QRkkYSuDpOUriHAJM8ERJg0NqaFc7SgDiI0XYWhm5BlGYoowYTlKTahQxItkW2YdF+ZPdbrMdDa1IaWxlYU3yhEXVU1nrY8aR8eF1+WM3n6v0yfNPZycnJE3aC8aPhBcQKcwKAj8GV+VXMxPOhOOz8gToATeNUIFN7virx1p3B2wdVrP3xYUzcuKiY6eEzmGCSNTUXc8AS2IM7uADQD8PkAm8MSw4pkxUGQ+IWpQaKvBR0iBDb9NekrJnqt/zT/d+n4RRLChsGmyxIJXRLBNCVmE2aBWS0EqGxbdA+DSW36DGg+wFCBtuZ2VN2vROnNEtRUPjIkzahLGZZ0eXbOtH/ITBtblpgouF811nx/OAFOgBP4qgS4GP6qxPj9OQFOgBP4CgTOFNYkHTx+4s+qGxqXeHXviJTRSfaJU8ZjyNB4hEWHQ6AVcKYICgamSDRTEJgNQpYAnxeQZcDmtzMYuheyJIDmu6pBk10bNNLJutWlwUQujZLZjYSvAEMwIPvFsA6d2SdICcuCDM3wQhHtUHUVkqQwCa2pOhTRBo9HhUNW4On1obv9Ke6VleNOcQnq6+rbw4PDbmdPyPzp3MWzL6RHBzZ9BRz8rpwAJ8AJvHIEuBh+5U4J3yFOgBMYDATOmabcfOzapDNXbvyfNY2tU6IT4iPHTUjHmIxkxCdEwW4T4fOLU5KyoiBD8gtZa0KsI8ghwaNRaoQOmyJBEkwIpglRoDkv0Ov2QpLI/ytbnmDdmvxawpgW3Ekw6b7Pvkd2ChMkpw16bsOEJErQdA2yJLMpsabrbJuaV4PLrkBTrcm0162h5lENbhYVofTOXaO3r7ty0oRxe6bNnParZRnJlYPhnPFj4ASej8CXeSP++bbMH/X1EOBi+Ovh/Po9C//d8Pqdc37EzwjcamoKKLpauvR8QeEPWzq6slLHjgnMGDcOo9OTEBxCC+NM5v01RJrc+ue4xudCVpQkJo7pn1RV93uEJWZkYEkQLEfYgM1GNgnr8SxNwl+2zOLVJOu+7EH07/33E+mxVg6xzS6zKbSukzdZZPvEFt5RiQdbiWewRXhkmaDRtdftQ2tTK+7cKkVRUREaWurax48bd3hBzrT/Ozd7XCm/BDgBToATGIgEuBgeiGeN7zMnwAm8sgSoPONEfuHG4jt3v9vQ3JKROWG8tGjpIiQOTWBeYJrGkoWBpq8eQ2NimFIg6D9a1sa8vTS39U95HbKdpUb4NMDnNqH7ALfbg86Op/B53PB63ejr80BVvRAECZJETXRkNjYQFhYBm02GI8AFp9MJGxV0KDLsTiuizeuzMJKGlii3mBwbMJgIp5umaghQbFB1E4ZqAjotyRPQ09mH8vJyXLpyCQ0Ndd1RoaEXFuTM+svti2cVCwKT0f+/G391/MpesHzHOAFO4NnvPI6CE+AEOAFO4I8kUFL7JGHPkdPvXrpauNXmco6alTNNmjZjMmJjIpjYpJgzkpuqrrPFbZJCCQ6fPynZGSxLAxkZSECKbBrb0foUDXXNaGxoRXdnL552dKGzowN9vZ0wVBWqqsGgiAhaRvcsZ1iHzWZnDXVBoSEICwtDUHAwwiIjkJiYiPj4OERG21isGtkydJgQJJPlEpMYp/3sF+iGZsIlSyyFwucGbArg8QDVtdU4deoUykvLeofExlydM33GX76zPOcaj1/7Iy8k/nBOgBP4WgnwyfDXips/GSfACQxWAtQkd+TU+R+ev1a0MSg0Ymj29MmYMX0SRgwJRVdfL0xThWJ3QJFtoCEr2RZI9lrxaFbCAxkhyP7Q19MLb58XbW0dzKf7qLKG2RO6nnbDMEw4FAdssgRZEhHgsCMgIICJXtoG2Rwoko22SW1zXk2Fz6fB4/PC6/NBsimIiopCdHQ0kpJHITwqHAmJ8bA7ZQiUPSwDmtmfQiHCp/tgqAZssh2CRmUfBhRZYqJbN4HKymrcuFaI28UlHrvNVrRk3pwfv8cF8dd8mfPJ+9cMnD/dICPw3GKY/+gNsiuBHw4nwAk8N4H7DQ2R+46f/+7ZKyXvBUZEDp2/aCEyszIR5BJgtwO6txcG8whL0AURGs1cJQV2UYIPKlv4ZpdsMA0BrU1PUF72ANVVj/Go4iF6u3pZ33JIcBDCQ0IQHR2JIfGJiI4MhcvpgMvlQHBwMKtpplu/ECZh7HZ70ed2W9XLDfWoa6hHa3sburt64Pb6oBvAkGFDMTYzHbHx8YiKi0J4VCg0argjQS0YsEl+77JPhygIsEkiPH00jVaZ9YIi3Rqb23A+/yIKrxd5o0KDri2bO/u/bF849epzA+UP/DcEXnpuNmfOCbzGBJ5bDL/GzPihcwKcACfwjEB5a2vQxYtX3zxy9tIPew0pee7ixZg9ZxZCggVQWFlfTw+CAh3wqh5LDIsKVMhsARulBTsVGzNEtLc9xYO7Fbh7+y7qH9ehp7MHiiAhLioaaSnJGJU0DJER4QgJCUJoME2CAUplowlt/y9y+kzTWuY+ZoLWuo9mAl09PnT39uBpZydqamrxuK4e98ofoquvj6UTOwIDkJE1DlOmT0NoRDjZg9k+SrIIm02B5vUnV0gCVK8bAU4XVJ8JzTAhSjKamjpw7NgJFF+/rqYMG3Jh+azpP143f9pNfqkMBAJ8vDUQzhLfx5dHgIvhl8eWb5kT4AQGOQHTNJV/3nF47ZWbRX/e5fVkTZw5AwsWLoQrwA6nAkikTE3yFhjwaCoMWYZBNglBpGEvbCRaVZPVHxddL0JjbSN6O7sQ7AxAyvCRyByThsS4WAxNjEVwoF/0ksAliwWzKRhWtjCbz1oimNy+TBT7P1vuX/+HScLYZFNdr27gYeVjPKqtRWHRLTyqrYNktyM8OgZpGRmYmJ2N0PAQJrr73BQnQX5i2jZFrwlQPV447QEwTAkenwmnS0R5eR0unDmHW9evutOGDz329oY1fzE9M7V8kF8G/PA4AU5ggBPgYniAn0C++5wAJ/DNETh29f7MT/cf/NvK2kfTZs3LwdxFcxE/JJpNhL1eD+zkAxYEtvAswGFDlwn00YI1CejtVSFrJu7fuotLFy6i/nE1IkPDkDEmDdmZmUgaPhzhwQocVLohgm2DchpYFLFpRbOZYn+bnOhfcGexsFKISRhbq/No8ktymXIi6F80gxbw6RBkG7o9XtTUNqLs3gPcKitHVXUtHIEhSEpNwaTJ2RgybAgCgxQ2gdZI2Asq7JJiPb9GJR2ATNEUolUS0lhbh707dqCltqYjZ9LEn82flf1Pk9PTeTHHN3eZ8mfmBDiBP0Dg34hh7kvi1wwnwAkMGgIv8d3fy3dqknYcPv3XlbW1y+OHxbqWrViIxBHxECUTgYoC3dAgGSIEQ4BXNaDYbejx6vCYJmyBMupr2lBw5hLu3SqDp6cLGWkpmJSVgbSUJCTGhCPARuXI/mmvT2O+YirXkMj3QJNfXbPaMKhXmd3Pmg2z8o0vlmxQQgWzUpAYtm4kjqm6mRIkRNZOB7T3qKioqkZhcSnu3HuAlidtGDJ8GKZMn4LMrAwEh9nh1TTotBDQJrGFei7JySbcNIXu7XXDYXdCEYFL5wtwNT8f7vaOR+PTU/5x24qlv0pMTOTVzYPmB4sfCCcwuAjwyfDgOp/8aDgBTuBrIHCvrivi6IkzPzh7reS9yMT4+IVL5iIpdRhESYXDTmZda7GZDBskgebEAvq8JhSbgNYOL2oa6lFwsQCP71bAKSkYk5aCnOlTMHJYPEJcCrNY0DTY1FRmiaBtsfReyg9m2WnkvCAh/HmkL4ngZwm//U0cbExsiWF283/fMA1oMKmDjnmMaeGeYYrM09zZ7cPNklJcunoVRbdvIz4hAVnZEzFh8kTEDo2xCkOYiDZh+DS4bHb42KTZarzTvCo8PR5cvXQZl0+fgaipBW9s3vzjVfOmXf4aTg1/Ck6AE+AEvjIBLoa/MjL+AE6AE3jdCew4fHnziQsFf9XS25s6bfYszF+Yg+AQGZquQhRNqJqXNbfBlKHrgF1WmM1B1YC7d6tw+vRpVN5/gJjQYCyaPQs5s2YiOlxh2pZ+KUumDsnUoMj9bmBr9tvfMEdeCbpf/6TXr3n7h8TPWun67/BMDNNj/PqZhDBZLiw/sQAvBQ6bEhRFxNNeHRWPHuPC5QLcLCtj8WyTpk7B5BnTEJMQD9kmssfqmg5FEqw2O8XG7Bl9PW4EB7hQ+aAG58+cw/WCq30Zycn739yw+v+YlJ5U87pfO/z4OYGvh8BLfFvs6zmAF/YsX4YEF8MvDDff0KAm8GV+mgY1AH5w/QQK7tVm7Nx1+J8e1TXOHJUxWl66eimGxIeyJjmyRqiqD06Hk01PNc2EoVtWCc0LlNy8hZKiYty9fQejk5Mwf+YkZE/IQEyok01oDU2HXRIhi+T2Ja8xLVyzhLBB1geRqjikzyuWv3Ba+ofEdKn2D4YpTcIqhOu/gK3PJH5pjKxpVEFHucF2tiWVTZslJpDdqonmp09x7vwlXLpRhI7eXoxIScGMOXMwMikZkg0IVOh+GhyKBC+1cZgmJEGG02aHxws8LK/Grrw8ND5+/GjdymX/ffGE5TuSkwUvv5o4AU6AE3iVCHAx/CqdDb4vnAAn8FwEvq7XKg0NputYwbnvHzl94ceR8bGRS1cuxthxw+FTAbfXC4fTxkSrKIvo8dKUWIYsCfD0Gqgsf4iLZ86j4VEtokIjsWzRLMyanoYgJ6VBSBBME7KgsCVvqs8HWZQgSuQatrSsVeJsfdbYhNeAxGqcn93FL5utxXJ0o/uQGGYCmj2azA3k8LVyJ0hw01SXMpDJj0xeY53yhf15yF5DQE1TM4pLy3Hi7EU0tXche8YsTJs5GwlDwli6BKVlBMgydNPrt2mI0DXyLktscd2ZU5dx5sQJIyY86Oy6ZXP/Y+6M7NLnOsn8QZwAJ8AJvCQCXAy/JLB8s5wAJzD4CJy//SDnk12H/qGh9enE+UsWYNrsbAQE2kGdyswqYJPh03T0+bxwUg4vJUAYQFNDG44fOoK6iipEBgVh3YoVmDYpBU67QYnD1qyWWuhYLZ3MhCSti/M3LFuZwSxOzSpK7l8uZxEm/y4JauvGPvsX0FlCmsQwc/ha1goaF/tv9DVrviNjsv9mGuQjpgV2VM/sQK+mo73bjeP5F3EqvwCSIwhTZszGpMnjERllB+l1j7cHDpsMm2BnLwog2BgTujXUt+HY4SN4cOd22/xp2X+3ZvXCnyRHRHQNvquDHxEnwAkMVAJcDA/UM8f3mxPgBL5WAu3tZsj7R/b/5amLl95LTk8Nmr1wNkYkDYUoCnDJtIjMhK6bLO3B5/PCLtuh+6h0w4fTR8+yBWVDIsOwcc1yjB09DC6b6C/cIHFKkWUkVq38CPpMApg0KrNP0ORWEi3rhWFCFmXL+8viznxQBIUJXUE3IJE6/Xxdnd8U4W/mePZ9AwYpbX8yBTkp2B8D9u+GJWQFwKv6INmdIF9DdVM7rheXYceefRDsgVi1ZjUmTstCQIAIzVBhUq20IcOhyOjz+iPgBKC3pxslN4px4fRZSF7z6vq1K/50/ezs4q/15PEnG7gEvq63fQYuIb7nL4AAF8MvACLfBCfACQx+AqdvVkz7bd7ef6l/0jh++doVmDFnCuxOBxOqEsWTmZQpLLLWN83rgY3EsMdEwcVryD91AQGKgnnTp2DOzPGIi3JB87khC04GThBphEzmB39ihCmzL1mmMLM7aNak+JnZwYpDI8ODSp5fZrSwptCskY4SIr7wQdsRJUBVdShyv/XCYKUdNHEmvzG5kZ+1c/hPp2Zo0Ml0odhA7uUHtU9w8OgJXC26hYiYWKxYm4uRqSMhKRoURWEL8DTNarwjTa6pHgQ5HGhqbMbhfYdQcu1W1/SJ2b/Zsnb1/0hPDGkf/FcNP0JOgBN4pQn4X2xxMfxKnyW+c5wAJ/AqEGhpMQN3nTv5n05euPSDqPiY8NWbViN2aDQcisImrz6KQJMUVrChqgatpIOhmagqr8bBvQdYs9zyBQuQu2gO4iKdLDrNNLzQTSqzoEVnVqOG5fWlD9mKO6MoCsoDNn0QJbIzUGIDLVYzYdKk2D85Js0s0zCXBLDfmkHcZNLU/t/y9O+qV4VNIX8yiWYBukDmCctaIbHICb+Foj+jTRCt6DVBhNsA2ro9qGlsxd59h1Fy9y6yZ07H/MVzER0bApvDwfbZ6wNEOj4W2eaDIgtwd3tw60YxTh85A4ek3N68bvX3cqdnFLwK55bvAyfACXACXAzza4AT4AQ4gT9A4Oqd2syPdu/7Vf2T9ux5SxYgZ+EMmJIJWfYvVGOL0cg3bDXCSTrQUNeCU8dOoqykFGlJyVi/ahmy0uKge3XYRY1NanXIrDSDKo6tD2qIo7xgkX1Y5Rn9FRnk4bWhsekJ7pQ+RLdHg2C3QxBJOGvMHsESKGg0y8bJOvMHU0FGVHg40kaPgmQaCHbZYegaRFF8lj/cL46t4An/Uj2aRJs0apZgQIJbN6AaIul0nD57A/sPH4YbAuYuno+JkzJZdTNpdxLPig3wqOTC0CGJJkRDQkvDE5w4cAK3ios7Zk+f+r/Wrtrwd6OjhG5+8XECnAAn8E0T4GL4mz4D/Pk5AU7gGyVw715dhNfrjQgNje12uVzd0dFCzxd3qNA0laK9+f/h8Ikz/zUsMiJ8/bYtSEmLYbaB/tJjVngBAR6vBoddhrfHRMGlKzhz/DSCnQ5sWJmLKVljEOIEq2o2fW5rQZziYLNYEsK0xI064vrFMN2BWudINFPXhk4DZ0HGjcJS5O0+hIYnT6FKImyuAOiaj4lb0ua0kI/2h0bEpmmwifGY1BSszl2G+OgIhAXYoPk09lySYtkxmPj2T4Otz9aEWCdBTYJcogm4FblGs+r65i6cyr+MY/n5iIpPwJKl85E2Np1Zjdm6OSakmYkZTibSge4uHwqv3MSpoycREhx0dv3qFd9ZNim58hs9+fzJnxHg1lx+MbzOBLgYfp3PPj92TuA1J3D2xq3Uc+euv11bU5sRFhpqxifE1wwdHn8lPiG2ICkyuSkuDt7SBnf8R7v2/OLe/YolE6dOxrLc5XAFfT4B9ZFK7RePmgCbJKGqohEnjhxH1f0KzJkxFRtXLUNkiAzF0OGQ+828gCYq/kfSZNnaDqvTMMjKIMLUSIxqEGQBGk1lbTIuXbmDX3+Qh/Y+DyIS4hAaGcEmvXSjVAgSw5IssMe63b1oqq/DiMREbN2wFmlJwxBoE2D4VBb51j8d/jygjSbb/avsSJhbX7O2OuansLHpN22/uPQRdhw4irsPH2JGzgwsWrIQoZEhLEGDBLNMgRIg0W1CMmWYqoCmulYc3ncEjx89rly6MOd//+7aeQde80uQHz4nwAm8AgS4GH4FTsLv2gXTNAXh879Mr/Ce8l3jBAYmgb9/f8/bFy9f+689PT1DFEWxi4roCw4J7AgKDr4VmxCfP27S+NK21s6o02fz/y+I0pDclSuRmZXK8nX7QxvIFqBDY5YE8vQ+fdKDS+ev4dqlK4gICMbmdbmYnDUSNFsV1R44bdRMR+NeGQZ5cv2/hUk0kiC2LBIC89w++wUtWiUYgk3A+YJ7+ODjfRCcAVi4cikShsWB4tDIUiHLIjTdB0lU4PP5UH6vDAUXziPE6cT2jesxcWwSHKRpyT4hkw3jX583k/mWPxfDXtUDu2IVcpDA1XUBgiCz/app6kBBSTl27D2A0MhQLFuxDGkZmcxGIZD7gz6LBhPqgczrDHS0azh+5CQunr/YPX38uI9Xrp39l5Pi458MzKuH7zUnwAkMFgJcDA+WM8mPgxN4TQncre6Nu1V6Y9TjmqphsRERNVMyU8rS0tLa/hCOU1fupH285+D/7PHos7OyMoODQoLR3v4ET9rbUPW4Gpqut0uS0u4IcAX29PTEjk5Lw/oNaxESEsRSHkgQU3IELVIzBAOqrkOWFTy4W42jB07h8cNqzJ8xHZvWLkdkMJhP2EaSklrlDEsxmpBBA192E6ypsDWY9Sc7kAKlb8gCfAYbGOP05ftMDAdEhGP9tnUYkRrBHk7CloIiaP0eWSM8HuBOyT0cPrAfTlHEW5s3YVrGcEhkA9Y0KBSr1h9X4d8FEsPWzZpS0x8IndktrDg3TacsZJGVaYh2GbcrWvCzDz5EQ2szZs2fi5lzZiMwNAB2J+DVTLZ4zuNxI9DhhNujwSbJuHvnMfI+2wWbYN749rbl78zLSi/7Q+eK/zsnwAlwAi+TABfDL5Mu3zYnwAm8NAIVbW1DHj1qH3Py3IXNlQ8r0nw+d5Bkmm3ZkzKPLl6y9NPJoxJqf9eTX3/UErt3/6E/uVZUsmXW3AVJU6dOlhOHxaLXo6KnrxcVDypxp6wUDQ1NqKqqgtNpx8JF87Fs2RIEh9iZCO6PMKPnIEHc5/HBNCVcvnANh/YcQXx0DDasXI5pE5LgoKQHow9OWYChUjOdwyqmILHLMtHIUqAzRWtlDft/NZM3gZ6I7A+U+wvg/LUH+NVHe+AMDsH67aswakwC25/+KS95dlk1swncKrqLA3tASxTkAAAgAElEQVT2wSVJeHf7NmSlJiJQouQIqzmOmZEtJc6e5vNBcb/14/PeO4qOs9bzCVbShaDAbQK7D+dj35EjiIyPx/ptmxCXGAfJJoCEtU0WoGoq7LJipUtoQH1dB3blHURTbfWj9UtzfvB27rwjL+0i4RvmBDgBTuBLEOBi+EtA4nfhBDiBV4eAaZpS+ZMnSfn5V3506XrZvJ4+X2xEeFhQaGgwmpvqjJ6uzgdZY9IPzpiW/Vly9pjy4YC3uhr2Trktwi5LSmenL7jkbtmCY6fPfCsoLHzU/CWL7OnpaQgKkaCRqBSA7m6g4+lTXLpwCYVFN2C3S1iydBFmTJsMRaHUCJXVF0uiAF03IIhUtKGh82kPTp88h+KrxcgeNx7rcxdheEIAFNOEqfXCJlEOMVkhHEwISyz7jBadkTC1fh1b5Re0Eo19QZ4G9k2PAfhEGRdvlOP9j3ZDcrmw5Z31SE4dyha5UekFLcpjhR2UeQzgVmEpDuw5gABJwrf+lRg2IVDphmiZM/6tGKbnJh+yJYatxVXU/mEJYtEUoUJhA+6C4kf4JG8P2nt6sGx1LsZNHg+7i6qkaXJusuEzZRhTxjGlIff26di/9wQKLl7oXjp78l+vf2vtPyQLAul8fuMEOAFO4BshwMXwN4KdPyknwAk8DwHy0V958Cj7/OWCvzpzvmCqzRUWlpqegQnjshAZFYGqqoc4n3/W6+7uakhNSS0eOzrtvM1mb22oqRnW1NKSqBnmsF6PJ6rt6dOhbq83dsrM6ZizYA6iowPg1azpKiun8Fl69PzZ6zh37jTCI4Kxek0uUpKHMzFraD7YbDZ/uYUAgUSlCTy4/xh78/ajp60Dq5ctw+I5kxFsJ5eDAUH3seIMkcy0ZKz1l2TAUKGLBkSRIsyYLGVRDLS4jYUGGxqbHqsUbwYZFwtL8f4nByA6HNj6Nonh4TBICNNCO5ZqQWLYinW4XfS5GH5v+3ZkpQ6Bk02Gdb8YtibDrNDZL8Y/Py/9Ypi+488fZlnEdKyURSFDFYDmdhWf7N6H/IJrGD9tEpatyUVweABEirYwqJHPqoqmZAyDvNImcPbcTezduQtjkuJ2v71l859NHRnT/DzXA38MJ8AJvDoEBnIiCRfDr851xPeEE+AE/gCBouqGtEMnTv598e27cwS7wzlpygxkjMvCkCHRbLDa3enGzeJCXLlcgOaGRq9koic0OMRwu/uckiQ7TUGUfJrGmuOSUpIxefpkpKSNgsMpwuPxMlFI5Rk+ldragGNHT+LCxXxkpKdgw8bViIoMhUGtbLoOOxVumP0iVmA+2oL8Gzi4dx/iIyPx1qYNGJ+eCAqPUKgaztDY5BYCbV+AItH3qZhCgyGZEAXJShs2dUiQYKMDMnzQDR/LM9YgMzF8vvAOfvPxfkgBAdj8piWGqZSDJsNMDAsSTEOEYMiWGN69Hy7ZhvfeIJtEAhwkhg1KeaD7k0ylUDcaTPdbJvpPwhetEv2C2J+bRmJYEOHTBegicPxcCXYeOISAiGBs2L4JCcNimVeDLMhk2RAFA3ZRgtvQ4VMllJfXYdenOyBqPVf/9M3Nby3ISnvAL35OgBN4TQm8Aiqai+HX9Nrjh80JDDQCJRWP03cfO/GX126VLo5JHB4yefpUZGVlITzKyd7Gp+Yzmw3o6zNx/fp1FF2/gc6OpwgLCUVEWBji4+NhtzkhKjLL142Nj0NMTARkhwRB0KHqKntbX5ZcTMS1tfmQt3M3yu7ewvwFOVieuwh2h98wwAQeDWxNltzgVQW0t3fh+MFTuHGlAPNmTMP29asQFaxA1AzIgm5NekUSvJblQWE+Yqv9jRbR9Wf4UjoFzY1tgpVJbBheZpUgk4EHCi5cvYX3P94LW3AoNr21Dkmpw2EaKvMcM/HJSjhEiIaIkpt3n4nh77y5FZmj4+Fk9cs0pe7vnrNKPizTcP9qvmdj62dpytb10v8ngwS0CC9NyQURt+83Ie/AIVQ11SN33UpMmDwOkkK5x1QCYrDnckoyenUVPk1Ac6sb+/L2oLq87MEba9e8/dbSGVcG2vXI95cT4AQGDwEuhgfPueRHwgkMWgJltbXhew+f+NG14rL3QmMSorNnzMLY8RmIinSycgdVs6auir9Eor2tC63NzSydwWmzIzw0DC6Xi7297wzwt8Yxfy3g9vog28kiYcLjJpFohyjYUFXZhL179qOltQkbN61C9uQsCCItfqN8XrIikJdWY1NcTVfwuKoBe/IOoLWxHpvX5mLxrKkItoF5LpjEFG1w+0z0+FRoFE8mCMxLLIj+amVLzrLFaYpfECu6D06nRPHCUE0DhqTg4vW7+MUHu2EPCcaGt9ciKXUoTMOwJsOssoOmwhJEU0DJzXLs37WPTYb/5J3tyBwdA9olwfRY02q2Z1aUG1tM90UxzLTv5xnKlly3gtesehB2UOjTTNS1uLH/2EmcvXoZU3KmYfmqJQgMDrAKRlgts9W451NVCIoTXV0m9u3ej+sX8xtzF8750Z9vW7tj0F68/MA4AU7glSfAxfArf4r4DnICnMD563cSf5WX94+9KhbPWrg0MGPiJETGKGw6q+seaxGYJEI3TGg0iRRlKLIEn5eizAyEuqxyC5/P0n9UM0w5vOT79WluuJwy8wLTIi9ZCoCpCyi9U4Pdu/ZC0z341rvbMGLkEAgy+XJp+mqJYcp3IPEqCS7cvf0In328Cw5JwLvb1yIrdSRCbAJ0zQNZkNHTq+Ja8R1U1TZCcjjR1dsLBTKbGGsiiV3aNwmyqEAiu67qRWxoACaMS8OwodHsIqBotUs3KvHz3+yCIzQEa99ag6TRscxaTGKeJCqzSjCbBHDr5gPs370XLllhYjijXwyzGTOJ+T8ghokaE8TWzUpCtsSwtbCOajVkdHiAI6cvYc/xwxieMhJb3tiMyLBgVs9Mecy0GE/TfFb1tOhEtxs4fvQM8o8d65yeNfb/+Q/r3v7b+Hihj1/pnAAn8PoQeAXcEc9gczH8+lx3/Eg5gQFL4PKth9F5Bw/+TVVj+/rpcxcGZefMQnAYSTkVskITVZ1ygWEKVCRBi8hEKJKdSb2ezh4EuFxMvNkVmU2SmY9VtJLN2P8XdPS6e2EaMmyKi3Qoim8+wMGDh2CzS/jT772FyJgwyIoBjRa0sUVklKNrshQJSQhA4Y1SfPZRHobGRON/e287khJCIRhe6KoXAfZgNLU9xW8+2YdrJaUIDA9Ha2sbE74kEH20iI4mzZINDsUBWpmm9fUgIsiJNzeuwZxZE6Ao1v5evPoQP/tgF1wR4Vj75mokpcUwMWz9D7kdLDFMI9zbRRX+ybCM776zDRlpMaz8Q4CXpU08C3FjE+EvfvRfKn4h/IW/FFb8GjN3sIIPQXKAVOyRszex6/ABhEaHY/u3tiMqOgKG6oONUjfoRYuhMkuFZkjocQPXLt/AsQMH3OlJI377nzZt+ovExJD2AXuB8h3nBDiBAU2Ai+EBffr4znMCrw+BX+46tfbQqYt/4wiPSJ63YjGyp6Yy361P16GZHsiyBLfmhkN2wSDrgk+DXXEw7y0JQxKlPq8BXaOaYxk+TYUoaXAFOeH1uREcFAhNB8hp0dUOXLlShlPHj2H4iASsWrUQUXEhCAhQLOFKCppuLPVBZtPoo0dP48jhs8iZNAnf374OccFUqsF62+BTDTyqa8EnB86g6M59DE8agdDwMJi6CcWusP0gUUwJDdROZ2oCrl2+gsgAB7auWY7FcyYyQamZwJXCh/jJr/MQEBGGdW+sRTKJYYMWq1mVzPSCoD+14XZhJQ7vPgQXTPzJ2xuRmZ4Au0Dlyiw/AszBTCHFTN/ScxMs/6I6TYNAY13mJaZYNTI4k8imajzagskWE4qyA70GcP76PXx24CBMh4RVG1ZgzJgU9mLFSsSwEihEQWGC2O0BSkpKcXD3Xl90gDPvR+++/Z/TR0Q3vT5XMz9SToATeJUIcDH8Kp0Nvi+cACfwOwlcvlOTtPfY2X+8XVm9MG3CGMfilUsQHREEmwImgkXZfPYWvs9rItTuYm/mU8JE+5Mm1NU+RmNdC/r6vPB5JJYI4XSJCAxxIToqBsmpo2FzBCMoUEZfD3DudCFOnTqG8ePTsWFjLkIibOwtfxLDlhYWIQkSVFVDV3c3Tp48g4vnb2L+jBn4/sblCKYBr+ZmIl2Agor6Fvwm7zjuPHyMeQvnYfLkSdB0FYpCmbwkPEl0SnB7dbS2dOH0kWPobKzH1jXLsHRuNpXQMTFcUHQfP31/F5wR4dhAYnh0rBWTZpLIFZkYpqwI8v/euV6FIySGBQN/+s5mZKbHsGV4hkEZySKbEj9r/jBN1qInCjJL1Hh2YyZh/zi9/2t/ooYoCTBFO7yiiOt3HuO3eXvw1NuH5euWIGvCWDgUf4oxCXyKVSOfBx2HAZSWViDv0zzdYWiH/+Kd936QkfG7S1L4jwUnwAlwAi+TABfDL5Mu3/bXTuBV8iB97Qc/AJ7QNE2xpbc3ytfR0ZWYmOj+KrtcYZr2gmM3V3988MDfSwFKwupNKzF2TCoCAuzwkW9YoEVkFFnmgM9D1cYS2ps7cKvoOioflKGpoR5etxuKbIehk0FAhCgZ6HF3IyQ0HMmjR2P48FSkjRkHh82JQ4fO4OLF85g2fRK2bl8JZwC91a9BZz5aKs8AswB4vRqetLXhxInTKLx+Dyvmz8d31swFBU8IojWFpXyIyvpW/OzTQyi5X4XcVblYuHgam0KzWgvmFyb7ggCfBtTVPMW+HXnoaKjF9nW5WDpnyjMxfOVmORPD9rBwbHxz3e8Vw7evVeDo3iNwmga+/60tyEqPg6H3sfY7Vq9sUCQbJWjIVr6xP1GYvqdRBJ1ih65TIQglYtBCOMuKIVOVMyuxo5QLBboso/RRG3758Wd41FSP5WuXYdrMSXDZRRbcJkGGTtNhXbL6RETgfnktdn68A2pHx4n//O63vj9jUnLlV7ke+H05AU6AE3hRBLgYflEk+XY4AU7g9xJo6DIjqyvLU24WFq92BbjuLZkzeWd8fPxXWjRV/Mg9/J8+/M3u+/WVE2fMmYqVK5ZAsUmQFJo8mmzBXIjThY4ODWW376G05BYe3S8H9D5ERAQiMT6BRazJkgOKojDBV1ldiZq6WrR3dMLuCsOYseORnJyBsrL7KCouxOQp47FhUy7LIqamOJqGktuWEixIUFIcG4nhw4eP4eb1cqxcsADfWTeXRZgJAhklfNBNCTVNT/HLnUdx895DLFq+GHPnzkBgEED6kibEJOYFyc4kaUN9N/I+/ATt9TXYvm4lls+dColtS0BB0V385Ne0gC4cm97aiFGpMb9nMvyQ2SQchs4mwxMyh0DX+6BITrYtutGaQqtKw6rW6HcOM/ME2UsMHXaJ0ino3z1WMoahsRINuyRDM23QZBkParvx848+xf2aR1ixfjlmzZkGh2zlT5AkNiiT2KDJtRVc8eB+Hfbu3IfOxsZzf/7tzd+bmT3uPv8RGngEqAhHoAud3ziBAUyAi+EBfPL4rr+eBF7V6ffv+6NYXtWVWna/fG3hteury+8/sI1JT7307W3L/tuIESOefpWzeLW2M/nnH3yyr7atPn1azhQsWTKXWRfobX2bZIdK4RG0+O1aKfJP5+NJUzOGxkVhavZYpI4aiqjIMFBtM/l8aRJKXt+evj7UNdThRnExSu48QGeXB7EJo6DpAhqa6pE1MRNrNy5HYJAMgVUjU78bSVNA06yGtba2Dhw8cARFV+8yMfzeunkIlKxJsiDRbFhGZWMbfvLpIdyqeISlK5Zh3nwSuKRCdUiSzry5ukkLACU01HXgsw8+RHdzA95YvwrL506DJBrQTBFXi0kM74YthHKGN2JUShxT1JZn2LJJUDIFOYLvXH+IQ7sOssnw997ehAnjEqGpPZDFQLQ87Ub5o0a2TYp3I+WrUvQZRb5RIwgZKFQvDLJySBIUyURcdARGDE1k9grWl6epbDLsk2jy3YNffLwT5dVVWLVxFabPmgynQls1mJCm8A3DFKH7bcn3y2uwf9cB9DS1XPrxO1u+O3NyetlXuRb4fTkBToATeFEEuBh+UST5djgBTuDfJVD2uC397Jkrf3H50rVZquoTRicn35k5M/unS+ZmHhcEgQaTX+pGNokzhy5sP3D85P+MGBobsXz1UowYEQe7TYGq6QiQHfCqQGlxBU4fO4fG6jqMTh6JBTnTMX1yCly2/uQIK0VBJXGmg3mOaQra0ulBUUkpTuZfwuPaJ+jz6hBtNoyfNA4bt65CcAhVbJAApqxh8twKbMEdifGWljYc3n8EJTcrsHL+fHxr1RwEUI+FaDBLAIWQPahrwU8/O8zE8JLcpciZOx0BLpLkOhOaJF9ZiYWhoLWhA599+Cme1tfgjQ00GZ7BMo1JuF4rufelxDD5j0tvPMTBXQcRLIn4zlsbkDU2AT5fLwxdQXFZJX7xyX64ycDLEjJoQZxh5R7rFDPnZdnADJKhw2WTMD9nJlYtX4LIEIqf0yDqXghUOkK5zI19+NUnebhXXYlVG1cje2oWAqj7mVIy/B5r1jTNFvmRTeIxdn+6H31tT67+x7c2f3felLG3vtSFwO/ECXACnMALJsDF8AsGyjfHCXACFoGWlpbAxy1d406cuPDnxbfuZoUGhz8ZNy79yqRx4z5OjBtWnJgofCXP8K26tiGf7D74dzfKSjfNnJ+DuYtmIzDIzny7GssHtqOmshGnj53Fw3sPMWrocCyZMxvjM4cjLMDyABimzsop7LLNXyFhiTOvZkKQBbS09eFGSRnOXS5C2YMqVmk3MTsLG7euQ2CIVThh+MUwa1fzByw0NbXi0MGjuFNciRXz5uGdlXMQJFOIAsW9GTQbRVVzB3656zhuPazGgqULMStnCgJcNFz1QZIpG1mEVyXfsw3tzV3MT9teW82a7GgyDFNlsWTXSsrxkw92wRYcgs1vb8ColIR/NRm2qkCsxXi3Cx/iUN4+hCkK3ntzI8alx8MwVHhYLnABdh67ANPmRIDLDqfdxrzBFBihsBxlE729vcwf3NnRhr6n7Vgyfy7e2LwOYS4BPo8KBy38E2X0GQqqm/vwy0/zcLeqCms2rUH2lCwm9pnFmkW+Wf5okt1UkPLgviWG3a3t1374xqbvLZyeXsx/djgBToAT+CYIcDH8TVDnz8kJDHICtbWd4Y8a6nNOnTr7w+Jbt4fFxsTXrFqx4qdjU1LPjxgR+FwRWscLy+d+smff/+pwu9PXbF6HjAkZEERrsEwLtFSPgQtnLuHCmYsIsjuxYsF8zJkxgQlhX58OmyzAbhPh9bpZ2YYgSKC1YTTZJREq2US4DaClw4dzlwpx/uoNNLV3YNzEcVi7cRWcgSK7LxV9UF2yblghC/S95uY2HDxwDCWF5Vg+ey7eWz0fwU5AN01rYZ8gobLpCX762VEUlT/A0pXLsGDhdDjsgM/rZdtQZIW1zOm6zCbDn/72E3Q1NOCNjSuxdM5UNr0lG4UlhndDCQnGprc3ICU5gU2X2Q6x2o3+NAkBtwsf4ODO/Qiz2/DuGxuQlZ7ApuJeDfh07wnsOHYeKZmZmD51KoYPjWfFGG63mwlzSZKYjUT1eXCrqAiFBZcwZVwG3tm6CTFhCkSaigs+GIKMXlVEdXMvfvnpbpRVVmLD1vWYOiPTmrr72/ToM/EiCwdNyyseVGN/3mH0NT+5+mfbNn5v0Yz0kkH+Y8EP7zUh8Kpa2V4T/M91mFwMPxc2/iBOgBP4XQSqm56OuHShaOuFixffam1tCUoZPbJo9rQZ/zJh3NQLsbFC7/OQq27tjTucn/+D42cv/DBh5EjXqo1rkJAYBdUky4IIb6+K9uZ2HNx7GLdvFmPVooVYvyIXcRE2yCTGmIeW5qX+ZWJUzkHjSRKOmgHFTpkHQB8tZhOAmoY+fJS3H0VlpUgZk4Y33t2G0FARHtWAg8KN/cKOjoUmqW1t3Th+7BQKLtzEnMlT8P1NKxDhogxk8gzTcFRkYvhnO47hVkUlFq9YjLnzZsDpsNrwyO9Lmb7kRlY1AS11Hcj7ZAee1tdj2/pcrJg/FbpuwJREXL5Ril98uA9ycBATw0kkhnUfKMBNoJQLiPBR7jBEZhk5uGMfQmgy/NYmZIyOZ3JZVUXsOHASe85fxLDUFGzbugXhoTLz9T67UZqaDPR0AaePHsW1C/mYmpmJretXYVh0ECumE0wvdEjwGDKK7zfh15/tRXNXB9ZvW4/syalUCgivT4VLUdhkmGws1DPS49FQ+bAae3bsh+z2XPjhm5v/dGZWMvcMP88PB38MJ8AJ/NEEuBj+oxHyDXACnEA/gYqKtjHHz174cWHhzek+r7tvxswpRzMnpO+eNTGtRBC+0Ov7JZFVtreH1Fc2pt55VLHweknpt+tb2obPWbAQuauXwpRpwumF3W6H4TVRUnQLe/P2QjZUvLdtC2ZPyWQTXMXUIJLgZHK3PyvBb1wlMazrkGQTumFAgwRTltDaARw8kY/j+fmIGzEMazatQvyQcOahZcvhTKuBjmwSsizA6zWYGD559BKmjcvEdzesRkK4wrYJSYcuiKhqfIJf5J3ArYoqLFmxCLPnTofDaS0sE0wVgmQJWU0lMfwUuz7NQ0ddHbaty8WKBZO/IIbv4ue/pclwKDa9vc4Sw5rKFuMJkJkFgVU7mwITw/t37kG44sC3396EsalxjIDXB+w8eAZ7zp3BsNHJ2LZ1IyLCAlh5Bx0XRccRLoHEcKeOM0dP4OpFSwy/sX41hkYFgmzOdEo9moleVcLNu4/xwe6D6NG8WLd5LUaPHYkAOyVlUAWKyF40+HwmJLuAXo+GstJy7Ms7iBBZOfWf39jy/fFjEiu+5GXB78YJcAJfI4HXYdLNxfDXeEHxp+IEBjOBe/fqUi5cKf4vly5fX6Bresv0aZM+W5w7Oy95SETdVzlu0zSlC9eqRrZ2tCdXVD2Yev9R+byWjrYUwWaPCo+Ox5x5CzB1Zhb6vAYUByUwmNDcBk4cPYUTB49g8vhMfO/trUgID4QMDTJNj62wBEvd9TessbY1euuekhzIgkCLx2zQRQk9XqCgsALvf7IDwTGRWLlhBUYkDbFsDboOh0SlHSZkao0ju4QAnDl9CXt3n8CY4cPw/c3rkDY8zLJSiJSnYKKyoRW/3HUStx9WYXHuIsyaPQ1OF7kbaIqrsQk3NcfpKtBS34Xdn+1Ee20ttq9fidz5k9jzmZKAgsJ7+Mlvd0Emz/Bb6zAqZQgEXWX2DckkMSxANa3M4tLiB9i/cy/CZBu+/faWZ2LYpwI7DpzB7rOnMWx0ErZv24Tw0CDWFmeJYeJk5a11d5s4e+wErp2/wIT+9nWrMSzKYTEVTDZv79WBi4WV+PVneVCCArHlzc0YkRzFBDrZMnTNgCTRFN6aDPd6DFy7dgOHdx/Rk2NjD/5o8+YfjhoVUftVrhN+X06AE+AEXhQBLoZfFEm+HU6gXz0w1fV63RoauiJ35O36bwXXSuZGRca1Tps+5aN5s+YdGjJEaPuqJI6evjrmxKmC/1Hd0JwhO8woOKWwiOgIDE0agdj4RAwdNgIJCZGsjY2ElUfToPaZzCJx5dwFLF0wG1vX5SJA1hBoo1mpBkpEs0SwzR8/RpNdsihY0Wim6YNh6JBEG1RTgkcHSh+24h/+5ecwbAq2vrMFSaOHsskwLcJzShJ8qg67Qg105A0GbpXcRd6OQwiQZPxg2zpMyRzOBqx0o0VjVfVP2AK60ooqLFq+EDNypsERYLUcC4Jl9zAMy8fc2tCN3Z/tQnvtY2xbt8IvhmnKLOJyYRl++uFeSEGB2PzWBiSlDIFIzXGU58vEMD2fJYbLSiqwb8cehCkyvv0WieEEtj8khncePIe9Z2kynIQ3tmxEOJmrWfuH5XGmCDTa/+5O4PSxU7hx4SKmZY7Fm2tJDNtYQoRKkW6KhC4NOHSqEJ/uP4iEUUnY+tZmREfb4fP5EGCzQdM1KKzkgxm80d2n4dzpczhx6JR7Rua4X/9g/cq/io8PfvJVrxV+f06AE+AEXgSBb0YMvw4z9xdxdvg2OIEBQuDx48dhp84UvF3X2JIyJXv6sYlZk85GRws9z7P7//ybvZtPnL7y15LTNXzM+DSkZ41GTHwUZJsNzoBAOJ0OyLK1OM1n+iDIMnw9wJ6dB1B46QqWL5qPdbnzEGwHAm3kF/bXS1CeLmwwBcswQV1qbHEXRaBBZe1qkijDq1NOr4iq+h78y69+i4d1dXjjO29hwuTRUHWTtdbZaDKsqSwWgfJ8NcNEY1M78nYeQkNlFb67YSUWzcmGolhJCvRclfVP8Oudx3Cn8hGWLFmA6XOmw+6y0ixIDFM9sv4FMbxnx24mhreuXY7c+dnQKMdNlnD5Zil+Rp7hwCBs2E51zEMhUhoGBbgJEjsmaskTBfIMP8D+vN0Ik2W8++ZmpI8eyvbHRzaJA/nYn5+P4UwMb0JEmM1fM23tE4lqWujGPMPH8nGDJsMZJIZXYFi0QkNkCqyALgI1zV7sPHgM5wqLMHnmdKxYuxSyHdB9PQhyBUDXNCiSwqLoyEPd8dSDo0eP4/yJs11rFyz4728vW/nLqCih+3muF/4YToAT4AT+WALfjBj+Y/eaP54T4AReOQKmaSrNzc222NjY51ok139A//zrPd++eL3sr5PGjI3MWTgLw5MjmSjr83jhsNnZJNXQdMh2AR7TC0Wyo+upij2f7cet6yVYtnAu1q9YiPAAAXaRXMBUSGEpOxKLJBtp6mkVC1vzYpheiLQUTFDY4jJDklDd6MGHO/fhYlEhlq1ZjsW58yDRYFkw2VSURLTm0yGTGFdNVtZx4MApXL94ERvnz8LWdcvgcMoQKbfXFFBZ18LEcFllNZYtX4RpOdNgo2Esbc9vk9B1icX6PmnswZ4deUwMb1mTi+Xzs5n4NmUFV0pK8bPf7oUcHIx1m9dgVNKKDVEAACAASURBVOowSDqJXzpGksS0TSuqrfRmOfbt3IMQRcZ33tyCMaMT2TF7vQLy9p/FoYsXn4nh8FCF+ZcJFW2DTYZpitsFnDl2DtcuXMD0sel4c+1KDIu2gXV8yIAqADfvNeCTvYfwqLkV85cvwez5k9g+wPQhQLZZ+cVkAaEXDxLQ0PgUhw4cROmNkpY3163+0bdycz57Hk/5K/dDwHeIE+AEBiQBLoYH5GnjO80JDF4C/+9vdn/37KWSv0nJGBey4Y31cIUAXjLSwoCD3nL3kbgFFLsEL9wwDBE9T02cOnIOV89fxewp2di0dhliQiXYqZ2OkhpITdON0hb8Qvjz4ARatqZCMslqIDMxbIoyKmq68MHOvbj94D7SJ2Vi7aY1CIt0MGsFe34y6fodMTTx7OxRcf5CIS6cOImM+Ei8s20NhgyJhSJbSRWVtS14f8dR3H1YjeW5izFj9jSINBkm4SroEEWqK6aJs4C2xi7s3bkHbTXV2LJ2GZbNnQJNc0NQnEwM//zDPcwzvGbjaoxKHQ6ZxCYT9VbdsU7CXpL8YngXQhQb3ntrC9JTLTHs8QjYdeAsDl3Kx8jUJLaALjzUCZNqlk0DmijBoBcOZJPoBs4eP4nrF/IxI2Mstq9ZgRFRQTA1HbokoU8FzhUUY/eRkzAcLixetQyZk5L8Zc8qZFbHLMPUaZGixMTw3XvV2Lt7DzwdXfXf3rLlhyumjN7HxfDg/ZnmRza4CAzGCm4uhgfXNcqPhhMY8AR+9snhd0+eL/rbpDFjwlduXo3AcJl5g6kswqDkBzI7UOuZ6oVpM+GjxVm6C9cv3MTRvUcxatgQvL1lPUYMCYZTtmwKrOCNtT+QGKY8CAO6v3aDvpZZRxx9X2RJC5phQ3llE/7plx+gy+NBzPAErN20FglDIkAVGiRwKfdXFskzrEOxyejuM3GntApnjh4FOp9gy+rlyJk1GZTERlL8YX0b3v/soDUZzl2K6bOnQiErAdPopl8M02IzoLWpB/t37kJLbQ220FR67iRWEkccrpRU4P0Pd0MJDsLKDauQkpLIPNFMm/dPdikLWQDu3HqI/Tt3I0hR8O5bW5GeGuefDAN5B/Nx9Pw5jExNxhtbNyAs1A6dxtIwoAkydLKTSEBft4FTx07gxsXzfs/wSgyLCIZAbXmiiKZ2D/YfO4cT5y8jITkJuetWIHEkebotrqzOWVRg+HuYifS16yXY/dkexEdG1727edO7OaOjzwiC0D+sH/DXMD8AToATGFgEuBgeWOeL76013vNHA3Acg5FA3pHrSz7auf/9lKxx8cvW5yIs1gUNKiBpINevTAvNvAYE8qAKGsvWVUwFVffqsPfTXeh72oXtG9YhZ+pYOPwlGQqLPqBlZdQIR0UYAgxTg12U4Pa64bQ74dZUGKIMQXSh2wvsP3Iah46fQ69HReyQRMxfPBfZ08ayRWVujxtBlBtGE1lBhJcygCGjqbkTp44dR+mVK1iYk4Ota9cgNFBggvhxUy9+9ckO3Cy/jwkzpiMmNpbZNwQSnZQ4IQoQJRkejwd1NY2or65BW2MjssdPQMrIJCa8TUPCw+pq3L57H4rDjtFZabA7ZDidTjhtdv8iPAMmq3U20FTfgPtl96B7fVg4fy7iYqLR29cD0xBRWn4fV4tLMCo1BWmpoxAc5IBueFmqBuNDQt9vSXlU8RC1VQ8wIysTb65fjcRw8gFbQv7h43b85sNdqGqow5rNazF+6jgoASJ0mrSTh9kgga8yOwkda2eXG8eP5uPcmYuIDony5i6c95OcCaP/OSXGUTUYr2d+TJwAJ/DqE+Bi+NU/R4NqDwe8jB3wB/DqX04XrzyY8utdBz8Nio4ZOWvRXAwZlQDYdDZFZUkHlFtrKJBkKpfwQRIVKBDQ2dKL00dO4dqFy8hKH41Vy5Zg9MgEFodGi+Ool02RJeimBq+qsiQImlraWDWziB6fD6bshA4ZN+88wJ5DJ3C/ogY2VxBUXcesubMwf/E8BIdY2cQkriXTZCJPp/QFQ4Dbq+PSuYs4umc/RiYkYMuq1Zg8LplFjNW3dOPjXbuQf+0KS4KgGDcbZCYYNYHm01apBglG1eeDu6cXpmogxBUMp83J7CGSJEPVDHT3uWF32mAPtLPjIeFLkWhk36AXDJJgiey+nm7oug5D0xARFs7Yeb1ehIWFMA9269MeuFwu2G20/17o/pIQQZaYYZgW41EjnUNREKCIyJkyCauXzsewmDAWrUapGweOXcO+w8cREBKIjW9uYKkbhqTDp9ELFTozVsYw2UvICtLS2oG8HUdw88ZtiKaI4fFx7ZMzR++cPy37nyckR9x99a9QvoecACcw2AhwMTzYzig/Hk7gJRGgBXICxR685Fvh/Uejf/3RgU+bO/vGL1+3DpnZKQANYWlhl2Z5Y22SyHJ3IWuQRAmiIYKGx+W37rH0BPfTLszNmYk1K5YhKkxhe6xqKpyywkSnR/XBqSjQNEsMu30+SDYHM040dPThs7z9OF9QiOi4oQiNjMKtO7eRmZWBVetWYkhiMGtTo7gwgawAMlk2TKiaCYddwoPyGuz55BN0tbRh9ZLFWLdiIewK0NHhwdXiIjx8VI0urxcaWRK8BmQSnZRXTAvtRIF5fdkHBPR198DwknC3Q6RCEJqCKwoTxB7VA1dIEHRdtQSvQeUW1q90WkZH4tih2Fj1dF9PLzRNg91GTXDWc9D+arq1TUmgCbcJSbam1CT2yf7hDAxAb1c3XE47bKKICRmjMTFjLKJDnWyR3YOabvzk/Y/wqLYWM+fmYGHufASG2NgMnhWUGAJU1YqvY018BnD7TgV2fLYPfb0+REVEorPtCQRvX+eEjNGnls2c/vczJyZffcmXGN88J8AJcAL/igAXw/yC4AQ4gd9LoNY0nd6aJ2M6nz6Jjxsaezs+LOzxy0R262FT9Ke79/+ssPTBmoW5qzB3cQ5swVaWL2UDKzJA8tbtI9XnZWUOZJuQRQW9T3tx6Ww+Cq9cg2gYWL1qOTLGpCIxIZLJRDbYN2HFlFEYgsQq5aDqgGgDauo7UHC9CCfP5kOQnJg6cw6cAQHYc2AfgsMCsWp1LjLHpUFSwMQey/al0gkPCVLA5VTQ3eHGuVNncDU/H8Niov8/9t4DPI77vhY9U7ah90qQAAGwgCBRCIIEeycliqSoSlu24jixE78vz3mJnXx5yfUX3xsnN/3Gz3k3cRw7iWRbtmQVSqJIUewVJEEQRCFBdBC9AwtsnZ2Z936//y5JyVYU2ZTYZm18gIDdKWdml2fOnN85+LXPiME1KuDweokEG/AE/aysqibZCIR/mRroSBlm9Zs20jRhJ8VZI8IuLBBEaGWFhtuIZGqUycYDc7QNRHLpix6khPMySEWnmuewbcJpFxcGZMWQFVLE7YwrKde0fCLENHzHhFqSmGQrpFobBvw+L2alp0OWTDgUGZ6giXdP1+CFn76KhNRk7H7ycSxcMh8GDQOqJmx0oMJ4Ezb0nxPuIA4fPoXjx09h1uxcrF+7GiNDg6itvoDh3hsoyp9z4tGtG/54R1XpBUmSKK/CelgIWAhYCPwcAnf6Ju19QYYfxMlF69y2ELgfEDBNUz1zue3R6gsXf0cL+KSd2zb9RfGC3GOf9Lb/00/27d3/7qm/zSlYmL164xZEJ8VCsVEpBfEjE06nE7Gxdm5wo0g0IluKpELRVQz09+PcydM4feoU4mOiUbRwPlZVVSI/by5HszkcMuwUi0ZVzQCnIXi9Oto7u3Hq3DnUNTRCtjlRWbUalStWIwQDL7zwAnr6u7Fx0zps37EJTidFppE6rMGu2OALhNjCQHKpHjTQ09mNN17+CYZ6u/Ho5s14cvdORNkV2BWVEy6IGNMMHlNfg8orwp5h0YLMD/obtbfxhz61z3EznPDzysTEww9SaMNZGeGRQPGayIPWRZ7lCDGNfGfrAv+HiFOjB8fW0bZRCgf9guLVwhvEGFNG8JSH8W/pHsDLB46h7loLypeVYeO2DUhOTeSMY7udjpUYnotyOBDQxMVDc0s/9r25H329Q6hYXoGt2zYw6W673o4LZ8+iq6XFmxwfdWrj2uXfWlxWfGllTo7vkz7XrOVbCFgIWAjcF2TYOkwWAhYCdweBptbhstf2H/jO+YuXFhbmz2n5jc/u/Xrxguwzn/TWvPneqdk/fv2dv5mcCW3MnJObQkEEMt3il00ezEpPTcfSiiVYWJwHO7fAaZwhTB5UEjb7+weYDDdeqYPf50NWRjqKi4qQnZ2N9NQ0xMbEczvaxMQURkZG0dvXh8ZrzRidmERCUgoqKpejeEkJcnITWIF+442DOHnqBOYWzMFzn3sWmemJCJmkmIagKjYEgzpsioJQgGLaSKc18e477+Dwu/vJE4vn9+5F/uxsJERFwWaYZHiAxGyUBu/CZJSi1UxqwzOZIFIaBFc+K2GFluRbLnYW/mLy4lLQL9V+CE4rFFxBpIkwCwZMajL5mmlbufzCTmHJYtn8dMpfDtsYIqSaWTJxb140RVSY7B/WKCfYRgODwIuv7MOBExeQmjMb23dsxqJF+Zx2QZXLdpUuFESbnfBAm+xLPnGiHj999Q22X+zc9QiWlC2A0ykj4AdudA3g7MmTqK89P5Ma56wuXljw92s3bjy2IS/P/0mfb9byLQQsBB5uBCwy/HAff2vvLQQ+FIHW7rFF+4+c/OOaS5c322y24a0b1/xg/bKlP8zMjB25I7B9xH2uv/nHHyy/2t7zGR1KodvjS5PstkTVbnN5vZ4MA4pcXlGKVesqkJufw/5WWaK0AiJ5gMMBDPaPo6bmApqvXsWNGzeYIFIbWnxcHBx2F4JB4bWdnvHC7XZz1fG8+QtRUl6GRcVL4IpWIDGpAy7XXcX+/W9henoKOx57BMuXV8BmV2Ajgk7UVwcMil4wKe1C4qG91vZevPrKy+jv6cTKimXYsWkDimbnwE5DbhxuEUJI0qFQnR4ZagXt5AepsSQEh/ksgsEQVJvM8Wk0NCiqm8kjTOtXbj4vclzYZUFNc4EgHE6xjUyAQyFWgW2kYot6DjZ6ULU1teiRL5nWyQYHUnY1Hw+9STY7dMOEptjgN4GLdVfxrz/8KQbGPdj62A5s2LQC8QkupucBf4gtEqRmO+0S/IEgDF2Fx6PjzbcO4XT1eSwsno+nnn0cqanRnM6hhQSJHugbwaWaanRcbZhwjwye3rpy1Td/7/N7a+/I+XafLORO3/69T3bb2kwLgbuKwH1Phi0LxV09f6yVP6AIDEybqUeOnvzTYydP7glq2ti6VSt/tHXjmhdnp0b3f5q7XFPTHu8xvHGTPn9KyJQSYMrJrR2dj549V7sjKj42bdnqMqzdtF4oqXYb1zSPTUwjLi6WSV3QH8Dw8DCuX2tBc3MzRoaGofkDTNQ4DE1VkZiYiPikRCxYsAD5BfMQGx+HmBgne2mJo9JyhobcOHBgPy7WnMfixYuxe/cupKensp2AKCXbLbxBLgWhrF967bTXw+t8/ZWXEZiZwmcefwJrK5Yi2RWFpGgXP8kksi3p0EPCBqEoNigUscbKrVg3W391E4qN4uAMVnojflwlbJAghZdez8T1F3yqB4IBKDYbVEmGRskapgxFMaHpfqgK1WKIagwi0JzLzL5jKgOhbGbxW4+mw6MDV1o78MY7h3G9uxez8+Zhx+M7MTcvDVrIj1ink+PY2N7BkrfO6yTFu7a2BT/72Tvw6xpWr1uJTVtXwa4YPLDnI2XdYWfrSH/PGM6fPoXLZ891Jyu2l55/bM9fbtlSMfVpnnfWuiwELAQeLgTuezL8cB0ua28tBD55BDomzDnV56o/d/zk8d/q6eoOfPH5z/8/ZeVLflqQETv8ya/9o9fQ1Dmccex07R/sf++95zPzc1NWb1qLpcuWCOWTSJhCcWABuFwOJoikoAZ8QUxPT8MzPY2JiQl4pmdYFY6Pj0VMXDTi4xORlpYGyCoTak5AIPIZJrZESOvq6vDDF15gv+xTTz2FkpIlcDhUHlazyQpHn9mJHcuA2xtkcjc5M40Tx4+j+sQJRMkK9u7ajU1VKxFlAi47oMsUKBGAQ3ZA04Kw24SFIRQUvtvQrZq8m77e2w3BSvjvNwv2PgBfxH9Mv44Q3ch3+o2CEA/v0U+kM5MVgtwYrFMTqWUnRwg6ZSmbEvqnpvHSvrew//BJZM7Ox3PPP4/snAy4XLQ0DSqp8yZp1dxJwhcLpIKPT3rw5pvvofp8LdKysvH5X9+LrOx4yKYJmyphyuuF3RUlRvdCwNjABN74ySuTM30Dh/ds3vS1Z3atufHRZ4b1DAsBCwELgV8OAYsM/3K4Wa+yELjnEfhlbrf2m2ZU9ZnG548dO/HHrc1XXZvXrXnzqT27/ltuavTAvbTDp+ra571z+PQ3zzY0PLlgSbF93frVKJifDwcJrgYQ1EXJAymlRGSJZZHKaqPhNZ0FS7ZAUK6uSnIkZNjIghBWRbWw95Z8vZFht8Hhcbzx6utovtaC4uIl2LZtC3JmpbGaSVhrWojtC4osw6uFoJGyrKro6OjA0UOH0X61GQtzcrFzyxZULlqIKKfYTlkxYJdEygOpqaSkEhElnksqL0XKfdiDot3YoUyDbu8bmxOvEP7i2x+3L4wosM4RcSJZgpKYgZAGHjCkYTktoHOTnM1pQ+/oBI5WX8A7x05jJgSs37oVK6tWITFJKMoGZz4LMiyT95msI0GNVeiLl+pw8N1j8PqC2LhtCzZsXsb2CDMQgNNlh2bq8IWCME0bbIoNndf7cfjtg4Hhto6Tex/f9Tt7dyxvuZfOP2tbLAQsBB4sBCwy/GAdT2tvLAR+JQSOXenc/tpb+/92eHAoZ86szEt7Htv6jarigk98YO6X2egDl3vWv/DKvn8emhqbn5s7C5u3bUReXg5kuwSbjWLIBCE2TRpAe/9QGqUcEAmmKLGQEeKoNYfDIewWMpcI8yAcDevRoJ0sqwhpBi5Q7Nq7RxEIaHj88cexuHgeEuOjmRCTqsoxaVxTrDAZNhWJvbBN9U04f+oMelo7sCA3F8/sfByL5mVwsgSpsyFTg1NycFMbFWNQlNrNmDT+lKaRvFuPyMgc5QkL2kyM/Oc/zjmBIvwQiRE3R+Q4I5nb7zilQhGRc6QGh4Mq2KZBhNgAPBpw7MwZvPbOIYxOz6Bk+Sps2rYVKSkx7I/miwfyP0sKJDYsKzBDQIwd6OmdxE9/+ipaWtsxb/4C7Hn6CWTNikFQM+CgoUFdg6ma8Pp9UG3R0ILAySPncPrICSQ5oi7ufWLX/7mjat75X+YcsV5zjyHwy1yh32O7YG3Og4mARYYfzONq7ZWFwMdGoK57YNHhwye/c/r8xbKczMy2zetWf3PXhspDn0bRxsfeWABNw2bBkUv1f/H2e4ee9vqmOAN4WWUJXFF2OO0y/MEgWyFsVFhhyjc9tUwtyQ5AU2KkBmvUvGYyGZa5ptlkgkYqr0kGYFZoVVZ8h4cn8d6hEzhzuhrz5s3Djke3ID9vFi9L50xfCZqhQaGBM1KLSR2l734D3e3dOHrgXXQ0t2BlRSV2bF2PvJwEJDopesyPGNpOSpeIlGeQlB3+hBaUVhBZUl7FQ1RMC3NumOR+8BM9TIZvveQWGRb7JRRcmsyjiwbqAWHFlvzWhiDDfUMeXG5qwtuHDqF7oB+Vq9dh/abNSMtORihkwO4gZTgEmeIv2B6hQ4INpi7BCOg4e/o83nj9TUTHxmDTlo1Ys2GlmBeUQpB1E3ooCIfLwQr49IwPjQ3XceTQafS2dyMrOWVg89pV/31j1dJX52fFjf4y54n1GgsBCwELgY9CwCLDH4WQ9XcLgYcAgZ6enqRj1Zf+9Nips89GRccMbl67/m9XLV3wRlpa2sy9uPtNU2bS2LS/7Hp3/3NvHzz46zOeCTz5xE4sq1zC8Ws2VmTJ9CCLATGd0gqEOsyJE0wSzfAwmg12al4LR4nRdyLEmhaAjSqbTbISkP/VziyxqbEDr71KyRLT2LxpHVavqUJsnAq/PwinS2WiZ3IHHMWfKQhwrBhVIwO1F2pw4vBRTE1OYvH8udiwqgIryksRRZnFwRDkUABOmxpukjPAtciR6DUmwmGmKmin+IoEAd+uDN9UhP+zj/hw9Jomijmo9IMzj6mZDhJCEtA/5sb5i5dx/NxZ9A4PY17RQjyy41HkF85ixZgG8+x2SvGINMxRE54YBAwFgNZrnTh25ATa2tpQVlaKLdvXY9acVAS4qtkkPnwz+o2a9a5db8eBA4fQ2dqNaFcMtEDQiIuxXalaWvLt1ZVV71bmpQ3ei+ejtU0WAhYC9zcCFhm+v4+ftfUWAncEgaMnT+549bV9fzc6Oqbu3rXrfz+2ffMLcXH3nhLXZJr24ORk0UxIXjgTwLbaupYdJ06eTHG6FDyx5zEUF+fDNENsWyDfAqmdnLpLsqNM9olwyYUWHiiTRFqDZ9qPnp4etkQkJMYhKysd0TF2BIMBVpQ13YCqOKGHZLS1dmP/2+/hxo0exEQ78eSTu1FWXsQeZEkm37ApqqMNA3bFAS2oc2V0IAD4PH60t7fj2OEj6GpvwdJFRdi6djUWFBYgMdoFF+X96hploDGxFoouOX9Zx2UyLH7F4WwSDa2xuvthn+SRyboPOUsIn0geMbfNKeQiBia9Gjp6+3H20hXUNDZiYGwSS8pLsX7TemRlZXDuBKngMEkFpyFCiffZpPY5jn2TMDE+gyPvnkHtxTokJyZg2/bNWLq8ELqhwxf0i7xjKvhQiTibGB+bwJEjJ3D69GlkZc7CkiVL+IKjqfGKHvTOtM7Pz923qrz8X5/ZsLLtjpz01kIsBCwELATCCFhk2DoVLAQecgRGRkZiX3/99X88derUynkF+ac++7mnv5mfv+iem97vng4smtCCa4anZ54KyFKRZIvOPHH8Ak6eOIW83Cw8+cQOzOKBNgN2aqvTRCucocvCJiEBk5NedHR1YXx8HKRE6rqEyYkpjA2PoLe3l8fNiOytW78KZSWFcPsDiHI6WIMNBoCu7gHUXmpAzcUrmHZ74PXNoKSkmJvUChbMgayEYBBBlCjmTIYZklgllXQZwaDBWcHEYmtrG3D65En0tXchKyUNy0uXoLKsBIW5GTzIR0ZjarkL8UjfrVY6Cl2jfZENUdtM3wyKPxNUmYn/7T7hiO/4/Z10t5/wpGHT/3R4/KLszaeFcKW5Fadr6nCp4TrkqGjkzluA1evXYf68LAQ1E3rAi9hoF8xQkMtOghQNJ0ucwCFLMgZHxnCtsQUH3z4JPSRhVdVyrFu/AhkZLngDHo53c7pc8PiDiHVGY2oygIvnLuHdA4cQDGnYseMRlFeWwj09jfr6ely+VIehnp7Redk5xx/dvPGfK8vn1c5JSJh4yN+61u5bCFgI3CEELDJ8h4C0FmMhcL8iQGT40IH9v9vX0z1reWXF/7tuy46Ge21f2qfMZf0z41/xwdiq25TskKJwhfJ77x7DxXMXsWplJZ55ejdcTiKLlPdrQ8DngyrbWLUkq4Q/CDTUN+HI8WNcwuF0RSOgGZie9iDK4WRyTH6KQMCH0rLFqKpajry5cxAb78TUpA83+vpRc+kKGhqvwe8LISsrGyF/EEPDg6hauRSPPLoRKcnRrEyb0KHKCkyDaixoOI1kU8Ab0GCnog4JaGnpwPFDJ9DSeBVxUS4sKizEqsoKLMzPRXKSiwfZIvNGYTcuFCriIMor+j1AzXwmk+HbB+PE0RO5w0S+3/8xf3u6BKdgcJ6ZyF0eHB5CbX09ztVcRkNrB+xxCVixdh0qV61GemY8e4pDGuGrwiaZMA1hRaFhOIqlI8tEMKQLnA+fREdrL5YtW44dj2xFRmYMQgZZT2i4MYSgTikV0Zh2+3GtvgVH3zuKG909WL1mFR7duR0umr6TZczMeNHa3Ipzp05joPOGNyMx/sqKiiU/XrlsydtleXld99q5am2PhYCFwP2HgEWG779jZm2xhcAdR2BkpCvTMAwjPX3u0B1f+K+4wAtTwWXuUPAv/MDqoBFympLCg3HeaS9ee+VNDPT0ory0BNu2bMScOUmsrAb8GqIcNrbT+v067A4FXV1D2PfWAbS0tiEuLg6q0wWoDqSkpiI2JgZx0VE8vNbUUI/hwUFkZmZizbp1yM6ZhavN13Ch9hL6hgdZ0SxfvgyFuXMxMTCOE++9B4oHXr92BaqqliIlKR6+gB9Oh5Nb2zjeLVyiYZghGJQYQWkVkoLhoSlcbWjG+TPnMDY4irSEJCwrK8fypeVIS0lGUoICuy1MgE0ReUbZvJR/RoqwRr5bhQi3qGUmnzJlwZEiTNYMKukIhgwe6KMPe7+mw5Qk2NhHIhRnv0a5zMCl+nqcOX8eHTe64Qn4kJSZjq2PbEdufh7iE2PhDQQ4M9hut3P+sAwDWsgr1mVzIaSZ3AI4PDyGl176KW509yI9PR2P79mFubk5HG1Harc/4OP0DqcjBn7yFbd1471Dh/gCpaysBOvWrUFWdhrjppsGFCrt0IHRoWFcPH8B586cJQ9KV/G8wsNry1f84841xVd+xVPMermFgIXAQ46ARYYf8hPA2n0LgU8HgY+fqUT+4IBX3z7hD37VLZmbiPiJymCJEwuCHj/e3vc2Oto6kZIQj4ULCrFwfiHyc3MQE+WEw2aDLdzg5vYEcPrMeRx+7yhk1YHlVSsxJ3cuAjAQFRONmKhoVof9Pg+uNTahtuYy+vv7kZqahpiEeAyNj2LSPYn0WRlYuLgI+fPzkZyQCM+wG7VnqtHachUJcdEoL1uMZUtLkZqazMosWQf8QR9HvLlsNlZfQ5RUwbFmCkzZhtGRaXS0tONawzU0N1xDYNqL+QWFmJubh6VlpchITUJyogq7AvEVJsQ6EWuZPL6mqHemjGSKgmDirfMX02hqtFOJLAvyS8ow1S97faQET6G1vRvX29rR0NiI8elpZMzKRMHC2lPYWwAAIABJREFUQhSXFiOvIBd2B5FSUV5iD+eu6Rr5og3YVLJV+GFXnAhpMjo6unHhfC2qq6uRmBiPRx7dgsVLipAYH8OlIrRNNIioqgp8Xh3DozM4cvgoGhrrGbNVq6pQVl6CmBiVh/nEl8kV17T9Y2OTuHz5CmpqatF/o38yNzWzel1l5V9Vrppfs+geHfb8dN5f1losBCwEfhUELDL8q6BnvfahRcCqAf9kD71pmupVt75lOOj5724TyzRFhq4oMCgvmFIfdJ3TF65ebUFrayvGhgbhnZlGYnwciuYVomBuHmbnZCM2Kpoj0663duKNN9/i2/Cr1qzFmnUb2CahyUSwDXHbn6qVdcA77eH65traWnR33WAC64qLwezc2ShZWopZeTkwQG1zDtg1CWMDIzh3+gyaGuuRkZKMbVs2Y2XVYtB8GFHTABNfmucLceIEtdU5SDVmn61MXBUhn4mRoVHU115BQ209xkbGuTY6MSEOc+fmomhBAXLnzMKsjFQkxjl5W7my+bZmOco5pmVxlXKY9IYjg/l5pABTgciE24POzk509/axB7q94wZGxse4MW9RyRKsWFmFjJx0VoMVhxgwDIYCrADbKJnDpKQOgy0YIUNjcq1KdgwPjeHYsVO4dOkSoqOjsX79alQuX8qpES66OFEo7k5kP9tkCSNjM7hU04R3Dx6CalOwYcM6lJUvRkpKnCDBpg6nXRHxdBqlTygcfTc15UFDQxPq666gu63DH+uyX6ssK/3OhjVrDlbkpt5T5TCf7LvEWrqFgIXAnULAIsN3CklrORYCFgJ3BIFW03R4Jmd2DHv8f+RT5WVBWYVJfl6ZcnA59wwKqa5EimFDb28/em50oaO1Bf19PdCCASTGxCF39iwkJSUhIT4JAwMDqL1yBXHxidj26A4sXLAAHl8AksPGEWr0QUiqJSmsUU4Xpz50d3ejvb2Db9WTlSKvYC6yZqXDUACPz8fEUNVVkAGho7UL1afOoO9GD2bPysSq5RVYuGgu4uJdkFSd6jvYJ0uEjtITJINu/Qv2ypXRIRN2SUbQr2OofwhtLe1obm7m9jrTCHHEW2Z6CnKys5CRloK05CQk81cKnFEuVsFJQWW2G84PJiV3amqKiSuR3eGRMUxOTWNgeAhdXV0YHRtnm0hcQiIKCgqQX1iIwvkFSM8iby+14xGB9sLhsEFWJC4ToYxjVrSpyIRS3VQamAMGBsZRXX0BZ09WM+lfs2YV1q5djcy0WLjJu63KcNgcCFIDiSnDPTmNa9dacOrkOYyMjKGysgIbN65HSmosE+GQHmT/sabpN8kz/Ux/s9sUeDwaH1Marqu5cB66x9u9vKT0tRUlpf+ybeWS5jtyIloLsRCwEHhoELDI8ENzqK0dtRC49xEgIuyenNwxGtT+wB3SK3XVLsPuZJ8r5yVwzZsYCVOpCMNhh8+rsb1hZsqNwYE+tLe0oufGDehaiG/tEwn1+/1ITExE5fIqlFcsRVxcAnxakBPKyHNL1gsiw2ZIRINRThjFrBFRpbgxrlm2qVxNbBgh2J0OHsyzSyooCS3kCaHhch1qqs9hamwYc7IzsWrVUpQvLUJcYhSojo22w+l0iqa3gAm7k7LYhPJK20qDdmI7KLkihNHRUQwNDaGzu4uJ8fjoCEwi7JDgcNgRFxuLxNgEuFwuVl5JuSX7CO0z7Qftz+S0m5c/PTODqRkPQoYOWbEhNjYWCclJmJufj4zsLOTn5yMuzskZyZzDTAYLbtULkfeCTxzafoKf0jFoMDBIuciqiu4bg0yEiZjStpVTBNuG1chIjxeNdtwurcPvC3IBiiTJaLjchBMnTqGl+ToWL16Mbdu2Ib8gO6yg09oMVpIDYf+zPey7Ji4dGSz0+A0MjI3gypUrqD9fi5mhsYk5qRlnVpeWfadsRUXNopz48Xv/jLe20ELAQuBeQMAiw/fCUXhQtuHj20IflD239uMOINBpms6hqam1417vN3ySUmXanYqfQwpsvHQieQrVEpsmk2JFtYPE1Uh8GBEx+iJS3N/Xx/FpwwODGBsbg8fjQU5ODpZWLsOsnBxeVoAG2RRBdsUKSPWkRjaRzuBQbUyCNU3jPzuddq5hDuohVkuDAR1RLgfGR/yYGBpGbXU1utpaoZgGVCmExIQYbNi4GqVli5CWGgdfQBMJD5IoqbDZJGjU1hZukLMpMkIBg0m4gy4AqIhDB2a8HgwODqK/fxATY+MYHR7ByMgIPNPT0DVBfKlghIm7TBXTYbXZMFhVVVQVDocLMfFxSElNR0ZGBjJnZSMtI5WVc1kNE19SeiWA4BbXHsLeIRRtkSOsh+j3hIv4eWzCh+MnTrJHmNTjFZXLsLSiDNnZ6QhqPs4idlG7HM316TrsNht6eoZw6NBR9manJqdg85aNKClZAlUVico2KkChEUOyr8gK/AZdpIhkjEh0HA3XUazcjG7wse1obMWlMxcw1NGvRUny9ZL5815fu6byP1ZVFLbfgVPTWoSFwMdHwPr38ONjdhdfYZHhuwi+tWoLAQsBgQApwpNu96ZRf+CPZgxjtaGoksm31U2oqp0JH5E9IndEkkidpZ+lMFEmAilyhalNjlIkZAR9frYJEJELBv28npjYKNidQkWVVQU2h8qZt0TWiHDR71WJ8od1aMEgeru7WKGNj4vjZASKX6P1CkJL22JDV0cXmhuuoKPlGpLjorBo/jzMTE7gamMjF3hUVC5FZWUlUtNTuPSD0iHogzdAKQ9EgJnMhmAL7xvtp53qnE2KPTN5gI08wMGgUIxnpqcxMT4Fn8cD9/gkk0GfzyfwkWQm95Ev8u4SiaTvcYkJiE9MQFxcLIntYvkhg5VxiS4wKBWC0ikkIqREPEVDH0W4UTQd9emRak1YTbmDGBocwYnTp9nKQetbvLgIa1evREpqAqu3FC/HDX70AmoClGVMTHrx7sEjOHP6POITYrFl83osXVqG6Gg7QuE6a9MU6jylThDW9JBNymsmz7DCTYK0TImWzaozEPSG0N/Zh9b6FtTX1MI/MTm0ZFHhiXXLS/86bnV5fYUkiSsa6/EQIWCx0YfoYP/Ku2qR4V8ZQmsBFgL3DwKmaUYTt5Akafpe2epjpqnGTXu3j/q8f+QxzSpdVWUyDVBerSwJcsuWB5gc60UjWzS4FSHGwtZAJE4Je2ZlQWiJyJkmEzLxEJFjWiiAEKUa2G3QjRAnJZCPl8osqCCC1uf1ejE4MIDLNRdxo7sTMa4oJmNkc5gzJw+x0TGIjo6D32+ioaEBHdevIiMlAZvXrcKyslJMjo3i+PHjaG1tR0g3UbxkMdasX4eMjBSodnAUG3NEsntQ4gX9oJMeKlrgSAGf9gcgUbsbWykoKo32iwgsDZQJ+4Ee1IVybdB+CgWdiDyJzbx/dIFgU+F0UhAaQE+lVmnimAFq4ZOFCkwXG4oqQTUltkZwRjIP/gm1nBMoaDWQoQWBK/XXcOrUGTS3NiMtLZX9wUvLSpCdHgO3NwBdDyAhNg5BQ4POw3Z2JvKtLV3Y99bb6O8ZxJq1q7F23Qrk5KQiyN5gmQfrfMEAHHY7QoY4fqJOmy6AKL3Czt5o8ltLqgwtnLHslFjIxviwF9WnzuH8mbOQ9OBMclz0pVXLl/35yjXlF/KTkqbulXPe2g4LAQuBewsBiwzfW8fD2hoLgU8EAdM0be09PfO72noeTU9NqisuXnBUkiS66X1XH6ZpyrU+rXLc4/nWjBZcqyk2m0nkJ1xUQWTOJtuYCBpUi4wQDBrmovYJihIjRTMcK0Z6KxFaehB5pN/zUFzYOsCNbUSwmNrxJQHfxidfq4MYKsimIKwGU+MTqLt8CY1X6rhlLiEungkiKc2kIBPxJDJLyvX05CQWFOZh+5ZNWFxUgMQYBwJ+HYMDw7h27Tou1zWiu68PmdlZWLNmNVIzk5GXN5tVYiLKpMQS+SUyShUZRG6ZxNvtHJtGA3y0P0SKKVGY9ovoPVsZwtaGsK335rFkFIgg3tZeRwebFfCwH5ieQ3IpF4TwmsnMTLYNUohpwE/8LMsqD8v5fRq6bgzi4oU6NDZdh8czjdS0BKxdtxJLlhQjNSUa/kAQuhZAXEwsvH4vopxR8Hj9UBQHBgeGsO+NA7jW0oryJUtRuXIZCgpnQ1bEMaJrGsKCbR7hY0QqMR+qm7XS4p8siREgbzMRY1KgVRiayWkd9NzOzm6cOXESjfUNusumXlu9rOJfNq5b80ZlQXbPXT3hrZVbCFgI3JMIWGT4njws1kZZCNxZBFq7equOHjn+ZzUXz+c/+cSe723bsuHbkiR57uxaPt7SKJ7ugtuzdcYwv+YNhtZpsmTXFTKwUoSaGAaTdHAUGZElIj6apCNEiqhKlM6EopMH1xQSZ/h2eqSNjWuJ2QcsCBYxR+5Z4yQKQbKIYJK1giPbYGOia1dUIlGouVCNmalxlC8tQ97sHCapFHlGnuSRkVH2JOswkJQQh4qyUlSUliA5LhZqeAgtGDQxMjqOlrZ2nDt/CT29vYiKjeGBsXL21WbC6SKPL6mu5IvV4LCrrJASATYMnfeZSzUkoqvkiL714P0ID5hFfNM8YBhun6PvpKbyxYCqMA6EgNj/8MWETO1x5DcGp2MQ8aVl0L6S9SImhtTvILweHzq7+3DubA2arrYgNiYJ8+bnY3nVEqRnJCIlKZG9xlQooutCWaZ167oBlzMKvT3DHLt29kw1UtLSsX3bDqyoWoggkXmZFGjhCRb+adGHJx7i+4eRYcqRJtuErNJFjY6ARgUr5O020Nc7iEMHj6C7tR2Gz99fsrDg8Maqim9tXVHW+vHOVOvZFgIWAg86AhYZftCPsLV/Dz0CvW53ct35K7995OiR3x/q75/8ype/9M3VKyt+KEWYx11CqHnSU9Hu9X7TpyibTUlykCIsERkmFZS4Kn3R7ftwmkOEDOuk5ipEag2olFZA/lE5YoUIM9zwPnENMt/clxDuoxBkUBe2C/qi4bKAV2PCqRgKWwbePXgAV+pqMT8/F88++xRmZSWwZzfgo+IIE2NjE6yMej0TSE5JwJys2Zz/qwdJjRYDaRGy7Z72oL2rExcuXsbV5hYoih2zsmdj9uzZWFy6EJlZqUiIUtjDS6SYXkuKNaUuENlmAkvbanL4LvtnWbElJTwsCdN/3f7gRImwD/jm78NEk5Vf1qIjecREvIX1gMgwFXvQtkxPU7awgpbWVjQ3t6Cj/QZ6evphd8agasVaVK2sQGaGC3SDwaFS210ICl90UAOgHypfZMjw+YI4cfwUTpw8yxcelBxRUlaKxCRSvknmFQp05IKFF0BVz7dtP+3z7Q/aA/qNQjFsoSBFi7BUHjQ1LiJRZLHssWEv5zZfOH0W0yNDI4vmznlz57YNf7WurOihJ8SWo/YuffBZq70nEbDI8D15WKyNshC4cwhc6xlc/NOXfvZvbS2txUuKFp7Y8+Qjv1c4Z87VO7eGj7+k5klf3rjf95f9RmiPX1FtTIRkIjikDiqQDZkzf8n3S8owGWQpnota6AyFFGIiSwbUkHmTgN0iVLcIcUQFJSLMhDictECKKjW40RAdETTNr8MGO2xQMNDfj/1v7MP42BC2b92EbdvWQyIiygo0xZqJemDy3Rp0i14R9gxqZRM5vLeIMHHUaa8X0VFR6OkbRGtLN86crsboiJtTFrJnpaF48QIULZzPjW0Om1CKSRWm9AbyRss2FYpE2NyivJEPbvp7ROW9uf90MRFWfyOEUtgQxKsiSQ2cqOEPwuWKBiVZkBWCFGKCe2wyiN6efly/fh3NLdfR0dHFRN3pjEFyUhoqli3HmtUrkJQgcCA1mC4i7A4q1FAQ0gwuMKEItgsXanHw4CHOOCY7xWO7diItPYa3RedNiqjAt37m8+GW/4UvAH4RGbZz2oUOXTKgkKIOwKeHoPHMnh0uRcLMDNBYW4+LJ09h6EbXaHF+7pu7d27/nysXFbR9/DPXeoWFgIXAg4iARYYfxKNq7ZOFQBiBftOMaqxueOZHP/zR3zvsqvu5J5/6k7WrSl+RJCl4t0AiIjwS8P+OWw/91rQiR2uKGPwK37kP5+2KzF1iaETkKA+YFVIiigr5aJnSQaJEhrAqykQ3osgKy+z7LQGkpoafwIkUZniILmRAlR2wQUXIF8T5s+dQffo0MlOT8MwzuzB/3iwE/BqcTkqZEKov+YyJYEumxlXBpGTT8B0prpEHB13I1Pg2jfi4WLjdfvR2D+DQwWNoae7ksg8oIU5fyM7MQl7eHMwvnIfMrHQ4XA7eV9pPhbwA1I5HBM8QNu8IT7TTgF1Y4ebfh/8X2QZuogtXKdPvWE3mhmYBFC9OuEkQ8APjE9PoHRhA8/XraOtox+DIMFxRUYiPj0dycipnC3e0d7EXuGp5BZZXFiM7M0ksS9dZr+WCDRmYdOsYHpjAa6+9jtb2NhQXL8LKlSuwpGweWyqIsNIFzQcft2wt4i8cR3fTM3wrSo/+xhnGnCWtCQ+4auMBS0rhkGSVLRR2VYLPHUJL41WcPXIUfZ2dfSsrl33nc4889t28vMTJu/U+sNZrIWAhcO8gYJHhe+dYWFtiIXDHEeic8OX+8McvvXDp/KWKjRvWHH768d1fzUx0dd3xFf0XF3jNbSaP+91fmTK03/bAzPZRnFhYEWZ6ZgpfLJEfInb0f5EvK2RLUgCZ9JJCTH5Yvs8uvKZE6CJ/i2wOR3CFB+zYWhAerBMDaQYMieLDdETbY1gVHu4ZxsG338JQXx9Wr6zApg2rkZoSh5Du41rngBaEYnMw7dRouE8xYVMUbpRjFZaa2cLJB5TiQBm+ZOOdnJhBU30jLlRfwmDPEGyyA2lpaYhNcGFscozzkAOBANJSUzG3IA9zCwqQkZWJhKREOKJcsDvFAB1XUfMgXTiBIryjInHC5CIQFlUjX0yGhXWDfkfkMSwQ8ys1PzA4MI7h4VEMjY2hreMG2jo74PZ4YSoyZuVkoah4IebMmcPlHhMTE7h8+TLXVUuGhoqSRVhWUYr8vDwkxjqExquDrRa9vV4cfu8Yzp+/yP7ordu3cCufI4oSMUQ2MsXmMYkPy+m3vt+cihR/p4MbfkSew9tPyjldLNG5QcOSZNjmYA4i/eS1lpgYOxQJQa+BmrPVePv1t4i0Nzy789GvfuaRNcf/i6eu9TQLAQuBBxgBiww/wAfX2rWHGwFShVsuN+/+7vd/8A+SKQU+/9yzf1y8svzVHEny3Q1kakzTJk14nhny+/7Uq0iFAUWGRkSGyWxkPEzYI4TXVxBhwYOotcHgYTnhlyXiF3meUI4j0WnipYIcC1WR6ZQgkmFSxTFspCBSRhkAm+mETVLQVNuAY+8dhkuRsWfPo1haOl/EoJlkR9A5/UG1O9iwQCRTLDvCTElhFqorqbVEwsgzOzY2ibpLdbhcU4fh/gHMSs9G1YpKLFiwAHanDUOjI2huuoqmpiZunCOqm5icjMS0FGRmZSEhNRnpmWncoOeKcXH7HFlkb6ZC0Dopno0U3rDVgdiyiEwLk+ewYk6xbDMzM5icnIR3xofO1h709fZjfNwNTyCIKY8HmglkzMrGnPw8zJqVhdTMFLiinaxkk72EXttwpQ4NdVdAlwVzc+egZMkSFC8sQmI8RdABEyM66usb8e7B97hEZPsjW1GxvBwxcTJ8AS8cThlRNicC1CrCxz+cEnGbr/n2c5QT1CIJGuE/cAkIXRzxaGH44kDMVd5UnCnH2ev3wK7aWbUfG5rAwf3v4nJN/czy0sVvfPbRTd9YmJd51y4O78b70FqnhYCFwM8jYJHh+/mssCYg7uej94lv+43JyfzX3zz0d2fPnd9cXlZ2+omdu79WmBnb9Imv+ENW0OT1Lu+f8vztlKmvDtkdgghT6kBEueXvgrXdrv4x1+Rb/SH+K8V+0dyYuMMuShmMm4px5LY7BYYJIiyWRf4K8hmTOky/Ix8ylVqQOqlC84ZgN22oPnEWdRcuICcjDZ/b+zRmZccipGuceEDrsKlOLp8IGjonJhBJo23hCmPy+Zpi4I8m0Py+EPyeIE6fPIdzp89A83lRVbkcxQvmY2npEjgcIgSDCKzbHeSWud6+fvbntrS3YXBklAl9VFwsl2XExschLiGB0xhSkpJZqY2OdomWORuVgIQTHHjwTCRwkI+XUiHc7mlMTk5gbHIC4+OjrPBSlvL05AxmZrysdqdlZiEtKwupWRnIyMzkko7E5AR4Az6R8iCJtjva18mJCXS3deB601UM9/dxk13pkjIsLl6C5MQUNNU34ciR4xgeHkZMTAyeeGIPFhXPQ2oS4KXrD4mqskVJCnudb2sSfB8J5rsAYaYbVsX5LAkHiPCMJTF+JsTy+46HOK/ECCJdRGlkdbFF49KFerz68j5E2+RrX3pq19c3rljyzt16T1jrtRCwELg3ELDI8L1xHKytsBC4owiYpqnWdHRs/ZfvvfivAX9A2fvUs3+2oqjkxaQk6a4UD1x3uxcMa8E/nND1vX5JdemUNMD6rhJWfsMqa0QC/AAaN4fE3n/3/CZ5fv8QlnhxxFbwi4GV2SZBTNbvCyBajcLE4BiOvvMuBjtvYG1VJXbu2I7oKGqqIzoVEjYMjngj8VGGTRLki9RgouBEhsV2kqlYhmwAtRfqcPzwexjt78P2LeuwalklsjMy4XLKIjGDybDwQ5O8S8sZm3Cjo6sLPb39GBkfQ1d3D6Y8Xvg0DbohI6ADrqhYhEIGopzRcDidiI6LRTAUgOqwI0g104YEVVYR9PvZfkGeZ1LB/UE/D+XZnA4GPDUjFXFxcUhNT0NaRjqSUtIQExcLSVHYdhC5MKGhOiagOvlzQzBCIf57/41eNDc348qVK7DbnViwoIh/39XWBfekm9VsYvvxMTFYXbUCS8uXIC3FBn8AsNspIk9ckLDXWKZoO5E5TGkaARqOpMi02w4gW2jociR8Htyaq6NfEKkWDSZ8n4AHEYW3W5F0GLoGzR+CZzKAV156E22N19xPbl397d2bdv1VRsbdjRm8o29+a2EWAhYCHxsBiwx/bMisF1gI3PsItHR3z9135Og/HD9+9pFFC4prP/vcM18snZN5V1ThzpnhjGGf+Qdjhv6cT1bTNS7VoGY1FQazmbAnmJnXLWWX/zNCeiLTde9L2v3VjgOtWqPqX8iIUhzouNaGY28fgu734endu7GmaiElu/F4miFRqoMCG20z1f9y9bEE6v7gBAbiv6xFi1KMoBcY+P9b1o68fQC9HW1YND8Xj23fjMXz83gXKT+ZdoWsF5JMXmjhdYiIoDTdGAzqmJh0Y2hkDFMzXkzO+HBjYAQXaq+gt38Irqg4xMfGQ1Ht8Ad9mPZ7mAzrnC2sMLnUgxqTVLfbzVuXk5uDrDnZiEsmpTkGGdlpUO0q+6FFFjG1zZG9g2weIi+Yldhw9BlHsoWVXM7+UICBgQHUX2lkRZtUZlKi7TYHsjIzWcEeGx5GT2cXohx2lC4pxuqVqzArMwXR8YCfi0sCsMsKolSVsSQvNqdfqDIIB+F8COcNh88WwlicNeFz533smDzEggyTPzrInD7AJFo1VQS8Bt782UFcPHUWm5aX7XvmqV1fyU2NHvjVzibr1RYCFgL3MwIWGb6fj5617RYCH4LAufr6R155dd93+/pHoh/f88Q/bH1k3beTJcn9aQNmmqbSMD7+xGgg8NfTkpSr07S/aoNhKjAl8t3eXTLMaQ2KArupoPbsRZw5egpJUVF47tlnkD8nA1HRkQE0ijozuACDhvKIitHgHKmllFhA6Qh0Q568F7RHU2MBnDhyAnXnqpEUG4Und21HadE8JEbZmeQ6VYWJGuuZ4e/abQpx5IOZiTdROU2kLwyOuHHkxGkcPXkGNrsLS5ctR0ZWNvti/XqAFV1SvEkhJdJqV5xMzi9euoTe/n5UrVmJkuXlsLucsEXZ4fN5mORzqYlJJRm6UNRJtad0BoiYtsiFSYQUqxLZMiSEggH+2/S0h20eNIhH9ouE+CTkZGez6jw6OIwrtZfR0XKd1dniokVYvmwpiormwbSZiHaKPjmOpiPCSlJ7OCGDPMGEASnxvA3heDkmw+YtPzndYxAPWsItdZiuMQIc/aExGSY8zKCEo4fO4dCbb6MwM/nMV76w9zcWzM2+/mm/N6z1WQhYCNw7CFhk+N45FtaWWAjcEQTGxsbi3jl24htHjp34zVnZua2f+exzv7UoN+3yHVn4x1xIj99fOOT1/f14QHssQLfebQ4md7pBMWjkF76d9n36yjCRYYmqjw0bTh05hvqLdUhPSMCeXTsxr2AWs1WHU9xqpwSLSKkEETQiZDTIFgwakKl9jVVeG4yQif4bQ3j5xZ9guLcfj27ZiCd3bEVslAwn5eIGNNhVG3ueZfJSkBeXqRrpn+HvBg336Vw7rNhVhETEMRPD6x2jeOmV19DS0YlNm7dh1fq1iI6VYbLl4BbBZguHBHg8wGuvv4XT586icvVKrN2yHlSTx9XWhgHFRlnL5IMI5xNzBbPCxJ8sETeJMKvgJLkK7zX5PAxNC1c2U2kIJWmQp1iB0+aE3U75yFRUomF8dATtbW2ou3gRw4ODmDMnB5XLKlBVtRwup7ioUCUTTofwDwd1P/syzHAsRkQXZl8w+77D0XDh4UpBhsVFCkyhZjOJZmU4BFWVuLSESlUkXcbF6ka8/cprSHKaNV/7nS99eVFu9l15f3zMt5P1dAsBC4FPCAGLDH9CwFqLtRC4WwgMDAzkfvufvvtSQ0Nz0VNP7v3urkd2fys5+dNXhZtNMzbg9n9tUtP+r2ldj9dtKgzJhiBMhExqjVNFdu5N6vLpkmFerUzqpgaH7MTx946gvqYOphbkauWK8jJkpKcgMSkGLhp2Cw9wiRwKkdRA9ghqbjNlHTqRYUnllrprDS1MhmPsTnzlN7+A0oVzoBg6omwKj/wR4dMpI5n+Q9dAtJckYhooi2ictxtizPZVAAAgAElEQVRGKOGBnRUSMB0EXn5tP948+C7mzi/CU3ufxaw5iTyM5w+S0i1xJTSVXlDEmT8IvHPgBN46cAB58wuxfdcuxKYksVeXm+pkkdDB+0QRZSa114mMYxrO48a6sE1CzNGJWDt6rk1VoGshEWlHqiwRcBroI084PYdi5rQQ7DYbgj4/rjdfRc2FixgbG0GUw4mlJeUoXVyM/NxsOG0iG1pW6KKCht4MHo4TASBEfulLhWQK8syE9wNkmBRxJtBh1ZiG6EKUJ03EnkKVTaqbllB78Sr2/+xVZESrtX/wO7/9hfyMpIa79X611mshYCFw9xGwyPDdPwbWFlgI3FEE+vr6cl792Rt/G9CN6E2bt/11+ZJ5J+/oCv6LC2ua8W0a9Ab+l8fEYo1ojmqDLkmCbJHySLfmqff3lyHDYl7qjjz0oI4YZwzHmzU3XkN7y3UEfV6kp6WguGg+FiyYh4L8OYiOoniusImVSh3CcWBEQnWOXhM2iakJN04dO4sTh45hTWUlvvDZZxCtkptYQ5RdgUNWxaazGTachcZWCfLqEtEWiRSEDz2P8DIkhckmBTHQ1/mL1/Dj11+DVzfwzOc+i+LifKGCGgZsNIBG1gpd/ExOhpOnL+D1/fuRkJqK7XseR2p2JmcmkyVBN0LsM+b1URAxrzNyVMK1yOH/ZlJ8c4iR+6MZB8oLpu86RzgIiwYRY0r+0DQqJhEEVg8F0d/fj+vXmtDUcBXuETcqSsqwYvlSzC/IQ0oSNdgR8TehhXysDovsaCLbKmjPzNsKOG6eO1I4OYQV9FtkWGAisog5h1imqT3g9PEavPf225iTFFX9+7/1a18qyMhovCMn0wO0ENM0pbtd2f4AwWntyj2OwB365+Qe30tr8ywEHiIEyKd7rf5aSXRCYmD27IwWSZJEmO6n+Gj2mFkjvun/OaaFng0qNodBMV83FT4S7oQS+kFlWGLLQIQpfrIDdLyWkMnqpYuaIHQD48MjaGtpxY3uTvT19cA7M438/DwsLl6AonmFmJ2VjVinzKSVwhZYPXVICGgBrjuWZRsG+4fw+k/3ob25DXv37MGOLSsRrYIzeZXwyJcWpExi6s6LsMxwEDA5j4mYEumkO/6krnIyHKVvSAjQgBmA7p5RvPTaG6hva8NjTzyO1WtWsFWD1Gn29RJpDgThUJ2gbOHqC5fx6lv74YiPY2U4NWcWbzs16HE6BDPXW2SYbSC0nDA5FtaIiHP3VvkHjUIapN6Gvd/8GvYbi0E7IsAGx7FJCPoDcDrJw2yyv5jI8GD3AAZu9CI+Ngab1q9B1YpyxMWq0DWN6DDsdrEcPl/C6jBdNNDPkappOo6Ruuybuc+QuOqZSDVfc7DiTddPtGxg3xv7cfHESSwtzNn/m88989V56ekdg4OD0TV1jeWmLNuXLSmqzsjI8HyKbxlrVfcdAla26X13yP6TDbbI8IN0NK19sRC4BxAgRanO7f9Mn2f6z/0OVy6lR3AgFqUccD6s+NihmuBIrvDNaLRPMU2CtkWhQTDyqAZDSIiNht8XxMyUGx7PNOrq6pgUu6cmISOEosJCbFi1BkXzCuCwU+oB1TIbsDtl+IJ+qKpIcLhxow//8b0X4R4dx/N792LNsnIkRYlEZNMIwk7KsKjLu9UUQV5fUkG5bU9EtHG2LzM9sjBQk5oEQxHRbgOjM3jhp6/iyvUWbHhkKzZvXifIMCVfGDqrz/TQQyZkRcal2ut46dXXodvs2LBtG7LnzkV0nAtBr4/zfnk1RHxp+WyTCPt1P9AOFxljo6sYIqBM5ukCJhzdILP1xWALCHlAWA3WdTjtDi7fiKRT0PomxybR29GDlmutuNHVAZfThtLihVhZVYn83AzeJvIc07lB54zIOiaFWOBCHuWIOn973FpEuqZnkVKucCIG2SSopQ7wewP48Y9+gubaS95nt2/6+51bNvz9nISEiTM1Nfmv/Oy1/2WzuVxfeP75311UOOfqPfB2uq83wVKX74fDZ5F6/vy7Hw6VtY0WAhYC9w8CnT5f7ohufmfAF3jMHx6Yo4Er8poKZ2qkNlnUL/9n0Wo3Gzlu7v6d+8giosaGgttUT1GpfAvr0aFhXG1qQGNDPbxTU9j1yFbsenQLhRMIwmqT2LeqmyIEzKU60N7VjRe//yNMj03h2T17sHXtCkQ7ACoeFvquCT2gw0bVdrf9O3TTPk3PiZRcUOseJURABuUhUKIEKcZtPWP42Vv7cflaC9Zs2YgdOzZyiUggREUWgENSORrNJqucWlFT14GXX9+HkalpzC8pQeGiIqRnpiMu2gldC7CHm3bb5rAz8SS1mKqNIyp1BJEINqzAkjXhdjLMTxIDgOHbALe9Xlgnbq/GJn+vYsgY7BtA3eVaNFypR8jvQ3HRAqxdtRIL5xXApgJRUUBQE/sdsU34NT8cNicrv2KtNGpIKjUReaGs0wtY4YaMIFlGSPkG0NjQin///g8QpcgdX372ya/vXL70dVrG5cuXC198bd/3+/uHCh7f/cRf79215R/un3edtaUWAhYCvwoCd+5fll9lK6zXWghYCDwQCHSapnNmavq5YQP/Y1pGlldSESI2xg0IJmTyF0TixMLezrtJhjmC7DbyGzEr0DZGiPHwwCDOnDyB9uvXsWbFMux8ZDtS46OhqoCfRFWFeJfJ3luiXl0d3Xjj5TcxM+7GMzt3YdPaMtjYtxCEy0Y36jmhl0s3mODxusL8kcXPWz5q+pkH9CRShBW+9U82ieFRP/7txy/hascNrNuyCVu2rwaJwaSE0muI9pEdAbrCQ3rtnaM4dPQ46pqaEZJlpM3KRsH8QhTmzUZyciJc0VGY8XkR1DRus+NtCiv4HywvEeFxtKeCDIe7/sLnr7Av0GUPPW5aPrj++pbthYkxRb+pDibe4yPj3GZHhHhmYgp5ObOxcF4hVlRWID7OzlhHEj0Iby4O4bzqWwCSPYTWEqKKFF1DiFoCFRvbIxRQ0x0wOeLGqZPHUX32jLEgd86rX35mz9cXZWXdoG3rdbuT9/3szT88fvrsl8vKyi8+88Se3yjITu55IN6Y1k5YCFgI/KcIWGTYOkEsBCwE7hgCLTMTpX1u31+PGeYWIyoGQcoUJhYSJsOK6FAOT48JOnU3yXBEeY6QMyJUvHUU/cbFGip83hkcefcQmurqUFVRjse2bUZ2WiKrukS0KH9Yofxh6NA1HQO9A3h3/2H0dvZg+7r12P3oevYMG5oOu0zxbCbbKahBjlIOOKUsUhIRVlwFHxYKJzXKyaqDVU6i2+4AMDo2g3/61x+ge2gMW3Y8gnUbhWdY+IuFum2jqDQi3ABmPEBr5w00trSg8VorekcGYXM4ML8wD4Xz8jF79my4oqOh2m1cvkEDdUQmuQabyituZlzcIrS0hZHfE1mPPDh+LRyZRyqxwFaQ4ZuZxWEyTP9Nw4Kk0Lsnp9FxvRXXm65htG8QRlBD8YIFKCstRlnJPDiiBd58OSUZ0EwNqmQX5FtcY4myDt4UyiemoUUFPlLhFQW+GQ0Nl2ux/819UBFqf3LHI3/4+c0b3pDIqC62TXrj8MmnX3397W8nJCTMfO7pp/+PFWXz3rtjbw5rQRYCFgL3LAIWGb5nD421YRYC9x8CF0YHvzro8//fbl3KkGNiYTKJI2IphqnCeuFNr+dHlW58kjYJwakEceRhL4X0WkHqmATqpCgqCPj9OHnsOOprLmDF0jLsfnQb0pNixGAWKbUGpT+QAcSAIimYGp/Ce+8cx9ljp7Bh1Sp87tknkErlHQbg4KE4ar0Ll26EP4Fvv0QggskDYeEHD37JCpNAMmO4fcDV5g78x09exrRfw2NP7MKyFSUwFOE6YTIYTpXg+oqQcGRTcYcnALZxnLt4AW3dnZiamkJsbDSys7OxuGQJ5hYUQHU5OAFCI8tFWCWOyOe3q+iMX/ji4fYz9XYyzKoyP+d2zV08+6YPmPEOZwcHQhgZGEbjpTo01zdC83lRvGA+1q1fjbn5sxETr8JPuc4OOqdo2BCsEEfi7ijMgi8sjBCTefKEy5KCwIyBlqZrOH3sKNqaG8dXL1/642ee2f1nJRkZw7dve3V929IXfvLKD0ZGRjKe+8zTf7l7w4p/liTJd/+9E60tthCwEPg4CFhk+OOgZT3XQsBC4EMRuOrxZA56Jn8wA3mLz5QVyR4NLdIwRyyNmtHC5CkySKd/RM7wJ02GOSEh4n+l+TEpMnhGg2jg2/iaP4Arl2px9OBBFObOxnPPPoWcrGRQUZogw+TrFdm7DtnGw3injpzDaz99FUUFBfjSF55Hwaw4zh+OddmFTZiIthBL+RGBgckmK7uijIPZrRQmwgZgyIDbD+x7+wiOnzmD+JRUPLZnJ+YXzYKPYtlIpSbPr0F+YQWyLqqJaVFEqlW7UJdv9E9iYGgIZy/UoL2zC5OT4yivWIqqVasQn5IkoshovyiwmFnvbV6SD9RkRywRkX25nSBHEh9EHjA9bpFikW2s8+AhOzooj5gMHiED08NjGO0fxLkTpzAxMsIxd8uWLUVpRSnsLjvs0U44HOT3puppke5BTYCciWwTNcyEqR4Um97S2Imzx0+i42qjZ37+7CM7H9v8JxtKin4uTm1kxIz97ssv/OXho8ef3bl9S83nd2/+Qlpa2qD1trcQsBB4sBGwyPCDfXytvbMQ+NQQqJ2Z3DTs8/5bQLXnaBQFZiowyORKN9OlcBkCEyuDFVd6UBqDuKMepoMfSJP4pMkwrZkGrsjkQKSKcnFZFSbyGCLV0Q7KIaYq4X2vvYrEKBe+9IXPY0FhDkzKGiY1mdRYCfCFfLBRjq0h4XpDO9545XVMDQ3jC5//LDavLucWDKedLAFCraXrAlZxJWqeE5N04V41HjQUCqvM5SSkChNC5Bfu7Hfjez94EV19fVi+pgprN61DSnocAiaVmYQ4PYHa8FSJ/NAK+wqIuFP6BSmnqiNsN5CA7v4pHD56AtUXziG/sABr1q1DalYG7HY7QjplU0QSLX6eDLO945aAffM8+6BaLIIzIrXOtyLRqDZao8Y6ugih/adYON1kQhytKHBJKoZu9NbWVFdHNzU0pNhstuQlpaVYuHgRcvJyEZ/ghEHZwRx3LPGQHLXe2Wn/DMDvp+a7SbRebUHtucuYHBqdzE1PufjopnXf2rp28akPy9B99VjtU//+wxf/Jist0f+7X/z8rxcV5lV/am8ia0WfKAJWusUnCu99vXCLDN/Xh8/a+A9F4CFMi7mbH/Tt5nj84FjoD8cR+n2/ZHOaNLgUUtg2QISOyTBRzjDx5TpdyeCs27tJhqlimQf7wv5clbK8qL0sRDYJCbZwvfLI0BAOHXgHnvERPLlnJ1ZWlorYL6r4VUVKQTDk52k6Gspzj3px6uhJnD58BGVLFuFzT+1GTnYKXwIQ+WPLCL2I0yGI6rK3IXw6iyIOGoDj31DhhqTyz8NTQZw8cxFv7H8XrrgY7NizA4VFhVCdKgzFhM4KLtd3wA4bD9JRVrFdFuprMCTMtUR0ddWOgA7s238Ex0+ewLz587F2w1rEJSeyjzcyTCeOWSS14Zbvl37LFo6wHzjyXhRk+OdZsvBGh0k1k3wTsqoiqAUg8bCbBPKUm4EAXKaEaJt9Mjcl8U+G+iavnTx+7Mmz1dXrZrz+3Jy8uTFz8guQlZ2G/DnZiImNgssRx1cWpA7PeL0YHunHyMgIutu60FDbaIQ8em/pggU1m6uW/+8FeUVn8vIkOli/8FHf717wr//279/rv9FV+PzTO/9k1+YN37c+aS0ELAQebAQsMvxgH19r7x4CBEzTtI2MjBQbnqADLrXhbpQFtHm9qzrdU383o8jLvQYVUUTB1ElpDRtZiW6SrYDLD8iaQOkIupBUbydOYWWYkxBuG7i6dRjv9EeWKJNgu4RC1gXRlEbKsBkiD7HC8V+eKTfOnjyBhssXsWxpCZ7YtQOpybEwKPqMeL1EKjeVS5AaK8PQJNRdrMOBfW9hangIzzy1C+tWVSHW5YSdKpkVwiZcPxwm4hEc2FoQVoaJpgcpH9dU4deBlo4b2PfWQVzvuoHSpeXYvnMbktNj4dFCsNlIQaZsB40jxhwShbmZXIfssDlE/q9OtgSVs4Q1Q8bwlIbX3nwHZ8+dQ+WKZdi4ZTOcUQ6+aCHCTNnDIr7sFhmOHAvhBRcXM6LzjggwRai9X0Xm4xg+bBGsb6nHNKAXUeVNGFSXFwwgWlWRaHe6YxTbH6XFRO2bmJkJNdU0lJ86c/6zHTe6K7SQnpeemeFMiI9CUlISYmOS+Jh5PB7MeD2YmBgLuacmvXIIw3ogdHVVxYp9y5ZVHd1Qltn1UR8Jw8NmzD+/8qM/r71U87nVFUtOf3Hv488nJSVNfdTrrL9bCFgI3L8I3Ol/We5fJKwttxC4TxFoaOtbeeSdA99w2pWpHZs3/7ecgpy2T3NXTNNUm7yB3+qdnvyGV1bSdZuDY8CIAd3iRZEGOhEsIVRigwfY2Ev8Af4Uie/iZrTbHhHvaYRc/QLe9ZG7HiFiXB/MFb2iIpqWTWSYCVuIrBMKjIAOl2KD3z2DKzU1uHD2DLLSU/CbX/x1ZGbEwTRC/PqIDeBmFXAICAV1HNp/ANWnT8PUgnhi105s37IBLhsQ9AEuJ6BQ1jGtl0tIdLaNRB6SooK6K2jQzKPR4FsPDh05ieraOmTPmYvN27cgf2EuJMWE3U6pHVRhHIDNZgMVR9PFBtlRKIaMjoVDUbmimZIvAoEgJNWO6+0jePGlVzA+OYH1G9ejpLwEsiqxL9cfCLDqTVaJiKIr7Bziccv6wEZnJsx0MRAhzh91IDjtQVHY2nGzd1An37AJlyQhWpKRYFPejlftX1/gdF6nZsW6rq6c+qtXSxobrj0+MDwyd8Y9E2eaUpQsq4qiKIZhGD5T16eiXK7R2Njo67OzZ50pXTj/2iMbV3ZGUiM+arvo7z9+8/QzRw4f/4vExNjxZ5/d88VlRbOtuub/CnDWcywE7lMELDJ8nx44a7MtBAiBYdOMOXeo5usv/fiFr2WkJrV8+Yuf/7WiooJP9R/uJr+/YNzr+Ud3QNvmI3+rYoeoX5bFcFp44CpSx0w2YibEpChGcofDz7v5/PCg3SdNhslcSiSSyDC1r9nspKZSlTHVy5lwyHbYTAkDHd2sDLdca8KSooX47N5nkJ0dz6kLooZZFDywJYSsvlzXbGByfALHDh9B7YWLSIpPwNqqVagoL0V6cgJcdtFKR6IrF4CEFWYyMkRCGsgjPOM30dTahuOnz6H+2nU4Y+JRtXI1lq2shN0lQUcITqeDlWaR60uRcESGidBTrrGoOuFoNm5kE4FoVNN84kwjfvb621AdCrZu34qFCxciJGlwOBwIhALs3rjd3nCLDN+uAN+6krlpg7iNMP+id2rkeaTGUxNhKJIzQp5n00AUTMTIMpJstpFYSf5CUXT0O7cvp6mpKWlgfCZl3D0V5Z7xxXk9fnsopGsOm+yNdcXMpGemzWQkzB4vKfnlKpXP1vcsfvnl1/9tbHQk+rnnnvq97WtKDlqfOBYCFgIPLgIWGX5wj621Zw8BAv1uM+Wttw5879TRI4+XL1742vOf++xXU1Ki+j7NXb84NfH5Ca/vL4KKOkuTbQhICgxiOcTuyI9L4u+t6Fno9GseqvtwMhzZ/g+SqzutDNPwHA/MkfpJGcAURcADbgagmUhwxaCvswc11efQ2tSEaKcNWzdvQtXypYiOsXNhhKIKMiyyiYWPlgfhwokRba1dOH3sBOpqa7mKuZJSG5avwJzsLE6XiHLJInItrK9yDFoImPEGzMHhEamlvQNnamrR1tmJhOR0rFy7DuUVyxCXaCc7MSu/pLByioQeEvnIhD8pxcEQE1tSwMWFhajFpgG5yekg3j1SjaMnziI3fw42bt6I9PR0+EJeVn1JsZXVW4o+2VtulZb+8mT49mNKvmG2zoRzitmuYuiwgwgxoPi8yIiO/V5aYvwf5UjS+Kd1Xvf0eLO//+ILf1Xf0FD67N7d//js7q3//Gmt+2Fcz0M44vEwHuZ7ep//a2TYOlP/P/beA8yO8kwTfSud0DnnbuWsVkYRBSQhgUwQYBMHZ8aTdtc7d2bu9Ty7e8fX63tndzyzs57x2B4MBkzOQhJCIAmUAKGAco4tdbekzumEivf5vr/qnNNHrYBADUhVtmh1d52qv76qc/T+7/9+7/uVvon+4G7MCpA84cTZ6KTfPfn0S8cOHRh428J5f//dR+/5uSRJ3f1VkWOOk9vY1vSzzrj+mBMIhWIUA8wNXwprgz0Zg+Ku/hMA9sAwjdHlU4XNgUjb7eVde63BsEWWEa5OgUAi+d2SC4MiaWzxZUZ0bFr3AQ7s3ImscBATx4/BoltvQWF+JgzDtYpTAJUkF8Lelx0WPNc04WEM1J86i00bNmL79u2wdAPVVVWoLC/DqGFDUFleirycXNiOCcukxDkLza0taGg4i8NHj+NY3Ul0RSKoGTwEk6ZOQ+24Ccgt0BDTAUp0JnkFp86JtAnKnhMJdK5gwXLjpimOmG4DuSwENA1HT9bj5ddX43jdGcyafTOmzZiGYEYQhqWzbzIx+DxNcG3KxL3w/skQDX9CcnLlzHD6/WR7OhcM82oBgWHLgQYLIQcIWRYKNGVPQVbGw0ODwX5b8ThyxAm+v+m1P1+/ftPi+Qtvfuv7j9z3688is+iv959/Hr8CfgW+mApcGRj+Ys7lH8WvgF+BL7ACjuNk7TnUfPev/v3xX0c7O/SH7l/6V7fdOv3pi1lGfYGnThxqV2fr7HN6/FdxG7WmoiHuKLDIQFeizn5bMJTE8KWA4aRmuG8w7B08qUlNjvyLZobJj5cbvigJzm3sC1BqnuEg0t6J/Z/uxdaPPkRQkjBr+k0YM3o4hg8dAEiCgXUINLvWakwGWy6goxAJDtggezbx86Zz7Th48CD27TuA+rrT6OruAAUKFxYWMBjm1xsWSy86OzvR1tGOjIwsZGZlYcTY0Zgw5SaUVZRDCyocvczBfpTgJoviep6+whpOAHtijGMxAreK0BW7SW2Eaz/Y9DHeXLEWWjgTi2+/DUOHD2Udt0VSBUWCSSBXEg1yiVAQzyLN841mHJwEw32FcKQ+dxcDw7RSQJMSdqdwbKi2jRDAcomgbrQWhgM/HpuX8+w1ebYvQvbs2HGwYt/B/eMG1VSfuPnmmw5di/ePf0y/An4FPmcFviCy1gfDn/M++C/3K/BlVaCjwyn44OMd/9fLr73xn6vLivZ/77sPPDZicPkn/TmeDU2Nf90J578YUHJMWYFBTWdkR0Y6VZvAMLkruIyvK5XwwDCPUxIyBY9B9jTDF7uGLxYMCyqaJQTuJyFZqVFwRlNjE44cOIhPt2xHtL0dUydPwqL5c1CYn81sLCQLajAAkI8vRwu7I3adKDzrNGKKbZKKSBJUFdB1oLGxCUePHkVjYyNOHDsKPR6FaTAcTNQiMzMTubm5qKyqQdWAGgwdPgy5+UEYfDyw8wWBcDotg2KbQkKEK4NwbJCgaSKMgjYC5gTI6Q/Jos82duL1t1Ziz8GjGDZmDG5ZMB95eTkwbMNtJrTZTULWSA4hNMcMe1PBMPPE9JsrA8PpQJiul53seFIhfKi94yuOgwClA0YjCNm2U5Wf/c9F2Zn/pUKSIv35fPvn8ivgV+DGqIAPhm+M++xf5XVYgfZ2J/+d9z98cvmqVUvHjhy24vuP3PfD0tKsc/11qWcdJ3Pf+XP/qycg/0B3ZNlk+zSNm6FsSzgFEHJjMOwBJtcGwmbfYQJ0QjP6ZYJh0sYSeCRnC1XWoNgSjh48go/Xf4j6E3UYPXwobr91AUYNH8Ag1LaiUAOyiBMG+f8KWQKpLdwk5ARLy+ywFxHMYJeS0oBozEQ8HkdLSxM62tvR1dkjUC4o9U5DUVERSkpKEAoFkJsbYiAdIVMICs1QRVMbMe/UDEfAm+zPWNpgOWhtbUVPJIZgkGzcQsjKyhThHi4oJkD+8Ufbseq996BDxozZczBuwnhmyJUAyVtIGkHh0tQPSECVIbcLhl1Q7M4ekjBZ/PxizHA6EOax0JhdWzvRcClSSGhfWknQHCBI+8WiKM0ILqvMz3qsXJKa+uv59s/jV8CvwI1TAR8M3zj32r/S66wCTU36pGdefvPZj7duGzVv1rQnHv7hvX+VL0nt/XWZx6LRmqORzscjqrooRg1nbNQbRMwwYVo2wsEQHKIi2U3CTVdLAcMCnfUGw2y1dglQ9UUzw9R8RoBPJt0BeQazr7CEA7v24YP33ke0owv33XknFi+cyiluetyC48SRkRmC6egskyBNLoFhSn4Tbrsu2+1atxGQJA01Ae5E/DSpAlygzCWiKGVX20sAV9OAoCqAMzPKFDdsWQx4HYfG4CCgBVhqTeyvl2bX1NSBrdu34fCho2SGgfy8Qm6Ky8rKQXFxMQoLi1iCsert1di1ZzdGTBiP2fPmoqqqEl2RbgRCQcQNg6+BmufIkUIA3AvBMIPWZLqyAMteqIb7EPYldfGeTwLxXC/bZGaYZhP81d1UYrfpnsSiKAkHt5XnBB8dFAwe7K/n2z+PXwG/AjdOBXwwfOPca/9Kr7MK7Dlw5o5nnn/1iXPnmvKWLv3G399z+4z/V5KkeH9d5r7O1ptPmda/96jKKJuCJpjro0AHAkUikEHxKF+X9aRMDV5299wDEiEbYtRftEzCA2epjGVq4AO5MRA7HY8ZHEZBgRkkk+hsbsf6NR9g746dKC8uwmPf+y6GDC6AoVO6WxxEegdUFcSGW7bFr7Ecw5UtSOwyEVZD0B2DPZUN2xKNdVqA9yGgys4T9DOyZGatsXvnSB4gSQgFAN2wEdJkZnxpnCRJsCwDmqrBIG2wqSKoAR2dFG1sYseOnVj7/vuobzzLxwi4YRuZmdnMNodCGYjFYqirq0NWXi7mLVqIkbWj+MTECJPLROuVIpYAACAASURBVMyIMbr27Ob6fp7cZj33/vbF/F7uOWQpCVeHQLBgu1Ot2xR6mthaI4aigHqwQMb3xxXmfHS5434Vf/8FyRq/ipfmj+kKKuDf/yso0pe8iw+Gv+Qb4J/er8DVVIBS57Z8eujRJ558/l+0YCD+0Lfu+avZ08c8eTXHuprXUADCru7ux+r0+E97NLnEsQm6sApUuEh4y+guuiVmWDSoiY+c/gTD6Uv3vdLPqFmMEtksi8MqLMOGRnyl6eDEwWNYv3YdutpasXDOHMycMRVl5Vks6TCtOFRVuE5EzTiCqmgUpOhjahokIOmFetjUTEf0LiTEDZ0FAgS8SRbAUgdu3hO634BCGl1ihF13DXaJILBs8vkILpJ9GiXYmaYM0wowadtQ34YDhw9h84cfoaGhATUDB2HQkCHo6Ohi2QSxwbpucnMep+zJMkaOHoGJ0yajpLKcf064U9VkxHUdsqqI8afogXs/J0kwfDVA2Jv4sNtGCrvMbiOuowjz7LYFxTCRK6MuX7b/w03F+W9dzfPqv8avgF8BvwKXqoAPhv3nw6/A17AC7e3t+Z/sOPjXf3jh5Z8MHDjo+KPfuu97w4dXbOivS6nr6alocpzfnNbjd/YwmCNqT4Bh/uqB3wTQ8azTktZchJdtNiQTPsQeQLrUNfQlk7gcm9zX8QQ7TQDUYgBIEgQPDFu6ibAWht7Vg482fcTJcwXZWVgwbx5mzJiEjDBgWCLcghrAdF1HKBhiMzPd1BPJbARug4EgDNI6uKJdAp0EhAOKCp3lDiSvEOfn35HUglPwhBQiRACdpBzkHUzRyOwjbCGgBqBb1KSooa6hAzt37cFHWz5GU0sbhg8fjpvnzEZ5eTl6onF0dXVxTHFPT4T/Tlplgu4Dhw1CeU0F1LCGaDTKkwJ2n9BFih1potNDT5K1FjeW3CcutV0OKFPSIDHD3gNAfs90RJFkRysFMhTLRNi2jHzgFzeX5f1tfz3j/nn8CvgVuHEq4IPhG+de+1d6HVWgqaen4r2V7/1y+Tvv3Td+wvgdD9y79AeDqkp29tclHu2Kj2229RfrTX1MjFhOm6KXCcCQPEJKNHURYEz1ovWYYdpHAFvhY3u1YNizbLua6+ZxsXWYkDWoAWIiJRgMFhXItoTmhrP4eONmnDhyFMOHDMaihbdg+LBBCIeJHQaCHHohAi0stlOTRRqdixEjkQhCoRBjYToHXS8BTcJ6FOwhQYFGkccOYNj0e3dSoFBrHkFFOq4FmRsOLRi6zq+nhLn2rjgOHzuLTR/twNFjx9ATi2LEyNGYOmM6Bg8dgHjcQiCowKAYO9bm2rBswQ5bhomcvGwY0GE4No9NI3cMCHAva6qbZtf7n4jPCoYvf19IpU3noFoQEBaTI9ZYs0uHhAAB4lgM+ZL926rS/P80rB+lQJcfv7+HXwG/AtdDBXwwfD3cRf8abrgKtLZGa/7w4h+e27j5o+lz5856d+nSu35cXVJypL8KcaA9tui8FXu6CU5ZnFLKbAUSg2CXCqZmMLbNokAIAr4eKBYfOSSjIDBMYJmVEymhG5e6hnRm+POAYQZdxLhqCnTTZBCrEEtM3WrkgmEBqqPg2KHD2LjmfbS3tmLcmNG4Ze4s9homi7V43EYwJCMe47Y5aJqC5qYOnDxdx9KE3KxsDBkyBPn5mdzoppA/sE1SBx2aogovZtIqE/AjdwqSSFgmTMdyZRGufIJirrlbzoGqamhqasKhwyexZsM2HDx6Cjm5uRg7fhwmTJqEgsJCKAGNtcEkd+B6u/ZrND5mntmfzYFBQR8eO68orj8xOVOobtR0kqHl4yRd1ITG9zLM8KV9h2kSIACv4pji4KStduO6OV4PEoLU3BiJIBv264MyC340Ikdq7q/n3D+PXwG/AjdGBXwwfGPcZ/8qr7MKNDc3V774+pv/vmff3hGL5t/67K23zP6XnJyclv64TNIL72zp/pPzlv73HZqcpUsEhMniy2OHXVxDEcfUGUbL7QkUJT5yCDSngmGOa2ZN8aWv4AsHw5ZoGiMgy8ys625BgyMYqDoaZMPCjq07sO2jLYh1d2HihHGYPXMmRgwvh2EC2UGg2wDOt3SiseEcdu3Zi0OHDqG9oxMVZeUYMXwYKivLUVyYi/KyEuRkhSFLDkKqzK8XQFUAS2aViQF2w0A8lplS8UyT5BFBGLqFjz/+BGs+2IDz7TGUlFdj1NgxGDx0CPILCmGyNRppb12dtkruFAp0gyQcVGjBvhIDHMgICo236x9M2mnBbiuso/Y2b5KTCoZ5MkEWbJf4V+RSYJg05haJS1wwTN/R2OgR8Kz36Cs1JzqRGHJgbyzTtB9NLso+0B/PuX8OvwJ+BW6cCvhg+Ma51/6VXkcVaGlpydl14MAdLS0tg0eMHr523LBR/dZlf6azs7AxYv/PZtv8XldIk3RiNV0wLNsEIWWOWWYwRqEazPSlBjMQcBZgOF0m4VmrMQvZK85B3LwvGgzTuMmujAB73DY4dEIEV0gcC6w6KnLDmWg734q9O/Zg5/atcEwLo0cOx4wZ0zBiZAViMeDkyTrsP3gY+w8dwfnmVoTDmQgGg2g6e44BaE52GBXlZRhUU4bqinIUFuQjIxRGfk4esrM1tiiLmUJuTZIKEWVBsgGbXSgkieQOFsIBBV2dOlatWo2Vq9egtGYw5i5YhJqBA6Bo5OThQKKDqQrLNzjQAsQyEwuti2OTBjcc5iY/YoUpxY6OL1Lrkgw+A2TXCy4dDDOmZgeIi4Phy6bRQYZJIgkCw9ChsKUGjdmCTWBcEsxxUNFA2dM5Eg4U285fTCvLW9ffb+V9+/YFygJlocJhhZ39fW7/fH4F/Apc+wr4YPja19g/g1+Ba1IBYmibm5szioqKuq9JTO1FRn28rXt8o2E+2eY4k3oUBQaBL7IIo5V3bs0S4RMEzDyqlxujGBC7TCAl1bkyilTNcCoY7uv0qWBYJNulGd32ehFBSuHAQF8p5jf1e9apSgQaDUiqwsBThFcoDHgdy2F7NBhkH+Ggs7Ud2z7egr27djNInDBxHGbOnI66upM4dOQozpw5g+bWdpSVV2LKtGmcIHfu3DkcPnAALc3nAfLTtQ0U5uZgUHUVsjOzMGLYSAwZMgjFxSFmiU3bZqkG2ajplgGZWHcCi5JgkUMqQPkc7777Pt7fuBFFldWYv2gxcvPzoAYCDFDJxo0BLjlTqBIzwNQkSCBfkyVEYxEG6mTRRqCTQDDLNCSheabvmYUmxpyE0S6T75U2Oa+xYXH5vYlO8p8TDwhzY6Vb/95f6VU0ZVL5WkkmkWCGyTKOPIf59wo0RYGkW8iSpM5MI/5zqSz/n26RpKTA+pq8u3of9B9/+asfBYKZuQtmz/vD6NEDG/vhlP4p/Ar4FejHCvhguB+L7Z/Kr8D1UIF9PT13NUajv243nApDC8AiwOZ64wqgRMyw8I5N3YhFFGDUY4o9oJTcy5NJXLgcL/bpvSQvs6aX6VQ31rn3GQXYZfaZJRzi/CzdoK/MWhOKF566niyANLnMfJoWJ9LJ5NpgOty01t3Rid2f7sbu3bvR3d2NguICdHR1IBaJoqCgAGNqR6O2thYFRYWClZUltjprON2AhjP16GhuRaSnB5GOLpiGgfFjRuP2RQswbHgJg10K3pBkG4pKlmokqhZOExQKohLQNYGeCLBu3Uas+WA9iqurcettt6GwqICBtE2Nd5oG0zGE5peaG2lS4mp76Ri0sTxXsmGlRC17kxjv9xd7Vr17RPeCvJU9Wzoao6mTBZwKirWm81P9hTMGgW3BQIv6i3spE+tLHiSWwRMFR2YanEEys+OmLIC7bSAs2dCi3a8MzQr/6ah+kgTR2LY1NGT85p//7fexqFHz/e98+8fzp4zZcj28j/1r8CvgVyBZgRsWDPsm2P7bwK/A1VVge1f7Ay1x439HJKU0YqsMqNJBrAChxDT2/ojxAHIS1Pa25rocGE4FxMQKE64iqYMA2qmb+N5jKBOa5JRdaA8T1EBGwFMwp/wabuYjD2GZvXk1JcDpGKqsiga5c63YueNTHD56BI3nz7Erw+CBgzB69CjUDKhiCYJhxKGbBnLzczlFLh43EOnqRndbJzpaOnDm5GkcP3IYthnHnd9YjNk3T0RGiIPoBKtuW2yjxmOTyBdYZes2ImpjUWDNuo1YvWYtSmtqsHDJ7SguLkppPJMYDEuU5uGlwrn1ITdorolNEgyHmd3Uynk8e/pkpO8nxWEWm5lnhVwxgiBbOgoIoUkEg2uXafYs2oh154ZK2xQTEApngQXysVCZnbc4PMSRVKhqALZBTLnGDYcBUn/EO9cPzM39zqRw+NTVPb2f/VW7zp7N/PWvnniuqblz+KMPPvhXS+dOfPuzH8V/hV8BvwJf5QrcsGD4q3xT/LH5FfgqV2B7W9u9zbHYrww1WNYNDQYxfGwO29ttQACxS4Nhmdna5HYpEJbONDNwJakEaVtTj0HfJ8I+elcy1cLN5tfJHPJAkJCAmwcUWVbhygYUYjwNYUlGtmb0fUdbG86ePYvm1lbk5OSgoqwMhYUF7AAR1aMsNSAnB/YaZkmCI/rWDJvBdltTG3Zu34YDO7dh1owpWLRoIfILwjB1A1qA7OmoLmJMzLhyVLPCideWCbz33iasWPUuigcMxK23L0FhYaFg4smL2LZh2Dq0YJCBJksm3DJ49WZmmKUrQvubvl0ZGGZ+XYyRgLpBLhwS66WJgY5GDXR3drFtG0khSHYh9NgCRAdCITiup7JiEXtM+mMbDkVOSxRSIsMxSe6huGDYRkCPbhucF/qj8aGcQ/31Htm3zwk8teJfnjpy7NSMB5be97OHlszst3Cb/rpG/zx+BW70Cvhg+EZ/Avzr9yvwGSrgOE7g047onU3dPf8Wk5USMxiGyV1ZIn45HUQlm6gE55gKWlkrnMJLpr6WsCwvo6d95WOkLPWnaoxTJRTc/EVsKP8wqRXmVDPJdj2RhW7VA2ikoWV9rqIwI0sgjvrH+GeakBsQC0qbqkiQJZVZTAK7xCLH9Sh0PSYs2gjkkazBMBDMCDPDydIRCwirQehRHZ9u+RgfrV+DIQMqcffSOzFsWBUsgzTLEssCiMCl1xMC5nAONQCyQtZNYPXqD/DO2g9QXD0QC5csQX5+vtA7qyQvcDhSmS3bSEXSBxgmZtizMLtaMEz3hrTTmqqydptlGa5mvLWpFfX19SwN6erqEIEirmSDgHFpaSmqBg5AYXk5MjPDyAhosEwDOiXOaaQj1mBQBDXdP5oA2AYo/DpoxXcPyMx4dHJW1u7P8Nh+rl0dx5H/+6+f/tddu/Z/447blvzmO0vn/g9Juoyn3Oc6o/9ivwJ+Bfq7Aj4Y7u+K++fzK9BHBagZjmxpdRXBzo42zdB1RQmHZFnXZUmWZMWk/xuKLSuabEG2ZVm1JEmRSbALFY7qOLZlKRJ5VTEjC4e4NZZdAsSzEbHIZlvk/Etf6ffUq+Qojq04ju1AI+uBBF7VTINTlG3FsRzVIa7RMTQlsy1mLGzujv2f3aaVYShCJuGJeb3EsYTcgX4nOM7EVaeCr14AOKUunltB+ldxrOQm01W4HsXiuCnwOuXFIuxDNPDRV/JEJiNhWq739LnCXkxYiwXDIWj0JxRCzCAtqwRNI4ZWMMSE/wnc6TGXLaboYtK9kj7XBaAElClwg/Yz4iaDZ0u3QDZpBKUO792HjavfpgBrLFlyG2bOnIKAUBewHIKt5lzvYfIopiGTn/H5llZ88P4GbN21C3mllVh05x0oLhbMME8+ZErCM0UDXUqBBSgW1UvV/V7tG5KOEVaCBIgdx3QkSrZrOnceR48exckTJ9DZ1o5Idw8fnhl1RTTz6UaM65KRl4OymhqUVVRgyIAaFBcWQqKwD9Iic6Ol0IMzew0Dsq0jZMWPlIXkR2fkFvWrbvcfn3zlHz76aNv9C2655ZU7Zi/+r9XVUvRq6+a/zq+AX4GvXgV8MPzVuyf+iG6wCpxojA48fObUlH179t7c0tJSZVlmdiwWC6myrFmGSZiDVp0prkF1IGk2WUcQmpOg2bZMybWOQ+JPokkt1mCSYVgqI0qGXUSTsv+CI0Ci40i2owhqlQEwhQuT0y8dSXZsSXJsWXJMSVIVU7epTUqyrUBANqAUdBl2aYyW/QMaA11CzQJ6i2Vw74PFA8dJRthroBO7p2uEL+UNkQqEPQcKlZfTBQjm0xO6Z7zr6YiFmwSn4xECdb8KFwqKYLZhGDGWHwQCgv0leUN+cRFKKipRO3ESpKDGjWkEbmkZn6QQSZBJS/miIYxMNRjI2iJohJrXSCbByW+6xWwxNeJRc1k4oKKzqRXvLXsT9XV1mDJlCm69dQEK88NecjPI5tc0HQbfrR2daG5uxpn6Rpw9ex4HDh5ES0cHBo4ajVsWLUZpWTGPm1PuSIrgAmOvWc3zESYwzDKFxB1Kb0q8gjefO6cg95CgFERAUtDW2ooDBw6w08aZM3UIqBpKiopQUlTMLDCBdbp+3Yijo6ODnTfqGhtxrrMN4cwsDB04ABPHT8DAoUMQDGcgblFaHl0KzeBIOkHFiCFgxE4XSs4P55aWvnsFI/3Mu1ysl+TXL6z8z++sXvvXs6fP2HTP/d98bEiB1PGZD+6/wK+AX4GvbAV8MPyVvTX+wFIr4DiO1J/2Yf1V/XPdTumaTVsf3LVr53f37N1T09XZkVlSVCxLkqTxP8xpiQbC25VgHFGFBHpkZi3J35f0oZ4sgOUAfYDAC0CiG4fsAVlPmuDxubSuLxqbHOiUDKEGYSsBGOyUIJayUxPk0utGSL2vLSF1sElvmtwup1W9YEmfgKfL+HqAW+yTtFTrZemVJpuguGLy33U45EKMg2usqZBDIYyZNAnDxo5FWVUV+xBbjsl2ZbZjMMgl/TBPEyg22E2So8Y3BsPEJJsmu0EokoKAEuDkN1r6lywHVlzHtvWbsXPbdhQVFWH27FnIy8tLeP12dXUxACbGtbm1hf/e0tbGkglqzsvMzUHt1MkYVTsGmZmZCS9heh4kV5vr+QaTNIG3lKQ/DyD3dX/S/ZwvuK9EgNuAZiqIdvdg3+5d2LZtGzrbO1BZXoqRw0eguroalRXlKCjIR2YmAXswwNd1C+fPn8fpxnrsPHgIdQ31iHR2oaaqGhMmT8GQ4cMQyMh0JSpkr2ZD0hzYegSaGT2X75h/PL+s8q3+eo/SeZ5dvu7hl19d9rMpEybt/c737v7ugLy8tv48v38uvwJ+Ba5tBa4ODPtWDNf2rvhHvyEq4DhOaPmGXXc99/wrPzVMfeTQoYNRXVWJyrJyXk5mdwMiM1PepaQLZWbXpXMJ+NCyOBHFxKBxChyBQwqNYB9fsSf9nHx+va+eXEAwt67lGL+vxcm8ljTJIfZUOACYLMGloAT6qrKFV3JsFwG9KYxxXzfVuzTWhqbJGlLHmxg3XafsaknpesRohFaZnSu8MA9BdzND7so7UyUcHoNMgJaW8KkrjUAnySa643EcPXUGB06chK0FMXPBfIwaPw62KsGg8ynEhQs5BM0PyP6MQCaBYsrvoOPR8eOmwU1jdC8pz47Zc5sCJkRISUhW0XiyHiuXvcX62srKSgbYXqMeMahUYEmRGFQTuCawTAEb1DBXXl2FrMIc5OTl8tjJdcEmv14CwtSrZxjMxvJz5NbAc9XgMaSEaniTAO8eXSkYzpKD2L39U3yw7n20tDZhQu04zJwxHQOqq5CREUZQIzmJSNnzAu3I5IL+HjWApu4ubN+xE5s/2MgAefCIEZgxew4GDxkGJRhgv2N63pWgBMeIQjUizbmm+RcLKytf6s8PiTfWfrzomWdf+uXY0WOO/fEf/+DR6lyptT/P75/Lr4BfgWtbgasDw9d2TP7R/QrcEBU4duz0sFdXrvvvGz/86L4pEycoc+fMxOhRIxF2haPMVLpg2NPJJjMmaA1Z4nACryGMlu4T2lhiH0nAQEAtrRGNA2/76Jrqq5GK4s9Sk8Q81WliPEm5sADRKZ8obG+b0EtceEsJPntYOZ0RTm+cS/TCuXjd25/AFiWz2eTFqyhu85s4Lq/mezJhd2zCcpe0uBAgk7W5np2ZSH/rjtk4VteANZu34JO9+xEqKBS63JpKGLAgqw5sS+fmNFeinZAdUJOct1E9Pbs2Bpsk4TBpwiJAugYVna0d+Gjzh9i1azcD3oyMDP5K+5KuNhgIo7AoHyUlJcjLz2fniqzcHITDIUgBFTapX5Tkefgcrq+wF6TBX9NirhOx1y5TnDpm+rsHhsn+jMC9F9NMxxH+wSKh7/zJ01i7ajUaz9Rj/PhxmDN7FoeIhIIKNNm9B1SHlNvP94ZyTKgmGnC2uQeH9h7E5s0fouF8E0aNrcW06bNQXFHOdSCdtq0aCAckqHqsM9OI/eXCsson+vND4p1N22f/7unnf1NdWX3qxz/+7iM+M9yf1ffPda0qcL2uuF5NvXwwfDVV81/jV+ALqMCGDz+Z+8IrK36lBUJjHrj/XowePhTZGUQ3ChCZCiZZ2OsiCuHCIOJ6DWZ1bYdUrDSkhE9sih6XQarHnLouAh44E37A4uDp6W7c9ubKHNJ5X6GSJa9aEfnrvZYguDcKGp/4vi8gLGQMQiSRbGxjMJ/CEAue2wXvEqmhxQxByC/IrozYT9rLFXYQWLMtblYjvWny7HaC7abXE3g2TBtSMINPT6JsalIj1pJAWks3sG3fITzz+ls41x3F7MWLMWrSeIQzgzBlA46lQw2q0AmIu5ONvkCn19DGFSDgST5uNqmzVaiyjO7OHvT09HCAhx4XIJjvo+t7XFBQiEBAg+pOkGglgDTLPBGCBZNWA1xLODoX2aqxNILY85SZSSpI5+O74Nhz40iVmKQqczxA70lBUkG13h3BlnUbsGv7dgysrsFtty/CmFGDWTtNrhisQqd7IxODnzJJ4DZOByZN17jJDzAiwJYt27HynffQYxiYOnMWpkydioysLHIehgEdQdWBEo9GckzzJwsrKn75BbwFr/gQa7bsnvH4k3/47aDqAaf/5s/+/OECXzN8xbXzd/waVuAGXP33wfDX8Dn1h3x9VOCtle/d/cyLy341unZc5Y9+8G2UFAR5NZsACgNMjsnlmISknRgzsSQLMPgrsaEEhz3Yl4SiXkuZqFW6K4MHumjR3ts8ZjiZEyfYzASYTi27myJGbgekVU4E8jIAE8v0qVv6Bw27ORCYdvv30kGwuOAkSBbCDZcmJy8MT4tMXVaunzFrpxkEUxOfmypn6MJijNCfRfV0ING6vXgRDBYIy9BUGRbFu9HYZRmGDByt78bvX3sLOw4dxcTZszFp5gyEs4KI2zFYZpS9ch1FTCLo8HzlKfHQHnuejCYmeYcAxQrZr0G4KxDLS2PWdaFDJiaWvme9MT0PssO6Y07II0kMN/CRe4XFHryeH7K4JPHs0P1OBcN8D1PCUbx7cykwnGzCo0mHG9lsO8IdwzBwtu4M1q16B+1nm3Db4lsxb94cFOaoiJpicqEpNDERqcm9VhfcMXLghkyabQdZARkNZ7uxavUabN+7HxXVNZgxezYqqiuZgdedODTZhKrH49mW8be3llf+r/7sIVi5acuUJx5/6veDawbV/ejHP3hoWGFh5/XxKeRfhV8BvwL8GeWXwa+AX4EvpwKvL3v3W6+seO9Xo0aPKf72I/ejKD+MkKsdIPDB7gOE/9x3KjN2/I4lpEMsogBH4tdJDjbB+l3mslwO8oK9BLijxqUkiHE9IBLL7WzR5QVmEKXKY3M/TjhytzccvuCDJomeXWCaNoxeL0+D1omDsWUC+/BS76BhmlwvTx7ggTBmUtn+jfKOyWjOex2BduGPzGWkMZNpgaOyPvhks44nXnoDWw8cxuQ581A7fQq0DJU1w5IstMqmG1zBcdRpYJgnNGlAkCc7blCIGIZgugkEe81u7FHsEAvuSlRowkHf02hdD2O6NnapIC9esmpza3/RyYtb3lSu3NMPe5X3fIf5CUu5Ydwo6J2DfIU1De2tbdi9bQe2rN+AmrIyPPjggxhQUwaWXxsWFM595kDlC0C5GKMkplCSwjKXnICGSAzYsn0Plr+zBhHdwJz58zFy9EhoGQFY5GEiWQhZRjzLMP7bgrKyX/Sn1+97H35Y+7vHn31iYM2gU3/zH7//g0IfDH85H5r+Wf0KXKMK+GD4GhXWP6xfgctV4I2V6+//w+tv/dvoMeMLv/Pog6go0jiWlpgyYjGDQYXxZhIEpx+RwJjYCAqnSiToZ71cGnoJBoTEwnuli7UTB0/lY9PP6H1gEE8rEVjj1fAUsMqoko12ewGqi7pEJCwcLgKGU4+d/mklU+ywJdr/yFnD9eTttZtLzwrbM5HqxvpibkQkuYHK0ceqNw6bdhTM8IkmHb997hVsPXQUU+YtwPgZU6GEHMiaBFUjtjYGm4C4G+GcCoY9UJr0RBajYgbZBcNeBAmFg7iHSVix8b5ulDGBd7o2cvTwroKYb2aR3djjBPOapgFOk7ck5DQJAJxi2nwpMKyS5ITGYVpsm9ZQX4/1a9bh9KEjWDRvHu6++3a+Li0g5meCoba4t1DIWjwZi/jq3VZqkiQwH7AVDhOpq2/FS6+/iT2HjmD2LbdgytQpyMrNgKnQPTMRts14tm3/3fzi4v/Zn2B4y65dgx7/7ZP/WFlWfeDv/uv/8X9LkuS99S73Nvd/71fAr8DXoAI+GP4a3CR/iNdnBV5evuabT7287NfjJkwseuy7f4SyAg2UuWDrJgM2jvH1lAGp+gfyXSUKk8XFIqWB3Qouo71NrWKiAa4XJL6wzrxMn/IpIQhUB4obF0zaVwFuBAPoLa2nYbIEFE8HxUImQU1lvX2AhUA6mRwnpBfUribcIUhtTJME0p069CNyDbaFbRe7OigaAgHROCbIdmJ/ReMcuSknNMaQoRs6gp6u1Y0Bppy5o2cj+MOyPV8ElAAAIABJREFU1di4azemzJuPybNnQsuUoTsxSI4u7oHq1p8dnAnoJj2X04KmE2CY75crq7DYuk5l+QbLIAgEu8oV+p6jlBkMk1xGTIyY+ZZVEUPtehxfjBFO13qnyyc8cj8hkXHvdcL6joNIhOaX2W/SV6sqThw/jjUrV8Hq7MH9S+/FtOljEOkxEA5rPH56ZsgbkBoOkzEpsmjuS/GE5thoWYNFptWOxpOLZW+vw6q1H2DshHGYc8sc5BTkwpBNOFYcGY4VywUIDP9Df4Lhffv2BT7cvuvmwqycxnvvvePA9fmJ5F+VX4EbtwI+GL5x771/5V9yBV5cturel5e/99sxY8cWff/RB1GaF0aQO+8ttvoSnJrK6IjfqGwMQRCLAIZoXKP4BAEcZQZ7XqgEf2VdbwqoFF10ifAJYiQToMezJ/P4ZPYwTrOHSMAYTyJBzgUu05cAUUnU7gHk1DIn2OteMokk6BX8djIcQ1wbLaiLnxObK0A/VwkxgDWqnZ09aGw8i1OnTnGoQ3ZGNoqKClBRXo7CwgLk5wYTrXqENRnUu1/p7wxpUwjuOIDj52J44tXl2Lz3ACbNnYspc2chnKNyQ5djRxn9kkyBxkIg2GN9U6+XnRNSPmVp9CxjcWcLBNppo/Q6liOobpQz6ZkNsksTkw0G/6yaFgcjLTnrn5mBTeGf3WvoCwSnjishq3BfmgqG011FhMWfWK2g8auKgsMHDmLV8hXIsGR8+6GHUFs7CJYBBINiVx4TMd6ujCfRlMcWgJ4GnoI1dAQUDYpDfs2iefHt9z7GsnfeQfXAQVi4eCEKS4tgqgYsI4osSEae4/x0XnHx30uSJGYP/uZXwK/A566A95n4uQ/0NT2AD4a/pjfOH/aXX4HPa0vz8op1d7345orHR40aVfIYySSKs6ARgKUQCGIEqTnL0UQsrSt7dQ2pEmBYIrBMv2Rk18fbmWO8OM82qetN+Jl5NfQQkfe9B6XEVyfFH01YlZF2w8UhippYvhd40hsDCxEucJPwtMfemZKtd+In6WDZYzxTl/BZhsEVkNBhArv2H8X2rVtx4tRptLe3Ix7TmTWl+ORRw0dg8pSJmDiuFrlZArASY8lMMkNsYUGn0d9cgGpLEgwJOH4+ht++tAyfHj2GibPnYNzUydCyNUAxAGKGWQpCRxCTlT7BcNo98Zhxr0mSGW9i2hUFmiL+Ts1pBHuJgSXdsHsTWCpB99ILYvFcIxJgmJhbapJzi5s6GUll5Huxvin0Nccepz1CLMVQVK4N/Z2ipOm4+/fsx6ply1GVX4xvP/gghg0pBvUfsg5aAwKyYIUTbiDiQRKXkgKGZcmCaRrQEOTQcHqqPti8C6+teBtZuXlYvGQxSivL4ARtZoazZNnMtaWfzS3I+7kPhr/8z0B/BH4FrpcK+GD4ermT/nV87Srwylsb73j+zWWPjx49suyHf3QfBpTmgWIdYOi8/M7tR05AYFxahifM67o40A9tstUiIJZu3ZBaCWaPk0xoepGYIXQDGQRQcdnly1Uz9TXkbpFwpeg7fCO5VO6Caff45MAls72bKxFwG8NIo5oKjwm2smWarBAvy/Az6gBb9x3H22vW4sSxk+jq7saQIcOQlZWDjq4uxGIxNJ07h8KCHNxzxx2YVDsK+VlBUA8cAWIaqQmd7d04rIQkAdSBJ6uIOEBdczeeeHkFth06hrHTp2HavFlQwvRCangzE3IMb9n/cul5qSVNd3oQUoTkjUwHrwnNLR9ESBdclJw47AWse8oJUwFwb/lGciehSU5HwzSp0GDpwluYkvMoSGTn9p14560VKA7n4tsPPIBhIyugGzYyMmV2fzBMcvHgaI8+9OmebyA1CdLEhUyHSfYRYBnIuo078YeXX0VpRSWW3LkERWXFDIZhxxAwTTtPUn+6oKjIB8OXe4/6v/cr4Ffgiivgg+ErLpW/o1+BL7YCLy3ftOT5N1Y8UVs7suyxR+5DVVEWZLLtovVmNQDTIZ2oCpWUEIQFXD9c8pa1uLvfBXWXAsNp/W3eFSSMH1I+AdIMIHjXvn7WC9TJwjGBE+I8UUZKyEdqWEYCEKcAaRsKLMdhKy4GTjYtrZOm1mFrMVWllkKR8mbSMr0iw3BsmIaN+uY2vPHeeqz/aCsKCwowZuxYTJ58E5SAhq7OHkQiEWzatAnHDx/CkAE1WDJ/LqZPGou8kJBF0MTClkzhdcytZXR+k2cdPVBxuqmTwfD2QycwdvpNmDbvZqghwFGoCU+4ORA4v5otIVPwUK8Xk+we7AJg7coNvHNRzVK3SwFhvo+9ZCzJ773zJBnhVKAtRMrsbmFazBDTXIyA+KH9B7B6+SrIPQYevu+bmDF7NDfLUT8fjcx0TKgS2f55fWYsEHGlKsJrmZyG+V4TN6870AJBxAxgxeoNeHPVuxg2ZhTmL1iA3KIcWCq5bcQQtCw715J+fmtJyU99Zvhqnjz/NX4F+q8CF66efnXFGD4Y7r/n4sIzfXWfiy+zKld87s8rU7jiE12jHV98a9Ptz7/+1pPjx9eW/fCP7kV5YQZkJy50oEoIupBpJmS/BBwINBKHqlPwmJDTXpIZFmzyxS/Aw3IX26fPVDpGV+KY7M+QlnDHvsfkZOY2iiWYyD4+bQhKRnULGQEhNSDQT0vsnApHx2D9KfnyirQ4Tj6WgK6uHmzbsx+Pv7gMlhbEvXffhdG1o5GZrSGmCxadjnfsSD2Wv/Emzhw/jgVzZuDhe+5AeX4IKgFhixh4Kq/Kml/BuAowHIWKU02d+N1Ly7Hj8EnUTrsJ0+fdDDmcBMNChnAxJvzSD83lwHBi0uLW2WtMFBMUMQGhTSQOJreLsdMJMOyC6uTL0h8OV5Ps+iUnpCOm8Bem4hMwbmtpxYZ17+P8sdNYOG8eFiycLpwjFFs4SvA9FL7O7kgT9n+8VmHZDJhp4pcdzOH7TENrbI7j9eUr8fGnn6J28kTMmTcboewMmJS05xgIO46ZaVr/z+KSEmKGL0ZyX6N3rH9YvwJ+Ba6LCvSBvXwwfF3cWf8ivo4VIGb4uddW/K52Qm35Dx+5F+UFIajUdMSAV0aP7qD+XAta2zoY+FJUL22m5SDmuggorlVXAjz10qgSm0YAL7WRzpUpuO4NfS3Xe8fqG0MnQyZYY9rLwI3hWR+3wmvUS8UuohVMlTXE43FkBEOwLQOaJEFlwGajpqoK4bAAYGwlTJ66FKwhA83NbVixbgPeeG8zBo4eg4ce/hYKCzNArnQGezTLMKmhSwXWr92Kd5a9hcGVpfiT7z6IYdVF0GDCMHsgq4E+wLCKKGQGw0+8uBzbj5zEuOlTGQxLIZqo2Kzb9fxyr+bZ608wnNoclzzvxe7yhWCYPIY5QFoiOYkMUzf4nn28YRN2bN6CSWNrsfSeJcgvCJPsl72GCa4bbuAJy3Bc5p3/DaJJhG25PskWNC0EyVQRCAA79p7Ba8uX41x7M6bMnM7WaqRpsThl0EamBDPTMH6yuLT0F1dTd/81fgX8CvgV6KsCPhj2nwu/Al9SBQgMP/va278bP2Fc+Q8euQelBQFmfgkIxi0J7Z0xvLZsJfYdOATKjcjOzkYkFoNpU3Kaw/G9ASWUDMJIb6DztLzkGsGeXB4Y9ejmPi48JUGtb1ZYhHF4HhV0TAGa+2ZIPfCVaLzjfVPdDyz2KyaHAl2PI5PQq20ioKmYPnUaFi2Yz0CYrp9s2HgpXpbYOeKFN1fiw/0nMXLiJNx9zxKEMjVoAdFkRjIGAsN0qmMHT+HF3z+DkGTjL//0+5gwqhoaBVmbPYAShEwdX8I6QzhwyAoikFHX3IXfvfAWdhw9lWSGgw6zn2KSkXR3+KyP0JWC4csdV0rNTu7rdqZ8wnu2bBdl+5nJF/fRC25J5GzbbK3maIrGYX6kx9768RZ8tG6DU5yfJ9119xKMGTsMoRCRvuQyQpphmriIhjtvGMIgTrD2ZLOmKAFEIwZkK8BuEive/QBrNnyAwsoi3HLrPJTXVHDkuK0EeFKXrcjRcFz/myXlJf96udr4v/cr4FfAr8CVVsAHw1daKX8/vwJfcAUYDL/+9uPjxo2r+MEjS1FeFHTBMBAzHXR0xfHKG8uxc/de7uIPZwTR1dPDYM0ixwOdwiICfUbvesA3PZnMa8ATPxdARdiXeZvnINE3suqNvQiceuv4l5ALENudoJl7r2yTRjgQIC2qDcMkMKzBMuLICAUxfdpULFm8CIGgwmCYQRSDYuDs2bN4/o0VePeTvZi9aDG++eDtDLPIt5avSQ6wtEKxgX07j+PZJ59CBmz81Z//EONHDkAAMSjUCEdsJ3s1C92wAMMSg+HTBIbTmeGADUcWTPvXCQwn7lua9jjZiCfqSw2ZqWCYywFJhHsQyDUsdHd3o/7MGeze/inOna5Hd1cnJk+eiEWLb8GgASVsvRyPG9BI+kLR2W48ND2oydhwwRZbtoQATYSiwK7dp/HSa6+gubsd02+Zihmzp0EJqojRDVeDrCHPVuSOTD3+49vLS576gt+OX9PD+Vq7r+mN84f9FauAD4a/sBvifyh9YaW8QQ700vL1S559/Z3Ha2trK0gzXMlgWKBGMqXqiQMtHV2oP9OIoEYWaxJiRgyKGoBBkgHFXbpOZVrT2GHyqqUtHfR4JbYosaLXlgZqU8FTOqVIIRYcqZsGcMkZoU+NRcp+7IlMnYEqlEAAjmly85omKzCNOEJhDTVVlcgMhZhtZIcxN0WZ9KUdHV14Y9UavLR6PYZPmIh7v7UUuXmZUDSRlEaOBoShzCiwYe0GrHv7bQyprMCffu8hDCkvhuJEGKwJraoYhyhUOhheiZ1HTmDsjKmYNncWJBcMEzNMm+f7+1kf2UvJU1LB6OWO64V3ePullz09TMOL707s74nFPY2w+wuSQ9CxbVcrHA6oiHTHUV9Xj7qTp7B//36cP3sOpXkFaG9rQVZWJmbPmYbasaMweEiZeIYJw7r/wpDEga6ZwTCtJlBwjANEekzIdginjp/Huvc34tM9uzFs3HDcNGcCygeWQlYVRC0LkpoJXdeRoyhtITPy2DdKS1+7XG383/sV8CvgV+BKK+CD4Sut1I2yn4/p++1Ov7xswzeeXfbO47XjxpQ/9vA9KCfNpR0XgEzL4IYxWQUoBU5zdQliqZuazkT0LW2pTVMXKCVSrqYvfJoKY/v6MLiUUYVoObuEbduFRl29aitcB5KNctx0Z4qmuaDIouClc430wuSmYTuQSTsqiaS5dzdsxqtrN6DbABYvWYTx42uRkx9GPC5S3Ei7+uknB/H+mvfQeOIEFsyciUe/eTeKczRIJtm0ETNMyXTECPcNhp946W0BhqdPx7R5MwDNYma4v8BwX8EliSJSPXrd8FQbs96ewb2Y4RQHNXLE8FYGeBKR8Et2J0W2BDOuI9oTxYkTJ7Bv9z60NrewU0dVRSWGDR6Gzo42HDtyEMGQgqqqcixYOBcDaqpYA8whia6NHX91XdXovFTDeMzGkf0nsXHdNhw8dAx5JUWYv2QOygYVAkEbWjDA+ng5mI1YVEe2Kp3NsKLfX1JSsqrf3qjuiRzHCUqSJGaX/uZXwK/AdVUBHwxfV7fTv5ivUwWee3PdkleXv/e7ESOGlf/Zdx9AVXEGJFsIXUllaXIKnCoazRj10n9E6punbCBdLDWUsXuCCzR4LyJsXeDMgWeuEwODV3e/ZE6HWMpORPoSKOKmKQpa8JwBJJGQxhYWSbcHMda+YTa5Ylx6I15ZTabgeYoL9hqmP2StRlHFAgjT5iWa9ehxdER0/P7Vt7B526cIZ2Zi/vyFGDpsBDcaRuMxnDlzBps3rEfd8SMYOWQQHr53KcaPGIIAMZakV6WRq2SP5kkkXDsLRUaPA5xu6sa/v7AMu0+eRu3UabhpzjTIKZphGs/VMsPpdWFbt5R6eX8neYy3efdIeBKLj24PDF+MEebjJO6ZCOVgqzTXuo4AqaoEuAYU9kGFpxhwskUzdBPR7h5mgY8dOYampiZ0tXcgPz8fY8aMwYDqgRgyaCjON57F1m0f4eChfTD0CEaPHoUJ48ZiyJAhKC7M4ftHgYrE8NPVxOOiua6lpRV79xzG9q170X4+go6uCGqGDMQtt83FsNoBaI808bMhB8IwnICw3YtF6soz1W/Pz89f35/v9bfXbZ11pv70jAmTaldNHTNsX3+e2z+XXwG/Ate+Aj4YvvY19s/gV6DPCjy/7P3bXn7z7SfGjh1d8aPv3I+yvDBUidAtaVJVWKbDkgjeLJPdFhgTU+CG64mWjPN1QysI2LmyCAZN7vepgCp1MAQ4mRGk5LK01zrkaUFgnCUNLrp2kbBlWbyE7TGXInRDAGPW0hKaJah7SR9eYjIJ5qd+DHmvN/loBNyYueX4ZZFoR8CPfHa7DBPHzjbjzZXv4JNPtkNVQigqqUBWVhaD4bbW89D1CAZUlePWubMxY8okZAcCkHUDmZrG7LHDOgOy+nLhJVmuqTIitsQNdE+//g627DvEYPjmW+cwGDYdnZ0tuDnsKq3V+rofqdIJDwwLWYFgbFM3DwxzSEjvJOneKXIuEPaeCe/5EcBagqYGOTyE9Lg0eaGADbpnXR3daGxsxGlXEnGu8Rxyc3MxePBgjB49GgMHDkQ4EEQ8aiInJ4yW1lbs3PkpPtmyGd3dnSjMy0d1TRVqqqpRVFSEovwChMIBxKMxtLY2o6HxDE6eqMOpU/XIzihEZjAP7W1diNsGRk8ciVm3TEF2QRYUTWb9vOEoLL0JwjpUHpYfnJWVtbO/PlYaGhoynnlzzd/v2rNn5m23LvyX79y7+On+Ord/Hr8CfgX6pwI+GO6fOvtn8StwQQVeXvn+bc+9svKJCRPGMRguydWgWDHWVNo2uTYIsMhsHolmHYutxaAojB8pgU4AUFq2T0kvY+o3ySgSaPMS4sRrBKAWwb3eH1dX7DKwiWQ6YqfJzJh0CgoFU4gONgJhkqbCZssscWmJIUgpMcxp7PCFPrjiGtxBuZoLAaYTPhUKQUIFBI+FRZe4trgDdNs2jp6qx7atO7F/3xE0N7Vz81YwqLGGuLyiCBMnjsH0KRORHwrCMm2oFhAm3QkdThXgW7Zl4ZNLIJEa6IgZbunh0I2P9x7EuBkzMOvWOZA0C5bkTiB4AtD7I/Ri2uyLPf6ettpzekjfL8HWu/fF+30i1pnT+5Jbqqybjskg153o8FfXt9mbABGWptoSA69IEkzTQmtLCw4ePIgDBw6g5XwTA+TKykoMGzYMVVVVKC4u5hS6np4I295lZ4eh6yZaW1tw6sQRNNTX49SJk+jsbEdAUREKhZCbm8+TKtL92o6FaLQH0WgUoUAGxo+ZjJKCcrS3dWLbzh3oNrswffZkTLhpArJycmCRdlkK8HsgU7F3lqra/dNzQ0f66yPl0Onmysf/8MKT+w8fH/XIA9/8b4/cPusr3rzna93669nwz3P9VMAHw9fPvfSv5GtWgddWvL/wmdfefmrM2FGVf/Lt+1FVlCnimB2DwbBMdlKuZRk3M9mG8GdlICxBd4gpdqAEZGigfennFoNIjhiWFFicqEawl5rFhMUV7UfL65IQXzCI9f6IkIUkYNY8GweWLlBimAuymSmm43tByq50gjG5B27tC5hhAeK8jx06BjHahEp5UAlUnZAE0DI5s8sUP03nkOC4Mg7KNouS3EGS0NljoaG+GU3nW9HTE4WqysjJzURJaR4Ki3KQEw6yTy2BwYAks8sE6ZFJJiEmGy776jiwJAc9toT6th48TtZqh49jwqxZmDpvBmxZB5lPEHhk3at96dCNy4Fjz12BPZvTJw4pemABmlPFvskwC++xTwfCqW8Hum88KbIdZoJpk2UVlk7SF4V/19HejqNHj+LIkSNoaGhAe3s7qsorMHz4cIwfPx6FJYUwTZqkWFBkTSTw0ZNFbhBGHAFF5iZI0hOfOHqMHT8IGLe0tPAqB8kwyH0kNzcbBQX5KC0txZBBw1BeXImwGkYspmP9hxuwZccnyMgNYcrUyRg+aiTy8wphk4wjGkVO0PmgMiPw0NSsrLP99Xbfdfj0tH975qWnz7e1Bb/zyEN/snTm2NX9dW7/PH4F/Ar0TwU+Axj2Z5v9c0v8s9woFXhh+bsLXly29umRI0dW/ug732IwTGEQtq3DtEkKoXEHHb3zPP6P8ZKb7ubBVg8iETg0CXSYJrsACFBMccc2HEsoe9k6i8ExgUoblhmHokoM7uiPxqEWUgKXRrojbOlG2lVKC6N9CADRmIhlJtaO4S0BysRyfoqPcJqeWIBhASA5wJlZbEKlKWDYReisnE7vCOSwEGLMJVgUAc3BH+IPKwZIG+1qog1hGcxWX7SHZRsIymL8NHDW6cqCxaaAM9po8mDLEuJQUN8qmOHth4+jdsZ0TJ07AwjQQVN9kvuKY06C1suB4UTCW9oncaolHjPXrFIR9y0BftlC7sLzp9rfeT6/3uvZHo2b18TTkJURRnNTB+obzjCAJUa4o6ODgWp1dTWGjhjKTHBhYSGbD+umBUWROKxEWKYJKYsei4pVCrbKC3DTnSQp6O7sQnNzq4ivdoildhAKBRAIBZGXl4e8nAK+Z4opJlMnT5/Czr27sXv/HoQyM3DTpJswdvw4hMJh2EYPsmXr8fLSgh9PkaRIf31OfLB13+3//vyr/+oogfj3H7z/j2+dMmRTf53bP49fAb8C/VOBzwCG+2dA/ln8CtwoFXhl+fvzfv/q8mdGjx1T/R9++CjK8jTApGZ1G7Ia5thllzdlVpS+iesmOnoi6I5EoVs22ju7WR/b0yOWnQ3D4qXoeEznpWtelmYW1OLgDbE8LgCUAwNZWSEosojaDQeDCIeDyAiFWd8ZUDXk5uYgLyeHf64qEjdXkQSBmUrHQZAsINj1QUg1BGDzvtpQUsCa2/LV6/YmwWKSjRZYmMC7YDBTG/tIw0wjd8ijliQfsgLDspiBpqvSyUmCYqtVwfzGTROBkMrg3iSW3AXhCa2zTNMDCvrwCGoTkqoSP48TrRH8y+9fxq6jJzF2+jTMWjgHwWwVJk1WTNHcR1HOfQHey4HgRBE4b1tETHvShdSv3vV7oJknMa4mm5lZgfQTW3oGhyeTIAaajutpuClFjp6V1tZ27N+zDwcPHuBniCQN5eXlGDlyJAYOrEFGdhY7OhCINUi3Tky9ojCgNi0CvBI0ReWGOJoMkY91kBLlJAmhQAimYTObTCw0rSzQ76lu9FrdsKBINAGjdQ26d3GWqLR3dWLd++uxZ99+ZGdkY968eRgzbgzyc4IdmVbPj2/Jz+lXmcLKTZ/c//Srq35RUFTW+r2H7//OtMH5u26Uzyj/Ov0K3CgV8MHwjXKn/ev8ylVgzeZPb/rXp199Lrcgf9iPvv0AaodXIaCQXtiGISmIxG30xCy0dXTykjWFHbS1dqCh6Rxa27sQM0y0dXXy8jMtMRPwYacsApLsxmBDZQbPdSpI6IhT2EUILzPR8GYjoMoIagEEQwEGORSIkZ2RiazMMHJyslBcWIiCgjx2FCjIzUVFfhaCbGNGy/CixAk9a0rPnQChaZ1e9C3ZpqXcGSVFVEzAiUElJc8RyCYg7zX5eeymIsAogUR+qWsVRj+jyYIWUNlzmA5jMsB2Y+kkEQcsyRo0KZQAw+yyJgPthon9Jxrwr0+9goauCKbMmYMJMyZDy1bgyDYsXbDkSJNJXDEIdq/ZA7ne6wgMMivsfvXKQZMPYnkpEpkbKN3rp+hpD0z39YDTJIVZf6/Rz3YQi0TR2tyMluY27Ny5G2cbznK8MumBR44cgQEDBiCvIJe1wpKqQFaJw3dg2BavJpBMhdhgVVMQiXRzlDbp3GlsNPmiayIAHAqEWYpD43b7/BgMU+MlyVhI223qFkKBIAKOw/KKQDjE/tn7DxzDli1bcfjAUVRXV2L2nBkYNbxmb1l28C/mZIf7zUnCcRzpzXUffuepV1f+vGbQ0FM//PZDj4wvC5/4yn2Y+APyK+BX4HNVwAfDn6t8/ov9Clx9BbbvOz3096+/88TxUyfn3LloDm6eeRPKi/PR1dOJuobzON1wHnUNZ1HfeBbnzp3jCFzTIpBnQlY0qKEwAiENajDAjG0gEGIAQ3/PCGcySCFGjkGUIhhEjmX2gJgkMRvHLJ9pIh6Pcrd/NNbD4Mg2TG50on1isSgc0+LYZFoGLygoQGVJCQaWFqOsqAA1NVUoKy9BVoYLinvncFwQ1swGFa5nXKotmKfAdXvZEnKNC9wUuKlKsL/UT0j7k9kGS5xZU+1awlEqHTmGSUIuwUy7ZztHshJXgkLHd6W0jG9PnWvDlt378fKKNQjkFWLmwvmoHj4YlqIjEKLoYEuA1l6Nbb3t0ZJPhpBN9BaaiStlNw86hu0mtfFNYiEHH7+zs5P3o4mJGtAYOCoa3VNFAFSLwKk4k50WfsI/tIRsgSYLdE97uiKs5T106BBOHjvJE6zc7By2QRsxaiQqKiqQkRFi5w4KbCHgShph8oOmSQU9X6bjuk+4iXKkA9ZjcWhu4ElACTDrTBMxSydZhcYsPrHO4jmLM+ilGhIrTOmDjqHDMnQeKzeO2gqOHT3JgPjokUMYPXIYZkwZ98nM2kF/OiMvb8fVv+s+2ysdx9GefWvNj19ZvuYvJ0656ePHHr7vh1U5UstnO4q/t18BvwJf9Qr4YPirfof88V23FWjodIpWrN3yl++u/+AnQU3l9K7ConwcOnIQTc2tONPYwI1y4XCYwQP55xIIzcvPR1ZOLkKZIZSUFSIQDiCT9tFCXCsCv6z/JYcAcmIgAwrXX5h71VLQp4dZPd9ZYvYIdNMfYpypGY0AGelI6WtXRyc6O7rR1dmJno4IglKQmeSCwmwMHlKDMSNHsL5UgoZQKAO0HM/L/jI1bhkctUzNV5IkEvXYHzk1Qc8dm9dYRtdDr5XYRULoXJkxZnhncyOcl4DH7Cprij1NrAA16u6JAAAgAElEQVSULKtggw2hNeb5gKQwy2m4XsbcCEcBH5qG861t2LJjB/YcOYy2SAwjJtRizOQJKCgvhQkThmND08iSzCDlspC1sJzjwo9Tug+xWAQSTV5UFTon7RGzqnF9ST9rk8QkZiCkaoi0d6Kl/jw6Ozo44Y1AJa0KKKqKzOwsKAEFpeVlqB44AKFwJrIL89EVjUKiMBLZgazJDDipmY2Zb4euKcja3aNHj+PcuSYcPXIMdXV1zADn5+Zg9OiR3CQXzAgzQCUmmGYhnF7I1mxUv1Qon5zp0OTIMY1EUx49bwoxwWRAQhMGhSQqCteVZDumY7OvMUs86DmVZWaqVTj8HAm5jZhUUNw4gfZPt27D2TOnMHHk8Lq7F8z5mztrh77UXx8KDQ1OxgvLX/+nDZs/XHLX3d94/Bv33vJPZZLU01/n98/jV8CvQP9UwAfD/VPn/j2L3+vYv/W+yrOddZzM84249ddPP/UGdfGTNpOWj5tamxlQFhUXoLikhBuYCADRz6jpKBTSoAQAsiCmJDpKqSNGNPW2e4ZptIrugWFBH/YeLOE3L5yD2VE3RtdLfFNVstsSkgsCKpHuKIOztuY2tLd04fTJ8+ju6MT5pnp0dbcjMzOIvJx8aFqIfX+JmdajEQFoJQKRGqNx2yJgKnNTG0dXeI14iUax3uNMbaTzLoGat4QfBjkcuP7KKZ9oAmQnrdvIE9hhEMyqZqF/hSVArUONigS0JUSicbT3dCFqGRg1YRxGTxqPioFVsDUFFkkUCB7SMWjJXzIByQTFF3tNaakjp31o7ATfWbPt2sSRT7GQMMjIyQgj2tGFusPHcHzfYTScrOPv45E4A0RihAmMxkwdkXgMgWAQpRXlKCkvQ82I4SipqkROfi5iepSb2+KGDk2RmWWNx2J8r06ePIk9u/dxjHUoIxP5+YUYMWIEhg0ZiMxMmmwJgEoMLjuGyBT6IjTW5MXsMfniazJqhOQiJI/wGjC9SRVVllckVI2ZYJ7USCS5EAEfNOmijZsuaVJEVnrsdSzzM0LHIQ08/ak7fgy7t3yCjsZGc8rIEWvvm7/gb2eMH9gv7PC5c07pr5566rlDBw8Nvf/he/723oVTX5IktkDxN78CfgWuowr4YPg6upn+pXy9KnA64lRu2LLnJ8tWrf5z6uYn8DJo0ACUV5Wzp2tZRSmKigoQogYwVTC6ohlOgFb6GethPamsS/kyE+suu6tu6ILnZ9vL0pebykTNEqDY0ym4nwz0xRCYSGxJ1zQYcRttzV3MGDeercPpMycYdJ1vPM+NbMFABodTqLKE7JxMxGI9fI10EaQlNSnhTpNgyQIMez64DJxStRPuqT1A7PkP82u8C+O0PiGH8AZJTs290b+cYIUJPCvEmhLLbBCTSk1iCmJRA5GYjrhtImbouOnmmZg8azrKB1Sjx9ThEBNKfrw2uSgQ3awzE50Awx47TABSkmDYBoM7Ar7Elqoq/Z0mA+BaWEYUXe3tOHnoCPZs3YG2+gbkhDIwsLwSNVUDkJ2ZhZycHMT0OJrb29De2YEzDQ0sdTAkoLi6CmMnT8a48eM5oMLydNvs8BDD8ePHsX/vPmaCOzq7UVRUgtrxEzBo0CCeZJUUkUcwTaoMoTV365f4ShMXmjSwLEUY/bkBzizKCJJsgrXqyVkWHYfaGUXSndA3k9yCdMQMgGWN9cfC6YKa6CSYehy2aSEcCHNdCCyThjgzIwN6pAf7tm3Hx+s+gBLrOXfzhIlv/9Edd/3dkCEFddf6Hb/78LnBv/ndU6/qcSP70Ufv+/O5U0a9e63P6R/fr4Bfgf6vgA+G+7/m/hn9ChDwUF9bu/2R595c9vP2eKyyprIKVQOqMGHCBAwYVINwmBaOk6wtJa4xyHDBLTWDEaWrKoDBIFmgR7JF4/4rF0xSyIQHjgWYFb/wmrSoKY0OReBa2LYlE80EmyuJpXPXp5aQEbs1uHpdSxB8JEZGT6QDx44dw57dB3D8WD2aGptRUFDEqWUTJtYiGu1iaQMBJJJ0mLaFCKW5ycL/l8fvWqklMG6a9266WwJLJojdJh9lwqauK0PCKzk9KppRnmA+SWKhUsS0RXUlTbUMPaojGjdwurER2/fsQignB5NnTEPt5InQsjKYGaYCEBjmXj4XDEvewFwwLOpL0dmepRg1AKpsfUcOCwS+w6EAmhpPY+uHG3HqyDEex9DySowfNRLDagahppr8d4GMEBC3xCoATUxOnarD1h2f4kR9PQ7WnUYoOxvTZkzHkBHDoWVkwLQstHV2YO/evTh27ATa2lqQnZ3NsgiKqx40aAjblonnQuh/afgEXqkuAhQLhpg0zb22tFkKyT4Y4HKDo/ArZrcSWzw3dCwCtyTZiUYpuc9ipptDVeiPRI125CVB9n88ReHx0EbyoFhPBEFZQmdzM47v3d9zZNt2M9rc2nr7LfOeue3uO/73gDyp7Vp+nGz4aO+s3z/zwlOlpWXR+x+8+/uTRtZsu5bn84/tV8CvwJdTAR8Mfzl19896g1dgw8d7xj238p1/O9PaNmvYmFGYNWMmyivLUFSUASIcY5S9QYCEwubYPUAstxPgINxIS9giQkPwn15IhVdWrwGLXRZSkseSNmUiOY4sx0Tgg/tK9xNBfEvevALQkCUXxSJ735NEgUAd6VE1Zq3JkULYunV1xrBv71GsfXc9urp6MH58LZbecyeys8muTbDbZMRAmIec0hjApjHBrmNbL31z31rnJKvtsdseLnVhb+JJS5VieD/kHjiiOmksKZbHJ880Yd3GjawdLqupwsx581A9dDADeEclmYXwXRZzE8ebQ/AyPwNxKqwktLbcMBYI8n56lJjiIGRHQXtzE/Z9ugW7t25BTjiEmZOmYPqECRgxqBoZqmgKJMDuJSqzPJqS9yygqakLZ1tbsXH7dmzatgOBYBhjJk1CSXkla55P1J3CwUOHWKYyaMhAvgcV1VXIyslmZpabMF1njl6ext6/CKQ/ZjDsWt65yYV8tSk3giOzA8Jqj/TN9DARqCafa3oWiBUnbTS9nDycSU4RDAn3CX4uya2CAjVoH4vcT0SYCYFwkoiwdMIwkCkHOgKW/dKh7dtGbXpvzUjFsLvuWnLrL2bcNfepakkik+Nrsr30xrsPvfHmyp/V1tYeX7r0rj8bM7Tk6DU5kX9QvwJ+Bb7UCvhg+Est/6VP7kt/v8I353MO7ck3V3/z5RWr/rli8NDKBYtvRW3tcAH8CHsQQUfsK7G+FgUVCNcBBrwuc0cAQpODQoua4lTgBVAkohhc54Qk0yoG7mVZeDIJ/j7xaZB0KFCEqjaBlgmoENgJQIDyuE4MImBawh9ZsL4ZaG+OY/Pmj/Hu6jUoLinEfffeiRGjhjDLSXrk3uCbQiUEo50AqV5uBWlU6UzUVJWyQO8l83nXwpAtBf162DpV9cHBE+Qy4Z6ERRQ0drKhM4EAEZo0NgnoiQK7Dx7EW6veQVukB9Nn3YzxU6ewgwO5OZDlWFzX2XvZIZ2txwhzox8FmtBJbL5f5MHLkgiLLNks5GXnoL25C59s2ogdm9ehJDcTt8ycjVlTJ6MsNw85IQkEnYlV1oiBdwExfU/MsqIJZ4qIDpw414w3Vq3Gh59sA7QQ8ksr0NjcBt22UFJejuEjh2P4yBEoLy9lFpbGT0EjNJGhMdIkh8dKIS+gCRc9fGIVwlsR4NK6YDgxmXJd8nTTcOUOIhAkoAYZgEe6etDW1oZzjWdZY05sL61asNtJOMDSj9KyYmRk5SAYDvH5aNJAzxa5odBEQ49HkRkMwokbyAsEdlXmhX8caYnGNq/74CfrV783OzsjfHTR4tlPzZg7/flB+fntn/Mt2efLf/mrJ3+0dfvu78+cNWvNbfcu/IdrdZ5rMXb/mH4F/ApceQW+pmDYh4lXfov9Pb+KFfjlc2/8xfIP1v90+LjxBXctXYrKyjzEKDCCpBCcCAeOuKWNpBEEYIiZpf8ROCWwQPZqpMMU3rQChHmbB34TbKj7O2J0E4DTlRak1ofYaAF+ksJd9vGl45N3gutvy8wwARyVmuRIOkHNbBK6Y3G2xbJ1FXt2H8KKFSsYFN591+2YPHUsXxc3vLmgWoRfeEiWGrUEoypzCoXrvyY5nHQnwLDLuLqMt+L6/KZqhanhK2F67F4GHTcJhkWiG70mTlIQWQbJSUKqzDIEZmBloK6hDS+89hoOn6zDlGnTMX3ubAbCDB7ZrcFMNJcJMCwnXC9SwTADaElmqzoKmQirIRzedxhrVq5A5Nxp3LVwPu64fSEqcsNcezumIyOgQHIstlTznBdoAsCWcS6b3RM3IIc17DvWgJWr12DDJ9thSSGoZJU2cjQmTb0JhSUFCIaDvJKgm3EuixJQ+TjUaOeBYZInMA6mcAwCzW7DpOdP7D1HSTAsnqNAUABZChG0DAPdnT2or6/HqeOn2A7wbEMjs74U4MKJhxQpLjnsjFJYXIQBg4agumYgKmsGcJiHbsS4qTDEwS4ObGoYhG3nhUK/KM4N/0YBGjpOtgxa+/bq/2/7J1um5ORmNN1195Jf3jl/9vOSJHminS/sLf/yG8unnj3bPnX8xLGr506feOQLO3DyTShE//7mV8CvwJdaga8pGP5Sa+af3K/A567A/3ju1b94e93Gn2UVFOXdfc9SDBowEIWFWcgIAj3kaMXSBdF8RWldcVOkfRFrRhuBYQ5moMjmXpt4SwurLzeMgmOSxc+JX/U2T16R+nKv/yvJqAoA7KWiEfNLYIyYZ9Yqu331FM1MwRuxqMX63eamCFa/sxY7t38KLSDjgQeXYsbMsdBNXYB7l+UmkJ26pVqqifF6ccuCraQtKYOQBWjufUXJRrqE1ZksgDC/2IHi2FA4gAOIkj0bxQezAwNpOETEMYFGAsPPvvwqjp08jSkzZ2LW/HmsdyUQmWiMI7cIBtpuxHSCGSY9rJC6eBZntI8madC7oti+ZRs+WrsWkwZXY+ni+Rg3cjiywuAkNkp7VjjyOcnICx2v0B3TPbAMsinD/8/ee4BJdaZXwudW3crVVZ3pHKFpGhqaDoQmioyQQHEkzcgztscTduzH67F31t7H/9qesb3jGa+9/tder9PkkZBEFEkaECAQIjU5NJ3onHOsXHX3ed/v3uoCSVawAoh7eYoOdeuG996qPt/5znsOAuRqIRtxuuYmfvbybgxOBTB7/kIsXLSUreAkkwR/yMd2aWa7zNIFX8CnpsoJCQ1boNEdwyy3cA6hhSQL5C3N10G9be4Gw0YVrId9AY5dvl3fgIaGBoyPTsBkMDID7HKSe0UCxzH7/T54fF4MDQ1gctKDsGTEjLQMFJfMQ8HMfDjdLk44NEoRhPxTMCkK3FZLl9tq+V2HzXykWJIm6Hgu3GxZfOi1Q3/e0NAwNzMzvXnL5g1/tqJq4UlJksie5GNdbvb3O+empk5+rBvVN6ZXQK/APVWBewoMU9qPJMxE9UWvwOe6An/z0t5vvHrs5F8FI4b4uPh4LF20CPNKS5CanMLaWk5CUxDV2BJbF3VTIHaWG8UEq0mwjv/FsL4kb4jVgkbdGlTwyXIKdeqbACmBOwJFZhPBMQJEomlO0KBCX0wL+xWzZllofmkTZPFGz095QpgY9+La1VrcuNqA9rYu9idOSo7HM889horK2TAYFZZUyEYZYSE6EI2CUbA+/T3tjyBmEGGYIPPagTCBaeKgJRAAJ6aV9KmkrTZRiAgzjxL/PsBCYFpXLKzBpX2RwwWBSyOdB+l71ZALWpOZasEQd/cP4pU9B9DU0o6KpUuxZPkK3kCIBQVhmEwUzSycMAjoco1VVwsGwSoYZtcE0sNKMuSwAQNdfdi9fQf8Q0P44ua1eHLTQ7CZRFMipfmR7zDVaToWL/YMSM4gwj7oa1iREDIY0DMwgRd2H8SpizdQWFKG9dseg8lJNaDzUxBSgggrYkBFXsS0aE2ZrN8lZphYcroezDyrXs0REdWtzQQQw0uLCNkwwRBRuNGt9up11NRcQHdbBzdBzi2eg9zsHGTnZMHljIPb7YbZTHUNYnhkBF3dHejrH0RdQwsam5oRl5CIuWXzsaCsDJlZM+D3TUFWQjAGfeFkp313nDH8p6Vxybe0D4ULimJSbtYv2nfote811jcU52bl1j/11NbvV86b8+YnAYg/1x9G+snpFdArMK0S1GuhV+DjqoAuYnn/Sv7wpb2/te/YyR+azI4E0qxaTEYkJyehaNYsFBcXITMzHc4463RYhioCJtKOZcUE/gyAn10lCMwIcKg10pG1lbCuUseWaqSxxvBqRxgMBwTYYc5YAGp+DVuHadZYxFQKTa9qPcugkFjhQBCYmgphdGwIXV0daGnuwI0btzA1RlpSck8I8Xk889w2lFcUQzbRXkLieBkGiwZAwVlr2ls6BvodNXEZEQ6HIBtNvD49pjlusigzsraapumpDt6pSW5y40Ytm0O4G6iwkpLoSINL61NTFgVVBMgr2GiEQbP6CpNdnRHhkISegSHsfPUQ6ptasHDxUixdsZxDL8IKuS9ExHoEnu8Cw3zkJAkg72fWfQv7MIvBjIgniPprt/Dma0eQHufClx9Zi9UVs/laEm4VjYO0Qfb3EOywOhIROmlxnYTGV02tM5ox6gdeO34OOw++AbM7GRseexzJmalsXxeSgohIIUhGip8WMwYE4rkxUgXGsXesGCgJVwliy4UMQjDE2s/ETFtp4BQKo721DW+fOoXmxiYkJcRj6eLFqFiwEC6nHfEuGyf/0WxCjAwcgRDg9Ydxq/Y2zl24gNbOLoQkBYUzZ2LJ0kVITopHaHIUVinUlZua/Lt+m3N/5buwvm+fv1y198Ch77e0tswpW1B2a/Om9d8tLyk6rXsBv/9nkL6GXgG9AtMVuKeYYf3C6BV4ECpAMyA/eOnVbx188+3v5eQWJCalzMBgfy96e3uYmXS5nMjPyeV4Y/KDpXjcuHg36yw1xpiDMmTR9CWCMu5MXdN8b0nPqy0aLmYXCbWJjrS4xNCaVGeBiLoSsawsjaUmuZAAkLQpj5fArw9TXj88Hh8G+kfR0dGB9o7bGBwchM/rhyxbUZA3GwkJKaipqQGkAJ794mNYUDYbhJ9MzMgK+yyDZoyrOtjGJs0J2K/aexnIt1Z0+YUJ+apyBH9QYMWBvh709/VgsL9P1SObkJCcAndCMuKTU5AUbxUOHQTiyNIi4GNmWKGBgJFCH9R4ZZKWGMgLGOgZGGEwXFvfhPmVi1C9cgWHUzDQpdZFtk6TojIJjRmOBcO0D44dNhohK0YEJ3yoefM0rpypQfW8ufiNrRsxM9Mh3Cg0uwg2pAgJKwkeJwhxy/SgQWir2cEjFEbEYIIvYsTN5h7835/vQP+Ej8FwQclMGK0S/BFK2vOyp++03oF03uQOQo1tQissbNHUUBHNs1o9BBpSaM+HVeszkkH0d3fjyOu/QlvzbWRlZGJxRTmqKsuRluwUUdkapA/TTIJgpsl9gptCVbzf2NSNyzdv4NzFSxieGEN19RKsXraYbOUUa9B7Kjs1/neKnYnX3uuz4djp86t27djzw/6hwYLKqsWXN2xe/92ywhwCxPos44Pwgaqfo16Bj6ECOhj+GIqob0KvwIepgKIopu9v3/vt10+e+aOF5ZUJ6zdtgm9qirWWjQ0NaG5uQtDnh9kiIz09HU6nE4nJyRySkJCUyDpMm9MBs1nmOF+TWYbFIgudseoXTN/Tm5sT6NTfaaEdDELV/yi4wx9UIEsSW6SRZJaJyAgQCCjc9DU6Os6d/mSdNTQ4wo1R/UPDGBkeRWdnL7O/xPgmJLiRl1eAwoIi5ObMxMjwBHbu3AmPdxzPfelxlM6fxetZZCPLGQhMsd5C9XeIDd2YBvCqTpiCG0wiWjoYJoaTwKDEsoyWlhZcqqlBe2sTRkeG4LTZGayHIwbMnluKnIJCLF1WDbfbwqEaVrMRBpZQkC2YWXXjIHadmFaSM5j4sHoHx7B9x37UNjRhQdViBsMWEnUbwgzmiR1mVTYzwwSKDaCGPk0eQTg/REMVclEgPbI/iMhEEKePnEDtpWvYvKwav/7oOiQ7VCMMQo4C/1M3mjCLpvMU3YzsHMIiEgaqBpW9J023DE8E6BoJ4Af/8CM0dfWzTGJe5QKETYKdjkjk8Rtkbp3kGgR+mfGFmjKnzghoDmqa3JokKMSys2QmonAzHCf/Gc0IBny4df0aXj9wAPEuNzZtWIf5c4uRnOjmZEDNEUX7I0MDLRo8MDMdCnHzp9Vs4Xuub8SDY6dO4bUjR9htY9sjGzFvZkGzVfF9Px94ITs7+z3t0xRFMbz6q+PPHjj42h+Ne7xplVWVbz+1ZeufFmS/N4D+MO9XfV29Ag9aBR5EyaoOhh+0u1w/38+8Ai2KYn3xl3v/6MiZc7+3sKLc/fQzT7M2eGrKj6mJSbS1tKC5iZjWfgwMDHDDlo/mlQGO0qUABYvNBpPZyGxxYmIiUlNT4XAIWQA1WVmtVn5QQhjrQTlcg+yyiEEWFCQBS0pZoxhf9oowKBxyQMlfXvo6OYn+/n5OmPP5fAiHREQufU9aW5JsJMTFIyMjAwUzs5GdnYm0tAwkxMcxsL5+rRf79h3A+PgInv3iNsxfUATJEIFZNiDEyWNRAzg+N1Z8kGtEDJ/HbhNGioQOwyiTbEPVsxokZqYb6ltw8vibaG6sR5zNjBlJiUhPS8MQAfWuPnhCEZisDqxevxaLliyB3Sozy22RNdZVJNeRzoIxJ8smqGlRQu/gCIPhuqZmlC1agmWrVsJkFa4IISXAzLBm8WakqGUFMCqq7zNZohmAAFRLMaMJkk+A4ZOvHUXjlZt4bP1D+OLDKxBv4fY11j1HwTDRpoyyCQxrmXvTHr/sZ0y1iRAzbEHIKGFgCvjL//UTXL3dhkWrV6FwbjFgleCIs8Fil0XTJWmASf4SMTKwTUpwsysGaYQJoJIGmcdJasgKXWP2DSbv32AIgYDw/6Wlt7sbRw//Cr1dnaheuggPrVqB5AQX7FYjNyla6DqzNaDI/Gb5jSrdof1Qcx5tkwJYFDPQ1D6E3fv249atW6icPx/rqpdsn5nu/rOylJSG93vTDg8Pu/e/8davvX2u5nd8/mBCdXX1i5u2bf1hnkPqeb/X6s/rFdAroFdAB8P6PfDRKqALgz9a3QhEKIrj317Y/SdHz5z/Vln5QufjTz0Oi2xiz1qnhRqbgKGBCW4+IyA6Oj7BbGzfwBDGJsa5C39sYoJBK/nCEnAh9o4eJpOZG5voQSDGZKApaZI8EJAUKDPWlYFBUCTIYJhsr/weL7xeDzdGETKj19J2CVgT8CaWmpjphOQkdghISUxCQqIbbrcDdoeVt89RwzJQXz+InTt2Y3RsEE9/4TFUVJXwVD01h2lWcJobhdbspzXqaRpTsjwzEqiiJD2ZJBMiMpikBx3tXThy6Cjqb95CdsYMrFhchZKiWUhOSMSEx8tg9s2TZ3Dh+nUkpqTikW2PYE7JLJhlhcE610JrDuQBggJFtXwLhQzoHRzF9p2vou52G8oXL0X1qhWQLaRdDjIYJg3Avw+GIwizdzE1+hlhVQwIjE7hxIEjaLhci6c3r8MzDy9HksPAemG2TAsLBxDWTXBzpNDq0jlT7aIf2JQESBIXiog2WBGRjegZB/7nP/0C527Ww52eBoPdAq/igyveiTgXxRzLsNtsiI+Lh80ax/uRDeB7hZrgTFYLf0/Xm4I5RBhGiH9HCyfUcYy0zPfgpYs1OPz668jNzsQTjz+K+fNy+ZhYzRImOzVKVBFtknxfqIy2wk2cZOYGSKEgB4DAZIM3BJyuuYKDBw/CajBg2/o1f7e8fPGfz3VLwx/kzdbSMhJ//MLp/3T42MmvEQX+xLZH/3n5smU/yXBJgx/k9fo6egX0Cjy4FdDB8IN77fUz/4wqMDCgxP3zwZ3fe/PCxW+WV5VZtz2+DQ6blZlW+s9mNTCgJOzh8ykIhsLMyE56fZjy+DAxMYGhkTGMT04x/TgyMoahoSFeh6QDtJCsgR4mdTo8eqqqBRiDExVUku0W+eDKJiNLGKipKs5qZ+1ynMsJtzuOgTA94hNcDJys9H28TYRVmKiPSvjHEpQLBqnxyoSmxm7s2rUHo6PDeOyJLaheVs6sNFlsmWQ1hEIFSlpjH8kfNK0yw9OwYIbDHH8sCfcGgwGTU1O4cO4CDu48iCSnC49t2YiK0lKkJQpATgMKSmprahnG3kOHcOHaNSxZtgQbNq5GQoILFpMaO0zOFARqGYxyTBoko0x9YSyTeGnnfty63YIykkmoYFiRSPwQVJlh2hvJI+5mhkUDHYFhliNEInBIZoRGPUIzfPI81i6pwPNPPoSsZBcUavqjAIyw6sHMQFIAf00tzCw5DVDUSG0uHd0kkEEGuzdbx/B/fvYyrjW3wxzvRkiWEDESc0y+1CQbCbLrhclohtlkg9kow2I2sVTB5hDXl6z7yD6OGhYJ/CYkJHFgCD1o5oFkx/Q93WtnT5/BteuXsGJpNTZtWov0FJJeqOx+yA+r2cQyjOjgiyUSdA2FQ4lBicBKxxeJwC/JCBtMaO8ZwY4du9Bxu0V5fMOav9+6bO1/n5UkjX/Qt+q1hr6CA0fe+M+1dXXbZKMx9PDGtf9YPr9kx8zMpI4Pug19Pb0CegUevAroYPhzfM118vbevLjDw4r7H/ft+os3L1z4ZlnFfPmRrQ8jKdEtbMQCosErQNG2nO1AnWuiSS6KgdTQBc3azO8HyxtI8hAJRhCg6e5gkKe9gwEBNjTvWNomp4ypDLHRYmbQY5AUBjlOu5VBrWw0IM7u4Cn0OBfFHgj5gsMudMgeP2A1EUML2CwkhyV7V3InIJArIoRrb3Rj9+69GB4bxratm7B8VaXQ/IYUWGXyvwVIs8zHpMojNM2zduU4JEIi7a3azBeJQDYYMDg8iiOHDuP0kZNYVl6BLz/3NFLinStXTpoAACAASURBVLCbwDWQOKgE8EvAwcMX8LPt2zEjMwNPPrUNBYXZcNjNXJ+IkawOyG6NZArCOJnS5RgMD4zild2v4WZDCxZUVTIYNlllRAwhRBQCw6KxjSQLQjMc44usxlyHJJHYFw4EYSElrSeIhss3cfzgEczJzcA3n9+K4tw0lizYWdJCpGqI2XBy0WBHD5JJxLiCMPzmQgnrO8UgYzIMnL7ahB+/9CqGAyGULKpE9sx8dPf3YGxqFJOTo/AHvPB7/PB5/GAy1mCEZ2qKI4+JAaY0OdqPlgJnMlv5e2KKxb0Rh1AgyKDYZrbhZu1VKEoITz6xFatWlEebLK2cSEjSi6Bgk6MLuZsQtKdGPQNbyQX9Ezzr4AkDwYgMb1DB3l17UfP2GWxZtXr7c1u3/H6+U+r9MO/km7e7cw4ff/u3z547+4zNbPI9+4Un/75qZeUvkqQPDqo/zP4+/+vqf0k+/9dYP0MdDOv3gF6BT7kCLSNK/IsHXv2ro+fOf2PR4nI8/PBGxCc4VfspNdmNbcWEHyw3ZKkhEdM/EzwmlCyCGFjzS5Zhamgbh7WxvlacXKwOV5Mi8OS1ilVifYR5ll4NgCPArUo+o3HNxO6Sj7EA66rfMLWhUUOaUXgSk0/vrdpOvPLKbk4+KyzIxew5RXA4bBzPK5M5sULaYQH0TKwLDsBms7B2mQBhXl4u0jNSxT6i5yMS94gN3/nCdnTebMbWdeuwdfNqyIYgkhwWBMN+Xt9gcsIbAc5fasA//fQXiBiM+OLzz7GrhcEQQZBOTjaL5DXVySGikI8xOVYQGB7H9h2HUNfUgXnlC1G9ZiWsdiOzwgTp6NiNMKlezDE3kcRZedG6EyAkNjfsD8MQVNDX3YM9r+yG06Dg608/inWLS7nhLOgPwWmRSfsgvOKYuQ9wkx8tpLOmgQyx2ORFLButiBAgNgK9o8Ch4yex49BhuDKy8OjTT8ESH4cw6ZsjIUgGoYn2+QKYHBtHMChA+tDAIAN10oGzHtxPMhnx8NNFBDA5OckDByUkrgtLaCI0mxBG2ox4PPvsE5gzp0Bopmlgwex9bLiLuFfoV4LdpnuKNOsKgmEKlrHAQ7silxMavLx6GG++/itUzSs+/pXHH/tGSXbqh05+u1bfXXzwtQN/eOHy1Ufd8XGDz37h6b+oqC7fpwPiT/nDTt+dXoH7pAI6GL5PLtS9cZg6Q/BxXAcCwy8c2PeDY+fOfb2yqgyPPPIwXG6HqtFVRPwuxVFQ45L6Do31iIow1BJwyxAhtk0kiU3HGqvgmW3ChGtA7BIb26ziGn6aLdc0Nwn1BRGSDfC2o54Agj1k02HS8Kqv45AI4Q8comMKA/V1ndixcy9br1ltZtjtFmavp6Y8DODDYRHYQECMwDCdE5kuUKNXQrwLS5YswkMPreape6OJrNUEE037HB0fx6E9+9F48QYeXr0Kzzy+CSYpAKuJpuXJ9oxQvh0jvjBO1VzH9p17YXE48cRTj2NOSSF734ZCQbYlY3Za0+wqPhgIDJO2e2AcL778Ohpud2JeeTmq1yyHxUZx2H4G5NxcplAgBTXhiesRucvNi34t6iUGLFbZwmD46NHjaLt1A2vL5+O5Rzcjd0Y8Qv4IrDQIUqipTLUDYVAZQSAcFomCskggJA1GBDLbxZkswKXaLry4dz9qW9pRtWo1Vm/ewHF2JNUg9w0xM0ABIWr6H4uQJZhl8nGOMONLTLRweaBGuQD7NdPARcwsKNxU6R33wO/1YWRgEIP9PYh3WfCFp7ZyTenUyTaP6HKyv+N9GuSY8BcRN85gWBVJUzCKwWiGNxDhGGaq15m3LuLgrh3IS00+9c2v/NqXF+SltXyU9925S3WVhw6/8e3axqaVhQW54Y2bNvxxXnnJrnxJ8n2U7X3ir9E/Xj/xEus7+Jgq8Dm8V3Uw/DHdG/pm9Ap80Aq0jSoJv9j36g+Onjv3taqqCmx7fCtcccLblsAgY9cwMXfCpktbtNACBl3qLxlUqCxtdD0tOEN1BYg9Lo2wY59Xetx10NrutK+sAY09BtV7K5pupwJzgo8E0hWmsYktlVFX14WdO/aira0D6VlkEWfnxjeWZRgoAlkAPNIbW00ys4mRUJDZSbJpW7y4ilP5RHOgBOrjIokGKTImPD6cPvYW25SVzZmDLz79KNKSnDDLYZ5+J2s0kkBQU9aeQ8dw8PBxZBfkYfPmjcjOSYfFQolrIoGO/XPpPDn4IsBgmHStzAy/8isGw6WVC7H8oWXs26uBYTEYIfTHxsAqGBYFFXZoBPqI3o0ossEkERi2mS0Y6B/E7du3cezgASQagW0b1mLN0mqkuM0gxTO1q4mXC0cJkhzQRZAY4MsidCNMaXuAZAJ6hsN4461TOHj0BCRHHFZt2ID8kmJahdP7iIElYEuDDDpXYmKpoZJAL6XF8XnwdY6ZjaDGSrKZU23VSHpCINioRkE33KzHuTOnYLEoePaZJ7Fwbj5XgC2g6R6RRF05lITY7OhYStTFSOy5pKgWe1b41SoGfMDVS7V4bdcuZCXGn/qdr3zlN0uy3R+aGdZu6xM1jQt37t31l7V1DasWV1Vc2bZpw/cWLZh5WPcg/qCfVvp6egUejAroYPjBuM76Wd5DFRBgeN9fHz139qsVFQvx+JOPRcEw900RtAqKhrEoiFCPX8Qw33UyKvEbywBr3zNopelp1YfgTuZXtP7HJoNpHLJGcN69Ly3COer+IHjLaKOURBP+1CgWMODmjRbs3rUPExNTWLdxDWYVFfI5kf5UIT9eVctM4Jjs1oiZVCKkX/WzzVh6+gzYbMRcCjaYmGH6PYHhQCCCG9duYu+Le2A1yHhq2xaULyhGWpKFwaSfeuEk4HJtC/Ye/BXqmm5j2arVeGjNCm4MlE0SPwIR0uXKmqUvN7IxSI6oMolXDjMYnl9ZiWWrq2G0UbSxT6T7EUBlDCzAcJTF5+sjKimCnilqWWb2lRhikiAEvD6cfetNNF29jOKcbGxZsw4Vc4vhIhtjwr6REGxmmRlZ8hcmDTdtMRAUIJMUNL4QMDAewPHT5/B2zUXc7upG9qzZeGjTZtZHS2Zg0uOHwSSYfXINocGIYPopPU9sSxynkC3Q77kRkmrO0hcRtkF+wyT1cFos7MRx80ojDh3cBwMC+MLTT6CqYjbXIhwkCzwxSyDuEbqH6aYVx68tNIijAYNIFZS42VFYvgGnT1zF67v3ICcp5fh3vvG13y7KsERjmD/K2/jA8Uvrdu3f/3f9fX3Ji6sqah7Z8vAfls9Kr/0o29Jfo1dAr8DnswI6GP58Xlf9rO7hCjAYfnXPD984d/63CAwzM+wWbhKkuSTAKZE7gSZ9EBLN6BILkBnrqo1bDMHuYnKnpZsqU6nqNafhGm2bZBnvZIlpHWp00hba9h0gW4N8PKNPsIasvwRTGgwAV6/fxp7d++H1TuG5Lz7FWl2OiyCpc1jhiGfaOvdYMeOrCK9dRERqm8nIDguU9kaWY5xeZjAiyKlpMvq6h3Dk4AlcPn8FWWkpqCidhwXzipGanISBoUF09vbg+KlTaO3uRNKMNGx59GHMnz9nOsXPEGZ20kD2dCw1IWY4rCazSejpn2BmuLGlE6UV5Vj+0HLIVgVBxTud1qZS61TDaJ3Ua8UyZAqoMBDAFE10NAAwyyaWK/R3d+HYoYMY7OpASX4B1i1fhrLiOUhzCVBISgluHlSlKJo4hphvSt7rH57E2Ru1OHzibXT3D2DCH4DdnYjKZdUonjsPCckJMJCpMlvZkZNDmBli1p+zykUMhDQdL7k7kOSGmibphiOwTK/jwBCG9RJMkGlzaGm4jaNvHMH46CA2b1qPZdWL4LQSw66wxIMGNv6gD2azlfejxW4zqz1dKShkU0d2eYqFZTcBP/Dqrtdw/cKlyKJ5cw8+8fDmP1iYbf3IzLB4TyjS3jcvfWnn7t3/ZXx0JHnD+jWHHn5kzV8UJia238MfE/qh6RXQK/ApVkAHw59ksT+HuppPslwPyrZZM7x/7w+OnTn3dbL72rRlPeLj7czdEhPIvrT8k2hGE/DwzuVuxljDGLFMrqYBjmWMtealaeB255bv3k+sBINBlBbTyxHB6hQ742WFo30JFhtJpwxqoOvD9u0vY2pqAk8/sxXlFaWQJGJeBSAitpRZa3qoccgElEk2QfshDSnXwmgE/VOdgFljbLZYEQwoaGsewNFfHUNzYxMQCiLZ5UZyciKmpqbQ09eNkKRgRmYaqpZWYUH5QsTHO4RNG1m80SCAiGyuNjlCqGDYSIAb6O+fwosvH0JjcxdKKyoYDJvsEYSVALtV8HUhdpvLQEzn9DWalrGo2m8OoiOgGWGphN8fhBQOo7nuFs6cOInh3l7kpaViyfwFWFS2EFmpyXDZp+OMBdcqXEWGR4Kora3FtVv1OHvtJvrGxpGVlw+j2YLmri5Y7HaUlM7HwoULkJyazEwvj7JokKGoD9oayVLUwRFpwDlymQdT0ydCgxYG0mFw2IYhLEEKR9DX04fTb72FhvobWFJVgQ3r1iIn040wMddkzcFijjD7FUd49kF7CDZY7IEY6CAHfZhlKzdd9nSN4YWfvojetk4sKJ5946HKiv9RWlxwyi7ZhjIyJM9H/YzoUBTbiUMnf/PIG4f/YGpyHCtWrvz5k9s2/n2WyzX0Ubf5Wb/uQUwJ+6xrru//81sBHQx/fq+tfmb3aAWGhhTXPx3Y+/03zpz9VmlZKdZtfAjp6WlwWMhdQTSQmYxGhNSO/6iNg9qgJcCKqlGN8Q2m0xVgd/rENU9a8atpqBsLeBiWxL6GKVLxC2HwNt2Qp/kYs4ZVlWyw9lgRrCcxyUrEBL8XuHTxJg4efI2ZxiefegQLy+eqmujpqXpiOQWQJwZVMJWBYEBMzxOIouYzA0Fh4TxBvyeZAbtRSDI8vgi623vRdrsZzU3N5E/LzV9uN/khW5A3KxcFM/Mxc/ZM2OPsgvVkIC5cGGAkVpyOWQw+yDiZABy5SfT3e/HCywfRcLudNcMr1qyA2U6MaUDYHnB9NKZzGgzHDii0OhPTTWmAHCxHzhChEENwi9GE+pu1qL1yBe0NjTAGgijKzUbZvLkozM2FWRLWZsSuBoIhjEyOo7mljVPaWnv64EhMQlZBAYpK5iIYVlBbX49bDfUIhkMoLCzEwoVlSEyM55RCo5mkESEhTWC9uMI2fKIUAgyTbZ2WPkdffV6/sKALKYiz2ZnRpmPyTHpx+cJFnDl9CqnJ8di4bh0qFxaT04QSCnolYvXNFkryE3HUFLQRUQdQGjNNswlG0oyTjaBihs8bxtVL17Fv9374xiYolG4wxeVonZmT2VaYn3k1PyfranKa67rbktf/UYBx8+TkjDNvvf3FQwcOfyMUDgW3bdn8t4tLFu0uLEwci/2ouHC7O8c76kkZGBxyT3i8FoNBUew264Tb5RqJdzlG3Kbc4VmzJJI564teAb0C92MF3oWo1MHw/Xgh9WO+ryvQ3684//XQnu+9cbbm264EFzZsWo9ZRflITU2EwlPGYQ5EIFBHQEgsxBILEMNMn+qhxmleMTPPd7+hubmfZRTvDoR5ipxASuwLVcmABoY1eQQB4SjLrIJh9j9mEEwMKPOrmJwKo621F0cOn0BjQxMcTisn0JUtLGIZRIQCJkgfSlhUJA4jRJ1xBM/U49EigAkIE8dI+yBAaTWZEWCHCwP7LtPggUCiZ8zL1mTDfUMYHR6F1WqB1SYjPTMVcfEOBsb+kJ+BnrA6k2CgZDv4mKeUKB2DrepUX2BFQn+/By++cgB1TW0orSAwvBwWB7k4qABPEddDDCbUwcl73Jl87Far8IEOBPh7vjDkr+v1o6+rGy319ehpaYZ3bIzb5KxGE+xmi1jXaIAn4Mf4xBQDYvIATkhJwcySeahYvIRDM7p7e9nvuaWtDRfOn8fY2ChHZZeUFKOkpAQOl4OvM1vwUbQ1NdipgwMeNEUUljmod5sAsSG1qS4iwWo2I+SlZDmTCFWpb8Sbx49ieLAf1YursHHtaiS6bEJqwjHU5PUs/NLI1k67x6ipLjrDEI7AZJIR8gEdbd3Yu2MPmmrrAhXzy+oSXfbmwe4u13B/d5HXMxmXnJo0kpGZ1po7q/DQ3HklrycVFDR+WGeIuoGBjONHjv3nX71+7On4+IS+J7c+8Q/VC6v2JybCU3O7O722tn7RrfqmZ8fHxooHh0edNMNgMBgkm8USctod4ykJCQ25mVmnSmbPOZWTltxyN5C+Zz+Y9FnKe/bS6Ad2b1TgngTD+vTPvXFz6EfxyVSgu1ux/+hXe/7s6Nnz3yF0aLXbUDpvDsrLy5A+IwlJyW5uGiPJgCZNECBOMLXEHBMYppQwgrnEdWruaRxxq/7h04Al/RyNPoixWXuHxZqa6kGgNjotr+qYKYSCmGoCNqKpihqeBNdM09t0bPSa/r5hXL50ExdqrqOvd5CBX0pqMp54cgtK58+CxcytZqyP5nNi7KUCdWrcussGjvS82iKeE9Zg4lWk3w0JbbVCnmwSJCoGB2iIOpAUgqQZnF1CGmVuGKOUO3KFUBCMeGEx2Nj1gCKf7SYZATUMpLvPh+0v7UddUwvmlZdh9fpVlBrMYJi0uMyYamCYByvTH6exGu/Yu4gGOtpCaXDUUEcAmfTEAc8UJoeH0dvZgY6WFgz19iPg9wuZCLk6mGSYbTYkpCQjKzcPMzIykZCUwvcPnQsnDpopICWCulu3cPFiDRrr6pGZmYl58+Yhf2Y+cvJyuZGO/Z1pcEU2fgRaaYAR1Tcz1S/kDKpsguzX7BY7jGybR1IIif2K337rNC6ePwdXnA3r16zC0qpybvyzWejeFJ7QJM0wm4zwqadO941fbQSkS0nR3R2t/bh4rgYnDr8Bl8Vy5Tef/+Jf5OVn10wMjcb3tTavO3/50pa2zva8kAR7EJIvLj6ub+bM2ddLChecyUxNv5iWldqeGy+NfJB3bF37QMah14/98fmay1vj3AnDZeUVr8tm08iVq1cX9w70zh0aG812u93WrJxsIWux2eCd8mFyfAIjgyN+2WAcTXDFd+bmpJ9csaT0F+uWLrgm0U2mL59oBXRc8ImW94Hf+D0Jhh/4q6IX4HNdAQGGd//JsTMX/qvBbJPCIQWBoIfdE0qKZ6F4ThFPbSckJMBmI1AxvXDGAutcBfgkey1m8ijsYDpDQ4BFBrdCzqBBSg1rEmHHrhWqSwOtHxvSwfpcNbRDzXzgn1V1AKfHkWaXnAImJ4MYHR1CV3cHGuqb0NLSjvExn5h4l4ywWGV86fmnsHBhAccpk5ZUNgjfXe4Uu8ubVxyLaLXS3BimAbGqNuUmMELUGrQVaJyxJkkRiJBkolew1pJBSCzE2qIaBFjpfPxKEAgauJGOGtZIbmCxSGhpH8Or+4/g8s06rFyzGpVLK2C0RBAxkHRDMPfEsPLxfhQwTK8LkVZZNKeRrFeGhKDPC+/kFHxTk/CMT8Hv9yIQisBkt8KVEA9HvAtWuxNG2czJcUaTDCUchj8YgFGWeDaBgNvw4BBqzp5Da2sr/252yRxUVpYjaUYKrA4rh3HQORDwJXkER0GHhPUdpdP5yYeZGv7MZsg0KIlInHRIAN5oMGCgtw+n3jqNhvpbCHgmkJOdhdXLl6JiwTxkpCeAkhHNVhHK4g+oftVqPyZdG3KRiBiAzs4BXD1/HlfOn0NwcrJ5y9qH/u6xpx79cZokTan3gvFWc3NBS2v3kt6hwbLbHZ2VDc3NGeMTPld6Uu5UvMs9mJ+VfrF4dv4bxXMyTucmJ/e/Hzi9eLN/5u59+//P1bqmNRan06hIkaDX7zVn5WYhryAXmTmZcMbZkZqSxvUYG5vA2PAYujt70d/Tj5bmNowM9gWL8tLfWrGk7H+vqXroaGqqNPm5/uB6n5PTyecH+erf/+eug+H7/xrqZ3CfVaC3V3H862t7/vTY6YvfzszKl9PSMtDe3or+/j4YjBH2452Rmorc3BykZ2YwKKYHW5IZRGOZkeyyCDyJcDIVkKnY0vDO8AzNE0JTVFCjFLOXMQCXlAqaG4VGcpJ2lhafL8RaXer4D0eCmJqklLIgOtoG0dPTi97eLgwN98Hj8SAhIQnpGXlwOOJQX38LU55xfPkrz6Cyogj+cIAlEvQvqARZfyo43rsXkiPc7aBM6xBrLRhLYjbJaUIs5MBA0/rCPFlz4iDWkV919yedev70e28oBIuBAB5APrcGk2C9r9xow8u7D6GtswdPPfsUZs4rgiSHGYTLRgu8AfLt1Y5bMMPvPA/1eVVGMc18i4GKLFmi0gSjJCQczF1zyhzVx8QxykGylDAaYDDTwRkYsJMumH2M2SeYJBsi+Y31v6T9hYTe7j5cOHceTU3NCIQDyM7OxNwFpayh5qpRsEswxM1xdF2CPiGFJQcJYnQ1eQp5E9utNoT8AYyOjKC1uQ2XLl3C4MAw4hxEl4cxNjSIpPg4VJYvxKLKctYpOxwW9of2BagBT72XKHtZUjA+MYmu4SGcOnUKHbdvw4pww6KSkp9uW7PxZ8U5Kd3v9rYeGhpytY558m43t83p7Oxdf+N643zvlD89HArKcU7zVHZaWt3MwpxDc2bPOpdVkNaZ6nCMS5Lkfbdtvbj/zO/vPnLsz4cnJ+0JiS7MmTcHZWXzkJGdBneCQwTI0PuDmjopdDAMBPwK66Xr65rQeKsWjbeuwBgOXXnusUe++4XNq/e/Hwi/zz6q9MPVK/DAVEAHww/MpdZP9F6pAGuGD+z63tEzl3+nsrLatHb9Bng8k2hqasTN2utobm5iti4uLo5dC5KSkpCeno6E5CTExTnginchPsHF0cY2p43/WDMzrL6b6ausMsUEcLVGNwaFnA4mlAmEozj4TQ07IykER/3SOqEINz9pDWvDw8MYGRnBxMQE6PuBgQFMTfkxPOjF2NgYJEMQqakpyM7Oxrx5pcjKzMP4pBcvv/wyg+Hnf+0ZlC3IY+hK+J2ALrHaJvU4NRDJbHRsM5960aYN3lRwq8ZOi1MRsFlomwWQ1M6Va6OCYU0+ot0HrHdW2XE+DmKF/ULy0Tc4iqNvnsYbJ87A7nLhiWefRlZ+JgdukEOF0UCsrAi0EMu/D4bZeo7OizThHHWtgWEtIVCcIXsXs+xDaHiJqdUcHkhyEFTCCLLEgRL5jDBJJNcQ8dAms/AIpp/p9cR0y5Ax0DvAYPjq1avo7utGdm4WFi9dwtcqPj4eQX+A92OmcBODMdpkyDIWk8zuHXR+lAQ4NjKKm9eu4+rla2hvb8fs2XNQWjoX8W436m/cQN3Na+ynXFiYj1mFhcjKzEFqaiqcTidMsgEBnwejw0MYGR5ET28vGlub0djUNJWemFC7eknVi0vKSl9alJ/f+37vVZoybx9D/NBAb3pja+uym1duPNpyu2Wud9Jrc9rt3hlpqUMpiUmtJXOL38ovyHqzuGBGnSRJVCheWloU64tHdv7w+PmLv544IzWuoqIM5RXzkZqepCYp0jCL7P2omZLCZFiAxINHuj9GR4Po7uzCmRNvofbyRaUoN+vktrVr/mDjioqL73fs+vP3dgV0Oca9fX0+qaPTwfAnVVl9u3oF3qMCAwNK3D/v3/0/jp258M3qZavkRx/diLg4Yl+Bru5BtLe3cQzu0NAwmm63sE2Yxx9g8EPNVHanjdljq8OG+HgXLFYTHA5qErPx8/QHXDaamR2knzlhTQ1PIMjFqWCKwl8JnJDeVAmFOSqZwiAmSLs6Ns77JTaY2F4CvASKiCkkrSxtj5jqxPgkuN1xmFWUh9nFs5gNdLmdDCprb3Zi1649PBW/eu1KZGalcxMcTdlHwmojG0kUYmI/lGmq9a6QBi0cIraohPQFEGTPXFUDon0l+QHtm6b1tfPnNDRGzQRPI8LXWDEgFBCOCkZDBIGQDw23m3Du4iX4IzLmlZWhfEkVnAkOBKnhjnTTMPNgQXVYi4Lh6NGpLh/EXTNUZis3MfiIZbxJL8zg1ygcIwiRs3xD844OR1i+oEVuczMab5A2ZoCsCP/iEAJiQCRE2FBIC0ya5AiBbdL3TqKlpQWXrl5BV08nUtNSMHfuXMyZXYIEdzzXhBhim9VKHDtLJJg1JpcPs5mvfV9fH+rrG3H10mVMTkwgNzcXS6urkZmRwXZx/T3daLhVh6bGegwNjrB7ht3mhNvlYu9n4vq9E2OYHBvF6HA/wqFgWIkoLYWFOWdWL1n8b+Urq8/Nkj68S4OiKMaW/qnk9ta2ovq65vXNTe0b+vsH06c8HpdRlkKpqcl9s+YUncktzH0rPSP7st1lGbxw+fq6Pfv3/nHQaJ69dv06UBJkHHnZUci1WVgaUiWp6ZIGiDQooAEBEfSyka4/ST+ApvpWnD1xCo3XLo1XzCna89imzf+tsiSvR//w0yugV+D+qoAOhu+v6/W5P9oHQXfGYHjf7r86drbmm8uWLTOs37gBSUlmnk4OBKlBTmh5hwbHMTI2jr7efnT19mF4eBSjY2MYGR8RIE+W4PN5VUmAmBrnZit+yNHvGTvFAGIGS2pHfyDgZyaQmsdCoUA0dCEYDIIeNouF7znaJjHRxFIT4E1OTuZHVmY6bDYzHE4T7A4b/D5ywLDy9H1jUy9e2r4Tvb39cCe61eAHYixNUBSKZKYGMuFJS0uUEY7RNGgaZ42AvZMhpgYwjmtj+QifF6+oulIQyCUNLP2jMGROV3unlIHActBHSXRGGKQQQhE/hsdH4A0GsaByKaqWLkFS+gyEDSFEjEGQOXFEISZagkHdn8YM3w2GpWjDnKCrYzJMRHNalOGWEKbpeFUpLQqiwGYyc/IbbUYEZ9AghryC1RASgvAGIReJRIIs4eDmQdIhEyBnRQI1FwrWvLmthRvrGpoauf4lxXOxaNEiFOTmgprk+Hh4WwQKuesQHp8XTU1NLIvo6enjwVBOVjaqq6uRlpbGgyIC0tRURzKL1eROzwAAIABJREFU/t4+NNQ1YnBwEGPDo/BMTsEsE2j3Q/F5YJYluJy29pnZWWfL5ha/NHdW1uWF+fmtH+zD7d//hGhRFKuveWRWbV394ubmllWtnZ1zOrs6kv3hkCNpRppnRmZGv8Pt7m9qaVswPD6aWbloIZavXIac7DRONaQ4cGLAA2E/D9qM1CipkMadwl9ErAzJU+j9xU2mIeD6pQbsf2k75ICv/olNa/7bs4+sf1WSYlJYPtiJ6WvpFdAr8BlWQAfDn2Hx9V0/mBUgMPyv+3f/9Rtnz3xjxcql2LhxHRKTXAyAqVnKaDTBpIpdCRxTj5PXH2bP17GJcQyPjTJjS3+MR4aHmbUjFndychJej59BrJY0Ro0/BGyibKnGvBJQkiKwWmX286UpddqnzWqHO96FOIeTQYHdbofL5YLbGQeH08YMNP2egAJplx12ilIWEQvU/OUjQC3JCIcMqK9rw6v7DqK9rZOn8ImllowmNX3OyqCKGFM6Di38QQBacV9wSpoW8qGqEe4AxYoAuAJIk16W5APqQ5UZKIQwCbSqTC0Byqg9He2Dku4MVtYac8NdyANJVjDhGeOwiKK5ZShfVIWcmQXwRryQLULLHI6IVDnEMNvMPt/l+8zGwuII7wLD6s/qeYUMBgbDIq1Nk0oAEX+Y60pyCA0Ms5UdscKyGX5fkOyW2S9ZQYh9hHlflGCoaqgNMPFx2WxWTPl86O/vxcXLl9DQ0ADPhI8Z4vKyMva65nQ8gwDa1HxInPON2pu4cOECN+KlpMzA/PnzMXtWEXLz85jpp0EESSPotWRNR0Edg/2D8E56OYRjamIS/qlJhP1emBBGostZOzM363uF2TNOlybZOz7sp8AHmcZWFMXU0DPhHvUO5HV2dC+6Wde45Xr97aLRiWAWjHYrNYBm52XhscceYiBst9pBLoZaXLnHE4bZbKRJA5WJJ5Y4ANligj9MceHEn9ONL8E/CZx87TCOH9znLy8q2PnNrz3/BwUzZvR92PPS19croFfgs6uADoY/u9rre35AK0Bg+F/27f6fx8+e+frSFZWcQJeUmMDgQ9ipEePrUyDJEgFj6rqPJQxJ80sd+sQg+3x+BiThYJA9ZgmIEMgkQMxxurRuJMzBBhGiF1Wkyc4KZM8mG1jLSdIKYgpNMvnzmuG02ZnxIwY6Ls7MOkkC5fQyYrBpYQY7DDAGCno51IHAEHWgRcJGNNS345UduxEIhFBUVIjZs2ez+4LH44XTEc9sIrHb0QARTXcbA4ajdmWq7RuDYWI/GURSscTBUKwy86pEyKkWbRzYIRlF0EVEpL9FmCEmsCf0tbQdA0h3SwyyhEiYwHwIN+trUdvQgClvEPOrqrBy3RqEZQUWmwwvAf6IGobBPr1C+CDAsHZTqwHXfNwxHs9Ralv8jprc2F+D7aINiKhgWJNGWGUTS1gkiq8mIK9uXguuoFhqAsBk2RYxUJS0eol5vwbIMAlWWaFrbOGBk8ViQndvDxrq6nH+3EVMjU8hNy8bi6sWIScnB3a7jWs1NjGKqzeuMxgmnbg7IR5lZWWoqqpiPXsg4IvKT0h3TPcq3XdmE0WLk0OFiZlih92CiC8AUzgImxLudlnM/5A9w/pv6ZI08Gl8BBB4vtLZObO2qXNR3e2eL1+83rjBGzaCBqJr15QhwW1VpyUkhIPkB033g9Dh8yBNtembCvhhJdYYQXK+psgQ1mSH/UBXUxde/LcfwR4OXnr+qW2/tX5V1eVP49z0fegV0Cvw8VRAB8MfTx31regV+MAVYGZ4366/OVFz8WuLllVg05YNSIiP4/4cAqyBsEhJI2sy4R1GwG1681qjmEKsqrrw0+pKGoAkBpSwZtQLV23amrby1QCZ2AiDOS0oV21GE+BcdalQE+c0bC7IVwIGNEVO5r6kuzUhosgMFututWHP7n0YHx/DE09SHPN8bskn0C3LBE7VlGAN4KlfmUtV5QOx0DK2wLFyiTss39T4YGogFHBQLJxvoZK0qjQ36kNBzXO0ciSoHo8EtHcN4NyFKzh+8jRs7kSs3bwR2QV55H2GMLHP6qsJg98dYSz2Nw3yY63j7kz+E4x9VB7CrLJgujVQLa4HD4fEeYhnxfdR5lwMAPhqxs7Ok/NHmAJcTMwie6dIomCJegv7fAHcuHodly9eYk046X4XLlyImYWFzPZeunQRdQ318Pr9yMjKROXiSnY3SU5N4nuFYrZlE7lfqAONMB0DCZ5lkXIXicBEDDax9l4PnIAvyWjYnyzbfjAzxfGpN5o1Korl9vX2Ff/ywo6fDntDmY8/uQ2VFbNgM4tgEbpmdF/SQvcKz0rwoFENVOHrrsVVc1QLguEgLDBjrHsSu1/YjYZrN/oeWbPq27/9ta3bY+9X/Xu9AnoF7u0K6GD43r4++tF9DitAYPhH+179m+M1NQyGNz+yES6XXcT0kjKR9KBGghgSgsQKEmepJr5pPr9CPqDKHzThKTGid9VLhExQTMS7m36Rnpb3p76O2FFaiNmLptPFBGGQiwEn4ZEwQlHYgiuCQDS4WSK0SGxkRMKt2k7s3r0Hk5MTePKpR1FRWcrAmTlQSiSjkAexN8HYxuTkUUiyxn4yxmOYJY6N/hdwUEt9o+cIlBlYriFAo4JgSARWaABURC6TJIQa6sR2gnQMarw1JeNJlLhmNMHvi6Ctqxcv7dqPnoFBVFUvR2nVQsTFuxFU/AgSHUjQVTJGgWt0P7HBIe/ioTw9WIkgotlfKDLrrIXMwqDiZ+GRHLsQABbgWVRA0mQY6nqxUdD0PDH+xO6bDLR9A0xGMzdEEjMuIpgNqK+vx8XzNbh9+zac9jhmh6ne7Z0dXLs5JSUoKZ3LgJi0yUaTQTiRGCWE1Ohs+gXNWHCDoppoyHpuJQRjJAhbKIR0h+3EDLP9OwV20wXp7hP7NN7nEvBaTf3yf/z5Sz81upMKv/wbX0ZWZhzMJlWzzp7U4h7j9xfb02m8P8lvhK2ftigUba0EYJYsUCbM+NXeN3Di9aP++bPzf/hrT3/9L+bOleiNoS96BfQK3AcV0MHwfXCR9EP8fFWAwfCBff/rzfM1X61augibH9mAuDiLsDQj0Md0I03ZayyUCM7Q5L4akBN/tDVQSOCRPHDfrVZqjHMU8k6vozHBHMUbQz+T24QAw2JdAtP8PEU10/Rx1LlBPM96XQbVpKNlETHqbvVg18498Hgn8eRTW1FZVSyCPEi+QTCM/ZCFwRmBYT4fDYxrYFhtFFORnwo87wSIJAsR0FZEQ7PHLjN92jlp6wsYrR0n62KJqTaKsAuC05EQtbBRVQwYHvfjpy/swI26elQsqcbSlctgd8XBG/bw1LlMTWHBMPXuqcR8DJDSSvwuYJjrxdrliNowRxBWhoGp3ugVEaccfb3WIKhpSFTOOybRTuzyLvBM9ge0dZKuMFNrZraYQDd9tVlsfI3r6upRe/0G6uvqOMmOHmSHVl5ejrnz5iElLRVmq4WPmQZC/qCP9eRer4i4puqJeqsWc3SNI2GYDQpM4RDsSrghw2X7donDeuizfDe/dvr64//84it/50xNy3nquWeQn58UTU/UxjBUJ1qMRgNHh3PqoqCE1QoL1psGdiElAAPNhEyacerw2zj52lFv6ayC//3N3/j172VkSJ7P8lz/3X3Tqbz7+PiePeT788D0Qt8v100Hwx/zlfogzR0f8y71zd1nFdDA8PFz57+6ZPkyBsMul5HltqK5S/ydIv0vRQjHSiT4Oc12i4Hznf4KohXtnYv47d1//eiPvMq2Mqsnno/63Ma85k7vX8EMC2ApwI+Izpg2DaNN1dcN4eWXd/B0+uNPPILKqjmcnqfJFSjYguQG1ERHjDMt2tETM/xuC7kzTFuoRWAxmhHieGexb8Yu7JxB+xHOCtOx1Hd+3DEgZe9lYt8VmCkamXTFEdJkGzAwMo5fbt+JuuZWLF/9ECqrl3DoRUjxQ7aQZVkESmiaTbz7eMU0+3sjDgKWzO/zNDyBYbpE0/HTfC2iImSVvYwOaMgtgjsA79rtXfsLky5cZns50vOyywTVJyLxz0pYgdvtQFdXH27cuIFzp89wqAbVJiMzE4sXL0bBrJmIi3NG7dxMJiOn3ZksZgQDQvaiNfeJi6jAqERgpIsR8CPRamlNtlv+KT1O/nmKJH2mtmMHT1568kev7Pq/iZl5Kc986VmkZTjV2G41tZCtB8WgSiYwrEqRYgeKmhML3e9ByQeTZIUyZcTJ10/h6L7XPAtmFfz9t776tXsbDN9nn5n64eoV+KQroIPhT7rC+vb1CtxVAQ0MHz1z9quLl1UzGHa6zQzCCDxxg5dRMJhkVxW7aJCIzU9jdMXaandDrzt/fidQZv/aqABhek9GFcRpumQB2MRCDLRA6MQAkx2Z4GWJ1aZzMBA7yMzwAHbs2AWvdwqPbt2E8oq5MAunNl5PJBkzoosyu+InAbQ1cKzJIrg80WMQMhEKvqBF+CqL7WosOn0fDAqmOMqwUvMdMcd31FVBOBxk2QBLFagpLQL0DggwXNvUzGCYrpXRauYGO8LuXrIJM6knFNWSTjtgiLN798GJWgUe/HDTH7Hp/II7wbDQq74boFbZyne8u2JZcMBqonCQICIhAYrp0lHjItef/J4jEbZAq71xE7du3YJnYorTDuneGxoagtvtxoLyhew4kZicyP7DBIY5nY6lMmHVAUP4NPPAgxhhirRWFNihdM2Is/95gmx6PcMmtX3WHwavn7r+hZ+8susfzO7klOe+8iVkZsfzrAY7dNCgjlwiSMdN8g7qGn2PhSVNnIBImnkDAqMRHD90EqcPHxsrLcz9/59/8j/9pS6T+Kyvtr5/vQIfvAI6GP7gtdLX1CvwsVSAEuh+vP/Vvz1y5szXlixfik1bNsJJHe0qeCKAYZCFb/C7LzQvr4IsBk/T68XKJN59gm7aZk1zQBBKWrVRTp0rJgMxwYYJqYGmzhVAlWCQmBqPRNR9S8KbljSjBIaJFLxxvR17dr+KUDjAYHhB2RxYLAREAUq7Y6xxF/M2Hcwstqv56WpnGAXDamE4XU6Fi+MTfgZ2oWCELeAoDppAsN1u5ihggs3MSlNDl+Y4QZZy7N9LzhvkMxuBURYDk/7BMbzw8l5cv9WApatWYdmqlSwV8Ie8DIaDkSBko2qt8RHBMJ2G8JPQ1NOxACzqHfGO24AkFbFs/fQKd4JhjVgmizPSd8uSzDpivz/IWuK2tja2TWu53cyWefPnL0BhYSF8Ux5cuX6NdcRkiVc4ayazxMkzUmCz2zmSW3geB9TZDFXKo7LCNgWwK9JYqsPxL4kOw99nStKHtlD7WN5sd23k9XO3t7ywa89PR6aCyY88+QiWLpsHyCJ0JqREYKKpBCOJSCKSJrXRNhG1+VMHUlT/AIWdwIzR/gkcfPkAGq5c716zZPF//fbXn3jhkzh+fZt6BfQKfDIV0MHwJ1NXfav3RQU+Gz1Xd7di/8mhvX995O23v1VaPg9bHn0YSalJsFhFNnEoHGR5hEmSKfyXK8mgJsrOkuZWZU8jIhkr+gf7A76j79AHR8GwJjdQpRJqNLAAbLRH5gJjwDD9VvjuEtSkNchqin4eGw/j3NmLOHz4CEwmGY8/sQXzSufAaqWmJImDDNinV7NM0wDGewkZicFWJSLT4EQA6oGBMY4GbmluQ09PD7PFNpuDQVxRURHHDmdmJsIisieiS5jsyMjRwij0wgRDSX9MbHk4YsDA0CiD4bqmFlSvXIWlK5ZxGps35IFsMkCiBrKwSJa70yUilh0W4PRdhzWRsKpOJpZVgGFFdZMQgxoVDEeDPYRFmlhRYn24YJanzynqw6xiYgLBpO2luGW2mgP5Pcvo7RlgIHz12jX2DzabrewfXFFRwcEqNCgYHh3BxYsXcfPmTY7iLi0t5Ua6vLw8Tjs0W00Ihn08I0DHwMMjApSKAodkgAvGC+ku23csMs5nSJ+tfrajQ7H1h4fyTp+98Tunzl/85tCUz7BizQqs27AUNqcRRoq6Jns9Nm8R96hY3m02RdNvAz4lCJvBir7uEWz/119isqf/xrNbNn3tya3Lz94XH4H6QeoVuJcr8Cn+if6Afzrv5Wrpx6ZX4P6qAKVkvfBvu79/+NTbvxeX4MK2J7YiOy8biYluTv0iFwQihQlEavHElEIWnS5nUKzG+EaImZyGWhqzejeLxYD2Lus1xlSqKwX98de0kAzeWEpgQChM0cvTgQ8skVBtvUTohCT8i7kRjcCWGR5vEB3t/Tj6xglcv36D9aZfeOYxzCudDYtFWHEFIyGWI5Cfrjg24W8WG7ShHYeKEoXFGz9Ecx+B1iliMC9fw/nz59HV1cW1IBAcCgITExOckkfeuBWVC5GamgizhcJF1ICNcAhmo5nxuBIOQqamuzAdgwFKxIChsUn8+BcvoamlE4uXLUfV0sWw2u1QDCFOvCNbLebo/x0wrKkx7gbDLCdQSBktDPSERlo00E2HjkyDYVpXLKqLBIFhqrrmK6w+ezcYJohP151CMYgRDvlDGB8fx7WrV3Grro5jvwn8zp1bigULFiApKYFZY/JdJhkF1ZRinK9evcquIDMy0lFZWcmAOCHBjUAkgBAHfQgpihxRYFYUOA1GxEnG45LX+2Np0tc3MThgUMJ+s8mIgNNpH0/JSGnPSkoakKRPznFBURRDS89odldXz6zO7p5VNxpaVtc1dS7whKU4TwgonJ2Pp770KNxJdtgtZmaGedDJCX7iHiMfblF1NbmQJBTsw0ftcyISe3hwDI3XGnB4z0F/TkLy/q8+//jvlc3OpptRX/QK6BX4EBX4FLHvO47qPwCGP8vD/hDV1VfVK3APVYAaLMnx6q9+8ur3jp4+94ekO3S6nJhVPAtzSmahqHgW3G4new2bzdSkJRrBWD9MPr48pS8ijMU0ruZpq0Gl6be0BhpjQbCwaJtuyqNueQKzmjsEWZ4JeYYKuqKOFWL7JDMIUliGRCEOzAqT4xRjWQphGB0dZ0b46pU69HT3s9tARkYaN9CVzp8Dm4UcHKLqCGbigiGhGaZjoZ850SxEIFwcK52HlZwbVK0xmUcQyKR9Xb5yDUePHmf3g9TUVBQXFyMlJQUD/SPo7OxEY2MTb5eigxeWlyI3L4PBMNlimSjQIiIxK6iQrRqPNwjqSAiHJAyOTuLFHXtxq+E2qpYux+JlS2F3OrmBjsAw1YyuH13RaI1VRnZ6MCLA+7sLXiI8GOAYaBoYcOMeRS2L3xEQI8cHYtFNRjWKmZsqDTAZTLwepaKRdINAPK0ra64cYWGrRlphOjYOYQmHMT4yyo1ytbW1nFqYlJyAJdXVKCoqjjpwiEESee4KtpoAc0dHB06fPo3RoWEkJsazhnjOvFIkJSfzAG5qysfuGgrJLyYnMdjegamBwYGJnv6Boc6uIEJB2SQbzIoUCfuVUNCdmNA5f37JsdzstEuz0lNu56end0oSZ3P/h5eWFsXaNV6f29Xatqy1vX1lS3Nr2cSUJzEQksIGS5wnLSefBjh5ktVkr1q1EEtWVCEpIZ45YCUSgcVs4AAc7f1jUesQIitBSYKfrgnFoZss8AdC6GjuwIGdr2K8d6D54ZVr/vybX1z/giRJwf/wiegb0CugV+BTq8B/AAx/aseo70ivwD1RgY/LKURRFPP3f/rqd4+9XfNHstUGg2xEMOKHzU7azDwUFxchIzuLWU2awreahS7WGyDbVgVmi2A2CTgxCFPlE/Q9M42aGXGMnnaaUaUtaS4UogGKE9u4wtrHgXAcYMaSO+s1Rlb1+BUkrmhWMwAjI5Po7etCW1sLOjq6cLupFV6PaAojUOV2x7G12oKyWbx+iJu5BCAnYEtSBxOF1wlHOfY4Jj0rJeCx/RkLfUVDIXX40xIMKgx0d+7aj76+Pp7Cr6hYyGDY6aSUOyAYiODtt0/j6NGjXJPVD63EipWLYXeYGAwT2JMUI0xsYyfkH4xIJQOCIWBobAK/3L4HdY3NWFS9gsGwzeFAQAmqXsthjmx+N5nC9EBE3LrENPLXGHaeATMpRSIRUM4KXz+DrLo9qNZ2sqpnZo/bcDTdmUYfVBeSavC+1LARC8UBxphMkKyCtkuDBZJF3Lh6DU1NTXzuM2fORMWiCr7PKJSDADOx6gTEKTVQs6mj11PUN8U4n337NHp7e3l79Prq5aswY8YMdpbwe31oqqtH/fUb6GpqgSEQgCUcgV2WkehyMTj3hYKY9E9h3OeDogSD8Q5Lx5yi/DOrq5f9bHZB5sVst3v4o7zZ6b15+VZLTmtHW2lzc9vq5tvNizs7O1NtZtlidzp8uTl5Dfkz5xydNWfOGYcjeeCNE289/8q+Pd/KmVOQVr1mGeuh4+0GEGMc4vuNJEMhMcvA1n3T0iEaMPISBibGPHh9/0FceOvscFFe3rEnN2/4/9ZUFdd/lHPQX6NXQK/AZ1cBHQx/drXX93yfVODjAsHa6ZJM4uWf7Pvu0TM13yksnielZWShu6cDrW3N7N/qdNqRmp6G+Ph4FBbM4mls+p50qgQQHQ6w/pWBqiobiJYyNvBB9Uplb19K1CK3YJ7TFyEVHGtsUE3X2MeYwihEtAWRtbwpkT3AeJvjlyOA3x/C2Mg4RkbGMDwyivb2NrS0NmJgoI+BXLw7FbNmzkOcMx41NRcRCgWw5ZFNKJ0/G1Ab7cj9gY6HntPCQ6iD32om2QLFSfs58tdhE24NfnaNMEDmEA1gaiqAEyfewuHDJ5CfX4CHt2xEZmY6zDRwiAHZkxMRDv6gNLWSucV4eMs6ZGTMgMks9MGywRwFwyRFYPcHlocQMzyOn/1yJxpa2lgmsah6Gax2GwLhgHCuIG9lYpXv+hQVEgjN0u29wTBVnplldSAi9MAsbGDmnWzViB0mZpsBr7of0bgmQDTLJyIKh2rwTIGanEZbofVsNjP6+4dY6lBTU8OyB3KLIC01sbvZ2Zl8zX0BEetttdrVwQYBftHESSCWGGxykbh+9SprjK9ducos6syiEh6IxLvcaG1uwoXzNRgZ6EeqKwFFBfnISk1DamIikuITGIBP+r2Y9HkxNDyCtvZWdLS1I+L3+GfmZV5cNH/eP26qnLc/KSlp/IN+NLxd253r8Y6md7R0zqxrqNtQd6uxOBjwORITnL7UpKT+mQXZVwrys88UZhXeCM7K6ZyryjJqW6fSf/LyL/+sprH+19Lzc2wPPfQQSkqKYXeYeddEBtP9TwNOWqwcUwj4gmIgSTKSkaFhXDl3GSePHBs3hoNXH39485/8+mPrTkpSbAzgBz2TB2M9fT75wbjO9+NZ6mD4frxq+jHf1xXoUBTbiz/f9903TtX8/sJFy40PrV0Lf8CL1tYWNLfeRlt7C8YnJ5kdTUxMhsViQ2JiIjNwNEVNYQjxLiecThvFH8BqM3GTlMVigipxVMM43lkmJpJVKzR6NhAS0+s0LSym5glEAR5fkNm/sbEJbkjze7yswR0fn+RmqoG+QZ4+7+sfYnbZ7rAgJSUJBQUFyM8rQm5OEcZGp9harbOznSUgqalJMBgFm00eysS8kS6aUrzoXHk7DH4VWKwm5OfnYlZhPjdrhaOIkyQNpAf2YO/efTh9+hKWL1+Oxx/fyrZtxGiaLTIzzMQ4E+NaU3MTBw4cgDPOjkce3YCiokLYLDJCkSCMigzZKLGcgJlhBqfUGCfA8E9+sQNNre1YumIlqpZWw2S3IhgOqMEoyruCYa662hh4Z4DydGOd5tARZBs9IzfGEeAkHwNuRFNZfiGJoSY9dRbAYGB5BIExWohxJsBqNVn4OgZ8QQadVrONwTDpg0lPff36dXbaoGZCYkHpKw2wfD6PkEOwnzVZiwn5BQd0mEwM6jlJTmXraX/j46Ooq73FcgvvpBczZqQjHAqgq6MdZoMRC+fPx8L5pSjMzUOcwwazbOBrQQMVn58ApWhL6+8bREdbFy6dP4fejhZkJLiubN248k+Xzik6lpqaOvleb/Lbt4fd3VPBpK6uzrJrtVc39/Z2zR0eGbM4rNYpq9XSNasg5/S8otk3CouzrjkVxZOdne19t23tOHL+ie0HDv3j0NTkjPz8fCwoK0Vp6VyeyaD3ksEkZi7o/HmmhJomAXg8QU7tu3nlOi6+dXokzmq/sWbZ0r9dunbx4cqMjHs3aOO+/tS81w9eh/n3+hV6v+P7xMHwx82qvd8J6c/rFbjXK0BgePvP9n/vjdM1355fscj42JOPgAg56iUbG/Oy1rWjuwtDgyPskkDaWJ8vwOCE2DlabBYT4uIc7EAR57IhMSEZLpcLFrNZ1aASABH6XxGKMf19rPMB2YPR9Lg/IAApPXw+Hya9PgbDBHh93gB8Hg//TM9zIIHBCJPJgqTkFGRmZqCgMAdpaamIj0+EnZwGTEDtzQHs3XsAjY31cMc7EI7Q1LhozKLzoePzc2QyxQSrWmiFjieAtNRkLFpUydIGOi+yMOMgDVXDPDw0jl279qKxsQOVlYuwdet6OOxAgJlRklGEYZAI3AMXL9Th5z//OeJcDjz33NOYXVwAo6zwOdAGSXpBMgMNDMfKJH7881fQ2N6BahUMm21WBNQGRyGRuDPmJFYbzHVW08xYWRJt/NPcCCTVK4SYdwlmgwlmowWGiALP5BQ8k+MIBnxs40a6YSOBXIcDsskEo8kMm82CYEhcD5LP0FcK16DBA9W3v78fFy5cYjcIum7EBi+sKGMgTLWnWYZIKMgMNN17rG2WxX3CXrsShAaZfINNJoyNjcFhtXEEc8DrQ3NzM86fPY+h3n74fV4kJbixuHIhqpcswowZqTDLov404KJjs5uNCLAuWoHdLLHsx+cFbt1swNWL59BcXxvKTkk8tXbFsu8/vXbZ4dj3saIoplttg8k3btVW1de3rO5o6y7t6x9INtrksNVmm8zJyrxaVlb+emZW4s3lJQUd7xf33NjTk3Lo4KnfOnr20u9hPLliAAAgAElEQVROBgKpRMnTYKmktAS5udk8EEvPTI/6D9N7YsrnxcjIKBobG6mm4YHu3n6nYjizfvmSH21dV/1mhg6E7/WPXv349Aq8ZwU+cTCs116vgF6BOyvAYPjnB/7k6Olz/6Wyulp++NHNDIaJ2aQ3ZCAIjI4H4PF4MDw8ivHxCYwMjzHLR+zs2PgIJsfG4ff7MD4xKhrrjKSDFboJAmECOJsYGPF0t6odpSOJBWXUqEcuANyM5fczEGbAqzpK0OsJHDntdgal4uFEUkIiBzLk5OUzW213iI8SYtKIuTXJwM0bfdi961X09fcwG2u1yRxwQH62AX+YvwZJ62pQQE1KBFCJYfR4Jpj5njt3Dgpn5rNuk4CtoEIFqzjQP4qDB1/HhQs3UFZWzsxwYpLM/sXCgk2k9xFD/NZbl/GLX/yCG+wIDBfNLmRGncAw1eXdwDAxw/0sk3gZDa2d7DNMzLDFakUgLCKIqYkurFD+3fRCjC4fpvY16tssZA0MXGP0w4TBzRTLFzEi6PHBMzqJ4b4B9PX2YmRwCF7PJF9fAuCS2Yj4xCTEJyciOTUNM9JTYYtzMmvM5yHLsJis8Hq9uHWrHteuXUNDQxPPGhBjT7ZpOXnZfHyBENn3AaSS4ZQ+CA0yCUU4eILkH9S4aJJVOQmtFOHADrpGCS43jzqOHDyCs2fOwG42Y/mSKixfthQzUtxiZoJAvCRmHage5HFMelwaGFiM5Joi9h0MAO3N3Tj+xhHcunIlWDSz4LUvP/PcdxYVJLfUdo7H9Y31Zrfebq9urKtf2dTQVBLwh6zJiUmjM9LTzmRkZJ3IzUm/9f/YOw/wKq4z/X/Tbr9XvfeGGiABQghRRQeDbTDudpw4m+pks8mm/dN2s+mbTTZ1m+PEcWzjBsb03ntXl5CEUC9Xurq9TTn/55y5wpi4iCZL4lw/GJDmzpz5nbninW/e8355yRndOTkjs1d0d3cb9hy78NSe/Ue/JIKGzc2ffFEUJbGltTkvGPClcDo2KTk5mUlMToBgMKCmcEgSON0u6OnpFds7O4eMBlNTfk7W0ZmFhRuKUqMaCgsLsd+HvigBSkD9N4b5qBvSsQaKiuGxNiN0PBOeABbDr720/V/2nzr1temzpwsrV68Ek0Wnih5ZIY+Vh7utef1qHi9+Wh4MSGrV1uMkqQBYHLvdXgj4RZIMgH8F/P73LPhxOdWnzTgyalgEDwsyvLiNFXhSIdTqdeR3/CgY/+OPhapGIxDhiwVxWLiZiF+LEf9dSyrQuErN8uriN5xqQBpX4IVdEkOSGurr2mHz5q3gcjngwbVrICcng5iP8f6Qgr2/uN0ttjYA8Cwiwgh7YIOiFxgkkegukvsa8nZg/+Zw1NWAzQ1nzpyHbdsOQEJCAqxatRxSUuOIZUSrCwlnxEJ/3xAcPXocTp06QzyhixYthPSMRNUOIUvAA0ci1YgJF9sRMCjiGUZgdXjgpVfegEbsGZ6nimGdXg+igm0SjJooQVJ21RfJ8b0xvi4kBPH3Scvo68Qw9gVzeG6DEjgGnNDWcgXam66CrX8AZG+AJFxg2wunwe2P/RCQJWBx9xCGAa3RBJFxUZCWmw2xSfEQFxNH5s1hd5FGGfU19eSpgiUiknh6U1Nx5T4e9EYdaaWsJnYEAYm44syQajNJnZAl7Cy/9lQBi34pEARFlkDA7YklCS9lBLPRCH5vAA7vPQpV5y5BdnoaLFk4HwrzU0lnQRGfKhbDhClOUeZBwmFkOHoNR/WREj8LAYRAo2FADAA0NbTAts3boL+nr79i4eL/1fKaura21im9PV2lHvtQtOhzo+TE+N4pBXl78zKzzxXnJV2Ij4/33OwPjLf2HXtm166DX3a6/NqFcxf/Zc7sipdxol5Hd3NyXW3NzOarDfe7nK4Eb9Crl2UJX6Myw7IBQatxGQ2WgdjYqPrs/MK9xZPSm+cXpH+s7aVv9tyv354+2L8devS9E43ABBTD9CM+0S7SiXY+WAy/jj3Dp05/tah0Gr/qgZUQFWEkosob9IFOg32pfjVBQcE2B2JyIBjUZIfh2Cf8BBsv5lHUqh4WWrJyzeqAK724Yjgs1N4VwWpSAV65xeCKLH5krlWryLjyiRfqkcfkikR8yUyoUzBpUMGo4he/cBUYhxdg/efze0gUHM9qwRsIAMdqoaW5HTZufBusVit88pNPwbRpeRAIyiSKa7gCjhcC4kxgUp0k3eHU/WHRhcU26c6GRSbPEz8w9hjjMbgDElxpaYPXN2yB/gErlM8ug9lzSiE9LZ4sNPO4fETYVV2shQOHDoPL4STNTWZML4bwSCOpGJMXtkngrF7i8Q3JWpaBoMLAoN0FL77yFly+2gazyufDzDnloDPgynCQVLOxRQLnyr0nGxl3YAsJYuwwxYvfiJjHiRWh+RkWzRxiQYMYGOzug8baBmioqgJ7/wBEmiyQk5YOSfFxkJyUQLrpBZEMdocDegb64XJTE3R094CIUzjCLDBtVilMmVxEkjvqG5tIRRhbGkwWMxROLYSCggJ1bvU6UBADLreD7JPcJOFoOzGgPj0Q+NB1hEU49i4jkEWJ3JxhL7AiBsGkN4BJi582ANTVXIY3X3uHxLytXbMKphVPIkI4KEogaHlgNKqtBecQ46owFtmYCV6iJgZEELCXBs+VKAKLeJBFBO+8tQMOHTgKqcmp7YN9fVeCPrdiMWvZGcWT69IS448WTyo8FW2K70tJYd7XB/xRPyt2n61e+uprb/64s2cgZs2K+zZXzK74dVGOoXP4fbW1SGODnniPrTeiq6fP4A34tQLLKrxB69cxBrcpQueKT8xylI2wCv1R46HfpwQogbFBYAKK4bEB9lqP2DEyHDqMsUMAp0ls+uvmH+4/eeZrU2aV8mvWPwh6U6jnAq6fIS/oGNwEQASO0ZDub7i7AvaVDr/UyiSO21IjytT0AvV3/MJb4q9j4Xh9wMS7iQTq10m4BIu9oaH4tOGkV1KRDaVKXIfu2v5DxyJP+HFURagyiju34cVuOBKuqbkNXnvtNXC4XbB23f1QUjoDeJK+EGq0gXDmAXvD2IcjyNTfscjHFc/hP+NKpSq4FPB4ArB3zyGoqWsAl90FSakpMCkrm1gJvC43tHV2QFNDI/F6Ti7Ih4olFZCWEkegaHh8I6C2jSaxygpeOKfeUAi8hhSKe6wu+NuGTdBwpQ0WLF4C02bNBAZn0OJ54fGdAfZ5q82Uhxf44cIySYPAWcFE2SMiBhUeS0sglXu91gBMUAIDp4We1k44e+QodLbiKDIvTM3PgfJpxZCXlQVmowEiwvTXbjz8QQX8gSBYbYNQU1sP1Y1NcLa+EczRcZCckgN6QzhU1taBiBSITYqGklnTIDMnDWQsSbHNhCUjU6+PUGWbLMZDaqYznjO8QE6Rg0SwavFbgiLoOQ44GYFJ0IFe0EG4mQfHkAg7du6FnbsOQVHJdFi9eiWkZoSRFBL8Iq2qef49kX3DTVNIVT7U7AXbdPCc4nlgFB7qK5vh7be2QtDt9Vv0wtmymZNem5yVcTElMaY9N+X2Glm8dejkmj37j323tb0raVbpnBNLF8378YL8+Oqx85OBjoQSoAQ+LgJUDH9c5Olx71kCeDHQf/zl7X85fPrcN4pmlWlWr1ujiuFQxVVEXrJwiQha/EVsZ8Adx0KqVsEJBCR3dljoqovkiKDDXlksVEnXOFUcE8sFFsuhqispwCrqAilgceUSQMBd10J5tWRiQukCMon0ClWlQ6048L5Ip67Qo3/Vn4vHoNo7cAQbHmpDYxNs3boVBoZs8NBDa6F89gxVEIp+sj2OScOeVVzRHD6368X+sMDGlevrxTBukoHbIONOaU6HB06cOAWXLtaQhYY4aRmnb2BRi20kOJZu0qRsmF1eCpmZyWolO7TKDXtreUFLmofgI5BIORw/gViQFBb6B93w+ptboKrxMsytWAIls2cBp8U3IQqwnEzSKBDLqfOAEzJwBRt7d/HNALaMhFpX4y5xEo5hI5V+BThc7Q8q4OofgoYLlVB99hxEm/Qwt2wazC+dAYkx4WDEpmvs6yW50XjAWL2ThmdEcA4OOqF7wAYnq+pg75EzMGjHC+2MwBtMkJ6bCUWlUyEuOQYUHpfd8TmrjT0YCOUQkwVyCjAaXA1W+0OoHmKcoRcAVpJABzJEaHUg4AV0MkC43gxhBi0RyY0NvbDhzY1Qf6UTlq1eDRXLcewcgFfCNy/4hid0LZInGte1C1f7DKoCPfTCVhF/0A8aVg+iB+DtN7ZBzYVLjoLstD8988SS3xUmJrbf7g+Lo1VtM97YsvUnHd090wrzJ19asrjiXyoK4mnL5NsFS99PCUwQAlQMT5CJHMunMTbM9GPHPoPbxP76z29998i5i98unl5qWLPuAdDieFeccMWrWaYkA5jBub/qzA6LWfwHhRguVTFBGvqiUFc5IoZxde+6BgGh6i8Wr8OFZVIdxmIYp+piQcSywIXE7bCgJgKKUVsND3+LjCN0oaliGFdFsYhWq9PXOgaHtmtu7Ia33noLhmwD8Mgj66G8fCrglC4R5/vimAHSaENtaHCjGCZ7v8F/S/J7r+tKh+PZBJ6Hnm4rdHT0kPzbK1eugsfjI/5mnFOMs3RxBzz8C2cL4+QMHO+G7RZYpGHHLzYE4LotFp4y9mzg80ICDNm98PKGTXChuh4WLF4GZfNmE4sH5o/3EZT8xGJCWiJfE3wMcHhRGh4rueFQAHEMyKTKroCW14KE0zkcfqg9e478ijObYfHCciifUQzxYVp8GRBxzhIPttquGedD4xnHYni4MbdPBBgKiPDS62/D8dM1MOQOwqTJ02DmvDLIKkwDh98JWPsqHApdS+8K02EPOV4YhhM+sODGNxlYxLOKCDqWBQOOQ5NkiDLowajRASPKIAAPGoaFykv18Pb2XdBhd8PDn3gaZsxMJ0keQexz1qhZ1bKCF8upNp/h608du8qFJF+HuuYFAkHgGT0YBRb2bD8LWzdtdpUW5W948uH7/19hyq014hj+mXj2cl/m6xs3/aGu/nLelMkFNQ+sWfPdcloRHsv/ZNCxUQKjToCK4VFHTg9ICQD8+i9vfOPoyfPfLy6ZZX5w/VpSGRYRAI+bQSjqAiRcwRy2OJDCr1oqxkuSQmIYVx9xtS8kmELNHoYF1PWCclhIXr/YC4thCdcvccUx5J8Y7pQ2nGsbCgG7JojVIajpBXg8LPDXFvup8Vxqow5sz2hq6oE3X3sdnA4HPLr+ISidNZmIYWytwMXeoKR2cCPHwnaDUCrC8O94gZp6HPV4w3/HVUXihcbVaNwEBC/qQiz4gyI4hobA6w+CXqMFXquBuOgIVdDLCjA8AxoO+4FFQFiQ4wWDpDmFBIoskmo8rtxiSwFSNGC1ueDV1zfDuYs1sGjZcphXsYDsQ1KCavIFuZ0Q1WYY5MYBT5jauY/BKRn45gQnTuAqKceCqODUDA3IXhHaGlrh1P6DINkHYNWihbC8Yj5EhwtkYRluR6IllgV8QzTs+VY/NcNWA3LzwQJg42xdUw9s33cMzlxqgOjkNKhYuQziM+PB7nMAZ+BVQY75KirPazdXOK6NE8hNgPo1mRjBcePrMK0WwrQ8mAUNmAUGdNip4wcwaFVLzdHDNfDa5s3gFXSw/qmnIDs3nsTE4UQUGeEmIbihC45lU8c9nGZC5oLE0YXsMMPJGviGSuFA8gKcOV4J2za97ctMit343Oee/mpuomXgVn9m1Hc6o97etvt7x06evi8nK7PlvqXzf7xs9uTjt7o/+j5KgBKYmASoGJ6Y80rPaowT+M1fXvvigSMnf1JSVha+Zt2DJE3CE5DIIiaOCAr1BIZ7NwyLH/I1ojfV/wshc/qwbWFYAA97e4crrsNieBiL2muNAQkLPyxqh0XLddyGxfe7X8LvIJIsJKCwFAwSKc6ChuwPV4exvsGSq7GhHbZs3gx2uw3WrX0AZs6cRkQyjnLDC9BwlZbBkXDEzoEtFjL5HZcRSRMKrHSJJ1cm+bkkXQ0/xceVTOzIZbG9A8CPfQMKQ6rqeP+EDNZ1WIzKOL1CtTKIuJU1VnIkvi6Ul8zzpCqMj0LeG7JtSIoA1gEnvLl5G5y9WANzKxbDnIXzQaMTICDjbF6cwoAXMAbIoGSs7rEfWlGrosTfjWPuSNKGCIygURubEMEXhON7j0DjufNQlpcFD61YAoW5SaQirNarARQRZ/uqDVDUOb1uFtTeIGTfQ24/gKCDUxeb4fUtu6FzyAEzF8yH4vLpoGgZUFh89zFcnR1u6IFTLFQbQxA3lZDVujb+pWEZMAgsmHkOcDM2HV7UaXeB3+kGt92hzoeMoLq6Fg6fOA26+FhY9+RjkJWdTHZg0AFJiECySKr2ioy5vhs3R+YGP91Qr27yVIMlOdhq5z2PA4vhC3Bo555gTKRpw1e+8Mlv5CSYrbfyca5t7s/euOvwlxubWxYY9Qbr6hWLf7ZmfsFhhiGPVuiLEqAEKIFrBKgYphcDJfAxEPivl996aseeA7+aOW9+7Mo194El0gS+oAwiEgE3dsBpB2pKwbvWhOHq8HDuAf7wEjctFl2hfGEsMol4us7bcL0FYdh6MLzoS8F5uaHth52d14R0qPp4PR7VFRzaP+nWpmYSYy8qlpTq8jHVU1xf3wFvvPEGuN1OePDB+6F01gxSEVZI5VC1Sigh78Y1T/Owtzn0OxazGAauXjLYIxCyd5AxDn+dVKhVL60sKSTLlsOP/QWWpCHoNLirGpCWw3gBH24sgd/PsRxpIIHHgW0NWJzhZA6OVwOfrTY/vPLa21Dd0ARlc+fDjLJS0Bp1RMzJgCPGsKZS20ljMSxfq+IywIYEJq5ekyYdgka9UQgC2Lr6Ye/WnSDZhuDpVYtgVUU5mEMZ08S7jOPmAn7QaXVkHO8RxKQtNmmLptpYWA5EHCHnAnhjy17Yd+ocxGRkwMr194NgEkDhcIU2dHMQkEAJioSJJAZIoxW8ABDH9eGYtGDABwruBBgIAPJ7gyjoD/CyKPtcTiQF/OBze5FzyBFAiOEYTghz+HxaISoSHn36SZhSnEG84kwoXQSLYWwhYXBF/poYVp9uqJem+nwDNzvB2wX9Ehi0WlACALvfOQjHDhzy5mel/N9TT6z4UWFKiu1mP6KVTYPJew8c/fapcxcrIiIiB+eWl/3nJx4o3UKF8M2SpNtTAvcGgTEthseOy/PeuBjoWY4egVe37Jy7cevuF9MKirIWrlgBqRnxwGmwdUAhWb+htXShCrBaOR1+EdkWEkmq9zMkmkOicLiKSIT0DZ/w4b8TIYLfh73BoaowEYih7VUB9t52w2Th3PViGOfRhrJ2EXCqsEVYYAK4vRKcP38Rdu3eTWK91j78AOTmZ6vjISv8JBAYAZSQZ5iEqOHx3+hxlhWSmoG/T/Jvia1DtYXgv5PWaRyr5ijjZiOhEaomBjXRgWyHlSiDTR08BBSRvE/AAjVUmcS2BjV6ThXdgSBAR88AvLzhDbA5PVCxZBnk5OcBq8XZyjgfWSI2BqxusdiTsP95WAxj/U5K+mr1VY1WU4U8I7FQeeo8nD10HNIiI+Az61dBcW4K8WwrsgxaDncOVBUj/jtu1RxKwSM3SO9OJz42niMW/H4AtwRw5HwTvPzOTnAzDMxdXgGmSAsEZR8gWQbRFwCvwwVepwv8Xh/4vK5rnQYRQgqSkYRwjIQo+RlZdPJIHuKQ6EYBUeSQJOn1eikqPAKvfPTotAYfK2gSmjs6yh1iMGbd44/AnHnTyOWJbw+wHRt7gfF5qBzUa+ldD/pwXVg9BTy7xP8NHEg+gI2vvgVVp88NLl5Q/tNHl97/P4mJzE21OG5rs0dsO3bmq4ePnnicBcYzb86sPy1cvvzFwljmA1s8j94nnx6JEqAExiKBMS2GxyIwOiZK4E4Q2L37cMrL23f+j13Rz1+4fKVpclEBxMQbia8Ur8DiyKInLBNClVhyUFziww/0Q2XjYZkRsiaE4myvCeD3pEjc8Lh9WAxj1U28oqGIMzWJgphs1cr0DWqa+GGJKB42TKjjIx3ikJoZPGjzQXt7Fxw4eBi6evsgLSMVHn74IQiP0ZNsYp0+1FYZe1iJsFUl0bBgItIpJMbx18lwsDgkmb2c2ogDCy88jpBAxD5rnIqAq7zYhoFf73cz/W5yBbYOhMQY3keocx0RdBJAZ/cgVNXWw449+8EYFg6rH3wQUtJSyQIx3NkOi21yHMIOgcSqi+Tw/gkP4s/FlWYJdHot8UfjhXUCEmDP5h3QXFUHs/InwbPrV0JKtImcE3ZwyHhBG7YW4KQNnCGnWrDV34m+xrOP7QXqpKOgAoxOD24RoLHTB79/8TWoab0KxugwMEdaIBD0kKo3CogQ9PqwL8LFAnJzSPEqiujjeM5lspgDYRazUyvoejQcZzPptZdjw8zNEZFmu0GjC5i1jKTTGyS90SwyvEYymcyo32ZN3L573zfO1NY9sGz16rDFyxaDzqBODM6h9gdlEDT4MYDace5dMTzsFsYNOfCTBQBRlsHI6SEYRGDrGYTNb2yCzqbm1rUrV379U+sWbbqZzxvO8D6w5finDx4+8VmbbQDKS2dsXblswW+LsuP7b2Y/dFtKgBK4twhQMXxvzTc92zFE4D//d8N9hyqvfFcSDEXJacmGaSVTIDsvAyzhGiIqRMkHFp0OP7y/9qwcVxpxMRTHmJGoLCyORTUNgOdxRNm7j9VxbZRUUrE14LoOdEQohnJmJQZLEiys1IzZ4SSKa5VYViDNK/CLZ3HDC7V5BBbDuDEDrmjix+NY1eBOcr09LqiuqofKyhq42t4JRrOJ5Avn5GSBjBeT4cfnOJ4MWw2wrxQbb3FpOlSixp7bD/v7tVJ2qFKuxo6F0iiG84uveURIU+kbZjz0d+JNxovhZOBw9zVZIR5m3BXOF/BDY2MTXKqpgYAMUDprNhSXzABzmIVUPPEiOpIigc8lFKkm4upwKPIOsyYVURyei9ScZNw626wzgtvmhMM79sHV2iZYOnsmPP7gIogP00AwKIOWV4U+3q96XmrYs+oOD3URDAlhlpwj+SoEAwiQVoArvQo8/+pGuNTYBIxRAI2OD4h+j11g0JBZa3BFGi3WSKO5OcxkaosKt3RZwvQ9MRERg5xW9up5rS/ImTwRcnSgsJAZUWvhF97Zdv+mXQd/G5+anr72oXWQnZMIbj8CQau2wcYiF9tS1OtFtUPgc8HM8ddwCofC4iWguCbMgNvhhcaqOtizbQcIonzy808/+YV503MrR/qRbUJI23Cqcf07W3d+faB/kJ9bNuP1x1YsfzE5+d2mGiPdF92OEqAE7i0CVAzfW/NNz3YMEWhqatLuudg78+Slmu+0tbeXRMRGxOROzoPM7HSIjYsEo0kLcbFRJPoK/1Ift+MFb2ouLxYUuIMZUiTVn4mFGSmXolCjCvx33BD37yUh1lJYnKqeYVXckh8G14lm0oiBVTuHYdGNX1j84UVexKohAditLgj6ZLDZ7KQjXGNdE7S3d4AkKqDTGXCLaMUUZpJ1Oh0rI5EJSAEk4zQHBj9Gxy2BP3wtU8hv+n4/p8jXmGvGDrJqLTS7IWtCqHud+sVQisJwyHBogZ6I7RRIrcaqjScENTMZc+E4yJ1SCJm5uZCekUFaIQfwoj8c78YiUvXF8XcKFrA4Y5msnFO75uEqMI4pU8Uwr1aIeQG8Aw44uHMfXKluhAcWV8C6lXMgyigQ8SiEdLoqf0OM35PRixe6DT8pwNXhkP2D1UAQWGi3KvD7P78MF+vrIWdKXkNmZurRxJjokxF6fVdUWPhAjMlki+Z1g9HR4L0T3tmD589nv75t7/909g0snr9oESxethQ0ep4koZCEEvzUgVhpVFuLKIlk9KR6T+wrarvmoIRHL0B/Vx/s3boDGquqehaUlPzh0YfX/DErMtIxko8sQkiz41zdyh07Dn6trbM7ZkbR1B1rVi77XUlW5G1nFI/k+HQbSoASGN8EqBge3/NHRz8BCLyx99yUC9W1T7d3di0cdDhTGEGIjE2I18TExZBWugaDDszhJjCazaA3GgCv7yL2XAVAy2JRpHbxItXeYR8wMKSiixeSqQvk1Czi4RcWUrgmHGRxNJoqdknQQqgMif+In9L7/Gr2MRHPMoAcRBDw+cFld4DLaYfutg7o6+2FjvYucDvcPgYxdq2gs+kE3aDA8V6tRiOKwQA2pbI8h1gcpiYpIsMyLMKxYSyrGS5xDivZ98yopMgkfILYiUm7veEeeqSlCM61wDpSzTQb/r4atswxDMvgTGeivNTVfUQV49sFFlheYRGPI3BlRUQqO4UTJcQDywjm6EhDZHysJis/12COigB9mBmCDCJMsacYV9tJ1zQcx4YlaihLmBwaZ+2SdX8IFEkkbaWJ31lhIWB3w+FdB6DuXCWsX74MHl05D4wCAotRp/qg8fY8R5p/kOpwqBd2yIEcSnbGp6E29WAUPyiMFoKMFjoHAvCHP78E1Q2Ng8tXLfnDjBmTNyWbda15MTGuu/ExqUVIc3zj9qfeemfbv0XHxyeteWgtZOTkgN6kBxb39iBtunHbZdJn8FrLcLVhDEtylxGDvdcsqQpXnr8Ae7ZsVYw64ehnH33saytml1wYybjxHB+tbZm9afOOH9Q3t6aXTJ92Ys3Kpb8sy0moG8n76TaUACVACVAxTK8BSmAMEKhqa4toaenJrL3cNrO9o2dhn82e4XS7YjQaTbjeZAyPio5mIuNiICIyEozhFjCHRYDJrAWtRgGdlgOTyQKCRqNWLfHjdizOSPlWNdYOmwWuLbYjEWVqrnFQ7fGhCl4RIOALghgIkuqe1+Mn9gGPxwM2mw0cA0MwODgINusAuJ1DElJ8bkWU7DqN0Jscn1yfnZV1ID09uyXaYurRGi1BnQLI7/cyBgMJQECAl0LhBiMA4Pf7GAC13TQR49cAACAASURBVDD+nv6GzhsMwzB+XKQlf2AYlvUzLMswgVARG38Zh3+R7+N7gUCAfF9k8VuAkUT1T1gVszLDyizDKYrEcSzLySzDsgrDSYBvGDisLJmAKBt9Aa/BL0uCwnFZoOfTkEbIUnR8gsgzkUFQLBIgI8sLDBHEBCbO8cVV9lC0GokVU0DAXeiIwMYWFizVsUhmQPIE4eTBo3D6wDFYMXcuPLVmCSRFmkCLG66Q7n0SaPC+VWVPKtrv1rsxKbWSrs4n9uOKpBIrska43NYHf3z+r2B12GueePLhrz46e/q+u31pX7hyJe2lF9/8RVNb24qcyZPDSmbPhtzJBaAxacDrF8FoFEIdCdUK8XBzlmE/O3bJeF0euHDmEhw5cBA89v7mijlzfr1+/pwXU1JScIzyh75wQ59TdU2lW3fs/9ap8xemTJkytfLRR9b9pDwn6eJHvZd+nxKgBCiBYQJUDNNr4S4QoDkgtwO1trU//mLD1ZTGxssz+62D5Q6nM9Pt98bICIwKMHrEclq90SyYwk0c6FjGaNZBREQUaHRaItBwMwkijrUa0OHOYaHWx8RaQVolq7myWEsGvB5QRInEbWEzctAvgsvtALfTBcFgEHw+n+LxeWW30yX5fD4R4bQBhvUZNTqnTsf2xkcbWtKSE6ryC/LrsjJTm3Ojo7tu59zHynv7+5GpD3mMARSM9fFKnA/kBAmh6SIDGTJiohEwkQqAGSGkVwCZZI7VAMsTfY5FLzZL4CYekhRU0yx4bJBlgJU4qDp3Efa9sxNyk5Lh0+tXQ0lBGkkPwV5wHmdH45zlUJY0/pP6t+FlaMPBeqpMZgDLeSyJtbDr4Gl4/q+voLjEhP2f++LTnyxPSRmVudh+8Ezxvn0H/qOlp2tWfHqGqXTuXMguyANLlFnNYg616MY3XJpQFjR2xwT9CHz2Iai5dBFOHD0F1p7enlkzCjbcd//KX5ZmZPSO5Fq41GKdtHnbtq9evHB+UWpaUs+qlSv+deXsaYdG8l66DSVACVACVAzTa4ASGAcEajsckV1dXVE9PT0RdqcjweZ05/YPDOXYXZ5oCckajyzq/WLQIOGWaYD0kox4hmE5VsDqi2FZjsNhXSyrRiCgkMsAsSwrcdiAIElIloIikmQJF0d5hhEFnpNYnH0GishrBBFACei0Wk94hKU7OiyiISoq8mp8XNxATHi4PTYq0pmXZB5imGuG3XFA9daGeA4hQXa5LJKihCOACAkgQpYC8UGkTJUZNlpiODMHKEyWGQMrKxae5UwMx2uCSBQQy2oYRtDyrKBrb2qD3Zu3g+x0wyOrl8DqJbNBg33HohLqPCcSOwR+cazalOT6CvHw6HGihSo1BbDag/DyG5vh4LETzrnz5rz8zKOPfD8ljLnpfN5bIwOw70j11B3793yvvq2tXBNmScqbOhkKpxVBeFQ4mCwmMOj1anMPhLOfFejrs0JfRwd0NTTAlcbGgMBqW6cU5L6xoHz6X2dOnXRlJONobB3I27Lv0D8eO35sZWJM7JX1j6z+j0UlU3bfC9fiSPjQbSgBSmDkBGhleOSs6JaUwJgg0NTUZOkcChp8HhfvDgaEPofb5LE7zSIj6gIBZAj6A2G+oN/g84saBoEWITAiBhEbKw+swjCcwiEGp7jJWp1G5DjwAlJ8PMP69XqNPcxidpnCzH6B4/2xSbF+vaANhOnNATCDtyQx8aYyX8cEsLs8iBOoQ29ymHWSIOoZSWMM+hWDDIqRA94ckEW9pIBFZplIhWWjeFab7RpwTT6480B+feVFbkH5NFi9aimkJUURQcwpCDQ4dQMvKsNuaNUXrVaGQ51YSMzctTxoBEGZgTMXL8PbW3bCwJDTWzpzxsb71lT8v9xow6hUhofxHj3Xknr4wtn156qqnrQFfNmmCIslITURwiLCIcxsIckh2HPucrihr3cAnP1WEK29/QmRUZUzp5X+dXrpzAMlBTE9I5mu2trW+BPV9Z/ef/jk4xqNRlyxtOI3M++b81oOw+CWgPRFCVAClMBNEaBi+KZw0Y0pgfFJAC8yevP6ng2h03gY66rhYN7xeWrjYtQIIa4PQGf3QhgHEHdi/+mvHjp4aJXCiFHLly+BstLpYDFqgJUCYNZrQA56QcPzxNKC00Ow8QJhY3So7x0+adxxzxcAcPsk2PzODti7/zBepicnJcY1r1619E/5U3Ney4ka3Vix7m5kOFR3pujEpQv3t3S0LXD73DGSokRoBcGk0+o5WVSCfm/AJzAaW5hB11WYEH9oacW8TdFhUxpHGunW2t8ff2j/qWd27jvyuMFgkmeXzvq/VQvL30xJCRu1Svi4uOjoICkBSmDEBMaZGKZe1BHPLN2QEqAExiQBvOirqb0/Y+f+w986cOL8Q6bwiKiH162G4sl5YNZxZDGdhpFBkfwkfg6/cFMT3H9PRiwEZQQkj5kDaOv1wdGTZ+DwgYPg87oHwy1htoDHJQsaXiwoKLxUUjrj5eLMvBOxo9x97VyLLWzQY03o7OzMGBgYyOkfsKUHff4wgdfaoyOj2hISEy8nxER2ZGXFd+RERTlHOlFtdhSx7+Cedbt3HfkSp4BmyYKS55cvnPm35OTkwZHug243/gngzxC9ib9hHqk8uq0Le5yJ4ds6V/pmSoASGEUCuBpN/ZsfDPz85av5r27Z+y91Da2L01ITohfOLYPiKbkQE2EGFqmpEjimjTSrwIkRMgKG5XBXaXC4JRgY8sCJs5Wk0x8SxbpF88tfTk9JPN3c0pRbXVXzYHtPd0Z8QoqvfHbZgdIZM96KjI6oSwtnhkbxEiCHQgjxdVarzqTRCEFZloORkf5CZmSNPa4fa4vNFnb6XM2a/QdOfm2o3xkxp7T49fsXF/8hJyenc7TPiR7vgwlQoUqvjvFIgIrh8ThrdMyUwBgnsH3PwRKX3xufX5B7tSg7u2aMD/djG96JFtuULdu2f/7CxXMrw82m9LKSEmZWaQnERkZARLgRNBpSACZZ0d4AFsQALo8P6uobobq6Biov1fpZBl2ZWz7rN+uXLtmUnGwZ7OhA+vONp+acOXP2M5evtJUwDGtMS0vtLcjP3TdvRvEr2WkxtcwtiNGPDZIqqLXbj1fe9/Y727/pdLgSpubnHV23ZtW/FmbHNn+c46LHpgQogYlBgIrhiTGP9CwogTFDAC/we2PXga+eOH1mUcmssr5582b/d1pR4Qm6uOn9p+hciy31wNFDD505c3qdy+7MT0tJjUpNSYGcnByIi44BXqshHeyG7Haw2dWc5+bWK/7W1lZrXERk9eKKea+Uls7eVXiDZ/Z89dX86oaGVZW1tWt7u/vTEUjK1PzchtLiqX/OyczbnZYWPupV4lu9SPecqV+wbceeXzU3tiSVlc44vXLRnO/NLKI3WbfKc8y+jz7qH7NTM9EHRsXwRJ9hen6UwMdA4I0dBxbsPHjwazZ3ID0pMaVz6eLFz8+enb83nmE8H8NwxvwhK3t7jY21VwovnL34RFt713TnoCslIiIqjOE4HgFiFUVBQSkgSoro1mqFvvCoiI4Ii+n0kgXzD+QmFNakpDDv26CiFSFd5/mmouqa2sfOXjg/L+jzxIRbzI6iwvwdc2aVvRYTk9482n7im52Mk5e78197bfO/tzRfKS7MyWlYu2rZ98tmZJy62f3Q7SkBSoAS+CACVAzTa4MSoATuCoF9Z2pmHjx17qsXL9VMi4yO9M2fVfan6TOmvF2SPrL4rLsyqDG+05YWW1h7b29KTUNjbr91qGxoaCjC6XAZREWSLRZzT1xcTH18Snx9ZmraQHpObN9IWy3jJiKXmirLz58993hV5aV5DAI+JSW5cUpB8ZbpRYV78vOTm8figqTzHf3ZO3cc+sahQ8eW52Zldj6y7v7vzJ+WcXQsjnWMX1p0eBOAAPVj371JHGNimD4juXtTTfdMCYw+gSPVHVMP7D/wparamnk6jcZZPDlv39w55a+VT82qHv3RjK8j4mqxZkjSuVyiIIpOJSpK68vLy3Pdzlk0Nw+mXKi99EB1VdXay41N6SyvF3Nz8html898eWpe5uGEBLP1dvZ/J99b1daXuWnnoe9dulS3NDE2rHfxnPJfTF02ayu129xJynRflAAlgAmMMTFMJ4USoAQmGoHGjoGko0dOrz9z/uzaPmtvZHp6+uVVK5e/nDy7eMetpApMND6jfT79/f2m3l5XxtnKmocqay4/3NnRmWo06jvmzJm5ubSseFNypLkhNjbWPdrjuv54zS5X7Ja39377wNHzj+gEgX/26Yd+OGtS4itRNxHD9nGOnx6bEqAExhcBKobH13zR0VIC45IAQkhz+PiFWfsPH/nn89V1uZHx8YE5s0r/XD4tZ2tRXl7ruDypcT5oqxWZ6zqapp05dfYfLl66VBzwOY0pSQkd04unbC6eWbw/KTOzLYphRpwBfKdwdHR0RG4+cuq5E2drn0QKL6xesfR/F87NfyHZYqFZwncKMt0PJUAJvIcAFcP0gqAEKIFRI3Cy+nL+sWOnv1JZ31Lu97oD0yYlNmSmxLz52GNPbWcYRh61gdADXSNwpc8dV1lzcVH1+apHGi835AWCXi5/UkFrWVnJpqK8yduTkiK7bzUvGmcM22w2g8Ph0HsURSNoNLLWbPamh4e73m++O53OqINHjjyyeceBLwSDYFi1dNnGmbNm/Ib6zOkFSwlQAneTABXDd5Mu3TclQAn8HYGmHlfM6dMXF5w5c/rR/rbaxMgwfdUnP/mpH5aWlvZSXB8PAdwgpa6lJfPw8fMP1VfVP+ByuZP9/mBw4aL5Jydl57yZUZh6JD083M0wjPRRI8QC+MqVnsTmzo7sPmt/lm3IkWO1DSR73P4oRqNxR0dHdMTGJ9ZFhoV3ZSYndWXGJbWHhTG2FhsKO3P26NL9hw5+q99qi5xbVrZ7zX0r/j0/IeLqRx2Tfp8SoATGCYExujSMiuFxcv3QYVICE43Audru1GN7314qST7mgQfmvpGTUzbqj+QnGtPbPR8sZJuaenIOHz/zqUuV1UsH7Lb4hISEwYIp+afzc9PfTs1KOZ4W/v75xPi9Va3dWZWXaisu1dYuv9rZnSPJciQwjInTaHUszwnBYBD5/f4Az/M+o15nT4mN7JlSXLQvKyt/t8Ptzdr6ztbPdXe0xlVUzN1aMbf8v2Zkp9CmGrc7qfT9lAAl8JEEPlAMj1Hx/pEnRDegBCiB8UPg3DkkREVd5TIyMvzjZ9QTf6TYOtFU31h6+sz5ZxuvNBd7vB5LWlpiX3l52evFRUWvaxKirmYwzLU560bIcPLQuVXHz5x/srKuZiar1UfHJSVrw8IiICwiHKKiokCr1YLP5wOr1Qr9/b3gdtjB5x4CnuE86Rl51p7OHs4+aOMKcjOOPvfUE9/NSQ1vmfik6RlSApTAWCBAK8NjYRboGCgBSoASGIMEcBLIiZMnH71UXftEn9WarhUElJGW3lBcWLSpsDB/S3ZK2NVmGxhPXTpz3659+7/bax3Mj4yNY4tnzoTJxUUQERUBBgMAywKIIgAL6q+BAQf0dHXDhYvnoLGuEcQgAr/bBzkpyR1feObpz8+aFLOfYZjAGERCh0QJUAITkAAVwxNwUukpUQKUACVwpwg0DQ5arN39kyvrmu67cKpytW3QkZISlypm52e9PX3e9A2tbW0Jh04e+VZ7V09xRk4OlM4uh6S0dLBEhoGgBeAZAAQAYhBAwwNoWYBAUAGb3QWeIIJLlTVQdfESDHZ3QbRB3/nlT3ziM3OnpmMxLN6pc6D7oQQogbFCYGz6DqgYHivXx3gax9i8lscTQTrWWySAfakjWcR1i7unb/sQAh0I6euPVpWfu1DzbFPD1Tl2l5M3xZmcQUbUO7zu9LSsTJi3YD5MLp4CMgPAcAAyAmDwnxEAUgCUYBD/DzS8ALxWC1jtWgf90FjfAEcP7AVnV09wRm7ey1/45NP/khxl6JwYE0J/YE6MebyDZ0EviTsI887s6ubFMJ3EO0Oe7oUSoARuisCBA8cKL7e2L09KTr4SH5fcnZ6UUR8Tw9xWR7abGgDdmBCou2pNaGnqXL3z8PGvtPR05vY7B/ni6VPg/rWrISE5DgxGPQQkGQSeV8UwLgvjDk/4z8QmIQEgiVSLWV4LogTgdDrh0oVK2LdrJ4Df3/y5p57+2prZM7ZS5JQAJUAJjAaBmxfDozEqegxK4KMI0JuyjyI04b6/4Y3N6w8dO/sZr9cfHhUV5y6cmndqckHG3sjo8KbclJSuCXfCH9MJjeSj1d2NDDtPH/vG9iNHv8cZdPys2dNhZtl0MJk1wAkcSAgBy/DA4LIwAmCx8sUVYiKGFUBIAmAUYBALCFjw+PzQ22+F/XsPQH1VjTR32rS/3H/fsu9OT0gYM+2hP6bpoIelBCiBUSBAxfAoQKaHoAQogdsncPny5cwzFxrur65tWN3W1p0tIj+XmBJ3NScv68K0qdMOpaanVKaGhXVQr+nts/6oPbS2DoXvOHHqK1sOHP5/k4qmaJctr4CU9AQAJggKg4DjeUBYACOO2CQQA8Bd2yn+hgwI/0cqyFoISBKpIl+8UAk739kKyOe79IUnnvjUstJplz5qLPT7lAAlQAncLgEqhm+XIH0/JUAJjBqB7u5uQ2f/UEZVTdOChqbGivbutgyZAbPZaPFlZWS0Tp9atCU3J2efITFyMJFhvKM2sHvsQJVNncmvbtzy23P1V9ZWrFjOrFy9BEwmAEkBCEp+4DQCiEEJWF4AQCxJk8CCePiFQAYGZAAFAc9qiDTG21mtQ/DOxk1Qd/5Cz2OrV33/M2tXv3CPoaWnezMERvIY42b2R7edsAQQQgzDDJu2/v40qRi+xoR+qibsp4Ce2IQk0NBuTaxuaiy63Hx5fV1tfZFtYDAizGj0ZaSmt+VNyqlOTYw/lJOReDY5OXlwQgK4zZPCixFx7bYTQAOdnZCcnCyNtKp+vvpy/vMvb3q5fcg1fdXaB2FhRQmwWPfi1AjRD5zAgoSVMcuRXwywWOsSm4RCxo3/r4AWWAjKQRA4HQTwAjsRwc4t2+DEwUPOudOm/88/3L/k3+Lj4z23ear07ZQAJUAJfCgBKobpBUIJUALjmkCd1ZPQ1nw593J98+yG+rrZ1r6eZIFl9WEmY2dpyZStC+bN+WtWVpZjXJ/kHRo8FsBDAEbe5RIcCEVcrKpfOtjXm+G09ysZyUlnyqbP3B0bG+v+qMMdP35h9h/+9vpfFGNE7n0PrYdp07KIvGV51Q+MNTCRvIgBxLDAMBwRyrg6TH4PCWIdMOANesGgMQIJFZYBdm/bC0f37w9Ozcza/Oxja76UQ33DHzUdI/o+LfeMCNPd3YhOwt3lext7p2L4NuDRt1IClMDYIXAOIQE1tma2NlyZcrmxfllPV3tkclJ85fp19/9PTk7OOFuIdef+1ezvRyadDnQ+JWDpsVmjuzq7F7S3t83p7u2Jb21rjfZ7vayORd1lRVPeWrJk2Qt5eXkfmdBx6HTlvP/72+t/0kYnTnroiSchJzscZFzZBQQMo4Ai4w4bDDDAAWKwIFbFMBHIIUGMz5ADBWRZAoHTkJg1yQ9weP9BOLRnjzIpKWnLZ5997Lm8mJjusXOV0ZFQApTARCRAxfBEnFV6TpTAPU6gru5qgtXap7MomqFpFdPs9yIOhJCmtdVZbHXY8q0D1sm9/b2FXX3dCf19fWGD9kGD02n3xyXEDSbFRTdnJifun5qbvqukZF77SFjtO35h9l/eePt5N6MpfPrZZyFnUmIoLQKBoAGQxABwHEcqw/gbODFCCSVL4C9hQUzqwzLOHNaAhP8oMRDwS3D+9BnYt227lBIbu/Xrn/3Mc+kxxp6RjIluQwlQApTArRKgYvhWydH3UQKUwIQiUHflSprH4U0WDGGiwHO9uogER1YkM+7sFQgh9uyJ2hlXe3oWd3b1rOodsKZbrdZwj9+NJCS5zBZzd3p6WlNqWuL55MT4y7EJCTXF6ek4hUMe6YQePl+d/+fXN7/Q75VmP/joepg9ezJeCwc8CyArImh4HkQpQKLTWA5bk1mQZAQIMaQZB15Qhw3EiiIDz+L6MFlLB163BCcOH4W9W7d6pk6atOHLn3niWylhYbaRjotuRwlQApTArRCgYvhWqNH3UAKUwIQiMDg4aNmwceM3Tp6pWiLojLqw8JirEZFRbekp2ZUJiTFt8VFRXYKG9xtYTdBsNniiohjnWAWwb9+pqW+/vfmbNrstDxjWpDBsMCzC4kpNTW3MnjTpVEZmyumYmPBeX2zsUCHDBG/lPC62DoX/9a3Xfnq2puGZlQ+sMaxcuRgMOgBJBkBIAQ3PQiAYAJbFfmH8S00YHrZK4Ng1BSdJCAzICFslGOBYBgZ6bLBz6zaoPn+hc/WSxT987tE1f7kZkX4r50LfQwlQAh8PgTtnBrv98VMxfPsM6R4+hMBYutjpRFECH0QAoVrNhk0Nnzp5rmqF0xlM9fvBxLJaDmRGNBqNPpPB4NHptQ6T2dAbEx3WFhUd3qzVocHM+PD+goKC6jsp2HBlt7nZZhK5QISe4QP9/kHR29vrqKiokEYygxcvXkzfd+DI4wzDWnLz8uqNJlNLWITJZgwLc8gpKQO3KoBvPPYf39y5btuBw/+ZO6Uwdc2a+yA+PgKCokKqvrwGV4JF1Sqh4EV1iPiHOQaXhEMvXEXGEjkUMaFIAI01DbBjyxbwORxn1z+w6ovrK+aeG8k5021GmwD9yT7axO/88egcXs+UiuE7f4XRPVIClMA4JIAzjJ1BNq53wJ7e1TFQ6HD6Jg10D6Q5HC6Dw+7QilJQJ4o+TlRERqvhgkYD59NrAn0zivNfePrpT+0dySnjY1RXN2Z6Ar4oX1DR8ToteLxKuCQrepZheFlWBJfHk+gassd7fJ5IFpDosNsc6Wmp55fOW/R6ScnIUjGwoLZarYaRJEOMZNzvt82+Sy2T/vzqK3/2K8qcFStWwMyymSAILC4Aq002OCBeYEWRVDHMcIBD1ohVglGtEqICoOXUyLWBHjvs370Xzp885S+clLnxofWrv1GSnk79wrc6QfR9lAAlMGICVAyPGBXdkBKgBO4VAjigvasLIlkWjHa7U2v3uE0uhyO6u7cnvbOrK8PpGIxiGIkDxekpnjJp2xNPPD0iMfzmm28v3Ltv/+OIFRKdPp+e05oZMSgxkiQDx3OI4zSKAowQSibjWUX2y5J/YOrUyWdXLlr00vTpH5yK8VGh8nd67ip7e41vb9z9rZPnz30+Ny8/ZvX9ayAlIxk4DYDHpwDiWOIPZlgshHHSsPqSZQUUNWyYVI2JRJYRNFTXwdZNm8DR19+8fu19P3rmgZUvMziagr4oAUpgDBOYGBVmKoZHeolNjPke6dnS7SgBSuBDCLS2Ip1e38cNDg6KhYWFI/bd7tt3OupC5dnZgsEY7fcHNYhhEMsJHl6j9fI8r2h4nSgIfEBnMIgmrUZj1Ap+VhCsCZHC1Zs5zmhN3oGq+hmvvrLxFx3d3XPK5s7VzZ43BzJyUgH7OWQWIIhNwkQFh6wSCFeE1dVzWOZqOAC7zQudbe1w4uBhaKyuGZqal7P5ycce/VFRenzrjedBfwyP1szS41AC9xYBKobvrfmmZ0sJUAKUwB0l8OI7u+fv23P4J0EGZuUWFggl5eUQk5QA+nAdEcVYDOOECVmWVT8xz4MiIQj4gsAiDhqqa6H6/EVorK4dSI6JPbBuxaqfr1pQfPGODpLujBIYAYHRfroygiHRTUaJABXDowSaHoYSoAQogYlIACHEvfT27tWHjpz6/qDbOSMzLw+y8vIhIT0F0rPTgNGoZy0jAI7BNgkAu90O9gEbNNVdhtqLleC0DXYnRMWeWFWx6OcPVky/wDDMcPDERERGz4kSoATGGAEqhm9jQuhd5G3Ao28NEaAPfumlMP4JtLa26k5daFl99PT5r13t65tmiozWJWdkQUbOJDBFhIHRaARgEchiEDweD3R2dUBPezt0NDX5NAi68iblHFu8YMHvls7MoRXh8X850DOgBMYdASqGx92U3cqAqeC6FWrj5T10dsfLTE3sceIK8aEzjdNqGpo/UdV4ZVafdTBRZNk4huUFQRCAFViQxYDkDwREjgWXUSt0xIabL0/Jyd0ya1rRyekFiW0TgRD9PE6EWaTncK8RoGL4Hptx+oP6HptwerqUwCgTaGmxhTXbbCmdnb0Fza1t8wZtg8lut9PA8DzoNYJHo9XYomMim5KjY05lZCa1LplRgLvfUVvELcwTfTp5C9DoWyiB9yFAxTC9LCgBSoASoATuCoHWIRQ+1DdgsLmGdPgAJo0haI40e33JFlcJw4h35aB0p5QAJUAJ3CQBKoZvEhjdnBKgBCgBSoASoAQogbFMgD41uLnZoWL45njRrSkBSoASoAQoAUqAEqAEJhABKoYn0GTSU6EEKAFKYKwQoOsTxspM0HFQApTARxGgYvijCNHvjy8C9F/g8TVfdLSUACUwxgjQH6JjbELocEaBABXDowCZHoISoAQoAUqAEqAEKAFKYGwSoGJ4bM4LHRUlQAlQApQAJUAJUAJjjMDEfHJAxfAYu8zocCgBSoASoAQoAUqAEqAERo8AFcOjx5oeiRKgBCgBSoASoAQoAUpgjBGgYniMTQgdDiVACVACY5fAxHxEOnZ505FRApTAaBCgYng0KNNjjDkCNJB8zE0JHRAlQAlQApTASAnQ+9KRkhrRdlQMjwgT3YgSGK8E6E/M8TpzdNyUACVACVACo0OAiuHR4UyPQglQApQAJTDqBOjN4Kgjpwe8KQL0Cr0pXHdtYyqG7xpaumNKgBKgBCgBSoASoAQogbFOgIrhsT5DdHx3iQC9H78eLPVQ36XLjO6WEqAEKAFKYMwToGJ4zE8RHSAl8PcEqJSnVwUlQAlQApQAJXBnCFAxfGc40r1QApQAJUAJUAKUACVAeLgX9AAAIABJREFUCYxDAlQMj8NJo0OmBCgBSoASGB0CVXYU4dNCuE4HwAP4Chmmd3SOfO8ehdq27t25/7jOnIrhj4s8PS4lMIEIdCCkt7n7zCaTJpDFRDrG86nRf4jH8+zd2bH/rbJu+vHLVz7bOjhYzGr48ORoc/uK4sk/fig188iNRxocHLR4IyP5Ab/fotGBYgBdfwbD+G9qRNT/dFO46MY3Q4BeXB9Gi4rhm7mW6LaUACXwdwS29LTPPN3VuaBjcChDy3Du4tSss/PiY/ZPDQ8forgogfFKAN/g/ff+k98/0t72KSvLxgPPgEn2wrqiyT/4TtGMnzEMIw2fW6PXm3S+q3dlQ9A3uXVoIMes1w3lRkecnhERsWeuJaZxvDKg46YE7hUCVAzfKzNNz5MSuAsE9tvtWX89dvhHZ/oH50umsHjXgF1J5rmmZ2fN+PVzRVNeuAuHpLukBEaFwMUhFP5C5amf7G3r+qLDaAKGZ0Dr7IMnpxf/+CeTp37/+kFsqG1Y/+LxUz9r5jXZPr0OtEiGcLfz6hfmzvrl9PzC50sYRhyVQdODUAKUwC0RoGL4lrDRN1ECd47AOYQMLLiNPJikKQAOhmGUO7f3u7unDT3W+36z9+AvO/WGfJvCQJjOAHxfD3x6av5/fXJW8T/f9GPiuzvcW977RYTCWXBrLGAKZjCM/ZZ3NEbeWImQUQSwBAEC5QxjGyPDGlPDqEIo4r9PXvrR9ittz1m1BtBoeDC7B+ETRYU/+unkgh9cP9g/Xb78xO/2nHhhMDpR52IE0EsSRPtc8HRR3rc+WZL/x3iG8Vy/PbbinAeIAgBBAHBOBfCNp8/9mJooOhhK4A4Q+BjF8Dj1rzAADAJAdwA+3cW9TaAJIe2ehpr7LlutcweHBlMsnDCUFxV5dm3ZvJdTGMY3Hui80j7wwK927vptt8mYhsIjQMtwILZfgacKcjY8PW/2c1MZZlxbJS74htKO1TWvudTfV+bw+yPjzPru3JjIU6umRv8th8kJjIc5unGMr1XWPHa2d3BenxScEmBlz6TomINLkjPfqEiIuDoez+dujbkJIcuvT1T/eGtr++f6tQaNIAgQ7hmEZ4oKfvHTyZO+ff1xX7za8tDv9hz9S4c20ox0ZjAjBBanDT4/d+a31uan/p0Y3jXgKD3c0Ph4VV/XZF7DBHLDLFXzMnL+siYlpelunc/Y3e841QJjFygd2S0Q+BjF8C2Mlr6FEphABI5Z7SX/tv3An1sCvjRRCVrMICqZPFP33MqVT61ITq4cD6d6wuae8urJU9+s8joXdnocyRqeg8wwc/36wim/Kc/I2pDHMK7xcB4fNMaN7a2P/u3E+Z9VeQIZDkmGMBBhRkJE1ZeXL3h8vjaqbrydWytC4b/fs+/Fbc1tDwxoOQjwCFK1Os+zhTN+8I2pub8eb+dzN8fbgJD5v07U/HxrS/sX+wUjcBoOwjw2eGpa/n/8dHLONxkGl0XU13Z7d8mrZy78uG7QtdDtF7URwMjJgnDukwvm//L+lMSN14/zIEL8sfqmH7xy8szXncZwfcDvhVTk9d1fmPOrH5bOeY/94m6eH933KBCgOn8UIN+ZQ1AxfGc40r1QAjdNYOeAuPjn+0+92CTKyUgjgk5yQ6LX1fetR1b/w/2WyG03vcOP6Q37u6zTu1kpu91uyzfotUpaVGRThkl/ahqjH/eVxpf7B5/9/faDL1zhjYD0BtB4h6DQzLZ/c8XcJ5fqI499TMhv+bDY7vHHg0c37OroXuEJs4BbESEqEITnimZ973v5KT9nGEa+5Z1PsDdiMfz8idqfv9Pc9sU+zgCcRgCz1wZPzij45c+nZH/zRoHr9PQX9Lj8xX5fIM7M897MiIjaWEZoKDSZ3hPFhsXwgZq2b/719JmfuMMTASEEsV4rrMhJ/N/Pzp719UKGcU8wlPR0JiiBiZS8Q8XwBL1I6WmNfQKb7WjJv++8+EKjz5ca1PqBk52QLPv6v/PIQ597wqjdPPbP4L0jxKvv/QBCEMBfyDDB8Tb+9xvvSwPS0796Z9dLXbwROKMR2KE+yNdzTd9Zt/KZJQbm5Hg7x3MIhf1y95ENJweGVjq0OgjICkQHZfhyyezvfTM/CickjBu/+t1mX4uQ6YWTtT/b1tT6pV7OAIzAg8XngMdL8n/x75Nz3mOTuNmx/Oh467c2nLnw/QFzjJHX6SEyOAgLc+JfeGJu0ZfLx4lF6mbPmW5PCYxlAlQMj+XZoWOb0AR+2ys98L/7Lv66W4FMUR8EnnVDNAo4/mHFoufKjMbtUQAMB8AUAAxd/0h2GAr2HPMAzI2L1PDXbV0DaaxWywQg4JoTHd33QRU/7Iu0ulyJPoBIQRAEBUBh/Ipbq2WsZr2+/26I2g8aNz6vaoTiHBgDA7wYAEmHwB4TBQM5DDPq/ly8sHFXl/jwSweP/7aHYcN4nRZYxxBkGzTN/7hm0RcmG+EkDyAWAIjvNz/XX7y4gnLRCwkOxR0JEsMjRuIAIUnHsh69xTIw7RYW5eFFcOB3xDrdYqTCslpFBCWc5Qc1MZa295u3NxDizAApv9hyaMNlb6DMpgCIMoI4YODTM+f87oE806/0ADYfQODjSD/AFo6+QCDG6/dbREnD6/W8yAKwFk6wxWuhP/ZDKqb4OpbAJfBgFnMYxnk9+1qEND6/P94dVOKCLpdFozEETTFmqwDQUXTDwrbr39eNkOE/T9b89J2mlq/0sEZgtQJYfHZ4evqUn/10StZ3bvWHE5631890/dM756v+sY8zxSo8C1FMAObkJb+wdvak7z7AMH0IIR7wZ5HenNwqZvo+SuCmCFAxfFO46MaUwO0T+E1tbWq3xBVf8aHVZ9vtnxxQQPDxXhD4IBiYIBRlpB6KEqDbEvSDJeDtT2X4vf88c8GO4SPjCuy2mobF/YDKAl6fJjUm/mhuRuJOKwASW+1zaruuLqrquTovIMmWGK3m8uLigv/+dFb2tUf656yehEq/p7h+aDDrqt0xtd/pKvD6vNEcw2l5UFg9Anei0VKXHhlxYXJCQtPU1JjdH+b93dJ7NaOuLzCv1yGnmTljYFK4qSq5IHJfxXU5rHjsDVar+UxnzwonA5k+ExjDOL5ucXr+ziyGcRyzInOTr3/xsYamB1oGHEUir+MYxKBYs6U3OzqysTQj42/rY5hzt09/ZHv4/dn6h2ymmEl1MjPtQGPDWmvQw/N6HvRIgUiWh+LkzK16Jdhl0Yqywe+yTY2J2P9sRs7hG/eOEGIPut35F2328prevtK2/qEyp0/U84jjOCT5TTrGF2/WNxYmxh+cmpF4YIUurPmjRnjQ78+uutq+pKnPOq3d683v87mjGM6g4RAEInXawSxLWHWOXqibHBG9c0F6fCve31tN7csrHZ5Z/eERkYcaWh62i0yiS5ZBazSAaLdDvtHQnm7Rn4vgRW+4oPSnRZn2PpdduOujxnInvn8QuePb+qwVV/vs85qtztL2AbfgkRhep9ErnKJwyRZLx6SYiMo0o1A9Pz91C75erj/uka6uOaeGrKs9HETqAsiTFxm3a21q4h68zX57X9apts51l/rta3rsnvigI6AxGPVifGK0Nd6EDsyKtWx9LLng3PvdLLYipPvjqeqfbG5q/loviz3DAoR5nfD0jMk//cmU7O/eKJzPtvfPafb4Jlm93jiThnVnRkdfzjNrj083m614223d3fmVdvsKpy4i+cLV/lVVHf15LuBAZgCMAgMpEabGvNiYvWGM16F3O5HB5RQrphZsWZacfOlOcKb7oAQogQ8mQMXwB7Chvnf6sbkbBHCV6hsvvrShBTGzXIZwk5sxhkkaHcicAqwggxj0gMCKgIJe0Ae9EOkPKFN1xk3ffeyZZ0oYxovHdKzbXvKzI/t+2KaguZJf8WfGxh96ctn8XyEFot7Yc/Qf6/t6St1GbSSADGF+j/fBKUW//PnMon8l/yBfHarYf7lh3ZGB/kUdshThkqV44FhGw2tBy/HAKwpwogh6hQELw9rM/mDPA7PLXp2bk/R6iY5puZEJrub9bPvWHxzr8XxC5MN0QhBJ6QKc/cr80m8vz445f/32uzp7Kl7Yf/B7DU5HqWTgtNEG/dnnVj78Q/CKHccu13zmss25tMnmmuzl9MAZzSDKCmgUBLzPhfLCTYdXFOf99p+yEt75qCrs7c7bwW5n9K+2bNvTwmgTPXGJMd2ij5VxiV5AgKQAMAEFojVhIPmwtdMD5qDXuTo7Z+OTc8u+fn1MWT9Cpu3t7WsPtratP9vZM21QlFJA0INGpwcONCBLfuAUH/CKDBaNpiMvOrpxQXrq3+ZlpL72fpVd7DVtG+hbdaS2ZX1NW8d8a0BMUwwGGPL5QTCEgaIooAQ9EMUgyNawV8uSkl78t4p5P8Si7nc7Djx/tKf30S6tnpfDYxmPH0FQYYDTayHgdkAsy4Be9oEcsIPgd3ryY8L2PTVr3hcfT03tvl2eH/b+PX5HzvHOjn88Vde8uH3ImetDWjaIBBARCzynBQ4BcAEfhPMgp+vZ+s8vWvhPK+PD91+/zz+ePvvV5y9VftdvMkdpRRnKsye99PScGV9t63PmHKg7/+SZrq6H2vwokTFHgIAEAEkGDiHQBxzePAuc+MSCeS88Fp/62vtc27rfna768Zam1n/uYfWA0ySivA74xLQpP/nXouzvXb/9iYGBpJdPVP3p2ICt2AYQHmEwoiydtvXz5SWfXxFrOYpvYF85ffSnb9TWftamDze4mXDwMFpgBR6AY4EDBkSvG1i/LxgpINYo+m3hPpfnqTllLy4vmvKLj+PJyN2cd7pvSmCsEaBieKzNCB3PhCZwFKGIb/ztxfP94dEp/TLHsqyBDSosKIwAQSQCb+RAkt0AARfEGAxgtHuhgBF2/WzF/c8UmZl+DGdPj2PVt/ft+a9OjS6NQRqwCNqmZVOLXq6vr19VY7XOgohI8Bt1EHQNQrzPBXNiY57/zrIFX2rrdWe/fPLEv16yu1f0a81mv04LnBAE2e8HvGxKgzjgFSALeiQWiBAxKhyEeT1XHy4q+P1ny/L+78ZH1bUIpf5yy97/22cLLPfoTKBXAhDrszd9a8ncrz6enrz9+snc2NJz32+Onf5DK0Lpss4AekHbs2rWvP++0nQ5qbH7yqOiRhvuRRpgtDqQZRmCkgQKkkDLyBDFMZDNMXueKf3/7Z13YFTF+vefU7e39J6QEBLSILQAoRdBQMSGoqKov3ttgGKlSVVAAUEU67Vc+7UASkdaqKF3AgkhJEB6tu+ePXXe9wTRgHgRL4mAs//Bnp155vPMZr/nOc88T8bLw6LCNjfmJlldWdlsyo+r1learAk1FAvIYAbezwNQABIlgZ7RAHJ4waTTgl/iwKZI0NMSvG50/64PtyOIsvO2fVZRPfTfe468vq/GEY10OlArbYDPAUYNXb8+n98PZqsFFMYAdRIFrIQgiUAFD3fJGfvPaPOPF69xkVjd5f2NeyeXuJU+br8ADLBgkgAEPwcyTYNMkwB6EgBxwPJeSLNY1jzdc8jdJiugdzZsXrKloqyH2xgEftACz1OACFbN2AAdQwPpdQGDeNBoAUiPHWJBOvqPHl0efrhZsx2NxVoViO8eLBzz47FjY+sQYVJoGghRBI2MQHQ5waDXggwU8CABpSGBclTBuH4DHh2YlPR51M83hqptUzZtm/p5WcWkClU88yK0z8g81TIhbvbG9evudUl8qwBFGXlGBwrNqk3kAIkE0JwOWEUC2VcJLYP0O5/s2vWFoZG6CyL7qn1ztx+e9kPhyecqGT2wDANBbjvc3zZzxvTs5Asiwzv9KPaVJauW75LETLeGBfWHNYNlxInZbYcNTLB+r6ZxfLE975MvC4/cVmcMhQCEAKG1Ai/4QFEkIAgCaCBAI8ugJUSgJB+EKxzc37bdksEpLf6ZTBD10WX8wgQwgcYh0CRi+EY6cdg4bsCjNimBvzDsvwEh7fj33tl9RmeJ8hsstMzqTH6RBAVp6kUoSfNg1CiAvHYwyQgYuweyrcGLJgwe8lgb07kfxKXltUPGbtjybrXJFs4JBOhJCkKQdJLn/ImiRgs+pAAnSqAROYgGrrZrbNQnj/XqNqXwdHXuvNUrZ54SlTaakBgIyCIQkhfCLRYnq1B+ycMzFFCmAE1oq0kSBJoBNbVV5/VCFovWP9az44TBMcH5DX2liuGZyzZ8vNop9vIaDKCTfRDmd5RO6JX77PDY2AtKSn1zsmbwa1t3LSxSyBhJawSG1YKFpXkk8ho/ZwcNo4oVLQQ4AXhJBELDgKSjQVBkIGUBgrwu153NYhbO795xUmNWPfipuNgyc13eT6dZXVrAEmpwCQhkGQGwNHAED6ysgNnLg06VPDoW9AE/dLLaVj/Wt+OIDj9XDvi45EzrRQXH5+/yyN3dJAOk3w+htBzo2CwiLz7YclivZWs5SQk9cvJUdmFdoGetMRwCMgF6lx26hwctHdmxzbPdLcQvNWf3IYf124LCsZ8dLBtVLrJ6NZs20WSV21uD16WEBq+htRrSh/hwNy1knzx7MqOyoiwsxRy89PkBNz8oACgfrFz7ybqThUOk0CjgtGbwiwx41SOOtAaMNAkmngNW8oEs+UEncdCMhR1DO7Z/9JGUlEYr8bfqTFWr17YemLHD4RzAhoQAAzI002k92XER2xJMuj0Cx5EiRQfV+r19C86cjHCWFHue7z/gmXubp3zd0P+Ttux+6b2S8mluWxgwiABSkkBHoTqB8waTigSSEICw0Chw+7wgIB4IxgyAgkFBDPB+B4QpfvGW6IgPHmjTcny7oF9TMNQDdO/nF0xbcrx4TCWrAy3DQpCr9pJiOM+PYl9e9tOqvZKS5tRqgCBIyGIoeDmr1T0D4kz/UfPkv9mWt+DrgsPDylmjyUOEAWUMBkEWgKII0ACcE8K8nyMCHi3IXiKKAe6xbt0/7pWYODH+Oq/X3aR/35t0sr/wx6RJ13njT9YkYvjGx3jtrxDfkFw7PnrzwIFmbq0tpxSROauLih89y/E6kBjQESRYESd2TUv4MY6Cs0a/32ZABBdr0K27IyPl2/PpAcvKHbePXZs3/6zGHBsABgwaFrS8G1iRAwNF2pPCw4viTbazVkoWXOXF7nYtmi3NSU7ddJb35cz87LOJTpGPa52RedSs1RY1j4g9HhcWdtJIaXiCA9nL8ZpdJae6LTtbMqKYV2KBNYOJoICuKC1/KLf9G3e1Tnqj4SPbowhFzli+/l+rHcIAj8EEOuSHcJ/95ISeuS9cLIa/La0ZNGvLzteLFDJZ0hiAYGmgSQTgd4FZ9ENiUPDh5PDYfApplBqXvfmxysrsSoayeVgaJJoApq4Kchh555Tbbr29t15/tjE9+uneou5VOmNmIS/32FJ44g47L4HAECARIkSxWqFvaNzX0VptjSPgNphZpMmymVbd0jz6e1WkqRUbXt+wZdK2ateYGtqonpaDaNkv3J6ZOndgWsL7NoA6CkBQg/E+gJhvdhQ8+p+TVU9VkzSwIEE8Kdb8IyNtxsi0mPnn17jSXpU1P2/rpzsDmlYcawaNX4J2FvO+p7u1eT7SApvUA2+VCBlqAILOBJxJbq83WReQCgfHNquPdq4pKLupUOK715itYSsOHRtR4AzQPkYLSJEgWMNApxBTaYrJcEAj+SttGqgKZ5hdD7RsubQxGb+Rv++5fxWceeY0oiIZioYwSqm9r1327E4JYYviNFBjAJDsAGa1U16NwxPmrqiKyI2O3RNu1Z5saNe0bbvHvnW8fKYrKLK+IRIh8kCrT1ZYBDYQIDk8ZGu00XZclmXSofDNt50szS1nQgkfT4CB1YHJ44JkiS8Yc1Ovx29v9mt0WE0BWrDj2NRFhSWjq2gdaBgGbO4aeKBN+ivTsltckCZRL4ZXrPtxn4hau3SqGKYgg6VgUkbL+4bEWr5U7d1UV5G2u9bRo1imOuwsdXUtdvGJXoUCkkBgAhFSLIbjHaLCVluQz0PIPl0EQxe3CY/c3C4i4lBj+gGPjQlgAlD/NAe/MAFMoIkJqDcnn7thwOy8Tf8ucPuDFcSClSAhEvzS6EH97uloodaHAJgVAJkGcDRs57qq2jN03KoNb5TQxgikNYPMc2BUPGAWvNAuJmLF7Z07L4zTU4csAFyAs2tpnexkIVT0S54OP+3b051iKVfblsnrTKy2PJuw/aa18AEPCnu75MSkn06eftIl68BiMIJwtgTubpv25mOtkiY2PK1fgFDwKyvXfrqiThzg058Tw6E+R9HEnl2ffzAu+oeGWP9z2j7gtS35c04goqXMGgAYCiTOBQkWvdAnKe69TrGxiyO0dCEDIHgEiFh7sHT4koLjj9QYtEGiyQS0rw6aOSsqxw3qM+i+0KgL8pEbw33q4bcP6uDWD9Zs/PcpIWDiKAJkUoAMs6VyYvdudzY3wQEBgFbjjA0PdX1hdw2YvXbr7DLKkIb0ZpDr6qCbTb/2qb6dXujLEvsutvXrUvegSSvzPq00WWykgQab7IceBmbRc/26PZlOEPU1alfY3bmzVm/45BBpau5jDGAVCegUYl7yfK+UJ7sQxG/yei9186tGJysBoif+mLd0e60zjQ6PBr/XBeEMwEMZqe/f3CJ6TjhAZQqAr7GrGCCEqElrN835qsz1tF1nBZHzQ5rFWPh839wH7rQQV5Sa8fL2PS8sLKx+1W6JqM8HNgICva8O4nVERa/U2K97Z7b8IAKgxg8gOQDi39u4fsr6OmGIXxcKiFfAIgCEOe1wb5us8S92iJp53j9FCIW+tev41CWFJY9XUybQ0BRY3dUwvG36y9NbN7+gOcZPHIqbtXzTDwd5qbVHpwOFQpCmoWBy26x7bwvVf3V+THXdGwFCvz5aMXrloRPjAoYQkHgBLKKb75kUvXh4+8SpCQCqzwMJ56qU4LrPjfHlxmNiAhcRwGIYbwlM4C8isKZKvGly3oaPDwbEKIkygIlAEME5pYn3DMm5x0Ds/T2zfqxwDp26duvcUtYYA1obyJwHjFw1ZNl020d06zT9Tpt5zaV+RMtRuZ4HszkBDGqptd/tKK4KqbGn7WO+3n1wrhMZgFQjw+5quCMr6d+PZye/0Io4l7usvtQo6LwVP32x0i4MVCPDehSAMK+jaGKvbi8+GBu1+AIxXFY7ZPa2Xa8XAdFMZLSg1o5ifU5uSNusD+5KazanH0Gcbnj995WBwW9v2z2tgFdaObU6YIGHCOdp7h85re58Ni3tl+oajem+j+vE/m8sW7WojGR0vEEDvOyDVIYKzO/TP6ePkTh4qbmnHz014d0dhye5zcGsTFBg4wPwUJu08Vktgl8beglxswGhmInfblt5XCEy3BoJLMBBS8G9f+rQO4f3JIjD6hyraoUOc1at/3SHTKX49SYwIoAYWih8om/OuBwju/SPlkLbilDYtGUbV2x2+tvylqD6G6mQgAeebZM5e2xasxcb+3DieV7qQdIvNm+d8/Gx2lEuSzjISIYIEp25JzlhTp/WMZ/0vahixH/z8aztB8bPO1b+itMSCYyE1AoskEqimts7ZD7br7n5h4tLrf0o+NpPW77pyxM825wn9aAnNRDGCdAt2PLxE21SR7WKIHzqfOpTj3f2FExdcqzsHzWUCbQ0AxZPBQxvlz795azmkxrapIrh15ZtXnEwIKV7tDoQKQVStQS8lJN5z9Bg038utn/CwbLpn+08MMFjjiRkBSBIcMJNSVEfPdK55Qs5BFHXmHsaj315AvhJ6uUZ3WhXYDF8o3kUr+e6IbCtSuz8wrrVHxwSUJqks4FOkiDSV+d76a5bugy1sb9bTum7CufQaWu3vHGaNkRQGhtokQAx4C65q23a88/ERy65kmjSboQYygkGFZqMAAkUUG4zRC475b7r6537J/kJAyGLElgVLwxIjvrhH1ktn+ysJ35JUVA7mr2+cvVnK53yII/eDDqFg3CPs2h8j67jH4yP/K6hM74qrbtzTv72eUUKESOo1StkCXIiI/If7tbqyXuI34r/vQjFL1h3YP6GcvsQ9XCUQUtAuP8sDMtMfnhy69YfN4WjP6/19p6z7KcvSllTuGwxgF9wQgsket7r3b9vVwv7mwimWpt43oqtP6ys8vSRQiNAEgVI0Gt8w9u0Gpuugw1RRrArPkABAxABPxAaPWgqA5Dw7uYjk/bVOXu4KAHMlAAtSV/ZmD69ht9tsm1S15lXyWd+mL/vnRU1zly/1QrqWTzBWQGto4KKeifHvNszPHxtb4PhKHFRObuLGalieO6azUvX1fg7uHUGQIoMQV4njGuX8crzmRdWSGhsvnMPHHru7d0lk+y2aJOXJAC5XZDOEJU9k6IWtw43bWwZbtifozUXXs6OlzfvnfjmiarpLmsEgIeDKKRwQ1MS54/OiXy54UG78+PkI2T+cG/BzBXHTz9RQxgAEAshCgFtWGrzzN7Z92UGn7spU2tev7/v6OTFBacfryHMoGHoejH8QLu0ya9kJU9raNc6DsXP+nHr0sOckOnWaUEiFUjWEzC2Y9Y9919CDE86dPzZ9zbtmhAIbW5TgIAw2QMDEmPeu71DysiLSxJebv34/T9CAOf2/hFKf+drsBj+O3sfr/0vJbC51pUzcc26Dw+JVLqgCwGKFyBJDvgmDOnf7Q7r70eGvz/ruXtK3pZ5pZQ2kmFMwPpc0NqM9o/s1/vugVrisuKhGCFLgceTXhPwRVc7uLiqurpmTi9v4BREumTS7KVZSy2hj6/yS4mugAwakOt/rPskhC75R3bS6A56/S8RXDVNYsbqlZ+stMuDfHoLaOUAhPmcp8b16DZ+RFzEL4+HVdD/Ka0bOmv79gXFiAjnKRr0ggg5ZmP+s/27P3Gp9IFihGJn5R1YsPJU1ZBajRkMGgqCuTNwT+uUx6alp7/XFM77rM7bd86KNV+UyIZQ2WSAgOKEVFp2vNvv5pu76i8phiOnfbO/yB7nAAAgAElEQVRh5Q4JtXIZDcDzPjADgkSWOWMSlFKLTu/ieR4Qq2UILcWC5GF5Smco8UFKjSBrOEIAK+GHTI3gHNmz06C7zeFb1XUe86Go9aedj7+/a9/EE7IEhEUPPCHXl/sycV6hrcm4q2Nk2Pq0yKAdzUNsG3+vmcQBhMKm/7Bu+UaH0I4PCgevyEM474EX2qTPGJMaPbGpIsPqmn6sru7ybv6xufu80KFOZwRBjepSFJhFrxRBcaeyo0N3Z8dHbGgVEr7TyEDR761pSt7u6f86bZ/osISA5HBDHJK5hzMz5oxrE35B9Pb8flGjfq9WOF58fdmGqbXGEFahdGAMIGirY7bP6J49PDf8XAnBIuQJnb+3ZPKigrNP2klLfTUQi78chrdNmzAzM2VGw/2Xx6FmsxZvWnaIl9LUzn4Sg6C5noAJudlD77Hqv714r75cWPjcW5t3TnTZYi2SDBAmcTA4MeHdd3JSH2+KfY3nwAQwgQsJYDGMdwQm0AgE/kgcYl1tbYdJazZ+fFQg0wKGMCB9AqRSsnfczX363Bny+3mT35d57p60ZfO8MkoXiRQaDAE3dA3Xb3/q5h73dG1Q2utSy9rjCjTPLy/vv/1M1T3HKiojnF5XJKlh9EBoQCQp4FgGAgQLvKwFXlFroGrBQgOYvZXQNyl88T87tHmqg/7XdIbjyB0yfeWWj1bbpVs8Bsu50moeR9mEHt3HPZAQUX9w6Pzrm9P2e2dvy59fRECoQLFgDPDQxWza/kyvrqO7GH7bUKMAoYSZeTvf/OlUzSCvMQwoUgaToxT+0Tl71KSWKW81gtt+M+SndXX95q3Z+uXJgDZIMZtARm5IYUTnW327DcjVm3/Tjnm7AyWMXbRyXYFOn1inoYFmZTAgGVBlLYQZLSBwCtBaAwRAhoDMAUuIgCga/KKmvvQXSclgBQ4SkLNu5M19+99pDf2l0UieD2V/sGnfvK0V5d3dWhpEgx48CgO0JEFQgAOD1wWJBsOJNrERa9smxn0/NC54/cW5v+rNy6vLNq9cWe1t77YGAyeLEM77YUxWixl3ZMVPa8p6tupTifyy2iffW7vtxWpzWIRXYwIZSBA4D5iRH8woADZCgESL7kjHpLhFPZNTPuhwUSqN6rCZe4/PmHvoxLhavRnMJECQw6WMSM+YNblj/Eu/l/s892zdw2+uz59TSupsjDkUSBcHHQy63VM6ZNzfK5o4ro5bgNzB8/ecnLzk2NlRDjUyrDbd8FXA8LapE2ZmtrxADG8OoMSZSzYtOxQQW7q0at1wApK1AM+0bznsgYig39QwnlBwZOw723dN8ARFGRHQEKWIMDg+8YM32zR/rLHztZvie4PnwASuNwJYDDeCx3C+USNAvQGHXONztpu0dM1HxYQh0w5GYEUEzQTONWtY/0GDdcQvHeMuXvrSSv7uF9asfaNcZwyXEAKzFIAcK7V3ZK+uw/potb8bGd7tdqd+uH3Xo3trfbfWyLpmAYoAQvEBDQookgKIYcAjS6A2hlAIPRC0AQSRAI0SgGDRCf2bRy1+tG3r0a30xJnzNqklv+Ys3/bhGrtyu8dgBr0SgHDOXTK+e5exw+Mjv7lYDL+6Zdv8EwChAs2Czs9BD7Np54s39Xwy5xJi+BBCsTM2bXtnXZljoNsQBBSSIMxbCQ+3z3ripbTUd5piS3xRV9fv9VWbvzrJG22yzgAkHYAk5PEsvKXHgI468298tJ1DCc9/s2pjgVYf72AoYFkFNLwfdC43mAkWQKSAZFngQAa16K1ayoymaeB8ChgNBtASAFLtWegQYTl0V8e2wwbHxx9puM7vXajj0vxdzx2srLzDqzWAXSZBZrRAIhK0JAmyywVatcZwqLHoro7ZszvEBP27YQMPtd7tjMV5q1a4uE5OaxDwogixSIIxGcmzbkuLmnpxa+/GZqzm5S49WDhqXVHVnSc4SLazGgjQJBBqMxJKAULigOLckGBkfd3ioj6/M7PV610v2uNjt++etfBE+Yv+0EjQiQJoTp+GZzp3mzuoVeTk34smzy2rGPFW3s75Z7RWi8QY66tztNEwe6d2yr6/bxRRoK77IHLa3j1wasp3h8tGu6kgoCmiXgyP6JA++ZX0lg3SJAhY51SS5q5av2wfL6V6tbr6rnKpOhpeys0afluQ8fOGHNWDmc8XFYz7YPvOyYGgWEYt2xcmcHBrQtK/n2nf8tGmvCFpbP/i8TGB64UAFsPXi6ewnTccgVU+Z5vJS9d+fExhsgL6EAAfD8myaH/plpvuvNtGbLhgwQ1CzT9U8veMX7PhjTMaXZhIEGCU/ZBjIQ4+2bvHvf01mgvE0/kxTiNX0HcFpx7/6lDxM6USE0QyIUCAAlqhDhLDgmrCjNZSnU7rqfY4KK0tROslNS227j1iBdYElCyBSXRB/8Tor0dlt3o600hUnR9XrcX66vJVH66oE4d6dSbQgQjhnPP4hJ7dXhgeF3FB44jvSuuGzty27c1iggpTaxirYrinxbzluf7dn+yo+e1htBMIhU3YuO29dWdqh3j0QUAjGcJ91cqItq0enZSR8q+m2BCf1VX3f235pi/OouAgtTIEgbzQTHT4FwzufXOuyVSfz9vwtYFDCeO+WJZXbAuKc7Is0MCDUlsJXWKi81OCbAf0MhXi5zitzFIEwRKEKIqgZRmkBGSZQhBKKcgTwsLhrIjglYPjotZdKkq4H6HorcVVI/IOFdxZLchJlbxscpIsgMECJKMFe9VZ0AoO6BJpzX88M2PUwKSoX6LL5QjpX1q8efkSr6uHwxYESAYIdtTBuLbpr96emTilqcWwyk6t2lBol1pvLD4zYntFVe9yPhDuF3nwKiJog4LrG1NwteXQ0qgVb09u/urQttmvphOE2v6v/jVhz/5X3yw8+4LbEgwaQYRglwseb936jduzoic2vK6hnxacqX1g7rrNb1YZg8wCpQWtR1Bzhg9N6db2nj6RmqPn7Kozzz1wasriQ6fHuJggoElVDFfCgx3SpsxIT5/acLxVgUDzecs2/7iPk1p6tIb6Em9pOhImdMy897ZQywXpQmonwSXHjo7/dPfeqW59ODCMBkIDbugXGfHti13a/d/FB/6aYp/jOTCBvzsBLIabcAfgiHETwr4OpvrJ4ch+aW3eh4cElB3Q2YARFEgU/b7Jt/QbcreVWft7S1hU6bnn5dU7F5zWakO9JAK94oeOBurIyL5d7r1Zo7lkhYN1Pmeb+Rvy5m11cN18rBlsYFY7p8k9modt6Noi4aMwSnck2gABHgBcAOIml/+RD5b9NMHP2EBGJDCyB25KjP/86fS0Me3MRO15244hZJq5fM2Hy+uEu7w6Y/1hvvCA+/hL3buMuT8hcmXDNXxX6hz6av72NwsRESYyLOj9fuhhNq4a06/7yNxLt3qOGLd+69vryutu82uDgFVkCPZVCQ+1b/X4hMzUj5rCxZ87nb1fX7Xl61LSFuKjWKBFLzSXvPLbt/bp3dl0Yccy1Z58hGJe+Gxl3mHWlOjSGsCsIcDoqYUnunV4pnu4+d8RAAwDQAsAlBcCFAtatUGwWj5PogDIAIBAA4jNCOI3Je8arldt9ewAiCmoqmpzoLKmf/5Ze6+9Va5o3hoOHKkAoXggXvbzdweHvT61Z6eXCIKUARCorZlnLN+y5EuPs5/PbAIQRbDV1MC0rh1eGZmSNPlKDl9eTf7q38bDHMSUKnzakfLK3KPFpV2KXd5OBV5BC0E28MocWKUAZGuIQyN79XhokNX6S2m9Sbv3znqzuOpFhzEYGF6EKI6HYUnN3rg3J2Fq1iWaVahzzTx+8rF3t+19rdYSahQJBmwBCbIo2PvaTd1ub2MjStW1qazm7NvzyndHy55x0eciw1ZvJYzokDHl5UuI4deWb1q8lxczVDGsdnLMYmn0Uk7GXYPDrRc0n1HLqz195Mi4r/ceme7WhwFLq22eHdA7Mnj5Cz06PYS7zV3NnYXHwgT+GAEshv8YJ3wVJnDVCayqcrSauSP/w70Bqa1HYsHIaCDEWRN4ZdiQW+4z/r4Y/q7aM3TGivx5p0hdFKelQK9w0NlAHB7dK/eBvgb2N3VsVcM/qy7vOj9vy8LjoMnkCQMYfQjSDZqjowd1HddJA1tiCcLecIGvnT39f59s2bOgFll0HEEBKftgQGLs12PT05863xZavb7+AN3yte+vdki3u3SG82kSRRO6544ZnhB5QTvmb8vs98zavuOtYqCDAzQDBo6DnibT8uf65j7WsUHqxXk7ihCKmbB+18INZ6sGc/ViWIRgf5Uwol3WqAlZLd+/6g65xIDfuLkuC37a8m0RbY2oFWSgeB+ks4rw+qA+3XvqiQu68Z2LJiLzpKVbv1tp5/oKweEgShwEcy54sFXinFvTkiZ1Jgjuatqt1g72BJwRhyVNh6XHz0zeVmFPr5IlkMgAWFw1cJfV+t2zg/o/1vLncl1qnu6HK7d8/4XbcYvbqAWSICHU4YDns7Nm3ZzWYnLDlIqraeeVjKVGr4+73VGHawJDvjlQ+OJxXgzxsER9I42WBO95omvHh0Y06G44KX/3jIUnqsZ5giLrn66E8Dz0CbdteKRL1iPddUTJxXPvRu6QOat2z9lc5RlWZzCxJMFAtIygo4H9YdLAnAfOR2ZVVh/t3z9j8eGS5xyMFViSBKu3Ch7MyZg8PT39gmoSKwKBpDkrNn2/UxBb+TV6oBUCWrGkOKlt5tBbomxLGtqgivHnDxY898Xew6+5tSGgKArYOCcMSIpdNb5HhxGJxK9PXq6EG74WE8AE/jwBLIb/PDv8SUzgfyKwvq4ufcqm/A8PBFCOH7RgplkI8rm9E28bOPRBC3FBVLXhRN9WOO+avmbXnDO0MY6jabBIfsg1wMGnerR7qJvVcK4+8UUn+D6pqsp9e/vutwoEpbUAWtC7A9AlJnLJU/3aPtuHIC7o6KV+/PWzFQ+9tTpvgdsQafQDA6Tig5uTor4fl542uo3h1yYPuxGKfGPl+vdX2+VBap1hrcxBuN9RMqFHp2eGx0VdIAK+PuN44NWtOxcUA2kRGB0YObW5hH75kzflPtbzZzHc8OnJUYTix+ftfnvT2doBoiYYGLUlM1cJ97ZPHz0tveWb/xP8P/jhH+v8Hef9tPn7o5QxykkwALwXkllwTe3Xc+AdZqK+0sNFQoeckn909tv7C8cEomIJnqZB43VAjxDtiqd7dfxnb+LXsnR/0IQ/dNk2hII2VftHfrJr79QyngdFQ4LN54Gb9Zofnx3U79HzzTtUgffvVVs+/7K6emid2Qg0RYLN74PhLZLeG56dMTb7MhHpP2TMVbpopxdFfLin8NO1Jaf7VlMAlBKABNLPje6V+8jD0dG/pB5M3bJ32ttFFS+5QyIA8SKYRQGaMYo0OCtlWuco0wc9f26RrZqFEKI/PnWq94KtBz8/RelC/LQGdAhBtNcHd6U1nzW1Y8q48+arrD7Ze3DGoiPFz9k1FmDVmtGeKniofdbkKVkNc4YBfggEmr+xYvPinYKQ4dUYgFUQtGIp8aX2mXcNjrBd0HxGHf+lA4WjP8zf+7rfFkWJantvnx16JcasfbJn+xGdG2mPXCW34GEwgRuSABbDN6Rb8aKuBwL5LlfyxI3bP9rh5LoQuiAgJIAgUhQHZqbN7Rsb+UmkLOp0SFBIyV+dHhZW34lMfX1Z4Rz6ytqdcysYS0wAWLCKXsg1Svue6dnh/zqdF8MXAfiqxtlu4abtCw8ExA5q7qvWLUGrENPyMQM6PG8AKDpf21Q93LPdI7T4/MjxqcuPlw5VH+PyQAAreaF/YsQPz7VqObqdjig7P7yavzpn5cYP1jjRzW6DHnQyB2E+e8nYHp2eeyg2alFDM74443hg9radC4qAtoiMDkz+APQ2aJeP6tfpia4Nxjz/mX0IJUzZtO/dDWcd/RTWBhpFBKv3DNzTKe3ZV1q2fL0pfLy8xtdu7oqNi/dLTIwQHAQ85war4IURHTJn9WwW+S+jrPHTdnB2jv014vtFcc19r6zJm1dusIT6TGYgRAGSka/ujozUmYPT4v/V7hINJdRH5/vAG6SAMdjncvFRFkv5xQepdp86FRkeH++M/Z3o8qxy9zP/2rlrbrkig4QkMDldcG9CzDcP9+ry6HmRq84zfsOOhZ8Un360zmwBgiWB8rigW2TovuF9uj4dDnCE4zitNhDw9g0KcjUm460nT8YbI4NI0FqqL3XQbasHhS3YsnfxrlpPZw9F1VfeCOZrHc8M7DZiROiv+eivbD80ef7xsil2czBQ//9GzkwiYD12SDIyrltaZ8zqlBC5SOcHD60H8pSPz/hi0/ZxOxxS9yrQAKGjwSzwEONxecb06v7U8CTbL/Wr1cYg7+05MnPR0cJn6lgLMCQFwe4aGJ6TNWVaZsoFOcNrAih51vL1i3arYlirA0ZGkKUhpUkdM2+/JTToN22tZx8rv3/h5q1vV2gMJoLVglnkITPYVjosJ+f5jCDYpAHgdbUgp4YSnsb0wV89Nk4d/Ks9gOc/TwCLYbwXMIG/iIBa83X2tt3vrSmuHMLTZgggAhhKhiANUZRqMRYZeZ9W7/H6YvXU+uyB/d48373sW7v3vvHLt84rI/ShFGWCINEHXczC9jF92j+eYzQeuNRy1gZQ4uxla97azYs380YbEBwB4bRy4tbs6Ld6JSYsiQaQ1M+dtEuZKw8ceGxj0ZmeLr3N7Fc73MkyGAU7DGwe8cOzrdNGZTYorXYAoZhXV2768CeXfJOaJqFVfKoYPjG2d+fn/y/qwsjw5+X2e1/duntBMTDBIq0Di4+Dm7T6JS/27DCqVfCvFSrO269Wkxi/+fA7G8rtAxETBFqJhyBvGRrWoeXz0zJbzm0Kt20OoBZzl2z4caPdl6JERgAn+YHg7NA6xFDaIty8L+D3SjYZcc0o/U/ju+Z+ptq02YVyPtm8bfb2OnfXMlIHoNcD63ZBBIVO9EyO+z7OajoTFBJSR9MUTwMoCk3RlR57zPHTpW1KKqpzSKfT93D7tnPvS0/+4vwa86sDyV+sXTsHGWhfSkrLFa3j4zbptFDR9pzf1McIzZYcLJ28pPj48FqkgIGmIVqUYXhK4iudM5KnNGzk8MaR0lELt++bWqEx2BibGbzuOrDJEmQ2i91B06iM8XmsoQG+eFCrtHm3x8Rctm71n/GDmmu+Mn/zlPzy6q5JKekFbWISl8da2HUygF9NJdmAkPFgTd0dn+8rnFHikqL4gAIawQuZEZqTI/vlPnAHo/8lKj9l97GJ84+XTneaLUAhBHpQgPS6QStyEKHXVUYHh5wkJNKBGJKs5dwZRRV1scaQFPAqBAiIA4vggW4mff6o3u3vb5i7ruYMz9tbMGPx4cIxtRrTz2K4Fh5sl/Xy5FbJkxrWZF7tRqmvr9q4eJcopLq1GmAQggwtKU3MaT3k1lDLBelCKq+PKj295udt/fIYz4crOj1QogImREBmZNTBUJbaT0o+haytYIdlZn90S0rMuj/D+Pr/zB8pUHn9rxKv4NoggMXwteEHbMXfkIAaFRm//9jLiw4Ujq6UWCMZHAoSRYIiBoAJeEAb8ICR90Kqnlkyqn/vR/tFRNS3Qf6myjv8pXV5CytYqwmJNASJHHQ2SetH9sl5Ktdkqm/fe/FLjXLNW5o3Z7PT/XgFoaEDpA50pAxxGv5ot/TUJRq/LEh+LuxUdXWHU9V1bQIaE8lpLWAnGECKABbeCQObxy9+IjttZMM0iXOR4byP1jq4m7xaPbCKACE+57HxPXo8NyIh9AIR8EV57e2vbdmxsAToCIE2gMUnQH+N/ttR/XOeaHgo77zt6thTN+5/N+9s7SCkCQJW5CHYU46GtU9//qU2f1YMX9kPrJoTveDHnd/8UFrWi1fFMEMBQjxo/U5gEA8ELYNFUiCDNax//pbbHumkI06pQm/TwZMPrzh2YlK+IxDERMWDpCAg+AAYBJ9ooqiAJPCSUa8nZAnJHBIQxyhakVKMvJ8Ds8cFk/v1ndk1MXr6+Sjw0pOeO99es+KjMzJnMgeHnMqISSk0E/Qpo0bD+QIcOuGypx6oPdvHaTXSau1gvdrABcgTT3frPHFYdPAF7YC/r/L2mb1i7ZsnEZ3KGQwgUyRoAAFLIgjwPrCADNGcv+6R7p1G/19SwgW1oq/W17QI+WPeW/7TV2sqa7sEGAPEGIJOZcY326AnpTov7/N4SSL+cEXVoDKJCuNEEiwEC7THDoPaJf9wa3bzF/oQv5YQHLfz6MS3T5ye7goKBkIWgFHXIAqgJRCQBAt2lwc01jAQCABO9AOQDFi0keBzucGkUyCIs8MjOdlPDUiOfLdhzrTaTfDzPQUzFh0+9pRdTX0gKbC56+DBDq1n3JHVYmrDa/M8qOXs5WsX7RH4VK9WAzSSIE1Liy90aTP41uDgVRdyI+BHj5K+cOPG7/PtrhTOYAQ1b5mUCQhitUDxPBABF+gdNXX/zO38ytPtU+ZdLe54nKtHAEe1rx7La2EkLIavBS9gG/62BL4pr2n75Y79r+ys9d2khMQQAaQDPiCAgZbAQHCglWshRvKvnnbrrQ/kmkz1YvinKv728ZvWvnWKpCJ5PwIbL0KOnl07elC/kV3M5xoGXOq18qw75as9B17cUlF7b7XOoOEpBmyMBniXE9QYmYkiiGAKQOE4SGqeepZj6MjNp06QFEODieMCt7RIWfR468wxDQ/QqS1r56xY925ede0QQWcEGlEQzEs7R+d2efGhZNvGhnZ8VVnZe976jbPLEJsta0OAcXihv8H84dR7ckdd6tG/KkRnrt3+5rbyumGywQoK5wOrp84+rEu7SWOzUhbWj31l2vZP7bOvipx3frx379yddkccFxQMCqsFwiuAhkCg05BA2qugY5B1/bN39v5H15/zr9U21fuKzwxddPjEmP11nlSf3gw8wYAi8GCkSCADAlAkCYpMgUQjEHUIaCIAlLsO4gTeP23gLeMGxIW/TxBEQDV6UWnNoHfWr/3woMcdZo5PBlliQfQLgHx+oBgSOLUchYYAv8SDYK+B1qFhNcPatJt2U4uojy9OQdiCkGnp7oPTvtm9/2kuKBbcBAtaLQs8z4GOpeo7GsbxXNlD3XOfezQx8jfd0/4UxIs+dMLjCftm2855X50ovddttgEgBgKCWN+FjmA1QGm0oFAUKKIE/toaaG7UQq+05C23tGox6ibjha3Kx+44MvmD4tNT6kw2oAgRNH43tAk2+ZGP87t4MsQu0+Bh9eBDCBTZBxRJAKOmFxEKWHkXDMxs8dGQ5rFTu+p0v6T/qOaqkeG5+fsnLj92YhwRHk763S7QVZ+Ff/bs9MLgjKw3Gorh9XV8+twVy94tVJQuTkUBK8tAPAP25/p1u7m/JWTnxcx22+2WpaeqJv3neOkz5YgBiaQBESTIAQEsDA2hJIDR5SgbmtFywXO5KU3yFORq+BWPgQlcrwSwGL5ePYftvmEILDhUdNO60qqnCl18N6ePNlKMFgxq9wXBDlpkr+4YF/L56J59x53/8d1Uas99Y2/+hF3VlblaSmuI1ujL2tlCVg3rnju5jYmo+W9glp3ytFxZcvKfeeVnby8PCMGUojXoWA0AKwDJuSDZqC9MDY/Y1Taj9Y8Oie/x2frVD3mFgFbnF2oHZLT+4eHWrcYlN5hDjYJ+vXX3tC2lp/6v0uszgkx5Uyyhyx/skDt9cLLpgprHq2trU9/dsG5siZvvJjDWMAOPzgyMjf5ySv92F5zMP2//aYR07+fvGZ93vOThOl6OAkmEWA194q4uORMeSU28oKFHY26GA5XIsLai5PEfjhwZVRgIxImUASi185sCYGBJCALB3j7K9t3IPjnPpRK/5niqlR42nakesOrg8SeOe/l2tRKyCqJcX6JLjf4ZGS2AogVEkyAyPCDRBZGkCK3M5h8fyek0pX2Y7ZfKIFtqakw/nTw5ZXt17bA6RRtZ7eQhICigIwggSQARZJDkAOhJVJccGrSjb4sWX3WMiFve1Uo4LsXm05KSnE3FZVN3nvX0chIahjWpraM5kMUAmKQAtDIZt97Zts2Eoc1C8xqL7cqTZwd/fuDI+FIZcpw+HnwKCRKtAZliQJIVICUZdIoIERqiskNc5ObOybGfDI2wrb64/Nu4/INTPzxRPqnWaAWSEMAi+OHujOZfpUZEr1q3ed+wwhpn/0qFAFnDAINEIBQRNAQBEVq28tZ2Gd9khhgW3Ga11rdgbvhS8+dnHz7x6JLde0bXiFKqyPn4GEpxP9i781P/aNnqgtrBP9ntcV+t2zy9yOfv7OC5YLOG9TQzaI893u+m0V3M5kveoK7xelt/sv3Iq0fsvp7OAM8QLAvq/tDIEoSRFAqR+M33d+k4cVhK2ObG8gEeFxP4PQJ/t8g3FsP4u4AJXAMEvquyZ+0vq+13ptydKMtgogmREDknatE89HDbuJjlAyMiDjU0c0W1I/tkbW0GIGDCNFpHLE0d65QQVd8563Kv/Dpk3lld0vGsxx/v9PuSvV6vlRfcbJheU9U5OWVzanR0gUWjqani+cjCqpr2AV5OIAXenxwWtjsx1Lrz4sYM+XWetBJHbWat1xeFJCQnBYfuGJAQvocg1COBF76WnDgRa1eIFJkwGDQ0EYhl6CM9Y4J/6Wh38fW7AoHEo+U1vdwBFAmELJqR4s6IDlnT1mI5cbl1Xs33VWG+o6y8T2FtTZcKlzee9wsMTWlkg5bxJYQGbUsJNmztExlZ36zh4tfSWn/0Ka+z46nq2qxahyNJJpAGeJ6gFEphkE4wGEzVFrOhSkfLdHyIvijRatrX0WIpunickhKk3Y1OdyvnhG6nHf54f0A2uT0uBAiJRp1Osun1pZFWS0GHpLjVHRs0Rvk9DjucXLPtJytvKanzJDgEfzzH+42yFNDE28xnOyfGr8hNjFkcRRD+q8nx4rG2eVFmUU1dm1PlVc1qPMmj2u8AAAlZSURBVJ4od0AI5xEidHqjYDUZ64IMmtq4UGteRqRlx6UOHqrjTdlx6OX3TlRNcNRHmCUwuWvh8fZZC4e0iJnq5CFo/+HTvQsrKnM9Aq/TgExYDfraiODIoqToiPz0SHpfwxuYi+3b60NRB8rO9PDJKJFGcq2ZRPbMZhHbM/X60xcJZ2LF2drkalmID4iKUUMhf5TRXNM/1HquusvvvNbyfNa+0vIepWcqMzwB3uTnRJEhQIqzBZXFWI07R2anrGhM/nhsTAATOEcAi2G8EzCBa4iAmqdIesFAUsAyCsicAdztGlGQfIMQZYEqbTCwdFuwuRseCrqGsKglsUi1MtbVse/P51ao3cM0breZ5nmW1Gol8Hr97aKi/rBg3ICQFsCppYEgJCdCYVarlAbgu9J1qftE9oAOTKBWUJDCAYTfqzJxOT+qEWy7B4yECRjggCF19XuuUStJXMom1Q6XR10RgGACxQIgcAB8O4IQ/9saXt5+5JV3CivGO6yhQJMKaKrL4dGs5vOGt2sxI4U41yBGHbvSBXqKcBNgNnNXWu+5saNk6hMWL4BGcLsVnjcLPcN+7bB3Of/h9y9N4M9/yzHRKyJwg4DGYviKvI4vxgQwAUyg6Qk0thhr+hVdvRlf3Xz05TeOnp5QawkFjY4Fo72SeyKz2fSJbRNfvVQ766s3Mx4JE8AEbhQCWAzfKJ7E68AE/oYECjiUcNbvSyU1pEgoDA+0KAGtAzW/GNFqgSsRATAgAygkAEGpPYl/jjPKAASrtkKmQXSJQJAoYGWQWJVsMpX92SjrjeYChBC73e5p59awelE9eoZoUUMDIiVQKBoQoHMl+RS1LwtIavReZU3QoEasaUSLIMoIeJkGASlSMBHwupoBlDaz2f5ru+kr4Thr2/GpC4+dmVRlDAJaQ4PJWe0ZnZ08eUJWHK7CcCUg8bWYwA1K4I8Er7EYvkGdj5eFCVwpgT/yB+NKx2zM64/Yubh39hx4fX+tox2QBCWBwgqi6CdpmucVCSiaVmQZqfIXEaQq5AiKVOUbkAQoCEiZBoZgZUHieR/vIE06RIcTcuG9PXNfvy8ubpNq+989IvvmvqNPbTpVNuIMAqtbIswiLwlaWsPRokLTJCkjlTChkIhAhEwpSCJUUazeWFAEqVAKLZESSYJAkjJPSD69Wfa6+2akfv58+/YLrjQ15Pf20pTdRZM+KDo9tcpgASAIMDqrnSNbJU+bnpk4/2rN0Zj7GI+NCWACfz0BLIb/eh9csQXXm2i54gU25gcwvMak26Rjb6lxp0zdmP/tLrsrU6vVAaVhQEYIgKbAF+CApClQ0Lk/cUR9yjEJlKL+iwRClcSIACQiICkEjFYGm0YBdKbE+2jfXuOfatk07Z6bFNgVTqbm2b6bt+OdVcUlD1XSWggwOpAFGbSsDghRBAoBUER9MBgQoYBEKarqBZkggUQU0AoJBkIDYoADRqOAhZWBdJZD17jIHx7vnPvPVj+XCrxCs35z+YTdB8d+XFA602Gy1L9ncNb5RrXNnNwtI+mNhs1G/td58OcxAUzgxiWAxfCN61u8MkzghiawrdrV/LkV6xafopgMVeCSGqpeiCmAQNW8MlKAoplfxC9CRL2AA/SzGAaAgN8HJrMWJMWnnl4Ci8Pue3JA/6ceSUz+8IaG9wcWp4rhuUvXf7yu9PQwj8kKitEEsoSApmlAsqjeUoBGbcqCEMggg0gpIJIkIJICQlbFMAXAK6BjSJBlH2jBB2TdGeieFLX4xZv7PppMmP5rGcA/YGL9JVO2bh39zYmy+bU0Wx/xDxZ55x3NY6dN79r1DZwz/Ecp4uswgb83ASyGr6L//+6PVK8iSjwUJnBZArvLkf7tHaunlyhEj4AkhClItogIODVlgqQZICiCEARRzYtAqgAmEUkSqhRWyJ/jmYrCMrREMrLAB9yMkRAhXJa3DOvcfebghIT/WhLrssbdIBfM3rJn5NaTp+6vRWwszzBhCoCf0dIiL3FqyonMAk2of/ckQiZkAiGJVDUySYNCEaoY1tFaHkTRzcsuXk9IrEn2lXZLiv9obOden14tRD8WF8ctLSmeeqSyOptASEmPiNjaPzHxzduTkhqllfTVshuP05AAfmR34X7APJr6+4HFcFMTx/NhApjAVSOgtpk+XV3dUgIwAA0mWQIFaABEUYgCVfNSv8xFqqJYfRNo9X8RAgnxUqD+UB2BRMWkYXlWFso72SJPXTUDb4CB8oorMyVKbxJY0qTmAxMaUGTggaQoNQmFUF8ySIAola907gCdTAOBKEWRQBGRKFEUJbGUIrCKUN3bFlV6tbEcQJWGGg8VTSiMHGKxVF7cde9qz4fHwwQwgRuLABbDV9GfODJ8FWHioW5cAjjoccP5Frv02nEp9sW14wtsyfVDAIvh68dX2FJMABPABDABTAATaGoC+A6jqYk3+XxYDDc58qafEH+Pm545nhETwAQwAUwAE/g9AvhJ8rW1N7AYvrb8ga3BBDABTAATwAQwAUwAE2hCAlgMNyFsPBUmcKMRwNGNG82jV74evAeunBn+xPVL4Np/0nrtW3gteh+L4avgFfxjcBUg4iEwAUwAE8AEMAFMABP4CwhgMfwXQMdTYgJ/ngC+6//z7PAnMYHrjMB1+XW/Lo2+zjYGNvdqE2g6MYy/H1fbd3g8TAATwAQwAUwAE8AEMIH/kUDTieH/0VD8cUwAE2hqAvgOtqmJ4/kwAUwAE8AEmp4AFsNNz/znGbHQ+MvQ44kxAUwAE8AEMAFMABNooMgwDEwAE8AEMIHrmAA+xHsdOw+bjglgAn85ARwZ/stdgA3ABDCBv4wAfkDzl6HHE2MCmAAmcK0QwGL4WvEEtgMTwAQwAUwAE8AEMAFMoMkJYDHc5MjxhJgAJoAJYAKYACaACWAC1woBLIavFU9gOzCBq0IAP/e/KhjxIJgAJoAJ3DAE8O/C5VyJxfDlCOH3MQFMABPABDABTAATwARuWAJYDN+wrsULwwQwAUwAE8AEMAFMABO4HAEshi9HCL+PCWACmAAmgAlgApgAJnDDEsBi+IZ1LV4YJoAJYAKYACaACWACmMDlCGAxfDlC+H1M4H8mgA8v/M8I8QCYACaACWACmECjECAAi+FGAfv3GBR3vfp7+BmvEhPABDABTAATuHEJYDF84/oWrwwTwAQwAUwAE8AEMAFM4LIE/h/1lgOFPCDx0QAAAABJRU5ErkJggg==;" parent="1" vertex="1">
          <mxGeometry x="-90" y="926.98" width="270.42" height="135.02" as="geometry" />
        </mxCell>
        <mxCell id="dv6ONf9dYdXolgblirmu-11" value="&lt;span style=&quot;white-space-collapse: preserve;&quot;&gt;Automated Data Preparation&lt;/span&gt;" style="text;html=1;align=center;verticalAlign=middle;resizable=0;points=[];autosize=1;strokeColor=none;fillColor=none;fontSize=26;fontStyle=1" parent="1" vertex="1">
          <mxGeometry x="217.5" y="877" width="350" height="40" as="geometry" />
        </mxCell>
        <mxCell id="dv6ONf9dYdXolgblirmu-12" value="&lt;span style=&quot;white-space: pre;&quot; data-slate-fragment=&quot;JTVCJTdCJTIydHlwZSUyMiUzQSUyMm5vdGVib29rJTIyJTJDJTIybm90ZWJvb2tJZCUyMiUzQSUyMmU1M2RlZDg2ZDYyOTRmNTk5ZTNjODdkMmZjMDg0ZTg0JTIyJTJDJTIyd29ya2luZ0RpcmVjdG9yeSUyMiUzQW51bGwlMkMlMjJlZGl0b3JNZXRhZGF0YSUyMiUzQSU3QiUyMmRlZXBub3RlX2Z1bGxfd2lkdGglMjIlM0FudWxsJTdEJTJDJTIyYXBwTWV0YWRhdGElMjIlM0ElN0IlMjJkZWVwbm90ZV9hcHBfY2xlYXJfb3V0cHV0cyUyMiUzQW51bGwlMkMlMjJkZWVwbm90ZV9hcHBfY29tbWVudHNfZW5hYmxlZCUyMiUzQW51bGwlMkMlMjJkZWVwbm90ZV9hcHBfZXhlY3V0aW9uX2VuYWJsZWQlMjIlM0FudWxsJTJDJTIyZGVlcG5vdGVfYXBwX2hpZGVfYWxsX2NvZGVfYmxvY2tzX2VuYWJsZWQlMjIlM0FudWxsJTJDJTIyZGVlcG5vdGVfYXBwX3RhYmxlX29mX2NvbnRlbnRzX2VuYWJsZWQlMjIlM0FudWxsJTJDJTIyZGVlcG5vdGVfYXBwX3J1bl9vbl9pbnB1dF9lbmFibGVkJTIyJTNBbnVsbCUyQyUyMmRlZXBub3RlX2FwcF9yZWFjdGl2aXR5X2VuYWJsZWQlMjIlM0F0cnVlJTJDJTIyZGVlcG5vdGVfYXBwX2xheW91dCUyMiUzQSUyMnBvd2VyZnVsLWFydGljbGUlMjIlMkMlMjJkZWVwbm90ZV9hcHBfd2lkdGglMjIlM0ElMjJzdGFuZGFyZCUyMiU3RCUyQyUyMnBlcnNpc3RlZFNlc3Npb25UaW1lc3RhbXAlMjIlM0ExNzEyMTIxOTQ4NDUwJTJDJTIya2VybmVsU3RhdGUlMjIlM0ElN0IlMjJzdGF0dXMlMjIlM0ElMjJtaXNzaW5nJTIyJTJDJTIybmFtZSUyMiUzQW51bGwlMkMlMjJjdXJyZW50bHlFeGVjdXRpbmdJdGVtJTIyJTNBbnVsbCUyQyUyMmJsb2NrRXhlY3V0aW9uUXVldWUlMjIlM0ElNUIlNUQlN0QlMkMlMjJjaGlsZHJlbiUyMiUzQSU1QiU3QiUyMmlkJTIyJTNBJTIyYjVlNTdmYTlhMzJiNDgxYzk5MjUwMzFhNGM0YjVhYzMlMjIlMkMlMjJ2ZXJzaW9uJTIyJTNBNyUyQyUyMnR5cGUlMjIlM0ElMjJ0ZXh0LWNlbGwtaDMlMjIlMkMlMjJzb3J0aW5nX2tleSUyMiUzQSUyMmFMJTIyJTJDJTIyYmxvY2tfZ3JvdXAlMjIlM0ElMjJkNDVkNGFkNmE2ZTI0ODkxYjFlYjRmYzUwZjc3NWQzNCUyMiUyQyUyMm1ldGFkYXRhJTIyJTNBJTdCJTIyZGVlcG5vdGVfYXBwX2Jsb2NrX3Zpc2libGUlMjIlM0F0cnVlJTdEJTJDJTIyY2hpbGRyZW4lMjIlM0ElNUIlN0IlMjJ0ZXh0JTIyJTNBJTIyUGFydGljbGUlMjBTd2FybSUyME9wdGltaXphdGlvbiUyMChQU08pJTIyJTdEJTVEJTdEJTVEJTdEJTVE&quot;&gt;Train-Test Split&lt;/span&gt;" style="whiteSpace=wrap;html=1;fontSize=26;fontStyle=1" parent="1" vertex="1">
          <mxGeometry x="122" y="967" width="495" height="60" as="geometry" />
        </mxCell>
        <mxCell id="jP0ZAHPzeSrmJnEa-QNz-4" value="" style="outlineConnect=0;dashed=0;verticalLabelPosition=bottom;verticalAlign=top;align=center;html=1;shape=mxgraph.aws3.http_2_protocol;fillColor=#5294CF;gradientColor=none;" vertex="1" parent="1">
          <mxGeometry x="-531.5699999999999" y="773.13" width="50" height="49.12" as="geometry" />
        </mxCell>
        <mxCell id="jP0ZAHPzeSrmJnEa-QNz-3" value="" style="outlineConnect=0;dashed=0;verticalLabelPosition=bottom;verticalAlign=top;align=center;html=1;shape=mxgraph.aws3.generic;fillColor=#5294CF;gradientColor=none;" vertex="1" parent="1">
          <mxGeometry x="-508.69" y="743.13" width="54.88" height="50" as="geometry" />
        </mxCell>
        <mxCell id="jP0ZAHPzeSrmJnEa-QNz-1" value="" style="verticalLabelPosition=bottom;aspect=fixed;html=1;shape=mxgraph.salesforce.iot;" vertex="1" parent="1">
          <mxGeometry x="-471.57" y="723" width="40" height="40" as="geometry" />
        </mxCell>
        <mxCell id="jP0ZAHPzeSrmJnEa-QNz-6" value="" style="fillColor=#28A8E0;verticalLabelPosition=bottom;sketch=0;html=1;strokeColor=#ffffff;verticalAlign=top;align=center;points=[[0.145,0.145,0],[0.5,0,0],[0.855,0.145,0],[1,0.5,0],[0.855,0.855,0],[0.5,1,0],[0.145,0.855,0],[0,0.5,0]];pointerEvents=1;shape=mxgraph.cisco_safe.compositeIcon;bgIcon=ellipse;resIcon=mxgraph.cisco_safe.capability.intrusion_detection;" vertex="1" parent="1">
          <mxGeometry x="-771.5699999999999" y="790.75" width="47" height="49" as="geometry" />
        </mxCell>
        <mxCell id="jP0ZAHPzeSrmJnEa-QNz-7" value="" style="sketch=0;points=[[0.015,0.015,0],[0.985,0.015,0],[0.985,0.985,0],[0.015,0.985,0],[0.25,0,0],[0.5,0,0],[0.75,0,0],[1,0.25,0],[1,0.5,0],[1,0.75,0],[0.75,1,0],[0.5,1,0],[0.25,1,0],[0,0.75,0],[0,0.5,0],[0,0.25,0]];verticalLabelPosition=bottom;html=1;verticalAlign=top;aspect=fixed;align=center;pointerEvents=1;shape=mxgraph.cisco19.rect;prIcon=next_generation_intrusion_prevention_system;fillColor=#FAFAFA;strokeColor=#005073;" vertex="1" parent="1">
          <mxGeometry x="-721.5699999999999" y="721.25" width="60" height="60" as="geometry" />
        </mxCell>
        <mxCell id="jP0ZAHPzeSrmJnEa-QNz-5" value="" style="verticalLabelPosition=bottom;sketch=0;html=1;fillColor=#A153A0;strokeColor=#ffffff;verticalAlign=top;align=center;points=[[0,0.5,0],[0.125,0.25,0],[0.25,0,0],[0.5,0,0],[0.75,0,0],[0.875,0.25,0],[1,0.5,0],[0.875,0.75,0],[0.75,1,0],[0.5,1,0],[0.125,0.75,0]];pointerEvents=1;shape=mxgraph.cisco_safe.compositeIcon;bgIcon=mxgraph.cisco_safe.design.blank_device;resIcon=mxgraph.cisco_safe.design.intrusion_detection;" vertex="1" parent="1">
          <mxGeometry x="-749.5699999999999" y="756.5" width="58" height="54.75" as="geometry" />
        </mxCell>
        <mxCell id="jP0ZAHPzeSrmJnEa-QNz-9" value="IDS Dataset" style="text;html=1;align=center;verticalAlign=middle;resizable=0;points=[];autosize=1;strokeColor=none;fillColor=none;" vertex="1" parent="1">
          <mxGeometry x="-756.5699999999999" y="839.25" width="90" height="30" as="geometry" />
        </mxCell>
        <mxCell id="jP0ZAHPzeSrmJnEa-QNz-10" value="IOT Network Dataset" style="text;html=1;align=center;verticalAlign=middle;resizable=0;points=[];autosize=1;strokeColor=none;fillColor=none;" vertex="1" parent="1">
          <mxGeometry x="-551.5699999999999" y="836" width="140" height="30" as="geometry" />
        </mxCell>
        <mxCell id="jP0ZAHPzeSrmJnEa-QNz-14" style="edgeStyle=orthogonalEdgeStyle;rounded=0;orthogonalLoop=1;jettySize=auto;html=1;entryX=0.575;entryY=1.004;entryDx=0;entryDy=0;entryPerimeter=0;curved=1;endArrow=none;endFill=0;" edge="1" parent="1" source="jP0ZAHPzeSrmJnEa-QNz-12" target="yI5xxinmUdv7EpqgZZJL-117">
          <mxGeometry relative="1" as="geometry" />
        </mxCell>
        <mxCell id="jP0ZAHPzeSrmJnEa-QNz-20" style="edgeStyle=orthogonalEdgeStyle;rounded=0;orthogonalLoop=1;jettySize=auto;html=1;entryX=0.5;entryY=0;entryDx=0;entryDy=0;" edge="1" parent="1" source="jP0ZAHPzeSrmJnEa-QNz-15" target="yI5xxinmUdv7EpqgZZJL-97">
          <mxGeometry relative="1" as="geometry" />
        </mxCell>
        <mxCell id="jP0ZAHPzeSrmJnEa-QNz-15" value="" style="rounded=1;whiteSpace=wrap;html=1;shadow=1;dashed=1;dashPattern=8 8;fontStyle=1;fontSize=26;" vertex="1" parent="1">
          <mxGeometry x="-142.5" y="-20" width="1070" height="250" as="geometry" />
        </mxCell>
        <mxCell id="jP0ZAHPzeSrmJnEa-QNz-17" value="&lt;span style=&quot;white-space-collapse: preserve;&quot;&gt;Data Visualization&lt;/span&gt;" style="text;html=1;align=center;verticalAlign=middle;resizable=0;points=[];autosize=1;strokeColor=none;fillColor=none;fontSize=26;fontStyle=1" vertex="1" parent="1">
          <mxGeometry x="277.5" y="10" width="230" height="40" as="geometry" />
        </mxCell>
        <mxCell id="jP0ZAHPzeSrmJnEa-QNz-18" value="&lt;span style=&quot;white-space: pre;&quot; data-slate-fragment=&quot;JTVCJTdCJTIydHlwZSUyMiUzQSUyMm5vdGVib29rJTIyJTJDJTIybm90ZWJvb2tJZCUyMiUzQSUyMmU1M2RlZDg2ZDYyOTRmNTk5ZTNjODdkMmZjMDg0ZTg0JTIyJTJDJTIyd29ya2luZ0RpcmVjdG9yeSUyMiUzQW51bGwlMkMlMjJlZGl0b3JNZXRhZGF0YSUyMiUzQSU3QiUyMmRlZXBub3RlX2Z1bGxfd2lkdGglMjIlM0FudWxsJTdEJTJDJTIyYXBwTWV0YWRhdGElMjIlM0ElN0IlMjJkZWVwbm90ZV9hcHBfY2xlYXJfb3V0cHV0cyUyMiUzQW51bGwlMkMlMjJkZWVwbm90ZV9hcHBfY29tbWVudHNfZW5hYmxlZCUyMiUzQW51bGwlMkMlMjJkZWVwbm90ZV9hcHBfZXhlY3V0aW9uX2VuYWJsZWQlMjIlM0FudWxsJTJDJTIyZGVlcG5vdGVfYXBwX2hpZGVfYWxsX2NvZGVfYmxvY2tzX2VuYWJsZWQlMjIlM0FudWxsJTJDJTIyZGVlcG5vdGVfYXBwX3RhYmxlX29mX2NvbnRlbnRzX2VuYWJsZWQlMjIlM0FudWxsJTJDJTIyZGVlcG5vdGVfYXBwX3J1bl9vbl9pbnB1dF9lbmFibGVkJTIyJTNBbnVsbCUyQyUyMmRlZXBub3RlX2FwcF9yZWFjdGl2aXR5X2VuYWJsZWQlMjIlM0F0cnVlJTJDJTIyZGVlcG5vdGVfYXBwX2xheW91dCUyMiUzQSUyMnBvd2VyZnVsLWFydGljbGUlMjIlMkMlMjJkZWVwbm90ZV9hcHBfd2lkdGglMjIlM0ElMjJzdGFuZGFyZCUyMiU3RCUyQyUyMnBlcnNpc3RlZFNlc3Npb25UaW1lc3RhbXAlMjIlM0ExNzEyMTIxOTQ4NDUwJTJDJTIya2VybmVsU3RhdGUlMjIlM0ElN0IlMjJzdGF0dXMlMjIlM0ElMjJtaXNzaW5nJTIyJTJDJTIybmFtZSUyMiUzQW51bGwlMkMlMjJjdXJyZW50bHlFeGVjdXRpbmdJdGVtJTIyJTNBbnVsbCUyQyUyMmJsb2NrRXhlY3V0aW9uUXVldWUlMjIlM0ElNUIlNUQlN0QlMkMlMjJjaGlsZHJlbiUyMiUzQSU1QiU3QiUyMmlkJTIyJTNBJTIyYjVlNTdmYTlhMzJiNDgxYzk5MjUwMzFhNGM0YjVhYzMlMjIlMkMlMjJ2ZXJzaW9uJTIyJTNBNyUyQyUyMnR5cGUlMjIlM0ElMjJ0ZXh0LWNlbGwtaDMlMjIlMkMlMjJzb3J0aW5nX2tleSUyMiUzQSUyMmFMJTIyJTJDJTIyYmxvY2tfZ3JvdXAlMjIlM0ElMjJkNDVkNGFkNmE2ZTI0ODkxYjFlYjRmYzUwZjc3NWQzNCUyMiUyQyUyMm1ldGFkYXRhJTIyJTNBJTdCJTIyZGVlcG5vdGVfYXBwX2Jsb2NrX3Zpc2libGUlMjIlM0F0cnVlJTdEJTJDJTIyY2hpbGRyZW4lMjIlM0ElNUIlN0IlMjJ0ZXh0JTIyJTNBJTIyUGFydGljbGUlMjBTd2FybSUyME9wdGltaXphdGlvbiUyMChQU08pJTIyJTdEJTVEJTdEJTVEJTdEJTVE&quot;&gt;Data Exploration Visualizations&lt;/span&gt;" style="whiteSpace=wrap;html=1;fontSize=26;fontStyle=1" vertex="1" parent="1">
          <mxGeometry x="122" y="80" width="495" height="60" as="geometry" />
        </mxCell>
        <mxCell id="jP0ZAHPzeSrmJnEa-QNz-23" value="&lt;span style=&quot;white-space: pre;&quot; data-slate-fragment=&quot;JTVCJTdCJTIydHlwZSUyMiUzQSUyMm5vdGVib29rJTIyJTJDJTIybm90ZWJvb2tJZCUyMiUzQSUyMmU1M2RlZDg2ZDYyOTRmNTk5ZTNjODdkMmZjMDg0ZTg0JTIyJTJDJTIyd29ya2luZ0RpcmVjdG9yeSUyMiUzQW51bGwlMkMlMjJlZGl0b3JNZXRhZGF0YSUyMiUzQSU3QiUyMmRlZXBub3RlX2Z1bGxfd2lkdGglMjIlM0FudWxsJTdEJTJDJTIyYXBwTWV0YWRhdGElMjIlM0ElN0IlMjJkZWVwbm90ZV9hcHBfY2xlYXJfb3V0cHV0cyUyMiUzQW51bGwlMkMlMjJkZWVwbm90ZV9hcHBfY29tbWVudHNfZW5hYmxlZCUyMiUzQW51bGwlMkMlMjJkZWVwbm90ZV9hcHBfZXhlY3V0aW9uX2VuYWJsZWQlMjIlM0FudWxsJTJDJTIyZGVlcG5vdGVfYXBwX2hpZGVfYWxsX2NvZGVfYmxvY2tzX2VuYWJsZWQlMjIlM0FudWxsJTJDJTIyZGVlcG5vdGVfYXBwX3RhYmxlX29mX2NvbnRlbnRzX2VuYWJsZWQlMjIlM0FudWxsJTJDJTIyZGVlcG5vdGVfYXBwX3J1bl9vbl9pbnB1dF9lbmFibGVkJTIyJTNBbnVsbCUyQyUyMmRlZXBub3RlX2FwcF9yZWFjdGl2aXR5X2VuYWJsZWQlMjIlM0F0cnVlJTJDJTIyZGVlcG5vdGVfYXBwX2xheW91dCUyMiUzQSUyMnBvd2VyZnVsLWFydGljbGUlMjIlMkMlMjJkZWVwbm90ZV9hcHBfd2lkdGglMjIlM0ElMjJzdGFuZGFyZCUyMiU3RCUyQyUyMnBlcnNpc3RlZFNlc3Npb25UaW1lc3RhbXAlMjIlM0ExNzEyMTIxOTQ4NDUwJTJDJTIya2VybmVsU3RhdGUlMjIlM0ElN0IlMjJzdGF0dXMlMjIlM0ElMjJtaXNzaW5nJTIyJTJDJTIybmFtZSUyMiUzQW51bGwlMkMlMjJjdXJyZW50bHlFeGVjdXRpbmdJdGVtJTIyJTNBbnVsbCUyQyUyMmJsb2NrRXhlY3V0aW9uUXVldWUlMjIlM0ElNUIlNUQlN0QlMkMlMjJjaGlsZHJlbiUyMiUzQSU1QiU3QiUyMmlkJTIyJTNBJTIyYjVlNTdmYTlhMzJiNDgxYzk5MjUwMzFhNGM0YjVhYzMlMjIlMkMlMjJ2ZXJzaW9uJTIyJTNBNyUyQyUyMnR5cGUlMjIlM0ElMjJ0ZXh0LWNlbGwtaDMlMjIlMkMlMjJzb3J0aW5nX2tleSUyMiUzQSUyMmFMJTIyJTJDJTIyYmxvY2tfZ3JvdXAlMjIlM0ElMjJkNDVkNGFkNmE2ZTI0ODkxYjFlYjRmYzUwZjc3NWQzNCUyMiUyQyUyMm1ldGFkYXRhJTIyJTNBJTdCJTIyZGVlcG5vdGVfYXBwX2Jsb2NrX3Zpc2libGUlMjIlM0F0cnVlJTdEJTJDJTIyY2hpbGRyZW4lMjIlM0ElNUIlN0IlMjJ0ZXh0JTIyJTNBJTIyUGFydGljbGUlMjBTd2FybSUyME9wdGltaXphdGlvbiUyMChQU08pJTIyJTdEJTVEJTdEJTVEJTdEJTVE&quot;&gt;Front-End User Interface&lt;/span&gt;" style="whiteSpace=wrap;html=1;fontSize=26;fontStyle=1" vertex="1" parent="1">
          <mxGeometry x="3177.5" y="1045.5" width="495" height="60" as="geometry" />
        </mxCell>
        <mxCell id="jP0ZAHPzeSrmJnEa-QNz-24" value="" style="shadow=0;dashed=0;html=1;strokeColor=none;fillColor=#4495D1;labelPosition=center;verticalLabelPosition=bottom;verticalAlign=top;align=center;outlineConnect=0;shape=mxgraph.veeam.2d.web_ui;" vertex="1" parent="1">
          <mxGeometry x="3317.1" y="842.1" width="214.8" height="172.8" as="geometry" />
        </mxCell>
      </root>
    </mxGraphModel>
  </diagram>
</mxfile>
